%TF.GenerationSoftware,KiCad,Pcbnew,9.0.1*%
%TF.CreationDate,2025-05-01T15:15:13-04:00*%
%TF.ProjectId,Rodgers890,526f6467-6572-4733-9839-302e6b696361,rev?*%
%TF.SameCoordinates,Original*%
%TF.FileFunction,Legend,Top*%
%TF.FilePolarity,Positive*%
%FSLAX46Y46*%
G04 Gerber Fmt 4.6, Leading zero omitted, Abs format (unit mm)*
G04 Created by KiCad (PCBNEW 9.0.1) date 2025-05-01 15:15:13*
%MOMM*%
%LPD*%
G01*
G04 APERTURE LIST*
%ADD10C,0.150000*%
%ADD11C,0.329000*%
%ADD12C,0.120000*%
%TA.AperFunction,Profile*%
%ADD13C,0.100000*%
%TD*%
G04 APERTURE END LIST*
D10*
X169672000Y-46228000D02*
X176784000Y-46228000D01*
X176784000Y-46228000D02*
X175514000Y-45720000D01*
D11*
X123354500Y-78232000D02*
G75*
G02*
X123025500Y-78232000I-164500J0D01*
G01*
X123025500Y-78232000D02*
G75*
G02*
X123354500Y-78232000I164500J0D01*
G01*
D10*
X175514000Y-45720000D02*
X175514000Y-46736000D01*
X175514000Y-46736000D02*
X176784000Y-46228000D01*
D11*
X122592500Y-97282000D02*
G75*
G02*
X122263500Y-97282000I-164500J0D01*
G01*
X122263500Y-97282000D02*
G75*
G02*
X122592500Y-97282000I164500J0D01*
G01*
D10*
X137750779Y-46859819D02*
X137750779Y-45859819D01*
X138226969Y-46193152D02*
X138226969Y-46859819D01*
X138226969Y-46288390D02*
X138274588Y-46240771D01*
X138274588Y-46240771D02*
X138369826Y-46193152D01*
X138369826Y-46193152D02*
X138512683Y-46193152D01*
X138512683Y-46193152D02*
X138607921Y-46240771D01*
X138607921Y-46240771D02*
X138655540Y-46336009D01*
X138655540Y-46336009D02*
X138655540Y-46859819D01*
X139084112Y-46812200D02*
X139179350Y-46859819D01*
X139179350Y-46859819D02*
X139369826Y-46859819D01*
X139369826Y-46859819D02*
X139465064Y-46812200D01*
X139465064Y-46812200D02*
X139512683Y-46716961D01*
X139512683Y-46716961D02*
X139512683Y-46669342D01*
X139512683Y-46669342D02*
X139465064Y-46574104D01*
X139465064Y-46574104D02*
X139369826Y-46526485D01*
X139369826Y-46526485D02*
X139226969Y-46526485D01*
X139226969Y-46526485D02*
X139131731Y-46478866D01*
X139131731Y-46478866D02*
X139084112Y-46383628D01*
X139084112Y-46383628D02*
X139084112Y-46336009D01*
X139084112Y-46336009D02*
X139131731Y-46240771D01*
X139131731Y-46240771D02*
X139226969Y-46193152D01*
X139226969Y-46193152D02*
X139369826Y-46193152D01*
X139369826Y-46193152D02*
X139465064Y-46240771D01*
X140322207Y-46812200D02*
X140226969Y-46859819D01*
X140226969Y-46859819D02*
X140036493Y-46859819D01*
X140036493Y-46859819D02*
X139941255Y-46812200D01*
X139941255Y-46812200D02*
X139893636Y-46716961D01*
X139893636Y-46716961D02*
X139893636Y-46336009D01*
X139893636Y-46336009D02*
X139941255Y-46240771D01*
X139941255Y-46240771D02*
X140036493Y-46193152D01*
X140036493Y-46193152D02*
X140226969Y-46193152D01*
X140226969Y-46193152D02*
X140322207Y-46240771D01*
X140322207Y-46240771D02*
X140369826Y-46336009D01*
X140369826Y-46336009D02*
X140369826Y-46431247D01*
X140369826Y-46431247D02*
X139893636Y-46526485D01*
X140798398Y-46859819D02*
X140798398Y-46193152D01*
X140798398Y-46383628D02*
X140846017Y-46288390D01*
X140846017Y-46288390D02*
X140893636Y-46240771D01*
X140893636Y-46240771D02*
X140988874Y-46193152D01*
X140988874Y-46193152D02*
X141084112Y-46193152D01*
X141274589Y-46193152D02*
X141655541Y-46193152D01*
X141417446Y-45859819D02*
X141417446Y-46716961D01*
X141417446Y-46716961D02*
X141465065Y-46812200D01*
X141465065Y-46812200D02*
X141560303Y-46859819D01*
X141560303Y-46859819D02*
X141655541Y-46859819D01*
X142750780Y-46859819D02*
X142750780Y-46193152D01*
X142750780Y-46383628D02*
X142798399Y-46288390D01*
X142798399Y-46288390D02*
X142846018Y-46240771D01*
X142846018Y-46240771D02*
X142941256Y-46193152D01*
X142941256Y-46193152D02*
X143036494Y-46193152D01*
X143369828Y-46859819D02*
X143369828Y-46193152D01*
X143369828Y-45859819D02*
X143322209Y-45907438D01*
X143322209Y-45907438D02*
X143369828Y-45955057D01*
X143369828Y-45955057D02*
X143417447Y-45907438D01*
X143417447Y-45907438D02*
X143369828Y-45859819D01*
X143369828Y-45859819D02*
X143369828Y-45955057D01*
X144274589Y-46193152D02*
X144274589Y-47002676D01*
X144274589Y-47002676D02*
X144226970Y-47097914D01*
X144226970Y-47097914D02*
X144179351Y-47145533D01*
X144179351Y-47145533D02*
X144084113Y-47193152D01*
X144084113Y-47193152D02*
X143941256Y-47193152D01*
X143941256Y-47193152D02*
X143846018Y-47145533D01*
X144274589Y-46812200D02*
X144179351Y-46859819D01*
X144179351Y-46859819D02*
X143988875Y-46859819D01*
X143988875Y-46859819D02*
X143893637Y-46812200D01*
X143893637Y-46812200D02*
X143846018Y-46764580D01*
X143846018Y-46764580D02*
X143798399Y-46669342D01*
X143798399Y-46669342D02*
X143798399Y-46383628D01*
X143798399Y-46383628D02*
X143846018Y-46288390D01*
X143846018Y-46288390D02*
X143893637Y-46240771D01*
X143893637Y-46240771D02*
X143988875Y-46193152D01*
X143988875Y-46193152D02*
X144179351Y-46193152D01*
X144179351Y-46193152D02*
X144274589Y-46240771D01*
X144750780Y-46859819D02*
X144750780Y-45859819D01*
X145179351Y-46859819D02*
X145179351Y-46336009D01*
X145179351Y-46336009D02*
X145131732Y-46240771D01*
X145131732Y-46240771D02*
X145036494Y-46193152D01*
X145036494Y-46193152D02*
X144893637Y-46193152D01*
X144893637Y-46193152D02*
X144798399Y-46240771D01*
X144798399Y-46240771D02*
X144750780Y-46288390D01*
X145512685Y-46193152D02*
X145893637Y-46193152D01*
X145655542Y-45859819D02*
X145655542Y-46716961D01*
X145655542Y-46716961D02*
X145703161Y-46812200D01*
X145703161Y-46812200D02*
X145798399Y-46859819D01*
X145798399Y-46859819D02*
X145893637Y-46859819D01*
X146226971Y-46478866D02*
X146988876Y-46478866D01*
X147465066Y-46193152D02*
X147465066Y-47050295D01*
X147465066Y-47050295D02*
X147417447Y-47145533D01*
X147417447Y-47145533D02*
X147322209Y-47193152D01*
X147322209Y-47193152D02*
X147274590Y-47193152D01*
X147465066Y-45859819D02*
X147417447Y-45907438D01*
X147417447Y-45907438D02*
X147465066Y-45955057D01*
X147465066Y-45955057D02*
X147512685Y-45907438D01*
X147512685Y-45907438D02*
X147465066Y-45859819D01*
X147465066Y-45859819D02*
X147465066Y-45955057D01*
X148369827Y-46193152D02*
X148369827Y-46859819D01*
X147941256Y-46193152D02*
X147941256Y-46716961D01*
X147941256Y-46716961D02*
X147988875Y-46812200D01*
X147988875Y-46812200D02*
X148084113Y-46859819D01*
X148084113Y-46859819D02*
X148226970Y-46859819D01*
X148226970Y-46859819D02*
X148322208Y-46812200D01*
X148322208Y-46812200D02*
X148369827Y-46764580D01*
X148798399Y-46812200D02*
X148893637Y-46859819D01*
X148893637Y-46859819D02*
X149084113Y-46859819D01*
X149084113Y-46859819D02*
X149179351Y-46812200D01*
X149179351Y-46812200D02*
X149226970Y-46716961D01*
X149226970Y-46716961D02*
X149226970Y-46669342D01*
X149226970Y-46669342D02*
X149179351Y-46574104D01*
X149179351Y-46574104D02*
X149084113Y-46526485D01*
X149084113Y-46526485D02*
X148941256Y-46526485D01*
X148941256Y-46526485D02*
X148846018Y-46478866D01*
X148846018Y-46478866D02*
X148798399Y-46383628D01*
X148798399Y-46383628D02*
X148798399Y-46336009D01*
X148798399Y-46336009D02*
X148846018Y-46240771D01*
X148846018Y-46240771D02*
X148941256Y-46193152D01*
X148941256Y-46193152D02*
X149084113Y-46193152D01*
X149084113Y-46193152D02*
X149179351Y-46240771D01*
X149512685Y-46193152D02*
X149893637Y-46193152D01*
X149655542Y-45859819D02*
X149655542Y-46716961D01*
X149655542Y-46716961D02*
X149703161Y-46812200D01*
X149703161Y-46812200D02*
X149798399Y-46859819D01*
X149798399Y-46859819D02*
X149893637Y-46859819D01*
X150226971Y-46859819D02*
X150226971Y-46193152D01*
X150226971Y-45859819D02*
X150179352Y-45907438D01*
X150179352Y-45907438D02*
X150226971Y-45955057D01*
X150226971Y-45955057D02*
X150274590Y-45907438D01*
X150274590Y-45907438D02*
X150226971Y-45859819D01*
X150226971Y-45859819D02*
X150226971Y-45955057D01*
X150560304Y-46193152D02*
X150941256Y-46193152D01*
X150703161Y-46859819D02*
X150703161Y-46002676D01*
X150703161Y-46002676D02*
X150750780Y-45907438D01*
X150750780Y-45907438D02*
X150846018Y-45859819D01*
X150846018Y-45859819D02*
X150941256Y-45859819D01*
X151274590Y-46859819D02*
X151274590Y-46193152D01*
X151274590Y-45859819D02*
X151226971Y-45907438D01*
X151226971Y-45907438D02*
X151274590Y-45955057D01*
X151274590Y-45955057D02*
X151322209Y-45907438D01*
X151322209Y-45907438D02*
X151274590Y-45859819D01*
X151274590Y-45859819D02*
X151274590Y-45955057D01*
X152131732Y-46812200D02*
X152036494Y-46859819D01*
X152036494Y-46859819D02*
X151846018Y-46859819D01*
X151846018Y-46859819D02*
X151750780Y-46812200D01*
X151750780Y-46812200D02*
X151703161Y-46716961D01*
X151703161Y-46716961D02*
X151703161Y-46336009D01*
X151703161Y-46336009D02*
X151750780Y-46240771D01*
X151750780Y-46240771D02*
X151846018Y-46193152D01*
X151846018Y-46193152D02*
X152036494Y-46193152D01*
X152036494Y-46193152D02*
X152131732Y-46240771D01*
X152131732Y-46240771D02*
X152179351Y-46336009D01*
X152179351Y-46336009D02*
X152179351Y-46431247D01*
X152179351Y-46431247D02*
X151703161Y-46526485D01*
X153036494Y-46859819D02*
X153036494Y-45859819D01*
X153036494Y-46812200D02*
X152941256Y-46859819D01*
X152941256Y-46859819D02*
X152750780Y-46859819D01*
X152750780Y-46859819D02*
X152655542Y-46812200D01*
X152655542Y-46812200D02*
X152607923Y-46764580D01*
X152607923Y-46764580D02*
X152560304Y-46669342D01*
X152560304Y-46669342D02*
X152560304Y-46383628D01*
X152560304Y-46383628D02*
X152607923Y-46288390D01*
X152607923Y-46288390D02*
X152655542Y-46240771D01*
X152655542Y-46240771D02*
X152750780Y-46193152D01*
X152750780Y-46193152D02*
X152941256Y-46193152D01*
X152941256Y-46193152D02*
X153036494Y-46240771D01*
X154274590Y-46859819D02*
X154274590Y-46193152D01*
X154274590Y-45859819D02*
X154226971Y-45907438D01*
X154226971Y-45907438D02*
X154274590Y-45955057D01*
X154274590Y-45955057D02*
X154322209Y-45907438D01*
X154322209Y-45907438D02*
X154274590Y-45859819D01*
X154274590Y-45859819D02*
X154274590Y-45955057D01*
X154750780Y-46193152D02*
X154750780Y-46859819D01*
X154750780Y-46288390D02*
X154798399Y-46240771D01*
X154798399Y-46240771D02*
X154893637Y-46193152D01*
X154893637Y-46193152D02*
X155036494Y-46193152D01*
X155036494Y-46193152D02*
X155131732Y-46240771D01*
X155131732Y-46240771D02*
X155179351Y-46336009D01*
X155179351Y-46336009D02*
X155179351Y-46859819D01*
X155512685Y-46193152D02*
X155893637Y-46193152D01*
X155655542Y-45859819D02*
X155655542Y-46716961D01*
X155655542Y-46716961D02*
X155703161Y-46812200D01*
X155703161Y-46812200D02*
X155798399Y-46859819D01*
X155798399Y-46859819D02*
X155893637Y-46859819D01*
X156369828Y-46859819D02*
X156274590Y-46812200D01*
X156274590Y-46812200D02*
X156226971Y-46764580D01*
X156226971Y-46764580D02*
X156179352Y-46669342D01*
X156179352Y-46669342D02*
X156179352Y-46383628D01*
X156179352Y-46383628D02*
X156226971Y-46288390D01*
X156226971Y-46288390D02*
X156274590Y-46240771D01*
X156274590Y-46240771D02*
X156369828Y-46193152D01*
X156369828Y-46193152D02*
X156512685Y-46193152D01*
X156512685Y-46193152D02*
X156607923Y-46240771D01*
X156607923Y-46240771D02*
X156655542Y-46288390D01*
X156655542Y-46288390D02*
X156703161Y-46383628D01*
X156703161Y-46383628D02*
X156703161Y-46669342D01*
X156703161Y-46669342D02*
X156655542Y-46764580D01*
X156655542Y-46764580D02*
X156607923Y-46812200D01*
X156607923Y-46812200D02*
X156512685Y-46859819D01*
X156512685Y-46859819D02*
X156369828Y-46859819D01*
X158465066Y-46764580D02*
X158417447Y-46812200D01*
X158417447Y-46812200D02*
X158274590Y-46859819D01*
X158274590Y-46859819D02*
X158179352Y-46859819D01*
X158179352Y-46859819D02*
X158036495Y-46812200D01*
X158036495Y-46812200D02*
X157941257Y-46716961D01*
X157941257Y-46716961D02*
X157893638Y-46621723D01*
X157893638Y-46621723D02*
X157846019Y-46431247D01*
X157846019Y-46431247D02*
X157846019Y-46288390D01*
X157846019Y-46288390D02*
X157893638Y-46097914D01*
X157893638Y-46097914D02*
X157941257Y-46002676D01*
X157941257Y-46002676D02*
X158036495Y-45907438D01*
X158036495Y-45907438D02*
X158179352Y-45859819D01*
X158179352Y-45859819D02*
X158274590Y-45859819D01*
X158274590Y-45859819D02*
X158417447Y-45907438D01*
X158417447Y-45907438D02*
X158465066Y-45955057D01*
X158893638Y-46859819D02*
X158893638Y-45859819D01*
X158893638Y-45859819D02*
X159274590Y-45859819D01*
X159274590Y-45859819D02*
X159369828Y-45907438D01*
X159369828Y-45907438D02*
X159417447Y-45955057D01*
X159417447Y-45955057D02*
X159465066Y-46050295D01*
X159465066Y-46050295D02*
X159465066Y-46193152D01*
X159465066Y-46193152D02*
X159417447Y-46288390D01*
X159417447Y-46288390D02*
X159369828Y-46336009D01*
X159369828Y-46336009D02*
X159274590Y-46383628D01*
X159274590Y-46383628D02*
X158893638Y-46383628D01*
X159893638Y-45859819D02*
X159893638Y-46669342D01*
X159893638Y-46669342D02*
X159941257Y-46764580D01*
X159941257Y-46764580D02*
X159988876Y-46812200D01*
X159988876Y-46812200D02*
X160084114Y-46859819D01*
X160084114Y-46859819D02*
X160274590Y-46859819D01*
X160274590Y-46859819D02*
X160369828Y-46812200D01*
X160369828Y-46812200D02*
X160417447Y-46764580D01*
X160417447Y-46764580D02*
X160465066Y-46669342D01*
X160465066Y-46669342D02*
X160465066Y-45859819D01*
X162131733Y-46812200D02*
X162036495Y-46859819D01*
X162036495Y-46859819D02*
X161846019Y-46859819D01*
X161846019Y-46859819D02*
X161750781Y-46812200D01*
X161750781Y-46812200D02*
X161703162Y-46764580D01*
X161703162Y-46764580D02*
X161655543Y-46669342D01*
X161655543Y-46669342D02*
X161655543Y-46383628D01*
X161655543Y-46383628D02*
X161703162Y-46288390D01*
X161703162Y-46288390D02*
X161750781Y-46240771D01*
X161750781Y-46240771D02*
X161846019Y-46193152D01*
X161846019Y-46193152D02*
X162036495Y-46193152D01*
X162036495Y-46193152D02*
X162131733Y-46240771D01*
X162703162Y-46859819D02*
X162607924Y-46812200D01*
X162607924Y-46812200D02*
X162560305Y-46764580D01*
X162560305Y-46764580D02*
X162512686Y-46669342D01*
X162512686Y-46669342D02*
X162512686Y-46383628D01*
X162512686Y-46383628D02*
X162560305Y-46288390D01*
X162560305Y-46288390D02*
X162607924Y-46240771D01*
X162607924Y-46240771D02*
X162703162Y-46193152D01*
X162703162Y-46193152D02*
X162846019Y-46193152D01*
X162846019Y-46193152D02*
X162941257Y-46240771D01*
X162941257Y-46240771D02*
X162988876Y-46288390D01*
X162988876Y-46288390D02*
X163036495Y-46383628D01*
X163036495Y-46383628D02*
X163036495Y-46669342D01*
X163036495Y-46669342D02*
X162988876Y-46764580D01*
X162988876Y-46764580D02*
X162941257Y-46812200D01*
X162941257Y-46812200D02*
X162846019Y-46859819D01*
X162846019Y-46859819D02*
X162703162Y-46859819D01*
X163465067Y-46193152D02*
X163465067Y-46859819D01*
X163465067Y-46288390D02*
X163512686Y-46240771D01*
X163512686Y-46240771D02*
X163607924Y-46193152D01*
X163607924Y-46193152D02*
X163750781Y-46193152D01*
X163750781Y-46193152D02*
X163846019Y-46240771D01*
X163846019Y-46240771D02*
X163893638Y-46336009D01*
X163893638Y-46336009D02*
X163893638Y-46859819D01*
X164369829Y-46193152D02*
X164369829Y-46859819D01*
X164369829Y-46288390D02*
X164417448Y-46240771D01*
X164417448Y-46240771D02*
X164512686Y-46193152D01*
X164512686Y-46193152D02*
X164655543Y-46193152D01*
X164655543Y-46193152D02*
X164750781Y-46240771D01*
X164750781Y-46240771D02*
X164798400Y-46336009D01*
X164798400Y-46336009D02*
X164798400Y-46859819D01*
X165655543Y-46812200D02*
X165560305Y-46859819D01*
X165560305Y-46859819D02*
X165369829Y-46859819D01*
X165369829Y-46859819D02*
X165274591Y-46812200D01*
X165274591Y-46812200D02*
X165226972Y-46716961D01*
X165226972Y-46716961D02*
X165226972Y-46336009D01*
X165226972Y-46336009D02*
X165274591Y-46240771D01*
X165274591Y-46240771D02*
X165369829Y-46193152D01*
X165369829Y-46193152D02*
X165560305Y-46193152D01*
X165560305Y-46193152D02*
X165655543Y-46240771D01*
X165655543Y-46240771D02*
X165703162Y-46336009D01*
X165703162Y-46336009D02*
X165703162Y-46431247D01*
X165703162Y-46431247D02*
X165226972Y-46526485D01*
X166560305Y-46812200D02*
X166465067Y-46859819D01*
X166465067Y-46859819D02*
X166274591Y-46859819D01*
X166274591Y-46859819D02*
X166179353Y-46812200D01*
X166179353Y-46812200D02*
X166131734Y-46764580D01*
X166131734Y-46764580D02*
X166084115Y-46669342D01*
X166084115Y-46669342D02*
X166084115Y-46383628D01*
X166084115Y-46383628D02*
X166131734Y-46288390D01*
X166131734Y-46288390D02*
X166179353Y-46240771D01*
X166179353Y-46240771D02*
X166274591Y-46193152D01*
X166274591Y-46193152D02*
X166465067Y-46193152D01*
X166465067Y-46193152D02*
X166560305Y-46240771D01*
X166846020Y-46193152D02*
X167226972Y-46193152D01*
X166988877Y-45859819D02*
X166988877Y-46716961D01*
X166988877Y-46716961D02*
X167036496Y-46812200D01*
X167036496Y-46812200D02*
X167131734Y-46859819D01*
X167131734Y-46859819D02*
X167226972Y-46859819D01*
X167703163Y-46859819D02*
X167607925Y-46812200D01*
X167607925Y-46812200D02*
X167560306Y-46764580D01*
X167560306Y-46764580D02*
X167512687Y-46669342D01*
X167512687Y-46669342D02*
X167512687Y-46383628D01*
X167512687Y-46383628D02*
X167560306Y-46288390D01*
X167560306Y-46288390D02*
X167607925Y-46240771D01*
X167607925Y-46240771D02*
X167703163Y-46193152D01*
X167703163Y-46193152D02*
X167846020Y-46193152D01*
X167846020Y-46193152D02*
X167941258Y-46240771D01*
X167941258Y-46240771D02*
X167988877Y-46288390D01*
X167988877Y-46288390D02*
X168036496Y-46383628D01*
X168036496Y-46383628D02*
X168036496Y-46669342D01*
X168036496Y-46669342D02*
X167988877Y-46764580D01*
X167988877Y-46764580D02*
X167941258Y-46812200D01*
X167941258Y-46812200D02*
X167846020Y-46859819D01*
X167846020Y-46859819D02*
X167703163Y-46859819D01*
X168465068Y-46859819D02*
X168465068Y-46193152D01*
X168465068Y-46383628D02*
X168512687Y-46288390D01*
X168512687Y-46288390D02*
X168560306Y-46240771D01*
X168560306Y-46240771D02*
X168655544Y-46193152D01*
X168655544Y-46193152D02*
X168750782Y-46193152D01*
X150403160Y-119726104D02*
X150879350Y-119726104D01*
X150307922Y-120011819D02*
X150641255Y-119011819D01*
X150641255Y-119011819D02*
X150974588Y-120011819D01*
X151307922Y-120011819D02*
X151307922Y-119345152D01*
X151307922Y-119535628D02*
X151355541Y-119440390D01*
X151355541Y-119440390D02*
X151403160Y-119392771D01*
X151403160Y-119392771D02*
X151498398Y-119345152D01*
X151498398Y-119345152D02*
X151593636Y-119345152D01*
X152355541Y-120011819D02*
X152355541Y-119011819D01*
X152355541Y-119964200D02*
X152260303Y-120011819D01*
X152260303Y-120011819D02*
X152069827Y-120011819D01*
X152069827Y-120011819D02*
X151974589Y-119964200D01*
X151974589Y-119964200D02*
X151926970Y-119916580D01*
X151926970Y-119916580D02*
X151879351Y-119821342D01*
X151879351Y-119821342D02*
X151879351Y-119535628D01*
X151879351Y-119535628D02*
X151926970Y-119440390D01*
X151926970Y-119440390D02*
X151974589Y-119392771D01*
X151974589Y-119392771D02*
X152069827Y-119345152D01*
X152069827Y-119345152D02*
X152260303Y-119345152D01*
X152260303Y-119345152D02*
X152355541Y-119392771D01*
X153260303Y-119345152D02*
X153260303Y-120011819D01*
X152831732Y-119345152D02*
X152831732Y-119868961D01*
X152831732Y-119868961D02*
X152879351Y-119964200D01*
X152879351Y-119964200D02*
X152974589Y-120011819D01*
X152974589Y-120011819D02*
X153117446Y-120011819D01*
X153117446Y-120011819D02*
X153212684Y-119964200D01*
X153212684Y-119964200D02*
X153260303Y-119916580D01*
X153736494Y-120011819D02*
X153736494Y-119345152D01*
X153736494Y-119011819D02*
X153688875Y-119059438D01*
X153688875Y-119059438D02*
X153736494Y-119107057D01*
X153736494Y-119107057D02*
X153784113Y-119059438D01*
X153784113Y-119059438D02*
X153736494Y-119011819D01*
X153736494Y-119011819D02*
X153736494Y-119107057D01*
X154212684Y-119345152D02*
X154212684Y-120011819D01*
X154212684Y-119440390D02*
X154260303Y-119392771D01*
X154260303Y-119392771D02*
X154355541Y-119345152D01*
X154355541Y-119345152D02*
X154498398Y-119345152D01*
X154498398Y-119345152D02*
X154593636Y-119392771D01*
X154593636Y-119392771D02*
X154641255Y-119488009D01*
X154641255Y-119488009D02*
X154641255Y-120011819D01*
X155260303Y-120011819D02*
X155165065Y-119964200D01*
X155165065Y-119964200D02*
X155117446Y-119916580D01*
X155117446Y-119916580D02*
X155069827Y-119821342D01*
X155069827Y-119821342D02*
X155069827Y-119535628D01*
X155069827Y-119535628D02*
X155117446Y-119440390D01*
X155117446Y-119440390D02*
X155165065Y-119392771D01*
X155165065Y-119392771D02*
X155260303Y-119345152D01*
X155260303Y-119345152D02*
X155403160Y-119345152D01*
X155403160Y-119345152D02*
X155498398Y-119392771D01*
X155498398Y-119392771D02*
X155546017Y-119440390D01*
X155546017Y-119440390D02*
X155593636Y-119535628D01*
X155593636Y-119535628D02*
X155593636Y-119821342D01*
X155593636Y-119821342D02*
X155546017Y-119916580D01*
X155546017Y-119916580D02*
X155498398Y-119964200D01*
X155498398Y-119964200D02*
X155403160Y-120011819D01*
X155403160Y-120011819D02*
X155260303Y-120011819D01*
X157260303Y-120011819D02*
X156784113Y-120011819D01*
X156784113Y-120011819D02*
X156784113Y-119011819D01*
X157974589Y-119964200D02*
X157879351Y-120011819D01*
X157879351Y-120011819D02*
X157688875Y-120011819D01*
X157688875Y-120011819D02*
X157593637Y-119964200D01*
X157593637Y-119964200D02*
X157546018Y-119868961D01*
X157546018Y-119868961D02*
X157546018Y-119488009D01*
X157546018Y-119488009D02*
X157593637Y-119392771D01*
X157593637Y-119392771D02*
X157688875Y-119345152D01*
X157688875Y-119345152D02*
X157879351Y-119345152D01*
X157879351Y-119345152D02*
X157974589Y-119392771D01*
X157974589Y-119392771D02*
X158022208Y-119488009D01*
X158022208Y-119488009D02*
X158022208Y-119583247D01*
X158022208Y-119583247D02*
X157546018Y-119678485D01*
X158593637Y-120011819D02*
X158498399Y-119964200D01*
X158498399Y-119964200D02*
X158450780Y-119916580D01*
X158450780Y-119916580D02*
X158403161Y-119821342D01*
X158403161Y-119821342D02*
X158403161Y-119535628D01*
X158403161Y-119535628D02*
X158450780Y-119440390D01*
X158450780Y-119440390D02*
X158498399Y-119392771D01*
X158498399Y-119392771D02*
X158593637Y-119345152D01*
X158593637Y-119345152D02*
X158736494Y-119345152D01*
X158736494Y-119345152D02*
X158831732Y-119392771D01*
X158831732Y-119392771D02*
X158879351Y-119440390D01*
X158879351Y-119440390D02*
X158926970Y-119535628D01*
X158926970Y-119535628D02*
X158926970Y-119821342D01*
X158926970Y-119821342D02*
X158879351Y-119916580D01*
X158879351Y-119916580D02*
X158831732Y-119964200D01*
X158831732Y-119964200D02*
X158736494Y-120011819D01*
X158736494Y-120011819D02*
X158593637Y-120011819D01*
X159355542Y-119345152D02*
X159355542Y-120011819D01*
X159355542Y-119440390D02*
X159403161Y-119392771D01*
X159403161Y-119392771D02*
X159498399Y-119345152D01*
X159498399Y-119345152D02*
X159641256Y-119345152D01*
X159641256Y-119345152D02*
X159736494Y-119392771D01*
X159736494Y-119392771D02*
X159784113Y-119488009D01*
X159784113Y-119488009D02*
X159784113Y-120011819D01*
X160688875Y-120011819D02*
X160688875Y-119488009D01*
X160688875Y-119488009D02*
X160641256Y-119392771D01*
X160641256Y-119392771D02*
X160546018Y-119345152D01*
X160546018Y-119345152D02*
X160355542Y-119345152D01*
X160355542Y-119345152D02*
X160260304Y-119392771D01*
X160688875Y-119964200D02*
X160593637Y-120011819D01*
X160593637Y-120011819D02*
X160355542Y-120011819D01*
X160355542Y-120011819D02*
X160260304Y-119964200D01*
X160260304Y-119964200D02*
X160212685Y-119868961D01*
X160212685Y-119868961D02*
X160212685Y-119773723D01*
X160212685Y-119773723D02*
X160260304Y-119678485D01*
X160260304Y-119678485D02*
X160355542Y-119630866D01*
X160355542Y-119630866D02*
X160593637Y-119630866D01*
X160593637Y-119630866D02*
X160688875Y-119583247D01*
X161165066Y-120011819D02*
X161165066Y-119345152D01*
X161165066Y-119535628D02*
X161212685Y-119440390D01*
X161212685Y-119440390D02*
X161260304Y-119392771D01*
X161260304Y-119392771D02*
X161355542Y-119345152D01*
X161355542Y-119345152D02*
X161450780Y-119345152D01*
X162212685Y-120011819D02*
X162212685Y-119011819D01*
X162212685Y-119964200D02*
X162117447Y-120011819D01*
X162117447Y-120011819D02*
X161926971Y-120011819D01*
X161926971Y-120011819D02*
X161831733Y-119964200D01*
X161831733Y-119964200D02*
X161784114Y-119916580D01*
X161784114Y-119916580D02*
X161736495Y-119821342D01*
X161736495Y-119821342D02*
X161736495Y-119535628D01*
X161736495Y-119535628D02*
X161784114Y-119440390D01*
X161784114Y-119440390D02*
X161831733Y-119392771D01*
X161831733Y-119392771D02*
X161926971Y-119345152D01*
X161926971Y-119345152D02*
X162117447Y-119345152D01*
X162117447Y-119345152D02*
X162212685Y-119392771D01*
X162831733Y-120011819D02*
X162736495Y-119964200D01*
X162736495Y-119964200D02*
X162688876Y-119916580D01*
X162688876Y-119916580D02*
X162641257Y-119821342D01*
X162641257Y-119821342D02*
X162641257Y-119535628D01*
X162641257Y-119535628D02*
X162688876Y-119440390D01*
X162688876Y-119440390D02*
X162736495Y-119392771D01*
X162736495Y-119392771D02*
X162831733Y-119345152D01*
X162831733Y-119345152D02*
X162974590Y-119345152D01*
X162974590Y-119345152D02*
X163069828Y-119392771D01*
X163069828Y-119392771D02*
X163117447Y-119440390D01*
X163117447Y-119440390D02*
X163165066Y-119535628D01*
X163165066Y-119535628D02*
X163165066Y-119821342D01*
X163165066Y-119821342D02*
X163117447Y-119916580D01*
X163117447Y-119916580D02*
X163069828Y-119964200D01*
X163069828Y-119964200D02*
X162974590Y-120011819D01*
X162974590Y-120011819D02*
X162831733Y-120011819D01*
X188673931Y-110089792D02*
X188197740Y-110423125D01*
X188673931Y-110661220D02*
X187673931Y-110661220D01*
X187673931Y-110661220D02*
X187673931Y-110280268D01*
X187673931Y-110280268D02*
X187721550Y-110185030D01*
X187721550Y-110185030D02*
X187769169Y-110137411D01*
X187769169Y-110137411D02*
X187864407Y-110089792D01*
X187864407Y-110089792D02*
X188007264Y-110089792D01*
X188007264Y-110089792D02*
X188102502Y-110137411D01*
X188102502Y-110137411D02*
X188150121Y-110185030D01*
X188150121Y-110185030D02*
X188197740Y-110280268D01*
X188197740Y-110280268D02*
X188197740Y-110661220D01*
X188673931Y-109518363D02*
X188626312Y-109613601D01*
X188626312Y-109613601D02*
X188578692Y-109661220D01*
X188578692Y-109661220D02*
X188483454Y-109708839D01*
X188483454Y-109708839D02*
X188197740Y-109708839D01*
X188197740Y-109708839D02*
X188102502Y-109661220D01*
X188102502Y-109661220D02*
X188054883Y-109613601D01*
X188054883Y-109613601D02*
X188007264Y-109518363D01*
X188007264Y-109518363D02*
X188007264Y-109375506D01*
X188007264Y-109375506D02*
X188054883Y-109280268D01*
X188054883Y-109280268D02*
X188102502Y-109232649D01*
X188102502Y-109232649D02*
X188197740Y-109185030D01*
X188197740Y-109185030D02*
X188483454Y-109185030D01*
X188483454Y-109185030D02*
X188578692Y-109232649D01*
X188578692Y-109232649D02*
X188626312Y-109280268D01*
X188626312Y-109280268D02*
X188673931Y-109375506D01*
X188673931Y-109375506D02*
X188673931Y-109518363D01*
X188673931Y-108327887D02*
X187673931Y-108327887D01*
X188626312Y-108327887D02*
X188673931Y-108423125D01*
X188673931Y-108423125D02*
X188673931Y-108613601D01*
X188673931Y-108613601D02*
X188626312Y-108708839D01*
X188626312Y-108708839D02*
X188578692Y-108756458D01*
X188578692Y-108756458D02*
X188483454Y-108804077D01*
X188483454Y-108804077D02*
X188197740Y-108804077D01*
X188197740Y-108804077D02*
X188102502Y-108756458D01*
X188102502Y-108756458D02*
X188054883Y-108708839D01*
X188054883Y-108708839D02*
X188007264Y-108613601D01*
X188007264Y-108613601D02*
X188007264Y-108423125D01*
X188007264Y-108423125D02*
X188054883Y-108327887D01*
X188007264Y-107423125D02*
X188816788Y-107423125D01*
X188816788Y-107423125D02*
X188912026Y-107470744D01*
X188912026Y-107470744D02*
X188959645Y-107518363D01*
X188959645Y-107518363D02*
X189007264Y-107613601D01*
X189007264Y-107613601D02*
X189007264Y-107756458D01*
X189007264Y-107756458D02*
X188959645Y-107851696D01*
X188626312Y-107423125D02*
X188673931Y-107518363D01*
X188673931Y-107518363D02*
X188673931Y-107708839D01*
X188673931Y-107708839D02*
X188626312Y-107804077D01*
X188626312Y-107804077D02*
X188578692Y-107851696D01*
X188578692Y-107851696D02*
X188483454Y-107899315D01*
X188483454Y-107899315D02*
X188197740Y-107899315D01*
X188197740Y-107899315D02*
X188102502Y-107851696D01*
X188102502Y-107851696D02*
X188054883Y-107804077D01*
X188054883Y-107804077D02*
X188007264Y-107708839D01*
X188007264Y-107708839D02*
X188007264Y-107518363D01*
X188007264Y-107518363D02*
X188054883Y-107423125D01*
X188626312Y-106565982D02*
X188673931Y-106661220D01*
X188673931Y-106661220D02*
X188673931Y-106851696D01*
X188673931Y-106851696D02*
X188626312Y-106946934D01*
X188626312Y-106946934D02*
X188531073Y-106994553D01*
X188531073Y-106994553D02*
X188150121Y-106994553D01*
X188150121Y-106994553D02*
X188054883Y-106946934D01*
X188054883Y-106946934D02*
X188007264Y-106851696D01*
X188007264Y-106851696D02*
X188007264Y-106661220D01*
X188007264Y-106661220D02*
X188054883Y-106565982D01*
X188054883Y-106565982D02*
X188150121Y-106518363D01*
X188150121Y-106518363D02*
X188245359Y-106518363D01*
X188245359Y-106518363D02*
X188340597Y-106994553D01*
X188673931Y-106089791D02*
X188007264Y-106089791D01*
X188197740Y-106089791D02*
X188102502Y-106042172D01*
X188102502Y-106042172D02*
X188054883Y-105994553D01*
X188054883Y-105994553D02*
X188007264Y-105899315D01*
X188007264Y-105899315D02*
X188007264Y-105804077D01*
X188626312Y-105518362D02*
X188673931Y-105423124D01*
X188673931Y-105423124D02*
X188673931Y-105232648D01*
X188673931Y-105232648D02*
X188626312Y-105137410D01*
X188626312Y-105137410D02*
X188531073Y-105089791D01*
X188531073Y-105089791D02*
X188483454Y-105089791D01*
X188483454Y-105089791D02*
X188388216Y-105137410D01*
X188388216Y-105137410D02*
X188340597Y-105232648D01*
X188340597Y-105232648D02*
X188340597Y-105375505D01*
X188340597Y-105375505D02*
X188292978Y-105470743D01*
X188292978Y-105470743D02*
X188197740Y-105518362D01*
X188197740Y-105518362D02*
X188150121Y-105518362D01*
X188150121Y-105518362D02*
X188054883Y-105470743D01*
X188054883Y-105470743D02*
X188007264Y-105375505D01*
X188007264Y-105375505D02*
X188007264Y-105232648D01*
X188007264Y-105232648D02*
X188054883Y-105137410D01*
X188102502Y-103756457D02*
X188054883Y-103851695D01*
X188054883Y-103851695D02*
X188007264Y-103899314D01*
X188007264Y-103899314D02*
X187912026Y-103946933D01*
X187912026Y-103946933D02*
X187864407Y-103946933D01*
X187864407Y-103946933D02*
X187769169Y-103899314D01*
X187769169Y-103899314D02*
X187721550Y-103851695D01*
X187721550Y-103851695D02*
X187673931Y-103756457D01*
X187673931Y-103756457D02*
X187673931Y-103565981D01*
X187673931Y-103565981D02*
X187721550Y-103470743D01*
X187721550Y-103470743D02*
X187769169Y-103423124D01*
X187769169Y-103423124D02*
X187864407Y-103375505D01*
X187864407Y-103375505D02*
X187912026Y-103375505D01*
X187912026Y-103375505D02*
X188007264Y-103423124D01*
X188007264Y-103423124D02*
X188054883Y-103470743D01*
X188054883Y-103470743D02*
X188102502Y-103565981D01*
X188102502Y-103565981D02*
X188102502Y-103756457D01*
X188102502Y-103756457D02*
X188150121Y-103851695D01*
X188150121Y-103851695D02*
X188197740Y-103899314D01*
X188197740Y-103899314D02*
X188292978Y-103946933D01*
X188292978Y-103946933D02*
X188483454Y-103946933D01*
X188483454Y-103946933D02*
X188578692Y-103899314D01*
X188578692Y-103899314D02*
X188626312Y-103851695D01*
X188626312Y-103851695D02*
X188673931Y-103756457D01*
X188673931Y-103756457D02*
X188673931Y-103565981D01*
X188673931Y-103565981D02*
X188626312Y-103470743D01*
X188626312Y-103470743D02*
X188578692Y-103423124D01*
X188578692Y-103423124D02*
X188483454Y-103375505D01*
X188483454Y-103375505D02*
X188292978Y-103375505D01*
X188292978Y-103375505D02*
X188197740Y-103423124D01*
X188197740Y-103423124D02*
X188150121Y-103470743D01*
X188150121Y-103470743D02*
X188102502Y-103565981D01*
X188673931Y-102899314D02*
X188673931Y-102708838D01*
X188673931Y-102708838D02*
X188626312Y-102613600D01*
X188626312Y-102613600D02*
X188578692Y-102565981D01*
X188578692Y-102565981D02*
X188435835Y-102470743D01*
X188435835Y-102470743D02*
X188245359Y-102423124D01*
X188245359Y-102423124D02*
X187864407Y-102423124D01*
X187864407Y-102423124D02*
X187769169Y-102470743D01*
X187769169Y-102470743D02*
X187721550Y-102518362D01*
X187721550Y-102518362D02*
X187673931Y-102613600D01*
X187673931Y-102613600D02*
X187673931Y-102804076D01*
X187673931Y-102804076D02*
X187721550Y-102899314D01*
X187721550Y-102899314D02*
X187769169Y-102946933D01*
X187769169Y-102946933D02*
X187864407Y-102994552D01*
X187864407Y-102994552D02*
X188102502Y-102994552D01*
X188102502Y-102994552D02*
X188197740Y-102946933D01*
X188197740Y-102946933D02*
X188245359Y-102899314D01*
X188245359Y-102899314D02*
X188292978Y-102804076D01*
X188292978Y-102804076D02*
X188292978Y-102613600D01*
X188292978Y-102613600D02*
X188245359Y-102518362D01*
X188245359Y-102518362D02*
X188197740Y-102470743D01*
X188197740Y-102470743D02*
X188102502Y-102423124D01*
X187673931Y-101804076D02*
X187673931Y-101708838D01*
X187673931Y-101708838D02*
X187721550Y-101613600D01*
X187721550Y-101613600D02*
X187769169Y-101565981D01*
X187769169Y-101565981D02*
X187864407Y-101518362D01*
X187864407Y-101518362D02*
X188054883Y-101470743D01*
X188054883Y-101470743D02*
X188292978Y-101470743D01*
X188292978Y-101470743D02*
X188483454Y-101518362D01*
X188483454Y-101518362D02*
X188578692Y-101565981D01*
X188578692Y-101565981D02*
X188626312Y-101613600D01*
X188626312Y-101613600D02*
X188673931Y-101708838D01*
X188673931Y-101708838D02*
X188673931Y-101804076D01*
X188673931Y-101804076D02*
X188626312Y-101899314D01*
X188626312Y-101899314D02*
X188578692Y-101946933D01*
X188578692Y-101946933D02*
X188483454Y-101994552D01*
X188483454Y-101994552D02*
X188292978Y-102042171D01*
X188292978Y-102042171D02*
X188054883Y-102042171D01*
X188054883Y-102042171D02*
X187864407Y-101994552D01*
X187864407Y-101994552D02*
X187769169Y-101946933D01*
X187769169Y-101946933D02*
X187721550Y-101899314D01*
X187721550Y-101899314D02*
X187673931Y-101804076D01*
X188673931Y-100280266D02*
X187673931Y-100280266D01*
X188007264Y-99804076D02*
X188673931Y-99804076D01*
X188102502Y-99804076D02*
X188054883Y-99756457D01*
X188054883Y-99756457D02*
X188007264Y-99661219D01*
X188007264Y-99661219D02*
X188007264Y-99518362D01*
X188007264Y-99518362D02*
X188054883Y-99423124D01*
X188054883Y-99423124D02*
X188150121Y-99375505D01*
X188150121Y-99375505D02*
X188673931Y-99375505D01*
X188007264Y-99042171D02*
X188007264Y-98661219D01*
X187673931Y-98899314D02*
X188531073Y-98899314D01*
X188531073Y-98899314D02*
X188626312Y-98851695D01*
X188626312Y-98851695D02*
X188673931Y-98756457D01*
X188673931Y-98756457D02*
X188673931Y-98661219D01*
X188626312Y-97946933D02*
X188673931Y-98042171D01*
X188673931Y-98042171D02*
X188673931Y-98232647D01*
X188673931Y-98232647D02*
X188626312Y-98327885D01*
X188626312Y-98327885D02*
X188531073Y-98375504D01*
X188531073Y-98375504D02*
X188150121Y-98375504D01*
X188150121Y-98375504D02*
X188054883Y-98327885D01*
X188054883Y-98327885D02*
X188007264Y-98232647D01*
X188007264Y-98232647D02*
X188007264Y-98042171D01*
X188007264Y-98042171D02*
X188054883Y-97946933D01*
X188054883Y-97946933D02*
X188150121Y-97899314D01*
X188150121Y-97899314D02*
X188245359Y-97899314D01*
X188245359Y-97899314D02*
X188340597Y-98375504D01*
X188673931Y-97470742D02*
X188007264Y-97470742D01*
X188197740Y-97470742D02*
X188102502Y-97423123D01*
X188102502Y-97423123D02*
X188054883Y-97375504D01*
X188054883Y-97375504D02*
X188007264Y-97280266D01*
X188007264Y-97280266D02*
X188007264Y-97185028D01*
X188007264Y-96994551D02*
X188007264Y-96613599D01*
X188673931Y-96851694D02*
X187816788Y-96851694D01*
X187816788Y-96851694D02*
X187721550Y-96804075D01*
X187721550Y-96804075D02*
X187673931Y-96708837D01*
X187673931Y-96708837D02*
X187673931Y-96613599D01*
X188673931Y-95851694D02*
X188150121Y-95851694D01*
X188150121Y-95851694D02*
X188054883Y-95899313D01*
X188054883Y-95899313D02*
X188007264Y-95994551D01*
X188007264Y-95994551D02*
X188007264Y-96185027D01*
X188007264Y-96185027D02*
X188054883Y-96280265D01*
X188626312Y-95851694D02*
X188673931Y-95946932D01*
X188673931Y-95946932D02*
X188673931Y-96185027D01*
X188673931Y-96185027D02*
X188626312Y-96280265D01*
X188626312Y-96280265D02*
X188531073Y-96327884D01*
X188531073Y-96327884D02*
X188435835Y-96327884D01*
X188435835Y-96327884D02*
X188340597Y-96280265D01*
X188340597Y-96280265D02*
X188292978Y-96185027D01*
X188292978Y-96185027D02*
X188292978Y-95946932D01*
X188292978Y-95946932D02*
X188245359Y-95851694D01*
X188626312Y-94946932D02*
X188673931Y-95042170D01*
X188673931Y-95042170D02*
X188673931Y-95232646D01*
X188673931Y-95232646D02*
X188626312Y-95327884D01*
X188626312Y-95327884D02*
X188578692Y-95375503D01*
X188578692Y-95375503D02*
X188483454Y-95423122D01*
X188483454Y-95423122D02*
X188197740Y-95423122D01*
X188197740Y-95423122D02*
X188102502Y-95375503D01*
X188102502Y-95375503D02*
X188054883Y-95327884D01*
X188054883Y-95327884D02*
X188007264Y-95232646D01*
X188007264Y-95232646D02*
X188007264Y-95042170D01*
X188007264Y-95042170D02*
X188054883Y-94946932D01*
X188626312Y-94137408D02*
X188673931Y-94232646D01*
X188673931Y-94232646D02*
X188673931Y-94423122D01*
X188673931Y-94423122D02*
X188626312Y-94518360D01*
X188626312Y-94518360D02*
X188531073Y-94565979D01*
X188531073Y-94565979D02*
X188150121Y-94565979D01*
X188150121Y-94565979D02*
X188054883Y-94518360D01*
X188054883Y-94518360D02*
X188007264Y-94423122D01*
X188007264Y-94423122D02*
X188007264Y-94232646D01*
X188007264Y-94232646D02*
X188054883Y-94137408D01*
X188054883Y-94137408D02*
X188150121Y-94089789D01*
X188150121Y-94089789D02*
X188245359Y-94089789D01*
X188245359Y-94089789D02*
X188340597Y-94565979D01*
X190188636Y-110089792D02*
X190236256Y-110137411D01*
X190236256Y-110137411D02*
X190283875Y-110280268D01*
X190283875Y-110280268D02*
X190283875Y-110375506D01*
X190283875Y-110375506D02*
X190236256Y-110518363D01*
X190236256Y-110518363D02*
X190141017Y-110613601D01*
X190141017Y-110613601D02*
X190045779Y-110661220D01*
X190045779Y-110661220D02*
X189855303Y-110708839D01*
X189855303Y-110708839D02*
X189712446Y-110708839D01*
X189712446Y-110708839D02*
X189521970Y-110661220D01*
X189521970Y-110661220D02*
X189426732Y-110613601D01*
X189426732Y-110613601D02*
X189331494Y-110518363D01*
X189331494Y-110518363D02*
X189283875Y-110375506D01*
X189283875Y-110375506D02*
X189283875Y-110280268D01*
X189283875Y-110280268D02*
X189331494Y-110137411D01*
X189331494Y-110137411D02*
X189379113Y-110089792D01*
X190283875Y-109518363D02*
X190236256Y-109613601D01*
X190236256Y-109613601D02*
X190188636Y-109661220D01*
X190188636Y-109661220D02*
X190093398Y-109708839D01*
X190093398Y-109708839D02*
X189807684Y-109708839D01*
X189807684Y-109708839D02*
X189712446Y-109661220D01*
X189712446Y-109661220D02*
X189664827Y-109613601D01*
X189664827Y-109613601D02*
X189617208Y-109518363D01*
X189617208Y-109518363D02*
X189617208Y-109375506D01*
X189617208Y-109375506D02*
X189664827Y-109280268D01*
X189664827Y-109280268D02*
X189712446Y-109232649D01*
X189712446Y-109232649D02*
X189807684Y-109185030D01*
X189807684Y-109185030D02*
X190093398Y-109185030D01*
X190093398Y-109185030D02*
X190188636Y-109232649D01*
X190188636Y-109232649D02*
X190236256Y-109280268D01*
X190236256Y-109280268D02*
X190283875Y-109375506D01*
X190283875Y-109375506D02*
X190283875Y-109518363D01*
X189617208Y-108756458D02*
X190617208Y-108756458D01*
X189664827Y-108756458D02*
X189617208Y-108661220D01*
X189617208Y-108661220D02*
X189617208Y-108470744D01*
X189617208Y-108470744D02*
X189664827Y-108375506D01*
X189664827Y-108375506D02*
X189712446Y-108327887D01*
X189712446Y-108327887D02*
X189807684Y-108280268D01*
X189807684Y-108280268D02*
X190093398Y-108280268D01*
X190093398Y-108280268D02*
X190188636Y-108327887D01*
X190188636Y-108327887D02*
X190236256Y-108375506D01*
X190236256Y-108375506D02*
X190283875Y-108470744D01*
X190283875Y-108470744D02*
X190283875Y-108661220D01*
X190283875Y-108661220D02*
X190236256Y-108756458D01*
X189617208Y-107946934D02*
X190283875Y-107708839D01*
X189617208Y-107470744D02*
X190283875Y-107708839D01*
X190283875Y-107708839D02*
X190521970Y-107804077D01*
X190521970Y-107804077D02*
X190569589Y-107851696D01*
X190569589Y-107851696D02*
X190617208Y-107946934D01*
X190283875Y-107089791D02*
X189617208Y-107089791D01*
X189807684Y-107089791D02*
X189712446Y-107042172D01*
X189712446Y-107042172D02*
X189664827Y-106994553D01*
X189664827Y-106994553D02*
X189617208Y-106899315D01*
X189617208Y-106899315D02*
X189617208Y-106804077D01*
X190283875Y-106470743D02*
X189617208Y-106470743D01*
X189283875Y-106470743D02*
X189331494Y-106518362D01*
X189331494Y-106518362D02*
X189379113Y-106470743D01*
X189379113Y-106470743D02*
X189331494Y-106423124D01*
X189331494Y-106423124D02*
X189283875Y-106470743D01*
X189283875Y-106470743D02*
X189379113Y-106470743D01*
X189617208Y-105565982D02*
X190426732Y-105565982D01*
X190426732Y-105565982D02*
X190521970Y-105613601D01*
X190521970Y-105613601D02*
X190569589Y-105661220D01*
X190569589Y-105661220D02*
X190617208Y-105756458D01*
X190617208Y-105756458D02*
X190617208Y-105899315D01*
X190617208Y-105899315D02*
X190569589Y-105994553D01*
X190236256Y-105565982D02*
X190283875Y-105661220D01*
X190283875Y-105661220D02*
X190283875Y-105851696D01*
X190283875Y-105851696D02*
X190236256Y-105946934D01*
X190236256Y-105946934D02*
X190188636Y-105994553D01*
X190188636Y-105994553D02*
X190093398Y-106042172D01*
X190093398Y-106042172D02*
X189807684Y-106042172D01*
X189807684Y-106042172D02*
X189712446Y-105994553D01*
X189712446Y-105994553D02*
X189664827Y-105946934D01*
X189664827Y-105946934D02*
X189617208Y-105851696D01*
X189617208Y-105851696D02*
X189617208Y-105661220D01*
X189617208Y-105661220D02*
X189664827Y-105565982D01*
X190283875Y-105089791D02*
X189283875Y-105089791D01*
X190283875Y-104661220D02*
X189760065Y-104661220D01*
X189760065Y-104661220D02*
X189664827Y-104708839D01*
X189664827Y-104708839D02*
X189617208Y-104804077D01*
X189617208Y-104804077D02*
X189617208Y-104946934D01*
X189617208Y-104946934D02*
X189664827Y-105042172D01*
X189664827Y-105042172D02*
X189712446Y-105089791D01*
X189617208Y-104327886D02*
X189617208Y-103946934D01*
X189283875Y-104185029D02*
X190141017Y-104185029D01*
X190141017Y-104185029D02*
X190236256Y-104137410D01*
X190236256Y-104137410D02*
X190283875Y-104042172D01*
X190283875Y-104042172D02*
X190283875Y-103946934D01*
X189379113Y-102899314D02*
X189331494Y-102851695D01*
X189331494Y-102851695D02*
X189283875Y-102756457D01*
X189283875Y-102756457D02*
X189283875Y-102518362D01*
X189283875Y-102518362D02*
X189331494Y-102423124D01*
X189331494Y-102423124D02*
X189379113Y-102375505D01*
X189379113Y-102375505D02*
X189474351Y-102327886D01*
X189474351Y-102327886D02*
X189569589Y-102327886D01*
X189569589Y-102327886D02*
X189712446Y-102375505D01*
X189712446Y-102375505D02*
X190283875Y-102946933D01*
X190283875Y-102946933D02*
X190283875Y-102327886D01*
X189283875Y-101708838D02*
X189283875Y-101613600D01*
X189283875Y-101613600D02*
X189331494Y-101518362D01*
X189331494Y-101518362D02*
X189379113Y-101470743D01*
X189379113Y-101470743D02*
X189474351Y-101423124D01*
X189474351Y-101423124D02*
X189664827Y-101375505D01*
X189664827Y-101375505D02*
X189902922Y-101375505D01*
X189902922Y-101375505D02*
X190093398Y-101423124D01*
X190093398Y-101423124D02*
X190188636Y-101470743D01*
X190188636Y-101470743D02*
X190236256Y-101518362D01*
X190236256Y-101518362D02*
X190283875Y-101613600D01*
X190283875Y-101613600D02*
X190283875Y-101708838D01*
X190283875Y-101708838D02*
X190236256Y-101804076D01*
X190236256Y-101804076D02*
X190188636Y-101851695D01*
X190188636Y-101851695D02*
X190093398Y-101899314D01*
X190093398Y-101899314D02*
X189902922Y-101946933D01*
X189902922Y-101946933D02*
X189664827Y-101946933D01*
X189664827Y-101946933D02*
X189474351Y-101899314D01*
X189474351Y-101899314D02*
X189379113Y-101851695D01*
X189379113Y-101851695D02*
X189331494Y-101804076D01*
X189331494Y-101804076D02*
X189283875Y-101708838D01*
X189379113Y-100994552D02*
X189331494Y-100946933D01*
X189331494Y-100946933D02*
X189283875Y-100851695D01*
X189283875Y-100851695D02*
X189283875Y-100613600D01*
X189283875Y-100613600D02*
X189331494Y-100518362D01*
X189331494Y-100518362D02*
X189379113Y-100470743D01*
X189379113Y-100470743D02*
X189474351Y-100423124D01*
X189474351Y-100423124D02*
X189569589Y-100423124D01*
X189569589Y-100423124D02*
X189712446Y-100470743D01*
X189712446Y-100470743D02*
X190283875Y-101042171D01*
X190283875Y-101042171D02*
X190283875Y-100423124D01*
X189283875Y-99518362D02*
X189283875Y-99994552D01*
X189283875Y-99994552D02*
X189760065Y-100042171D01*
X189760065Y-100042171D02*
X189712446Y-99994552D01*
X189712446Y-99994552D02*
X189664827Y-99899314D01*
X189664827Y-99899314D02*
X189664827Y-99661219D01*
X189664827Y-99661219D02*
X189712446Y-99565981D01*
X189712446Y-99565981D02*
X189760065Y-99518362D01*
X189760065Y-99518362D02*
X189855303Y-99470743D01*
X189855303Y-99470743D02*
X190093398Y-99470743D01*
X190093398Y-99470743D02*
X190188636Y-99518362D01*
X190188636Y-99518362D02*
X190236256Y-99565981D01*
X190236256Y-99565981D02*
X190283875Y-99661219D01*
X190283875Y-99661219D02*
X190283875Y-99899314D01*
X190283875Y-99899314D02*
X190236256Y-99994552D01*
X190236256Y-99994552D02*
X190188636Y-100042171D01*
X190283875Y-98280266D02*
X189283875Y-98280266D01*
X189283875Y-98280266D02*
X189283875Y-97899314D01*
X189283875Y-97899314D02*
X189331494Y-97804076D01*
X189331494Y-97804076D02*
X189379113Y-97756457D01*
X189379113Y-97756457D02*
X189474351Y-97708838D01*
X189474351Y-97708838D02*
X189617208Y-97708838D01*
X189617208Y-97708838D02*
X189712446Y-97756457D01*
X189712446Y-97756457D02*
X189760065Y-97804076D01*
X189760065Y-97804076D02*
X189807684Y-97899314D01*
X189807684Y-97899314D02*
X189807684Y-98280266D01*
X190283875Y-97280266D02*
X189283875Y-97280266D01*
X190283875Y-96804076D02*
X189283875Y-96804076D01*
X189283875Y-96804076D02*
X190283875Y-96232648D01*
X190283875Y-96232648D02*
X189283875Y-96232648D01*
X190283875Y-95756457D02*
X189283875Y-95756457D01*
X189283875Y-95756457D02*
X189998160Y-95423124D01*
X189998160Y-95423124D02*
X189283875Y-95089791D01*
X189283875Y-95089791D02*
X190283875Y-95089791D01*
X189998160Y-94661219D02*
X189998160Y-94185029D01*
X190283875Y-94756457D02*
X189283875Y-94423124D01*
X189283875Y-94423124D02*
X190283875Y-94089791D01*
X190283875Y-93185029D02*
X189807684Y-93518362D01*
X190283875Y-93756457D02*
X189283875Y-93756457D01*
X189283875Y-93756457D02*
X189283875Y-93375505D01*
X189283875Y-93375505D02*
X189331494Y-93280267D01*
X189331494Y-93280267D02*
X189379113Y-93232648D01*
X189379113Y-93232648D02*
X189474351Y-93185029D01*
X189474351Y-93185029D02*
X189617208Y-93185029D01*
X189617208Y-93185029D02*
X189712446Y-93232648D01*
X189712446Y-93232648D02*
X189760065Y-93280267D01*
X189760065Y-93280267D02*
X189807684Y-93375505D01*
X189807684Y-93375505D02*
X189807684Y-93756457D01*
X189283875Y-91804076D02*
X189283875Y-91613600D01*
X189283875Y-91613600D02*
X189331494Y-91518362D01*
X189331494Y-91518362D02*
X189426732Y-91423124D01*
X189426732Y-91423124D02*
X189617208Y-91375505D01*
X189617208Y-91375505D02*
X189950541Y-91375505D01*
X189950541Y-91375505D02*
X190141017Y-91423124D01*
X190141017Y-91423124D02*
X190236256Y-91518362D01*
X190236256Y-91518362D02*
X190283875Y-91613600D01*
X190283875Y-91613600D02*
X190283875Y-91804076D01*
X190283875Y-91804076D02*
X190236256Y-91899314D01*
X190236256Y-91899314D02*
X190141017Y-91994552D01*
X190141017Y-91994552D02*
X189950541Y-92042171D01*
X189950541Y-92042171D02*
X189617208Y-92042171D01*
X189617208Y-92042171D02*
X189426732Y-91994552D01*
X189426732Y-91994552D02*
X189331494Y-91899314D01*
X189331494Y-91899314D02*
X189283875Y-91804076D01*
X190283875Y-90946933D02*
X189617208Y-90946933D01*
X189807684Y-90946933D02*
X189712446Y-90899314D01*
X189712446Y-90899314D02*
X189664827Y-90851695D01*
X189664827Y-90851695D02*
X189617208Y-90756457D01*
X189617208Y-90756457D02*
X189617208Y-90661219D01*
X189617208Y-89899314D02*
X190426732Y-89899314D01*
X190426732Y-89899314D02*
X190521970Y-89946933D01*
X190521970Y-89946933D02*
X190569589Y-89994552D01*
X190569589Y-89994552D02*
X190617208Y-90089790D01*
X190617208Y-90089790D02*
X190617208Y-90232647D01*
X190617208Y-90232647D02*
X190569589Y-90327885D01*
X190236256Y-89899314D02*
X190283875Y-89994552D01*
X190283875Y-89994552D02*
X190283875Y-90185028D01*
X190283875Y-90185028D02*
X190236256Y-90280266D01*
X190236256Y-90280266D02*
X190188636Y-90327885D01*
X190188636Y-90327885D02*
X190093398Y-90375504D01*
X190093398Y-90375504D02*
X189807684Y-90375504D01*
X189807684Y-90375504D02*
X189712446Y-90327885D01*
X189712446Y-90327885D02*
X189664827Y-90280266D01*
X189664827Y-90280266D02*
X189617208Y-90185028D01*
X189617208Y-90185028D02*
X189617208Y-89994552D01*
X189617208Y-89994552D02*
X189664827Y-89899314D01*
X190283875Y-88994552D02*
X189760065Y-88994552D01*
X189760065Y-88994552D02*
X189664827Y-89042171D01*
X189664827Y-89042171D02*
X189617208Y-89137409D01*
X189617208Y-89137409D02*
X189617208Y-89327885D01*
X189617208Y-89327885D02*
X189664827Y-89423123D01*
X190236256Y-88994552D02*
X190283875Y-89089790D01*
X190283875Y-89089790D02*
X190283875Y-89327885D01*
X190283875Y-89327885D02*
X190236256Y-89423123D01*
X190236256Y-89423123D02*
X190141017Y-89470742D01*
X190141017Y-89470742D02*
X190045779Y-89470742D01*
X190045779Y-89470742D02*
X189950541Y-89423123D01*
X189950541Y-89423123D02*
X189902922Y-89327885D01*
X189902922Y-89327885D02*
X189902922Y-89089790D01*
X189902922Y-89089790D02*
X189855303Y-88994552D01*
X189617208Y-88518361D02*
X190283875Y-88518361D01*
X189712446Y-88518361D02*
X189664827Y-88470742D01*
X189664827Y-88470742D02*
X189617208Y-88375504D01*
X189617208Y-88375504D02*
X189617208Y-88232647D01*
X189617208Y-88232647D02*
X189664827Y-88137409D01*
X189664827Y-88137409D02*
X189760065Y-88089790D01*
X189760065Y-88089790D02*
X190283875Y-88089790D01*
X190236256Y-87661218D02*
X190283875Y-87565980D01*
X190283875Y-87565980D02*
X190283875Y-87375504D01*
X190283875Y-87375504D02*
X190236256Y-87280266D01*
X190236256Y-87280266D02*
X190141017Y-87232647D01*
X190141017Y-87232647D02*
X190093398Y-87232647D01*
X190093398Y-87232647D02*
X189998160Y-87280266D01*
X189998160Y-87280266D02*
X189950541Y-87375504D01*
X189950541Y-87375504D02*
X189950541Y-87518361D01*
X189950541Y-87518361D02*
X189902922Y-87613599D01*
X189902922Y-87613599D02*
X189807684Y-87661218D01*
X189807684Y-87661218D02*
X189760065Y-87661218D01*
X189760065Y-87661218D02*
X189664827Y-87613599D01*
X189664827Y-87613599D02*
X189617208Y-87518361D01*
X189617208Y-87518361D02*
X189617208Y-87375504D01*
X189617208Y-87375504D02*
X189664827Y-87280266D01*
X191608104Y-110708839D02*
X191608104Y-110232649D01*
X191893819Y-110804077D02*
X190893819Y-110470744D01*
X190893819Y-110470744D02*
X191893819Y-110137411D01*
X191893819Y-109661220D02*
X191846200Y-109756458D01*
X191846200Y-109756458D02*
X191750961Y-109804077D01*
X191750961Y-109804077D02*
X190893819Y-109804077D01*
X191893819Y-109137410D02*
X191846200Y-109232648D01*
X191846200Y-109232648D02*
X191750961Y-109280267D01*
X191750961Y-109280267D02*
X190893819Y-109280267D01*
X191893819Y-107423124D02*
X191417628Y-107756457D01*
X191893819Y-107994552D02*
X190893819Y-107994552D01*
X190893819Y-107994552D02*
X190893819Y-107613600D01*
X190893819Y-107613600D02*
X190941438Y-107518362D01*
X190941438Y-107518362D02*
X190989057Y-107470743D01*
X190989057Y-107470743D02*
X191084295Y-107423124D01*
X191084295Y-107423124D02*
X191227152Y-107423124D01*
X191227152Y-107423124D02*
X191322390Y-107470743D01*
X191322390Y-107470743D02*
X191370009Y-107518362D01*
X191370009Y-107518362D02*
X191417628Y-107613600D01*
X191417628Y-107613600D02*
X191417628Y-107994552D01*
X191893819Y-106994552D02*
X191227152Y-106994552D01*
X190893819Y-106994552D02*
X190941438Y-107042171D01*
X190941438Y-107042171D02*
X190989057Y-106994552D01*
X190989057Y-106994552D02*
X190941438Y-106946933D01*
X190941438Y-106946933D02*
X190893819Y-106994552D01*
X190893819Y-106994552D02*
X190989057Y-106994552D01*
X191227152Y-106089791D02*
X192036676Y-106089791D01*
X192036676Y-106089791D02*
X192131914Y-106137410D01*
X192131914Y-106137410D02*
X192179533Y-106185029D01*
X192179533Y-106185029D02*
X192227152Y-106280267D01*
X192227152Y-106280267D02*
X192227152Y-106423124D01*
X192227152Y-106423124D02*
X192179533Y-106518362D01*
X191846200Y-106089791D02*
X191893819Y-106185029D01*
X191893819Y-106185029D02*
X191893819Y-106375505D01*
X191893819Y-106375505D02*
X191846200Y-106470743D01*
X191846200Y-106470743D02*
X191798580Y-106518362D01*
X191798580Y-106518362D02*
X191703342Y-106565981D01*
X191703342Y-106565981D02*
X191417628Y-106565981D01*
X191417628Y-106565981D02*
X191322390Y-106518362D01*
X191322390Y-106518362D02*
X191274771Y-106470743D01*
X191274771Y-106470743D02*
X191227152Y-106375505D01*
X191227152Y-106375505D02*
X191227152Y-106185029D01*
X191227152Y-106185029D02*
X191274771Y-106089791D01*
X191893819Y-105613600D02*
X190893819Y-105613600D01*
X191893819Y-105185029D02*
X191370009Y-105185029D01*
X191370009Y-105185029D02*
X191274771Y-105232648D01*
X191274771Y-105232648D02*
X191227152Y-105327886D01*
X191227152Y-105327886D02*
X191227152Y-105470743D01*
X191227152Y-105470743D02*
X191274771Y-105565981D01*
X191274771Y-105565981D02*
X191322390Y-105613600D01*
X191227152Y-104851695D02*
X191227152Y-104470743D01*
X190893819Y-104708838D02*
X191750961Y-104708838D01*
X191750961Y-104708838D02*
X191846200Y-104661219D01*
X191846200Y-104661219D02*
X191893819Y-104565981D01*
X191893819Y-104565981D02*
X191893819Y-104470743D01*
X191846200Y-104185028D02*
X191893819Y-104089790D01*
X191893819Y-104089790D02*
X191893819Y-103899314D01*
X191893819Y-103899314D02*
X191846200Y-103804076D01*
X191846200Y-103804076D02*
X191750961Y-103756457D01*
X191750961Y-103756457D02*
X191703342Y-103756457D01*
X191703342Y-103756457D02*
X191608104Y-103804076D01*
X191608104Y-103804076D02*
X191560485Y-103899314D01*
X191560485Y-103899314D02*
X191560485Y-104042171D01*
X191560485Y-104042171D02*
X191512866Y-104137409D01*
X191512866Y-104137409D02*
X191417628Y-104185028D01*
X191417628Y-104185028D02*
X191370009Y-104185028D01*
X191370009Y-104185028D02*
X191274771Y-104137409D01*
X191274771Y-104137409D02*
X191227152Y-104042171D01*
X191227152Y-104042171D02*
X191227152Y-103899314D01*
X191227152Y-103899314D02*
X191274771Y-103804076D01*
X191893819Y-101994552D02*
X191417628Y-102327885D01*
X191893819Y-102565980D02*
X190893819Y-102565980D01*
X190893819Y-102565980D02*
X190893819Y-102185028D01*
X190893819Y-102185028D02*
X190941438Y-102089790D01*
X190941438Y-102089790D02*
X190989057Y-102042171D01*
X190989057Y-102042171D02*
X191084295Y-101994552D01*
X191084295Y-101994552D02*
X191227152Y-101994552D01*
X191227152Y-101994552D02*
X191322390Y-102042171D01*
X191322390Y-102042171D02*
X191370009Y-102089790D01*
X191370009Y-102089790D02*
X191417628Y-102185028D01*
X191417628Y-102185028D02*
X191417628Y-102565980D01*
X191846200Y-101185028D02*
X191893819Y-101280266D01*
X191893819Y-101280266D02*
X191893819Y-101470742D01*
X191893819Y-101470742D02*
X191846200Y-101565980D01*
X191846200Y-101565980D02*
X191750961Y-101613599D01*
X191750961Y-101613599D02*
X191370009Y-101613599D01*
X191370009Y-101613599D02*
X191274771Y-101565980D01*
X191274771Y-101565980D02*
X191227152Y-101470742D01*
X191227152Y-101470742D02*
X191227152Y-101280266D01*
X191227152Y-101280266D02*
X191274771Y-101185028D01*
X191274771Y-101185028D02*
X191370009Y-101137409D01*
X191370009Y-101137409D02*
X191465247Y-101137409D01*
X191465247Y-101137409D02*
X191560485Y-101613599D01*
X191846200Y-100756456D02*
X191893819Y-100661218D01*
X191893819Y-100661218D02*
X191893819Y-100470742D01*
X191893819Y-100470742D02*
X191846200Y-100375504D01*
X191846200Y-100375504D02*
X191750961Y-100327885D01*
X191750961Y-100327885D02*
X191703342Y-100327885D01*
X191703342Y-100327885D02*
X191608104Y-100375504D01*
X191608104Y-100375504D02*
X191560485Y-100470742D01*
X191560485Y-100470742D02*
X191560485Y-100613599D01*
X191560485Y-100613599D02*
X191512866Y-100708837D01*
X191512866Y-100708837D02*
X191417628Y-100756456D01*
X191417628Y-100756456D02*
X191370009Y-100756456D01*
X191370009Y-100756456D02*
X191274771Y-100708837D01*
X191274771Y-100708837D02*
X191227152Y-100613599D01*
X191227152Y-100613599D02*
X191227152Y-100470742D01*
X191227152Y-100470742D02*
X191274771Y-100375504D01*
X191846200Y-99518361D02*
X191893819Y-99613599D01*
X191893819Y-99613599D02*
X191893819Y-99804075D01*
X191893819Y-99804075D02*
X191846200Y-99899313D01*
X191846200Y-99899313D02*
X191750961Y-99946932D01*
X191750961Y-99946932D02*
X191370009Y-99946932D01*
X191370009Y-99946932D02*
X191274771Y-99899313D01*
X191274771Y-99899313D02*
X191227152Y-99804075D01*
X191227152Y-99804075D02*
X191227152Y-99613599D01*
X191227152Y-99613599D02*
X191274771Y-99518361D01*
X191274771Y-99518361D02*
X191370009Y-99470742D01*
X191370009Y-99470742D02*
X191465247Y-99470742D01*
X191465247Y-99470742D02*
X191560485Y-99946932D01*
X191893819Y-99042170D02*
X191227152Y-99042170D01*
X191417628Y-99042170D02*
X191322390Y-98994551D01*
X191322390Y-98994551D02*
X191274771Y-98946932D01*
X191274771Y-98946932D02*
X191227152Y-98851694D01*
X191227152Y-98851694D02*
X191227152Y-98756456D01*
X191227152Y-98518360D02*
X191893819Y-98280265D01*
X191893819Y-98280265D02*
X191227152Y-98042170D01*
X191846200Y-97280265D02*
X191893819Y-97375503D01*
X191893819Y-97375503D02*
X191893819Y-97565979D01*
X191893819Y-97565979D02*
X191846200Y-97661217D01*
X191846200Y-97661217D02*
X191750961Y-97708836D01*
X191750961Y-97708836D02*
X191370009Y-97708836D01*
X191370009Y-97708836D02*
X191274771Y-97661217D01*
X191274771Y-97661217D02*
X191227152Y-97565979D01*
X191227152Y-97565979D02*
X191227152Y-97375503D01*
X191227152Y-97375503D02*
X191274771Y-97280265D01*
X191274771Y-97280265D02*
X191370009Y-97232646D01*
X191370009Y-97232646D02*
X191465247Y-97232646D01*
X191465247Y-97232646D02*
X191560485Y-97708836D01*
X191893819Y-96375503D02*
X190893819Y-96375503D01*
X191846200Y-96375503D02*
X191893819Y-96470741D01*
X191893819Y-96470741D02*
X191893819Y-96661217D01*
X191893819Y-96661217D02*
X191846200Y-96756455D01*
X191846200Y-96756455D02*
X191798580Y-96804074D01*
X191798580Y-96804074D02*
X191703342Y-96851693D01*
X191703342Y-96851693D02*
X191417628Y-96851693D01*
X191417628Y-96851693D02*
X191322390Y-96804074D01*
X191322390Y-96804074D02*
X191274771Y-96756455D01*
X191274771Y-96756455D02*
X191227152Y-96661217D01*
X191227152Y-96661217D02*
X191227152Y-96470741D01*
X191227152Y-96470741D02*
X191274771Y-96375503D01*
X194179819Y-94595792D02*
X193703628Y-94929125D01*
X194179819Y-95167220D02*
X193179819Y-95167220D01*
X193179819Y-95167220D02*
X193179819Y-94786268D01*
X193179819Y-94786268D02*
X193227438Y-94691030D01*
X193227438Y-94691030D02*
X193275057Y-94643411D01*
X193275057Y-94643411D02*
X193370295Y-94595792D01*
X193370295Y-94595792D02*
X193513152Y-94595792D01*
X193513152Y-94595792D02*
X193608390Y-94643411D01*
X193608390Y-94643411D02*
X193656009Y-94691030D01*
X193656009Y-94691030D02*
X193703628Y-94786268D01*
X193703628Y-94786268D02*
X193703628Y-95167220D01*
X194132200Y-93786268D02*
X194179819Y-93881506D01*
X194179819Y-93881506D02*
X194179819Y-94071982D01*
X194179819Y-94071982D02*
X194132200Y-94167220D01*
X194132200Y-94167220D02*
X194036961Y-94214839D01*
X194036961Y-94214839D02*
X193656009Y-94214839D01*
X193656009Y-94214839D02*
X193560771Y-94167220D01*
X193560771Y-94167220D02*
X193513152Y-94071982D01*
X193513152Y-94071982D02*
X193513152Y-93881506D01*
X193513152Y-93881506D02*
X193560771Y-93786268D01*
X193560771Y-93786268D02*
X193656009Y-93738649D01*
X193656009Y-93738649D02*
X193751247Y-93738649D01*
X193751247Y-93738649D02*
X193846485Y-94214839D01*
X193513152Y-93405315D02*
X194179819Y-93167220D01*
X194179819Y-93167220D02*
X193513152Y-92929125D01*
X193275057Y-91833886D02*
X193227438Y-91786267D01*
X193227438Y-91786267D02*
X193179819Y-91691029D01*
X193179819Y-91691029D02*
X193179819Y-91452934D01*
X193179819Y-91452934D02*
X193227438Y-91357696D01*
X193227438Y-91357696D02*
X193275057Y-91310077D01*
X193275057Y-91310077D02*
X193370295Y-91262458D01*
X193370295Y-91262458D02*
X193465533Y-91262458D01*
X193465533Y-91262458D02*
X193608390Y-91310077D01*
X193608390Y-91310077D02*
X194179819Y-91881505D01*
X194179819Y-91881505D02*
X194179819Y-91262458D01*
X160109819Y-41108094D02*
X160109819Y-40536666D01*
X161109819Y-40822380D02*
X160109819Y-40822380D01*
X161109819Y-40203332D02*
X160109819Y-40203332D01*
X160109819Y-40203332D02*
X160109819Y-39822380D01*
X160109819Y-39822380D02*
X160157438Y-39727142D01*
X160157438Y-39727142D02*
X160205057Y-39679523D01*
X160205057Y-39679523D02*
X160300295Y-39631904D01*
X160300295Y-39631904D02*
X160443152Y-39631904D01*
X160443152Y-39631904D02*
X160538390Y-39679523D01*
X160538390Y-39679523D02*
X160586009Y-39727142D01*
X160586009Y-39727142D02*
X160633628Y-39822380D01*
X160633628Y-39822380D02*
X160633628Y-40203332D01*
X160109819Y-39298570D02*
X160109819Y-38679523D01*
X160109819Y-38679523D02*
X160490771Y-39012856D01*
X160490771Y-39012856D02*
X160490771Y-38869999D01*
X160490771Y-38869999D02*
X160538390Y-38774761D01*
X160538390Y-38774761D02*
X160586009Y-38727142D01*
X160586009Y-38727142D02*
X160681247Y-38679523D01*
X160681247Y-38679523D02*
X160919342Y-38679523D01*
X160919342Y-38679523D02*
X161014580Y-38727142D01*
X161014580Y-38727142D02*
X161062200Y-38774761D01*
X161062200Y-38774761D02*
X161109819Y-38869999D01*
X161109819Y-38869999D02*
X161109819Y-39155713D01*
X161109819Y-39155713D02*
X161062200Y-39250951D01*
X161062200Y-39250951D02*
X161014580Y-39298570D01*
X161109819Y-38203332D02*
X161109819Y-38012856D01*
X161109819Y-38012856D02*
X161062200Y-37917618D01*
X161062200Y-37917618D02*
X161014580Y-37869999D01*
X161014580Y-37869999D02*
X160871723Y-37774761D01*
X160871723Y-37774761D02*
X160681247Y-37727142D01*
X160681247Y-37727142D02*
X160300295Y-37727142D01*
X160300295Y-37727142D02*
X160205057Y-37774761D01*
X160205057Y-37774761D02*
X160157438Y-37822380D01*
X160157438Y-37822380D02*
X160109819Y-37917618D01*
X160109819Y-37917618D02*
X160109819Y-38108094D01*
X160109819Y-38108094D02*
X160157438Y-38203332D01*
X160157438Y-38203332D02*
X160205057Y-38250951D01*
X160205057Y-38250951D02*
X160300295Y-38298570D01*
X160300295Y-38298570D02*
X160538390Y-38298570D01*
X160538390Y-38298570D02*
X160633628Y-38250951D01*
X160633628Y-38250951D02*
X160681247Y-38203332D01*
X160681247Y-38203332D02*
X160728866Y-38108094D01*
X160728866Y-38108094D02*
X160728866Y-37917618D01*
X160728866Y-37917618D02*
X160681247Y-37822380D01*
X160681247Y-37822380D02*
X160633628Y-37774761D01*
X160633628Y-37774761D02*
X160538390Y-37727142D01*
X111739819Y-62200357D02*
X111263628Y-62533690D01*
X111739819Y-62771785D02*
X110739819Y-62771785D01*
X110739819Y-62771785D02*
X110739819Y-62390833D01*
X110739819Y-62390833D02*
X110787438Y-62295595D01*
X110787438Y-62295595D02*
X110835057Y-62247976D01*
X110835057Y-62247976D02*
X110930295Y-62200357D01*
X110930295Y-62200357D02*
X111073152Y-62200357D01*
X111073152Y-62200357D02*
X111168390Y-62247976D01*
X111168390Y-62247976D02*
X111216009Y-62295595D01*
X111216009Y-62295595D02*
X111263628Y-62390833D01*
X111263628Y-62390833D02*
X111263628Y-62771785D01*
X111739819Y-61247976D02*
X111739819Y-61819404D01*
X111739819Y-61533690D02*
X110739819Y-61533690D01*
X110739819Y-61533690D02*
X110882676Y-61628928D01*
X110882676Y-61628928D02*
X110977914Y-61724166D01*
X110977914Y-61724166D02*
X111025533Y-61819404D01*
X110739819Y-60390833D02*
X110739819Y-60581309D01*
X110739819Y-60581309D02*
X110787438Y-60676547D01*
X110787438Y-60676547D02*
X110835057Y-60724166D01*
X110835057Y-60724166D02*
X110977914Y-60819404D01*
X110977914Y-60819404D02*
X111168390Y-60867023D01*
X111168390Y-60867023D02*
X111549342Y-60867023D01*
X111549342Y-60867023D02*
X111644580Y-60819404D01*
X111644580Y-60819404D02*
X111692200Y-60771785D01*
X111692200Y-60771785D02*
X111739819Y-60676547D01*
X111739819Y-60676547D02*
X111739819Y-60486071D01*
X111739819Y-60486071D02*
X111692200Y-60390833D01*
X111692200Y-60390833D02*
X111644580Y-60343214D01*
X111644580Y-60343214D02*
X111549342Y-60295595D01*
X111549342Y-60295595D02*
X111311247Y-60295595D01*
X111311247Y-60295595D02*
X111216009Y-60343214D01*
X111216009Y-60343214D02*
X111168390Y-60390833D01*
X111168390Y-60390833D02*
X111120771Y-60486071D01*
X111120771Y-60486071D02*
X111120771Y-60676547D01*
X111120771Y-60676547D02*
X111168390Y-60771785D01*
X111168390Y-60771785D02*
X111216009Y-60819404D01*
X111216009Y-60819404D02*
X111311247Y-60867023D01*
X165902819Y-55769166D02*
X165426628Y-56102499D01*
X165902819Y-56340594D02*
X164902819Y-56340594D01*
X164902819Y-56340594D02*
X164902819Y-55959642D01*
X164902819Y-55959642D02*
X164950438Y-55864404D01*
X164950438Y-55864404D02*
X164998057Y-55816785D01*
X164998057Y-55816785D02*
X165093295Y-55769166D01*
X165093295Y-55769166D02*
X165236152Y-55769166D01*
X165236152Y-55769166D02*
X165331390Y-55816785D01*
X165331390Y-55816785D02*
X165379009Y-55864404D01*
X165379009Y-55864404D02*
X165426628Y-55959642D01*
X165426628Y-55959642D02*
X165426628Y-56340594D01*
X165902819Y-55292975D02*
X165902819Y-55102499D01*
X165902819Y-55102499D02*
X165855200Y-55007261D01*
X165855200Y-55007261D02*
X165807580Y-54959642D01*
X165807580Y-54959642D02*
X165664723Y-54864404D01*
X165664723Y-54864404D02*
X165474247Y-54816785D01*
X165474247Y-54816785D02*
X165093295Y-54816785D01*
X165093295Y-54816785D02*
X164998057Y-54864404D01*
X164998057Y-54864404D02*
X164950438Y-54912023D01*
X164950438Y-54912023D02*
X164902819Y-55007261D01*
X164902819Y-55007261D02*
X164902819Y-55197737D01*
X164902819Y-55197737D02*
X164950438Y-55292975D01*
X164950438Y-55292975D02*
X164998057Y-55340594D01*
X164998057Y-55340594D02*
X165093295Y-55388213D01*
X165093295Y-55388213D02*
X165331390Y-55388213D01*
X165331390Y-55388213D02*
X165426628Y-55340594D01*
X165426628Y-55340594D02*
X165474247Y-55292975D01*
X165474247Y-55292975D02*
X165521866Y-55197737D01*
X165521866Y-55197737D02*
X165521866Y-55007261D01*
X165521866Y-55007261D02*
X165474247Y-54912023D01*
X165474247Y-54912023D02*
X165426628Y-54864404D01*
X165426628Y-54864404D02*
X165331390Y-54816785D01*
X115659819Y-41108094D02*
X115659819Y-40536666D01*
X116659819Y-40822380D02*
X115659819Y-40822380D01*
X116659819Y-40203332D02*
X115659819Y-40203332D01*
X115659819Y-40203332D02*
X115659819Y-39822380D01*
X115659819Y-39822380D02*
X115707438Y-39727142D01*
X115707438Y-39727142D02*
X115755057Y-39679523D01*
X115755057Y-39679523D02*
X115850295Y-39631904D01*
X115850295Y-39631904D02*
X115993152Y-39631904D01*
X115993152Y-39631904D02*
X116088390Y-39679523D01*
X116088390Y-39679523D02*
X116136009Y-39727142D01*
X116136009Y-39727142D02*
X116183628Y-39822380D01*
X116183628Y-39822380D02*
X116183628Y-40203332D01*
X115755057Y-39250951D02*
X115707438Y-39203332D01*
X115707438Y-39203332D02*
X115659819Y-39108094D01*
X115659819Y-39108094D02*
X115659819Y-38869999D01*
X115659819Y-38869999D02*
X115707438Y-38774761D01*
X115707438Y-38774761D02*
X115755057Y-38727142D01*
X115755057Y-38727142D02*
X115850295Y-38679523D01*
X115850295Y-38679523D02*
X115945533Y-38679523D01*
X115945533Y-38679523D02*
X116088390Y-38727142D01*
X116088390Y-38727142D02*
X116659819Y-39298570D01*
X116659819Y-39298570D02*
X116659819Y-38679523D01*
X115659819Y-37774761D02*
X115659819Y-38250951D01*
X115659819Y-38250951D02*
X116136009Y-38298570D01*
X116136009Y-38298570D02*
X116088390Y-38250951D01*
X116088390Y-38250951D02*
X116040771Y-38155713D01*
X116040771Y-38155713D02*
X116040771Y-37917618D01*
X116040771Y-37917618D02*
X116088390Y-37822380D01*
X116088390Y-37822380D02*
X116136009Y-37774761D01*
X116136009Y-37774761D02*
X116231247Y-37727142D01*
X116231247Y-37727142D02*
X116469342Y-37727142D01*
X116469342Y-37727142D02*
X116564580Y-37774761D01*
X116564580Y-37774761D02*
X116612200Y-37822380D01*
X116612200Y-37822380D02*
X116659819Y-37917618D01*
X116659819Y-37917618D02*
X116659819Y-38155713D01*
X116659819Y-38155713D02*
X116612200Y-38250951D01*
X116612200Y-38250951D02*
X116564580Y-38298570D01*
X108469580Y-55411666D02*
X108517200Y-55459285D01*
X108517200Y-55459285D02*
X108564819Y-55602142D01*
X108564819Y-55602142D02*
X108564819Y-55697380D01*
X108564819Y-55697380D02*
X108517200Y-55840237D01*
X108517200Y-55840237D02*
X108421961Y-55935475D01*
X108421961Y-55935475D02*
X108326723Y-55983094D01*
X108326723Y-55983094D02*
X108136247Y-56030713D01*
X108136247Y-56030713D02*
X107993390Y-56030713D01*
X107993390Y-56030713D02*
X107802914Y-55983094D01*
X107802914Y-55983094D02*
X107707676Y-55935475D01*
X107707676Y-55935475D02*
X107612438Y-55840237D01*
X107612438Y-55840237D02*
X107564819Y-55697380D01*
X107564819Y-55697380D02*
X107564819Y-55602142D01*
X107564819Y-55602142D02*
X107612438Y-55459285D01*
X107612438Y-55459285D02*
X107660057Y-55411666D01*
X107898152Y-54554523D02*
X108564819Y-54554523D01*
X107517200Y-54792618D02*
X108231485Y-55030713D01*
X108231485Y-55030713D02*
X108231485Y-54411666D01*
X118834819Y-41108094D02*
X118834819Y-40536666D01*
X119834819Y-40822380D02*
X118834819Y-40822380D01*
X119834819Y-40203332D02*
X118834819Y-40203332D01*
X118834819Y-40203332D02*
X118834819Y-39822380D01*
X118834819Y-39822380D02*
X118882438Y-39727142D01*
X118882438Y-39727142D02*
X118930057Y-39679523D01*
X118930057Y-39679523D02*
X119025295Y-39631904D01*
X119025295Y-39631904D02*
X119168152Y-39631904D01*
X119168152Y-39631904D02*
X119263390Y-39679523D01*
X119263390Y-39679523D02*
X119311009Y-39727142D01*
X119311009Y-39727142D02*
X119358628Y-39822380D01*
X119358628Y-39822380D02*
X119358628Y-40203332D01*
X118930057Y-39250951D02*
X118882438Y-39203332D01*
X118882438Y-39203332D02*
X118834819Y-39108094D01*
X118834819Y-39108094D02*
X118834819Y-38869999D01*
X118834819Y-38869999D02*
X118882438Y-38774761D01*
X118882438Y-38774761D02*
X118930057Y-38727142D01*
X118930057Y-38727142D02*
X119025295Y-38679523D01*
X119025295Y-38679523D02*
X119120533Y-38679523D01*
X119120533Y-38679523D02*
X119263390Y-38727142D01*
X119263390Y-38727142D02*
X119834819Y-39298570D01*
X119834819Y-39298570D02*
X119834819Y-38679523D01*
X118834819Y-37822380D02*
X118834819Y-38012856D01*
X118834819Y-38012856D02*
X118882438Y-38108094D01*
X118882438Y-38108094D02*
X118930057Y-38155713D01*
X118930057Y-38155713D02*
X119072914Y-38250951D01*
X119072914Y-38250951D02*
X119263390Y-38298570D01*
X119263390Y-38298570D02*
X119644342Y-38298570D01*
X119644342Y-38298570D02*
X119739580Y-38250951D01*
X119739580Y-38250951D02*
X119787200Y-38203332D01*
X119787200Y-38203332D02*
X119834819Y-38108094D01*
X119834819Y-38108094D02*
X119834819Y-37917618D01*
X119834819Y-37917618D02*
X119787200Y-37822380D01*
X119787200Y-37822380D02*
X119739580Y-37774761D01*
X119739580Y-37774761D02*
X119644342Y-37727142D01*
X119644342Y-37727142D02*
X119406247Y-37727142D01*
X119406247Y-37727142D02*
X119311009Y-37774761D01*
X119311009Y-37774761D02*
X119263390Y-37822380D01*
X119263390Y-37822380D02*
X119215771Y-37917618D01*
X119215771Y-37917618D02*
X119215771Y-38108094D01*
X119215771Y-38108094D02*
X119263390Y-38203332D01*
X119263390Y-38203332D02*
X119311009Y-38250951D01*
X119311009Y-38250951D02*
X119406247Y-38298570D01*
X118056819Y-50530357D02*
X117580628Y-50863690D01*
X118056819Y-51101785D02*
X117056819Y-51101785D01*
X117056819Y-51101785D02*
X117056819Y-50720833D01*
X117056819Y-50720833D02*
X117104438Y-50625595D01*
X117104438Y-50625595D02*
X117152057Y-50577976D01*
X117152057Y-50577976D02*
X117247295Y-50530357D01*
X117247295Y-50530357D02*
X117390152Y-50530357D01*
X117390152Y-50530357D02*
X117485390Y-50577976D01*
X117485390Y-50577976D02*
X117533009Y-50625595D01*
X117533009Y-50625595D02*
X117580628Y-50720833D01*
X117580628Y-50720833D02*
X117580628Y-51101785D01*
X117152057Y-50149404D02*
X117104438Y-50101785D01*
X117104438Y-50101785D02*
X117056819Y-50006547D01*
X117056819Y-50006547D02*
X117056819Y-49768452D01*
X117056819Y-49768452D02*
X117104438Y-49673214D01*
X117104438Y-49673214D02*
X117152057Y-49625595D01*
X117152057Y-49625595D02*
X117247295Y-49577976D01*
X117247295Y-49577976D02*
X117342533Y-49577976D01*
X117342533Y-49577976D02*
X117485390Y-49625595D01*
X117485390Y-49625595D02*
X118056819Y-50197023D01*
X118056819Y-50197023D02*
X118056819Y-49577976D01*
X117056819Y-48958928D02*
X117056819Y-48863690D01*
X117056819Y-48863690D02*
X117104438Y-48768452D01*
X117104438Y-48768452D02*
X117152057Y-48720833D01*
X117152057Y-48720833D02*
X117247295Y-48673214D01*
X117247295Y-48673214D02*
X117437771Y-48625595D01*
X117437771Y-48625595D02*
X117675866Y-48625595D01*
X117675866Y-48625595D02*
X117866342Y-48673214D01*
X117866342Y-48673214D02*
X117961580Y-48720833D01*
X117961580Y-48720833D02*
X118009200Y-48768452D01*
X118009200Y-48768452D02*
X118056819Y-48863690D01*
X118056819Y-48863690D02*
X118056819Y-48958928D01*
X118056819Y-48958928D02*
X118009200Y-49054166D01*
X118009200Y-49054166D02*
X117961580Y-49101785D01*
X117961580Y-49101785D02*
X117866342Y-49149404D01*
X117866342Y-49149404D02*
X117675866Y-49197023D01*
X117675866Y-49197023D02*
X117437771Y-49197023D01*
X117437771Y-49197023D02*
X117247295Y-49149404D01*
X117247295Y-49149404D02*
X117152057Y-49101785D01*
X117152057Y-49101785D02*
X117104438Y-49054166D01*
X117104438Y-49054166D02*
X117056819Y-48958928D01*
X122713761Y-65513057D02*
X122618523Y-65465438D01*
X122618523Y-65465438D02*
X122523285Y-65370200D01*
X122523285Y-65370200D02*
X122380428Y-65227342D01*
X122380428Y-65227342D02*
X122285190Y-65179723D01*
X122285190Y-65179723D02*
X122189952Y-65179723D01*
X122237571Y-65417819D02*
X122142333Y-65370200D01*
X122142333Y-65370200D02*
X122047095Y-65274961D01*
X122047095Y-65274961D02*
X121999476Y-65084485D01*
X121999476Y-65084485D02*
X121999476Y-64751152D01*
X121999476Y-64751152D02*
X122047095Y-64560676D01*
X122047095Y-64560676D02*
X122142333Y-64465438D01*
X122142333Y-64465438D02*
X122237571Y-64417819D01*
X122237571Y-64417819D02*
X122428047Y-64417819D01*
X122428047Y-64417819D02*
X122523285Y-64465438D01*
X122523285Y-64465438D02*
X122618523Y-64560676D01*
X122618523Y-64560676D02*
X122666142Y-64751152D01*
X122666142Y-64751152D02*
X122666142Y-65084485D01*
X122666142Y-65084485D02*
X122618523Y-65274961D01*
X122618523Y-65274961D02*
X122523285Y-65370200D01*
X122523285Y-65370200D02*
X122428047Y-65417819D01*
X122428047Y-65417819D02*
X122237571Y-65417819D01*
X123618523Y-65417819D02*
X123047095Y-65417819D01*
X123332809Y-65417819D02*
X123332809Y-64417819D01*
X123332809Y-64417819D02*
X123237571Y-64560676D01*
X123237571Y-64560676D02*
X123142333Y-64655914D01*
X123142333Y-64655914D02*
X123047095Y-64703533D01*
X144234819Y-41108094D02*
X144234819Y-40536666D01*
X145234819Y-40822380D02*
X144234819Y-40822380D01*
X145234819Y-40203332D02*
X144234819Y-40203332D01*
X144234819Y-40203332D02*
X144234819Y-39822380D01*
X144234819Y-39822380D02*
X144282438Y-39727142D01*
X144282438Y-39727142D02*
X144330057Y-39679523D01*
X144330057Y-39679523D02*
X144425295Y-39631904D01*
X144425295Y-39631904D02*
X144568152Y-39631904D01*
X144568152Y-39631904D02*
X144663390Y-39679523D01*
X144663390Y-39679523D02*
X144711009Y-39727142D01*
X144711009Y-39727142D02*
X144758628Y-39822380D01*
X144758628Y-39822380D02*
X144758628Y-40203332D01*
X144234819Y-39298570D02*
X144234819Y-38679523D01*
X144234819Y-38679523D02*
X144615771Y-39012856D01*
X144615771Y-39012856D02*
X144615771Y-38869999D01*
X144615771Y-38869999D02*
X144663390Y-38774761D01*
X144663390Y-38774761D02*
X144711009Y-38727142D01*
X144711009Y-38727142D02*
X144806247Y-38679523D01*
X144806247Y-38679523D02*
X145044342Y-38679523D01*
X145044342Y-38679523D02*
X145139580Y-38727142D01*
X145139580Y-38727142D02*
X145187200Y-38774761D01*
X145187200Y-38774761D02*
X145234819Y-38869999D01*
X145234819Y-38869999D02*
X145234819Y-39155713D01*
X145234819Y-39155713D02*
X145187200Y-39250951D01*
X145187200Y-39250951D02*
X145139580Y-39298570D01*
X144568152Y-37822380D02*
X145234819Y-37822380D01*
X144187200Y-38060475D02*
X144901485Y-38298570D01*
X144901485Y-38298570D02*
X144901485Y-37679523D01*
X171937819Y-50054166D02*
X171461628Y-50387499D01*
X171937819Y-50625594D02*
X170937819Y-50625594D01*
X170937819Y-50625594D02*
X170937819Y-50244642D01*
X170937819Y-50244642D02*
X170985438Y-50149404D01*
X170985438Y-50149404D02*
X171033057Y-50101785D01*
X171033057Y-50101785D02*
X171128295Y-50054166D01*
X171128295Y-50054166D02*
X171271152Y-50054166D01*
X171271152Y-50054166D02*
X171366390Y-50101785D01*
X171366390Y-50101785D02*
X171414009Y-50149404D01*
X171414009Y-50149404D02*
X171461628Y-50244642D01*
X171461628Y-50244642D02*
X171461628Y-50625594D01*
X170937819Y-49149404D02*
X170937819Y-49625594D01*
X170937819Y-49625594D02*
X171414009Y-49673213D01*
X171414009Y-49673213D02*
X171366390Y-49625594D01*
X171366390Y-49625594D02*
X171318771Y-49530356D01*
X171318771Y-49530356D02*
X171318771Y-49292261D01*
X171318771Y-49292261D02*
X171366390Y-49197023D01*
X171366390Y-49197023D02*
X171414009Y-49149404D01*
X171414009Y-49149404D02*
X171509247Y-49101785D01*
X171509247Y-49101785D02*
X171747342Y-49101785D01*
X171747342Y-49101785D02*
X171842580Y-49149404D01*
X171842580Y-49149404D02*
X171890200Y-49197023D01*
X171890200Y-49197023D02*
X171937819Y-49292261D01*
X171937819Y-49292261D02*
X171937819Y-49530356D01*
X171937819Y-49530356D02*
X171890200Y-49625594D01*
X171890200Y-49625594D02*
X171842580Y-49673213D01*
X122009819Y-41108094D02*
X122009819Y-40536666D01*
X123009819Y-40822380D02*
X122009819Y-40822380D01*
X123009819Y-40203332D02*
X122009819Y-40203332D01*
X122009819Y-40203332D02*
X122009819Y-39822380D01*
X122009819Y-39822380D02*
X122057438Y-39727142D01*
X122057438Y-39727142D02*
X122105057Y-39679523D01*
X122105057Y-39679523D02*
X122200295Y-39631904D01*
X122200295Y-39631904D02*
X122343152Y-39631904D01*
X122343152Y-39631904D02*
X122438390Y-39679523D01*
X122438390Y-39679523D02*
X122486009Y-39727142D01*
X122486009Y-39727142D02*
X122533628Y-39822380D01*
X122533628Y-39822380D02*
X122533628Y-40203332D01*
X122105057Y-39250951D02*
X122057438Y-39203332D01*
X122057438Y-39203332D02*
X122009819Y-39108094D01*
X122009819Y-39108094D02*
X122009819Y-38869999D01*
X122009819Y-38869999D02*
X122057438Y-38774761D01*
X122057438Y-38774761D02*
X122105057Y-38727142D01*
X122105057Y-38727142D02*
X122200295Y-38679523D01*
X122200295Y-38679523D02*
X122295533Y-38679523D01*
X122295533Y-38679523D02*
X122438390Y-38727142D01*
X122438390Y-38727142D02*
X123009819Y-39298570D01*
X123009819Y-39298570D02*
X123009819Y-38679523D01*
X122009819Y-38346189D02*
X122009819Y-37679523D01*
X122009819Y-37679523D02*
X123009819Y-38108094D01*
X125679819Y-62708357D02*
X125203628Y-63041690D01*
X125679819Y-63279785D02*
X124679819Y-63279785D01*
X124679819Y-63279785D02*
X124679819Y-62898833D01*
X124679819Y-62898833D02*
X124727438Y-62803595D01*
X124727438Y-62803595D02*
X124775057Y-62755976D01*
X124775057Y-62755976D02*
X124870295Y-62708357D01*
X124870295Y-62708357D02*
X125013152Y-62708357D01*
X125013152Y-62708357D02*
X125108390Y-62755976D01*
X125108390Y-62755976D02*
X125156009Y-62803595D01*
X125156009Y-62803595D02*
X125203628Y-62898833D01*
X125203628Y-62898833D02*
X125203628Y-63279785D01*
X125679819Y-61755976D02*
X125679819Y-62327404D01*
X125679819Y-62041690D02*
X124679819Y-62041690D01*
X124679819Y-62041690D02*
X124822676Y-62136928D01*
X124822676Y-62136928D02*
X124917914Y-62232166D01*
X124917914Y-62232166D02*
X124965533Y-62327404D01*
X125679819Y-60803595D02*
X125679819Y-61375023D01*
X125679819Y-61089309D02*
X124679819Y-61089309D01*
X124679819Y-61089309D02*
X124822676Y-61184547D01*
X124822676Y-61184547D02*
X124917914Y-61279785D01*
X124917914Y-61279785D02*
X124965533Y-61375023D01*
X166459819Y-41108094D02*
X166459819Y-40536666D01*
X167459819Y-40822380D02*
X166459819Y-40822380D01*
X167459819Y-40203332D02*
X166459819Y-40203332D01*
X166459819Y-40203332D02*
X166459819Y-39822380D01*
X166459819Y-39822380D02*
X166507438Y-39727142D01*
X166507438Y-39727142D02*
X166555057Y-39679523D01*
X166555057Y-39679523D02*
X166650295Y-39631904D01*
X166650295Y-39631904D02*
X166793152Y-39631904D01*
X166793152Y-39631904D02*
X166888390Y-39679523D01*
X166888390Y-39679523D02*
X166936009Y-39727142D01*
X166936009Y-39727142D02*
X166983628Y-39822380D01*
X166983628Y-39822380D02*
X166983628Y-40203332D01*
X166793152Y-38774761D02*
X167459819Y-38774761D01*
X166412200Y-39012856D02*
X167126485Y-39250951D01*
X167126485Y-39250951D02*
X167126485Y-38631904D01*
X167459819Y-37727142D02*
X167459819Y-38298570D01*
X167459819Y-38012856D02*
X166459819Y-38012856D01*
X166459819Y-38012856D02*
X166602676Y-38108094D01*
X166602676Y-38108094D02*
X166697914Y-38203332D01*
X166697914Y-38203332D02*
X166745533Y-38298570D01*
X178287819Y-50054166D02*
X177811628Y-50387499D01*
X178287819Y-50625594D02*
X177287819Y-50625594D01*
X177287819Y-50625594D02*
X177287819Y-50244642D01*
X177287819Y-50244642D02*
X177335438Y-50149404D01*
X177335438Y-50149404D02*
X177383057Y-50101785D01*
X177383057Y-50101785D02*
X177478295Y-50054166D01*
X177478295Y-50054166D02*
X177621152Y-50054166D01*
X177621152Y-50054166D02*
X177716390Y-50101785D01*
X177716390Y-50101785D02*
X177764009Y-50149404D01*
X177764009Y-50149404D02*
X177811628Y-50244642D01*
X177811628Y-50244642D02*
X177811628Y-50625594D01*
X177287819Y-49197023D02*
X177287819Y-49387499D01*
X177287819Y-49387499D02*
X177335438Y-49482737D01*
X177335438Y-49482737D02*
X177383057Y-49530356D01*
X177383057Y-49530356D02*
X177525914Y-49625594D01*
X177525914Y-49625594D02*
X177716390Y-49673213D01*
X177716390Y-49673213D02*
X178097342Y-49673213D01*
X178097342Y-49673213D02*
X178192580Y-49625594D01*
X178192580Y-49625594D02*
X178240200Y-49577975D01*
X178240200Y-49577975D02*
X178287819Y-49482737D01*
X178287819Y-49482737D02*
X178287819Y-49292261D01*
X178287819Y-49292261D02*
X178240200Y-49197023D01*
X178240200Y-49197023D02*
X178192580Y-49149404D01*
X178192580Y-49149404D02*
X178097342Y-49101785D01*
X178097342Y-49101785D02*
X177859247Y-49101785D01*
X177859247Y-49101785D02*
X177764009Y-49149404D01*
X177764009Y-49149404D02*
X177716390Y-49197023D01*
X177716390Y-49197023D02*
X177668771Y-49292261D01*
X177668771Y-49292261D02*
X177668771Y-49482737D01*
X177668771Y-49482737D02*
X177716390Y-49577975D01*
X177716390Y-49577975D02*
X177764009Y-49625594D01*
X177764009Y-49625594D02*
X177859247Y-49673213D01*
X156934819Y-41108094D02*
X156934819Y-40536666D01*
X157934819Y-40822380D02*
X156934819Y-40822380D01*
X157934819Y-40203332D02*
X156934819Y-40203332D01*
X156934819Y-40203332D02*
X156934819Y-39822380D01*
X156934819Y-39822380D02*
X156982438Y-39727142D01*
X156982438Y-39727142D02*
X157030057Y-39679523D01*
X157030057Y-39679523D02*
X157125295Y-39631904D01*
X157125295Y-39631904D02*
X157268152Y-39631904D01*
X157268152Y-39631904D02*
X157363390Y-39679523D01*
X157363390Y-39679523D02*
X157411009Y-39727142D01*
X157411009Y-39727142D02*
X157458628Y-39822380D01*
X157458628Y-39822380D02*
X157458628Y-40203332D01*
X156934819Y-39298570D02*
X156934819Y-38679523D01*
X156934819Y-38679523D02*
X157315771Y-39012856D01*
X157315771Y-39012856D02*
X157315771Y-38869999D01*
X157315771Y-38869999D02*
X157363390Y-38774761D01*
X157363390Y-38774761D02*
X157411009Y-38727142D01*
X157411009Y-38727142D02*
X157506247Y-38679523D01*
X157506247Y-38679523D02*
X157744342Y-38679523D01*
X157744342Y-38679523D02*
X157839580Y-38727142D01*
X157839580Y-38727142D02*
X157887200Y-38774761D01*
X157887200Y-38774761D02*
X157934819Y-38869999D01*
X157934819Y-38869999D02*
X157934819Y-39155713D01*
X157934819Y-39155713D02*
X157887200Y-39250951D01*
X157887200Y-39250951D02*
X157839580Y-39298570D01*
X157363390Y-38108094D02*
X157315771Y-38203332D01*
X157315771Y-38203332D02*
X157268152Y-38250951D01*
X157268152Y-38250951D02*
X157172914Y-38298570D01*
X157172914Y-38298570D02*
X157125295Y-38298570D01*
X157125295Y-38298570D02*
X157030057Y-38250951D01*
X157030057Y-38250951D02*
X156982438Y-38203332D01*
X156982438Y-38203332D02*
X156934819Y-38108094D01*
X156934819Y-38108094D02*
X156934819Y-37917618D01*
X156934819Y-37917618D02*
X156982438Y-37822380D01*
X156982438Y-37822380D02*
X157030057Y-37774761D01*
X157030057Y-37774761D02*
X157125295Y-37727142D01*
X157125295Y-37727142D02*
X157172914Y-37727142D01*
X157172914Y-37727142D02*
X157268152Y-37774761D01*
X157268152Y-37774761D02*
X157315771Y-37822380D01*
X157315771Y-37822380D02*
X157363390Y-37917618D01*
X157363390Y-37917618D02*
X157363390Y-38108094D01*
X157363390Y-38108094D02*
X157411009Y-38203332D01*
X157411009Y-38203332D02*
X157458628Y-38250951D01*
X157458628Y-38250951D02*
X157553866Y-38298570D01*
X157553866Y-38298570D02*
X157744342Y-38298570D01*
X157744342Y-38298570D02*
X157839580Y-38250951D01*
X157839580Y-38250951D02*
X157887200Y-38203332D01*
X157887200Y-38203332D02*
X157934819Y-38108094D01*
X157934819Y-38108094D02*
X157934819Y-37917618D01*
X157934819Y-37917618D02*
X157887200Y-37822380D01*
X157887200Y-37822380D02*
X157839580Y-37774761D01*
X157839580Y-37774761D02*
X157744342Y-37727142D01*
X157744342Y-37727142D02*
X157553866Y-37727142D01*
X157553866Y-37727142D02*
X157458628Y-37774761D01*
X157458628Y-37774761D02*
X157411009Y-37822380D01*
X157411009Y-37822380D02*
X157363390Y-37917618D01*
X122829819Y-82106904D02*
X123639342Y-82106904D01*
X123639342Y-82106904D02*
X123734580Y-82059285D01*
X123734580Y-82059285D02*
X123782200Y-82011666D01*
X123782200Y-82011666D02*
X123829819Y-81916428D01*
X123829819Y-81916428D02*
X123829819Y-81725952D01*
X123829819Y-81725952D02*
X123782200Y-81630714D01*
X123782200Y-81630714D02*
X123734580Y-81583095D01*
X123734580Y-81583095D02*
X123639342Y-81535476D01*
X123639342Y-81535476D02*
X122829819Y-81535476D01*
X122925057Y-81106904D02*
X122877438Y-81059285D01*
X122877438Y-81059285D02*
X122829819Y-80964047D01*
X122829819Y-80964047D02*
X122829819Y-80725952D01*
X122829819Y-80725952D02*
X122877438Y-80630714D01*
X122877438Y-80630714D02*
X122925057Y-80583095D01*
X122925057Y-80583095D02*
X123020295Y-80535476D01*
X123020295Y-80535476D02*
X123115533Y-80535476D01*
X123115533Y-80535476D02*
X123258390Y-80583095D01*
X123258390Y-80583095D02*
X123829819Y-81154523D01*
X123829819Y-81154523D02*
X123829819Y-80535476D01*
X150584819Y-41108094D02*
X150584819Y-40536666D01*
X151584819Y-40822380D02*
X150584819Y-40822380D01*
X151584819Y-40203332D02*
X150584819Y-40203332D01*
X150584819Y-40203332D02*
X150584819Y-39822380D01*
X150584819Y-39822380D02*
X150632438Y-39727142D01*
X150632438Y-39727142D02*
X150680057Y-39679523D01*
X150680057Y-39679523D02*
X150775295Y-39631904D01*
X150775295Y-39631904D02*
X150918152Y-39631904D01*
X150918152Y-39631904D02*
X151013390Y-39679523D01*
X151013390Y-39679523D02*
X151061009Y-39727142D01*
X151061009Y-39727142D02*
X151108628Y-39822380D01*
X151108628Y-39822380D02*
X151108628Y-40203332D01*
X150584819Y-39298570D02*
X150584819Y-38679523D01*
X150584819Y-38679523D02*
X150965771Y-39012856D01*
X150965771Y-39012856D02*
X150965771Y-38869999D01*
X150965771Y-38869999D02*
X151013390Y-38774761D01*
X151013390Y-38774761D02*
X151061009Y-38727142D01*
X151061009Y-38727142D02*
X151156247Y-38679523D01*
X151156247Y-38679523D02*
X151394342Y-38679523D01*
X151394342Y-38679523D02*
X151489580Y-38727142D01*
X151489580Y-38727142D02*
X151537200Y-38774761D01*
X151537200Y-38774761D02*
X151584819Y-38869999D01*
X151584819Y-38869999D02*
X151584819Y-39155713D01*
X151584819Y-39155713D02*
X151537200Y-39250951D01*
X151537200Y-39250951D02*
X151489580Y-39298570D01*
X150584819Y-37822380D02*
X150584819Y-38012856D01*
X150584819Y-38012856D02*
X150632438Y-38108094D01*
X150632438Y-38108094D02*
X150680057Y-38155713D01*
X150680057Y-38155713D02*
X150822914Y-38250951D01*
X150822914Y-38250951D02*
X151013390Y-38298570D01*
X151013390Y-38298570D02*
X151394342Y-38298570D01*
X151394342Y-38298570D02*
X151489580Y-38250951D01*
X151489580Y-38250951D02*
X151537200Y-38203332D01*
X151537200Y-38203332D02*
X151584819Y-38108094D01*
X151584819Y-38108094D02*
X151584819Y-37917618D01*
X151584819Y-37917618D02*
X151537200Y-37822380D01*
X151537200Y-37822380D02*
X151489580Y-37774761D01*
X151489580Y-37774761D02*
X151394342Y-37727142D01*
X151394342Y-37727142D02*
X151156247Y-37727142D01*
X151156247Y-37727142D02*
X151061009Y-37774761D01*
X151061009Y-37774761D02*
X151013390Y-37822380D01*
X151013390Y-37822380D02*
X150965771Y-37917618D01*
X150965771Y-37917618D02*
X150965771Y-38108094D01*
X150965771Y-38108094D02*
X151013390Y-38203332D01*
X151013390Y-38203332D02*
X151061009Y-38250951D01*
X151061009Y-38250951D02*
X151156247Y-38298570D01*
X111706819Y-50530357D02*
X111230628Y-50863690D01*
X111706819Y-51101785D02*
X110706819Y-51101785D01*
X110706819Y-51101785D02*
X110706819Y-50720833D01*
X110706819Y-50720833D02*
X110754438Y-50625595D01*
X110754438Y-50625595D02*
X110802057Y-50577976D01*
X110802057Y-50577976D02*
X110897295Y-50530357D01*
X110897295Y-50530357D02*
X111040152Y-50530357D01*
X111040152Y-50530357D02*
X111135390Y-50577976D01*
X111135390Y-50577976D02*
X111183009Y-50625595D01*
X111183009Y-50625595D02*
X111230628Y-50720833D01*
X111230628Y-50720833D02*
X111230628Y-51101785D01*
X110802057Y-50149404D02*
X110754438Y-50101785D01*
X110754438Y-50101785D02*
X110706819Y-50006547D01*
X110706819Y-50006547D02*
X110706819Y-49768452D01*
X110706819Y-49768452D02*
X110754438Y-49673214D01*
X110754438Y-49673214D02*
X110802057Y-49625595D01*
X110802057Y-49625595D02*
X110897295Y-49577976D01*
X110897295Y-49577976D02*
X110992533Y-49577976D01*
X110992533Y-49577976D02*
X111135390Y-49625595D01*
X111135390Y-49625595D02*
X111706819Y-50197023D01*
X111706819Y-50197023D02*
X111706819Y-49577976D01*
X110802057Y-49197023D02*
X110754438Y-49149404D01*
X110754438Y-49149404D02*
X110706819Y-49054166D01*
X110706819Y-49054166D02*
X110706819Y-48816071D01*
X110706819Y-48816071D02*
X110754438Y-48720833D01*
X110754438Y-48720833D02*
X110802057Y-48673214D01*
X110802057Y-48673214D02*
X110897295Y-48625595D01*
X110897295Y-48625595D02*
X110992533Y-48625595D01*
X110992533Y-48625595D02*
X111135390Y-48673214D01*
X111135390Y-48673214D02*
X111706819Y-49244642D01*
X111706819Y-49244642D02*
X111706819Y-48625595D01*
X153759819Y-41108094D02*
X153759819Y-40536666D01*
X154759819Y-40822380D02*
X153759819Y-40822380D01*
X154759819Y-40203332D02*
X153759819Y-40203332D01*
X153759819Y-40203332D02*
X153759819Y-39822380D01*
X153759819Y-39822380D02*
X153807438Y-39727142D01*
X153807438Y-39727142D02*
X153855057Y-39679523D01*
X153855057Y-39679523D02*
X153950295Y-39631904D01*
X153950295Y-39631904D02*
X154093152Y-39631904D01*
X154093152Y-39631904D02*
X154188390Y-39679523D01*
X154188390Y-39679523D02*
X154236009Y-39727142D01*
X154236009Y-39727142D02*
X154283628Y-39822380D01*
X154283628Y-39822380D02*
X154283628Y-40203332D01*
X153759819Y-39298570D02*
X153759819Y-38679523D01*
X153759819Y-38679523D02*
X154140771Y-39012856D01*
X154140771Y-39012856D02*
X154140771Y-38869999D01*
X154140771Y-38869999D02*
X154188390Y-38774761D01*
X154188390Y-38774761D02*
X154236009Y-38727142D01*
X154236009Y-38727142D02*
X154331247Y-38679523D01*
X154331247Y-38679523D02*
X154569342Y-38679523D01*
X154569342Y-38679523D02*
X154664580Y-38727142D01*
X154664580Y-38727142D02*
X154712200Y-38774761D01*
X154712200Y-38774761D02*
X154759819Y-38869999D01*
X154759819Y-38869999D02*
X154759819Y-39155713D01*
X154759819Y-39155713D02*
X154712200Y-39250951D01*
X154712200Y-39250951D02*
X154664580Y-39298570D01*
X153759819Y-38346189D02*
X153759819Y-37679523D01*
X153759819Y-37679523D02*
X154759819Y-38108094D01*
X128854819Y-62708357D02*
X128378628Y-63041690D01*
X128854819Y-63279785D02*
X127854819Y-63279785D01*
X127854819Y-63279785D02*
X127854819Y-62898833D01*
X127854819Y-62898833D02*
X127902438Y-62803595D01*
X127902438Y-62803595D02*
X127950057Y-62755976D01*
X127950057Y-62755976D02*
X128045295Y-62708357D01*
X128045295Y-62708357D02*
X128188152Y-62708357D01*
X128188152Y-62708357D02*
X128283390Y-62755976D01*
X128283390Y-62755976D02*
X128331009Y-62803595D01*
X128331009Y-62803595D02*
X128378628Y-62898833D01*
X128378628Y-62898833D02*
X128378628Y-63279785D01*
X128854819Y-61755976D02*
X128854819Y-62327404D01*
X128854819Y-62041690D02*
X127854819Y-62041690D01*
X127854819Y-62041690D02*
X127997676Y-62136928D01*
X127997676Y-62136928D02*
X128092914Y-62232166D01*
X128092914Y-62232166D02*
X128140533Y-62327404D01*
X127950057Y-61375023D02*
X127902438Y-61327404D01*
X127902438Y-61327404D02*
X127854819Y-61232166D01*
X127854819Y-61232166D02*
X127854819Y-60994071D01*
X127854819Y-60994071D02*
X127902438Y-60898833D01*
X127902438Y-60898833D02*
X127950057Y-60851214D01*
X127950057Y-60851214D02*
X128045295Y-60803595D01*
X128045295Y-60803595D02*
X128140533Y-60803595D01*
X128140533Y-60803595D02*
X128283390Y-60851214D01*
X128283390Y-60851214D02*
X128854819Y-61422642D01*
X128854819Y-61422642D02*
X128854819Y-60803595D01*
X195034819Y-41108094D02*
X195034819Y-40536666D01*
X196034819Y-40822380D02*
X195034819Y-40822380D01*
X196034819Y-40203332D02*
X195034819Y-40203332D01*
X195034819Y-40203332D02*
X195034819Y-39822380D01*
X195034819Y-39822380D02*
X195082438Y-39727142D01*
X195082438Y-39727142D02*
X195130057Y-39679523D01*
X195130057Y-39679523D02*
X195225295Y-39631904D01*
X195225295Y-39631904D02*
X195368152Y-39631904D01*
X195368152Y-39631904D02*
X195463390Y-39679523D01*
X195463390Y-39679523D02*
X195511009Y-39727142D01*
X195511009Y-39727142D02*
X195558628Y-39822380D01*
X195558628Y-39822380D02*
X195558628Y-40203332D01*
X195034819Y-38727142D02*
X195034819Y-39203332D01*
X195034819Y-39203332D02*
X195511009Y-39250951D01*
X195511009Y-39250951D02*
X195463390Y-39203332D01*
X195463390Y-39203332D02*
X195415771Y-39108094D01*
X195415771Y-39108094D02*
X195415771Y-38869999D01*
X195415771Y-38869999D02*
X195463390Y-38774761D01*
X195463390Y-38774761D02*
X195511009Y-38727142D01*
X195511009Y-38727142D02*
X195606247Y-38679523D01*
X195606247Y-38679523D02*
X195844342Y-38679523D01*
X195844342Y-38679523D02*
X195939580Y-38727142D01*
X195939580Y-38727142D02*
X195987200Y-38774761D01*
X195987200Y-38774761D02*
X196034819Y-38869999D01*
X196034819Y-38869999D02*
X196034819Y-39108094D01*
X196034819Y-39108094D02*
X195987200Y-39203332D01*
X195987200Y-39203332D02*
X195939580Y-39250951D01*
X195034819Y-38060475D02*
X195034819Y-37965237D01*
X195034819Y-37965237D02*
X195082438Y-37869999D01*
X195082438Y-37869999D02*
X195130057Y-37822380D01*
X195130057Y-37822380D02*
X195225295Y-37774761D01*
X195225295Y-37774761D02*
X195415771Y-37727142D01*
X195415771Y-37727142D02*
X195653866Y-37727142D01*
X195653866Y-37727142D02*
X195844342Y-37774761D01*
X195844342Y-37774761D02*
X195939580Y-37822380D01*
X195939580Y-37822380D02*
X195987200Y-37869999D01*
X195987200Y-37869999D02*
X196034819Y-37965237D01*
X196034819Y-37965237D02*
X196034819Y-38060475D01*
X196034819Y-38060475D02*
X195987200Y-38155713D01*
X195987200Y-38155713D02*
X195939580Y-38203332D01*
X195939580Y-38203332D02*
X195844342Y-38250951D01*
X195844342Y-38250951D02*
X195653866Y-38298570D01*
X195653866Y-38298570D02*
X195415771Y-38298570D01*
X195415771Y-38298570D02*
X195225295Y-38250951D01*
X195225295Y-38250951D02*
X195130057Y-38203332D01*
X195130057Y-38203332D02*
X195082438Y-38155713D01*
X195082438Y-38155713D02*
X195034819Y-38060475D01*
X125184819Y-41108094D02*
X125184819Y-40536666D01*
X126184819Y-40822380D02*
X125184819Y-40822380D01*
X126184819Y-40203332D02*
X125184819Y-40203332D01*
X125184819Y-40203332D02*
X125184819Y-39822380D01*
X125184819Y-39822380D02*
X125232438Y-39727142D01*
X125232438Y-39727142D02*
X125280057Y-39679523D01*
X125280057Y-39679523D02*
X125375295Y-39631904D01*
X125375295Y-39631904D02*
X125518152Y-39631904D01*
X125518152Y-39631904D02*
X125613390Y-39679523D01*
X125613390Y-39679523D02*
X125661009Y-39727142D01*
X125661009Y-39727142D02*
X125708628Y-39822380D01*
X125708628Y-39822380D02*
X125708628Y-40203332D01*
X125280057Y-39250951D02*
X125232438Y-39203332D01*
X125232438Y-39203332D02*
X125184819Y-39108094D01*
X125184819Y-39108094D02*
X125184819Y-38869999D01*
X125184819Y-38869999D02*
X125232438Y-38774761D01*
X125232438Y-38774761D02*
X125280057Y-38727142D01*
X125280057Y-38727142D02*
X125375295Y-38679523D01*
X125375295Y-38679523D02*
X125470533Y-38679523D01*
X125470533Y-38679523D02*
X125613390Y-38727142D01*
X125613390Y-38727142D02*
X126184819Y-39298570D01*
X126184819Y-39298570D02*
X126184819Y-38679523D01*
X125613390Y-38108094D02*
X125565771Y-38203332D01*
X125565771Y-38203332D02*
X125518152Y-38250951D01*
X125518152Y-38250951D02*
X125422914Y-38298570D01*
X125422914Y-38298570D02*
X125375295Y-38298570D01*
X125375295Y-38298570D02*
X125280057Y-38250951D01*
X125280057Y-38250951D02*
X125232438Y-38203332D01*
X125232438Y-38203332D02*
X125184819Y-38108094D01*
X125184819Y-38108094D02*
X125184819Y-37917618D01*
X125184819Y-37917618D02*
X125232438Y-37822380D01*
X125232438Y-37822380D02*
X125280057Y-37774761D01*
X125280057Y-37774761D02*
X125375295Y-37727142D01*
X125375295Y-37727142D02*
X125422914Y-37727142D01*
X125422914Y-37727142D02*
X125518152Y-37774761D01*
X125518152Y-37774761D02*
X125565771Y-37822380D01*
X125565771Y-37822380D02*
X125613390Y-37917618D01*
X125613390Y-37917618D02*
X125613390Y-38108094D01*
X125613390Y-38108094D02*
X125661009Y-38203332D01*
X125661009Y-38203332D02*
X125708628Y-38250951D01*
X125708628Y-38250951D02*
X125803866Y-38298570D01*
X125803866Y-38298570D02*
X125994342Y-38298570D01*
X125994342Y-38298570D02*
X126089580Y-38250951D01*
X126089580Y-38250951D02*
X126137200Y-38203332D01*
X126137200Y-38203332D02*
X126184819Y-38108094D01*
X126184819Y-38108094D02*
X126184819Y-37917618D01*
X126184819Y-37917618D02*
X126137200Y-37822380D01*
X126137200Y-37822380D02*
X126089580Y-37774761D01*
X126089580Y-37774761D02*
X125994342Y-37727142D01*
X125994342Y-37727142D02*
X125803866Y-37727142D01*
X125803866Y-37727142D02*
X125708628Y-37774761D01*
X125708628Y-37774761D02*
X125661009Y-37822380D01*
X125661009Y-37822380D02*
X125613390Y-37917618D01*
X126071333Y-79701580D02*
X126023714Y-79749200D01*
X126023714Y-79749200D02*
X125880857Y-79796819D01*
X125880857Y-79796819D02*
X125785619Y-79796819D01*
X125785619Y-79796819D02*
X125642762Y-79749200D01*
X125642762Y-79749200D02*
X125547524Y-79653961D01*
X125547524Y-79653961D02*
X125499905Y-79558723D01*
X125499905Y-79558723D02*
X125452286Y-79368247D01*
X125452286Y-79368247D02*
X125452286Y-79225390D01*
X125452286Y-79225390D02*
X125499905Y-79034914D01*
X125499905Y-79034914D02*
X125547524Y-78939676D01*
X125547524Y-78939676D02*
X125642762Y-78844438D01*
X125642762Y-78844438D02*
X125785619Y-78796819D01*
X125785619Y-78796819D02*
X125880857Y-78796819D01*
X125880857Y-78796819D02*
X126023714Y-78844438D01*
X126023714Y-78844438D02*
X126071333Y-78892057D01*
X126547524Y-79796819D02*
X126738000Y-79796819D01*
X126738000Y-79796819D02*
X126833238Y-79749200D01*
X126833238Y-79749200D02*
X126880857Y-79701580D01*
X126880857Y-79701580D02*
X126976095Y-79558723D01*
X126976095Y-79558723D02*
X127023714Y-79368247D01*
X127023714Y-79368247D02*
X127023714Y-78987295D01*
X127023714Y-78987295D02*
X126976095Y-78892057D01*
X126976095Y-78892057D02*
X126928476Y-78844438D01*
X126928476Y-78844438D02*
X126833238Y-78796819D01*
X126833238Y-78796819D02*
X126642762Y-78796819D01*
X126642762Y-78796819D02*
X126547524Y-78844438D01*
X126547524Y-78844438D02*
X126499905Y-78892057D01*
X126499905Y-78892057D02*
X126452286Y-78987295D01*
X126452286Y-78987295D02*
X126452286Y-79225390D01*
X126452286Y-79225390D02*
X126499905Y-79320628D01*
X126499905Y-79320628D02*
X126547524Y-79368247D01*
X126547524Y-79368247D02*
X126642762Y-79415866D01*
X126642762Y-79415866D02*
X126833238Y-79415866D01*
X126833238Y-79415866D02*
X126928476Y-79368247D01*
X126928476Y-79368247D02*
X126976095Y-79320628D01*
X126976095Y-79320628D02*
X127023714Y-79225390D01*
X115549819Y-62200357D02*
X115073628Y-62533690D01*
X115549819Y-62771785D02*
X114549819Y-62771785D01*
X114549819Y-62771785D02*
X114549819Y-62390833D01*
X114549819Y-62390833D02*
X114597438Y-62295595D01*
X114597438Y-62295595D02*
X114645057Y-62247976D01*
X114645057Y-62247976D02*
X114740295Y-62200357D01*
X114740295Y-62200357D02*
X114883152Y-62200357D01*
X114883152Y-62200357D02*
X114978390Y-62247976D01*
X114978390Y-62247976D02*
X115026009Y-62295595D01*
X115026009Y-62295595D02*
X115073628Y-62390833D01*
X115073628Y-62390833D02*
X115073628Y-62771785D01*
X115549819Y-61247976D02*
X115549819Y-61819404D01*
X115549819Y-61533690D02*
X114549819Y-61533690D01*
X114549819Y-61533690D02*
X114692676Y-61628928D01*
X114692676Y-61628928D02*
X114787914Y-61724166D01*
X114787914Y-61724166D02*
X114835533Y-61819404D01*
X114549819Y-60343214D02*
X114549819Y-60819404D01*
X114549819Y-60819404D02*
X115026009Y-60867023D01*
X115026009Y-60867023D02*
X114978390Y-60819404D01*
X114978390Y-60819404D02*
X114930771Y-60724166D01*
X114930771Y-60724166D02*
X114930771Y-60486071D01*
X114930771Y-60486071D02*
X114978390Y-60390833D01*
X114978390Y-60390833D02*
X115026009Y-60343214D01*
X115026009Y-60343214D02*
X115121247Y-60295595D01*
X115121247Y-60295595D02*
X115359342Y-60295595D01*
X115359342Y-60295595D02*
X115454580Y-60343214D01*
X115454580Y-60343214D02*
X115502200Y-60390833D01*
X115502200Y-60390833D02*
X115549819Y-60486071D01*
X115549819Y-60486071D02*
X115549819Y-60724166D01*
X115549819Y-60724166D02*
X115502200Y-60819404D01*
X115502200Y-60819404D02*
X115454580Y-60867023D01*
X175427819Y-56245357D02*
X174951628Y-56578690D01*
X175427819Y-56816785D02*
X174427819Y-56816785D01*
X174427819Y-56816785D02*
X174427819Y-56435833D01*
X174427819Y-56435833D02*
X174475438Y-56340595D01*
X174475438Y-56340595D02*
X174523057Y-56292976D01*
X174523057Y-56292976D02*
X174618295Y-56245357D01*
X174618295Y-56245357D02*
X174761152Y-56245357D01*
X174761152Y-56245357D02*
X174856390Y-56292976D01*
X174856390Y-56292976D02*
X174904009Y-56340595D01*
X174904009Y-56340595D02*
X174951628Y-56435833D01*
X174951628Y-56435833D02*
X174951628Y-56816785D01*
X175427819Y-55292976D02*
X175427819Y-55864404D01*
X175427819Y-55578690D02*
X174427819Y-55578690D01*
X174427819Y-55578690D02*
X174570676Y-55673928D01*
X174570676Y-55673928D02*
X174665914Y-55769166D01*
X174665914Y-55769166D02*
X174713533Y-55864404D01*
X174761152Y-54435833D02*
X175427819Y-54435833D01*
X174380200Y-54673928D02*
X175094485Y-54912023D01*
X175094485Y-54912023D02*
X175094485Y-54292976D01*
X141059819Y-41108094D02*
X141059819Y-40536666D01*
X142059819Y-40822380D02*
X141059819Y-40822380D01*
X142059819Y-40203332D02*
X141059819Y-40203332D01*
X141059819Y-40203332D02*
X141059819Y-39822380D01*
X141059819Y-39822380D02*
X141107438Y-39727142D01*
X141107438Y-39727142D02*
X141155057Y-39679523D01*
X141155057Y-39679523D02*
X141250295Y-39631904D01*
X141250295Y-39631904D02*
X141393152Y-39631904D01*
X141393152Y-39631904D02*
X141488390Y-39679523D01*
X141488390Y-39679523D02*
X141536009Y-39727142D01*
X141536009Y-39727142D02*
X141583628Y-39822380D01*
X141583628Y-39822380D02*
X141583628Y-40203332D01*
X141059819Y-39298570D02*
X141059819Y-38679523D01*
X141059819Y-38679523D02*
X141440771Y-39012856D01*
X141440771Y-39012856D02*
X141440771Y-38869999D01*
X141440771Y-38869999D02*
X141488390Y-38774761D01*
X141488390Y-38774761D02*
X141536009Y-38727142D01*
X141536009Y-38727142D02*
X141631247Y-38679523D01*
X141631247Y-38679523D02*
X141869342Y-38679523D01*
X141869342Y-38679523D02*
X141964580Y-38727142D01*
X141964580Y-38727142D02*
X142012200Y-38774761D01*
X142012200Y-38774761D02*
X142059819Y-38869999D01*
X142059819Y-38869999D02*
X142059819Y-39155713D01*
X142059819Y-39155713D02*
X142012200Y-39250951D01*
X142012200Y-39250951D02*
X141964580Y-39298570D01*
X141059819Y-38346189D02*
X141059819Y-37727142D01*
X141059819Y-37727142D02*
X141440771Y-38060475D01*
X141440771Y-38060475D02*
X141440771Y-37917618D01*
X141440771Y-37917618D02*
X141488390Y-37822380D01*
X141488390Y-37822380D02*
X141536009Y-37774761D01*
X141536009Y-37774761D02*
X141631247Y-37727142D01*
X141631247Y-37727142D02*
X141869342Y-37727142D01*
X141869342Y-37727142D02*
X141964580Y-37774761D01*
X141964580Y-37774761D02*
X142012200Y-37822380D01*
X142012200Y-37822380D02*
X142059819Y-37917618D01*
X142059819Y-37917618D02*
X142059819Y-38203332D01*
X142059819Y-38203332D02*
X142012200Y-38298570D01*
X142012200Y-38298570D02*
X141964580Y-38346189D01*
X114819580Y-55411666D02*
X114867200Y-55459285D01*
X114867200Y-55459285D02*
X114914819Y-55602142D01*
X114914819Y-55602142D02*
X114914819Y-55697380D01*
X114914819Y-55697380D02*
X114867200Y-55840237D01*
X114867200Y-55840237D02*
X114771961Y-55935475D01*
X114771961Y-55935475D02*
X114676723Y-55983094D01*
X114676723Y-55983094D02*
X114486247Y-56030713D01*
X114486247Y-56030713D02*
X114343390Y-56030713D01*
X114343390Y-56030713D02*
X114152914Y-55983094D01*
X114152914Y-55983094D02*
X114057676Y-55935475D01*
X114057676Y-55935475D02*
X113962438Y-55840237D01*
X113962438Y-55840237D02*
X113914819Y-55697380D01*
X113914819Y-55697380D02*
X113914819Y-55602142D01*
X113914819Y-55602142D02*
X113962438Y-55459285D01*
X113962438Y-55459285D02*
X114010057Y-55411666D01*
X114010057Y-55030713D02*
X113962438Y-54983094D01*
X113962438Y-54983094D02*
X113914819Y-54887856D01*
X113914819Y-54887856D02*
X113914819Y-54649761D01*
X113914819Y-54649761D02*
X113962438Y-54554523D01*
X113962438Y-54554523D02*
X114010057Y-54506904D01*
X114010057Y-54506904D02*
X114105295Y-54459285D01*
X114105295Y-54459285D02*
X114200533Y-54459285D01*
X114200533Y-54459285D02*
X114343390Y-54506904D01*
X114343390Y-54506904D02*
X114914819Y-55078332D01*
X114914819Y-55078332D02*
X114914819Y-54459285D01*
X102959819Y-41108094D02*
X102959819Y-40536666D01*
X103959819Y-40822380D02*
X102959819Y-40822380D01*
X103959819Y-40203332D02*
X102959819Y-40203332D01*
X102959819Y-40203332D02*
X102959819Y-39822380D01*
X102959819Y-39822380D02*
X103007438Y-39727142D01*
X103007438Y-39727142D02*
X103055057Y-39679523D01*
X103055057Y-39679523D02*
X103150295Y-39631904D01*
X103150295Y-39631904D02*
X103293152Y-39631904D01*
X103293152Y-39631904D02*
X103388390Y-39679523D01*
X103388390Y-39679523D02*
X103436009Y-39727142D01*
X103436009Y-39727142D02*
X103483628Y-39822380D01*
X103483628Y-39822380D02*
X103483628Y-40203332D01*
X103055057Y-39250951D02*
X103007438Y-39203332D01*
X103007438Y-39203332D02*
X102959819Y-39108094D01*
X102959819Y-39108094D02*
X102959819Y-38869999D01*
X102959819Y-38869999D02*
X103007438Y-38774761D01*
X103007438Y-38774761D02*
X103055057Y-38727142D01*
X103055057Y-38727142D02*
X103150295Y-38679523D01*
X103150295Y-38679523D02*
X103245533Y-38679523D01*
X103245533Y-38679523D02*
X103388390Y-38727142D01*
X103388390Y-38727142D02*
X103959819Y-39298570D01*
X103959819Y-39298570D02*
X103959819Y-38679523D01*
X103959819Y-37727142D02*
X103959819Y-38298570D01*
X103959819Y-38012856D02*
X102959819Y-38012856D01*
X102959819Y-38012856D02*
X103102676Y-38108094D01*
X103102676Y-38108094D02*
X103197914Y-38203332D01*
X103197914Y-38203332D02*
X103245533Y-38298570D01*
X162727819Y-55769166D02*
X162251628Y-56102499D01*
X162727819Y-56340594D02*
X161727819Y-56340594D01*
X161727819Y-56340594D02*
X161727819Y-55959642D01*
X161727819Y-55959642D02*
X161775438Y-55864404D01*
X161775438Y-55864404D02*
X161823057Y-55816785D01*
X161823057Y-55816785D02*
X161918295Y-55769166D01*
X161918295Y-55769166D02*
X162061152Y-55769166D01*
X162061152Y-55769166D02*
X162156390Y-55816785D01*
X162156390Y-55816785D02*
X162204009Y-55864404D01*
X162204009Y-55864404D02*
X162251628Y-55959642D01*
X162251628Y-55959642D02*
X162251628Y-56340594D01*
X162156390Y-55197737D02*
X162108771Y-55292975D01*
X162108771Y-55292975D02*
X162061152Y-55340594D01*
X162061152Y-55340594D02*
X161965914Y-55388213D01*
X161965914Y-55388213D02*
X161918295Y-55388213D01*
X161918295Y-55388213D02*
X161823057Y-55340594D01*
X161823057Y-55340594D02*
X161775438Y-55292975D01*
X161775438Y-55292975D02*
X161727819Y-55197737D01*
X161727819Y-55197737D02*
X161727819Y-55007261D01*
X161727819Y-55007261D02*
X161775438Y-54912023D01*
X161775438Y-54912023D02*
X161823057Y-54864404D01*
X161823057Y-54864404D02*
X161918295Y-54816785D01*
X161918295Y-54816785D02*
X161965914Y-54816785D01*
X161965914Y-54816785D02*
X162061152Y-54864404D01*
X162061152Y-54864404D02*
X162108771Y-54912023D01*
X162108771Y-54912023D02*
X162156390Y-55007261D01*
X162156390Y-55007261D02*
X162156390Y-55197737D01*
X162156390Y-55197737D02*
X162204009Y-55292975D01*
X162204009Y-55292975D02*
X162251628Y-55340594D01*
X162251628Y-55340594D02*
X162346866Y-55388213D01*
X162346866Y-55388213D02*
X162537342Y-55388213D01*
X162537342Y-55388213D02*
X162632580Y-55340594D01*
X162632580Y-55340594D02*
X162680200Y-55292975D01*
X162680200Y-55292975D02*
X162727819Y-55197737D01*
X162727819Y-55197737D02*
X162727819Y-55007261D01*
X162727819Y-55007261D02*
X162680200Y-54912023D01*
X162680200Y-54912023D02*
X162632580Y-54864404D01*
X162632580Y-54864404D02*
X162537342Y-54816785D01*
X162537342Y-54816785D02*
X162346866Y-54816785D01*
X162346866Y-54816785D02*
X162251628Y-54864404D01*
X162251628Y-54864404D02*
X162204009Y-54912023D01*
X162204009Y-54912023D02*
X162156390Y-55007261D01*
X131534819Y-41108094D02*
X131534819Y-40536666D01*
X132534819Y-40822380D02*
X131534819Y-40822380D01*
X132534819Y-40203332D02*
X131534819Y-40203332D01*
X131534819Y-40203332D02*
X131534819Y-39822380D01*
X131534819Y-39822380D02*
X131582438Y-39727142D01*
X131582438Y-39727142D02*
X131630057Y-39679523D01*
X131630057Y-39679523D02*
X131725295Y-39631904D01*
X131725295Y-39631904D02*
X131868152Y-39631904D01*
X131868152Y-39631904D02*
X131963390Y-39679523D01*
X131963390Y-39679523D02*
X132011009Y-39727142D01*
X132011009Y-39727142D02*
X132058628Y-39822380D01*
X132058628Y-39822380D02*
X132058628Y-40203332D01*
X131534819Y-39298570D02*
X131534819Y-38679523D01*
X131534819Y-38679523D02*
X131915771Y-39012856D01*
X131915771Y-39012856D02*
X131915771Y-38869999D01*
X131915771Y-38869999D02*
X131963390Y-38774761D01*
X131963390Y-38774761D02*
X132011009Y-38727142D01*
X132011009Y-38727142D02*
X132106247Y-38679523D01*
X132106247Y-38679523D02*
X132344342Y-38679523D01*
X132344342Y-38679523D02*
X132439580Y-38727142D01*
X132439580Y-38727142D02*
X132487200Y-38774761D01*
X132487200Y-38774761D02*
X132534819Y-38869999D01*
X132534819Y-38869999D02*
X132534819Y-39155713D01*
X132534819Y-39155713D02*
X132487200Y-39250951D01*
X132487200Y-39250951D02*
X132439580Y-39298570D01*
X131534819Y-38060475D02*
X131534819Y-37965237D01*
X131534819Y-37965237D02*
X131582438Y-37869999D01*
X131582438Y-37869999D02*
X131630057Y-37822380D01*
X131630057Y-37822380D02*
X131725295Y-37774761D01*
X131725295Y-37774761D02*
X131915771Y-37727142D01*
X131915771Y-37727142D02*
X132153866Y-37727142D01*
X132153866Y-37727142D02*
X132344342Y-37774761D01*
X132344342Y-37774761D02*
X132439580Y-37822380D01*
X132439580Y-37822380D02*
X132487200Y-37869999D01*
X132487200Y-37869999D02*
X132534819Y-37965237D01*
X132534819Y-37965237D02*
X132534819Y-38060475D01*
X132534819Y-38060475D02*
X132487200Y-38155713D01*
X132487200Y-38155713D02*
X132439580Y-38203332D01*
X132439580Y-38203332D02*
X132344342Y-38250951D01*
X132344342Y-38250951D02*
X132153866Y-38298570D01*
X132153866Y-38298570D02*
X131915771Y-38298570D01*
X131915771Y-38298570D02*
X131725295Y-38250951D01*
X131725295Y-38250951D02*
X131630057Y-38203332D01*
X131630057Y-38203332D02*
X131582438Y-38155713D01*
X131582438Y-38155713D02*
X131534819Y-38060475D01*
X134709819Y-41108094D02*
X134709819Y-40536666D01*
X135709819Y-40822380D02*
X134709819Y-40822380D01*
X135709819Y-40203332D02*
X134709819Y-40203332D01*
X134709819Y-40203332D02*
X134709819Y-39822380D01*
X134709819Y-39822380D02*
X134757438Y-39727142D01*
X134757438Y-39727142D02*
X134805057Y-39679523D01*
X134805057Y-39679523D02*
X134900295Y-39631904D01*
X134900295Y-39631904D02*
X135043152Y-39631904D01*
X135043152Y-39631904D02*
X135138390Y-39679523D01*
X135138390Y-39679523D02*
X135186009Y-39727142D01*
X135186009Y-39727142D02*
X135233628Y-39822380D01*
X135233628Y-39822380D02*
X135233628Y-40203332D01*
X134709819Y-39298570D02*
X134709819Y-38679523D01*
X134709819Y-38679523D02*
X135090771Y-39012856D01*
X135090771Y-39012856D02*
X135090771Y-38869999D01*
X135090771Y-38869999D02*
X135138390Y-38774761D01*
X135138390Y-38774761D02*
X135186009Y-38727142D01*
X135186009Y-38727142D02*
X135281247Y-38679523D01*
X135281247Y-38679523D02*
X135519342Y-38679523D01*
X135519342Y-38679523D02*
X135614580Y-38727142D01*
X135614580Y-38727142D02*
X135662200Y-38774761D01*
X135662200Y-38774761D02*
X135709819Y-38869999D01*
X135709819Y-38869999D02*
X135709819Y-39155713D01*
X135709819Y-39155713D02*
X135662200Y-39250951D01*
X135662200Y-39250951D02*
X135614580Y-39298570D01*
X135709819Y-37727142D02*
X135709819Y-38298570D01*
X135709819Y-38012856D02*
X134709819Y-38012856D01*
X134709819Y-38012856D02*
X134852676Y-38108094D01*
X134852676Y-38108094D02*
X134947914Y-38203332D01*
X134947914Y-38203332D02*
X134995533Y-38298570D01*
X182334819Y-41108094D02*
X182334819Y-40536666D01*
X183334819Y-40822380D02*
X182334819Y-40822380D01*
X183334819Y-40203332D02*
X182334819Y-40203332D01*
X182334819Y-40203332D02*
X182334819Y-39822380D01*
X182334819Y-39822380D02*
X182382438Y-39727142D01*
X182382438Y-39727142D02*
X182430057Y-39679523D01*
X182430057Y-39679523D02*
X182525295Y-39631904D01*
X182525295Y-39631904D02*
X182668152Y-39631904D01*
X182668152Y-39631904D02*
X182763390Y-39679523D01*
X182763390Y-39679523D02*
X182811009Y-39727142D01*
X182811009Y-39727142D02*
X182858628Y-39822380D01*
X182858628Y-39822380D02*
X182858628Y-40203332D01*
X182668152Y-38774761D02*
X183334819Y-38774761D01*
X182287200Y-39012856D02*
X183001485Y-39250951D01*
X183001485Y-39250951D02*
X183001485Y-38631904D01*
X182334819Y-37822380D02*
X182334819Y-38012856D01*
X182334819Y-38012856D02*
X182382438Y-38108094D01*
X182382438Y-38108094D02*
X182430057Y-38155713D01*
X182430057Y-38155713D02*
X182572914Y-38250951D01*
X182572914Y-38250951D02*
X182763390Y-38298570D01*
X182763390Y-38298570D02*
X183144342Y-38298570D01*
X183144342Y-38298570D02*
X183239580Y-38250951D01*
X183239580Y-38250951D02*
X183287200Y-38203332D01*
X183287200Y-38203332D02*
X183334819Y-38108094D01*
X183334819Y-38108094D02*
X183334819Y-37917618D01*
X183334819Y-37917618D02*
X183287200Y-37822380D01*
X183287200Y-37822380D02*
X183239580Y-37774761D01*
X183239580Y-37774761D02*
X183144342Y-37727142D01*
X183144342Y-37727142D02*
X182906247Y-37727142D01*
X182906247Y-37727142D02*
X182811009Y-37774761D01*
X182811009Y-37774761D02*
X182763390Y-37822380D01*
X182763390Y-37822380D02*
X182715771Y-37917618D01*
X182715771Y-37917618D02*
X182715771Y-38108094D01*
X182715771Y-38108094D02*
X182763390Y-38203332D01*
X182763390Y-38203332D02*
X182811009Y-38250951D01*
X182811009Y-38250951D02*
X182906247Y-38298570D01*
X159679819Y-55769166D02*
X159203628Y-56102499D01*
X159679819Y-56340594D02*
X158679819Y-56340594D01*
X158679819Y-56340594D02*
X158679819Y-55959642D01*
X158679819Y-55959642D02*
X158727438Y-55864404D01*
X158727438Y-55864404D02*
X158775057Y-55816785D01*
X158775057Y-55816785D02*
X158870295Y-55769166D01*
X158870295Y-55769166D02*
X159013152Y-55769166D01*
X159013152Y-55769166D02*
X159108390Y-55816785D01*
X159108390Y-55816785D02*
X159156009Y-55864404D01*
X159156009Y-55864404D02*
X159203628Y-55959642D01*
X159203628Y-55959642D02*
X159203628Y-56340594D01*
X158679819Y-55435832D02*
X158679819Y-54769166D01*
X158679819Y-54769166D02*
X159679819Y-55197737D01*
X108658819Y-50530357D02*
X108182628Y-50863690D01*
X108658819Y-51101785D02*
X107658819Y-51101785D01*
X107658819Y-51101785D02*
X107658819Y-50720833D01*
X107658819Y-50720833D02*
X107706438Y-50625595D01*
X107706438Y-50625595D02*
X107754057Y-50577976D01*
X107754057Y-50577976D02*
X107849295Y-50530357D01*
X107849295Y-50530357D02*
X107992152Y-50530357D01*
X107992152Y-50530357D02*
X108087390Y-50577976D01*
X108087390Y-50577976D02*
X108135009Y-50625595D01*
X108135009Y-50625595D02*
X108182628Y-50720833D01*
X108182628Y-50720833D02*
X108182628Y-51101785D01*
X107754057Y-50149404D02*
X107706438Y-50101785D01*
X107706438Y-50101785D02*
X107658819Y-50006547D01*
X107658819Y-50006547D02*
X107658819Y-49768452D01*
X107658819Y-49768452D02*
X107706438Y-49673214D01*
X107706438Y-49673214D02*
X107754057Y-49625595D01*
X107754057Y-49625595D02*
X107849295Y-49577976D01*
X107849295Y-49577976D02*
X107944533Y-49577976D01*
X107944533Y-49577976D02*
X108087390Y-49625595D01*
X108087390Y-49625595D02*
X108658819Y-50197023D01*
X108658819Y-50197023D02*
X108658819Y-49577976D01*
X107658819Y-49244642D02*
X107658819Y-48625595D01*
X107658819Y-48625595D02*
X108039771Y-48958928D01*
X108039771Y-48958928D02*
X108039771Y-48816071D01*
X108039771Y-48816071D02*
X108087390Y-48720833D01*
X108087390Y-48720833D02*
X108135009Y-48673214D01*
X108135009Y-48673214D02*
X108230247Y-48625595D01*
X108230247Y-48625595D02*
X108468342Y-48625595D01*
X108468342Y-48625595D02*
X108563580Y-48673214D01*
X108563580Y-48673214D02*
X108611200Y-48720833D01*
X108611200Y-48720833D02*
X108658819Y-48816071D01*
X108658819Y-48816071D02*
X108658819Y-49101785D01*
X108658819Y-49101785D02*
X108611200Y-49197023D01*
X108611200Y-49197023D02*
X108563580Y-49244642D01*
X117994580Y-55411666D02*
X118042200Y-55459285D01*
X118042200Y-55459285D02*
X118089819Y-55602142D01*
X118089819Y-55602142D02*
X118089819Y-55697380D01*
X118089819Y-55697380D02*
X118042200Y-55840237D01*
X118042200Y-55840237D02*
X117946961Y-55935475D01*
X117946961Y-55935475D02*
X117851723Y-55983094D01*
X117851723Y-55983094D02*
X117661247Y-56030713D01*
X117661247Y-56030713D02*
X117518390Y-56030713D01*
X117518390Y-56030713D02*
X117327914Y-55983094D01*
X117327914Y-55983094D02*
X117232676Y-55935475D01*
X117232676Y-55935475D02*
X117137438Y-55840237D01*
X117137438Y-55840237D02*
X117089819Y-55697380D01*
X117089819Y-55697380D02*
X117089819Y-55602142D01*
X117089819Y-55602142D02*
X117137438Y-55459285D01*
X117137438Y-55459285D02*
X117185057Y-55411666D01*
X118089819Y-54459285D02*
X118089819Y-55030713D01*
X118089819Y-54744999D02*
X117089819Y-54744999D01*
X117089819Y-54744999D02*
X117232676Y-54840237D01*
X117232676Y-54840237D02*
X117327914Y-54935475D01*
X117327914Y-54935475D02*
X117375533Y-55030713D01*
X127468333Y-85504580D02*
X127420714Y-85552200D01*
X127420714Y-85552200D02*
X127277857Y-85599819D01*
X127277857Y-85599819D02*
X127182619Y-85599819D01*
X127182619Y-85599819D02*
X127039762Y-85552200D01*
X127039762Y-85552200D02*
X126944524Y-85456961D01*
X126944524Y-85456961D02*
X126896905Y-85361723D01*
X126896905Y-85361723D02*
X126849286Y-85171247D01*
X126849286Y-85171247D02*
X126849286Y-85028390D01*
X126849286Y-85028390D02*
X126896905Y-84837914D01*
X126896905Y-84837914D02*
X126944524Y-84742676D01*
X126944524Y-84742676D02*
X127039762Y-84647438D01*
X127039762Y-84647438D02*
X127182619Y-84599819D01*
X127182619Y-84599819D02*
X127277857Y-84599819D01*
X127277857Y-84599819D02*
X127420714Y-84647438D01*
X127420714Y-84647438D02*
X127468333Y-84695057D01*
X127801667Y-84599819D02*
X128468333Y-84599819D01*
X128468333Y-84599819D02*
X128039762Y-85599819D01*
X106134819Y-41108094D02*
X106134819Y-40536666D01*
X107134819Y-40822380D02*
X106134819Y-40822380D01*
X107134819Y-40203332D02*
X106134819Y-40203332D01*
X106134819Y-40203332D02*
X106134819Y-39822380D01*
X106134819Y-39822380D02*
X106182438Y-39727142D01*
X106182438Y-39727142D02*
X106230057Y-39679523D01*
X106230057Y-39679523D02*
X106325295Y-39631904D01*
X106325295Y-39631904D02*
X106468152Y-39631904D01*
X106468152Y-39631904D02*
X106563390Y-39679523D01*
X106563390Y-39679523D02*
X106611009Y-39727142D01*
X106611009Y-39727142D02*
X106658628Y-39822380D01*
X106658628Y-39822380D02*
X106658628Y-40203332D01*
X106230057Y-39250951D02*
X106182438Y-39203332D01*
X106182438Y-39203332D02*
X106134819Y-39108094D01*
X106134819Y-39108094D02*
X106134819Y-38869999D01*
X106134819Y-38869999D02*
X106182438Y-38774761D01*
X106182438Y-38774761D02*
X106230057Y-38727142D01*
X106230057Y-38727142D02*
X106325295Y-38679523D01*
X106325295Y-38679523D02*
X106420533Y-38679523D01*
X106420533Y-38679523D02*
X106563390Y-38727142D01*
X106563390Y-38727142D02*
X107134819Y-39298570D01*
X107134819Y-39298570D02*
X107134819Y-38679523D01*
X106230057Y-38298570D02*
X106182438Y-38250951D01*
X106182438Y-38250951D02*
X106134819Y-38155713D01*
X106134819Y-38155713D02*
X106134819Y-37917618D01*
X106134819Y-37917618D02*
X106182438Y-37822380D01*
X106182438Y-37822380D02*
X106230057Y-37774761D01*
X106230057Y-37774761D02*
X106325295Y-37727142D01*
X106325295Y-37727142D02*
X106420533Y-37727142D01*
X106420533Y-37727142D02*
X106563390Y-37774761D01*
X106563390Y-37774761D02*
X107134819Y-38346189D01*
X107134819Y-38346189D02*
X107134819Y-37727142D01*
X175984819Y-41108094D02*
X175984819Y-40536666D01*
X176984819Y-40822380D02*
X175984819Y-40822380D01*
X176984819Y-40203332D02*
X175984819Y-40203332D01*
X175984819Y-40203332D02*
X175984819Y-39822380D01*
X175984819Y-39822380D02*
X176032438Y-39727142D01*
X176032438Y-39727142D02*
X176080057Y-39679523D01*
X176080057Y-39679523D02*
X176175295Y-39631904D01*
X176175295Y-39631904D02*
X176318152Y-39631904D01*
X176318152Y-39631904D02*
X176413390Y-39679523D01*
X176413390Y-39679523D02*
X176461009Y-39727142D01*
X176461009Y-39727142D02*
X176508628Y-39822380D01*
X176508628Y-39822380D02*
X176508628Y-40203332D01*
X176318152Y-38774761D02*
X176984819Y-38774761D01*
X175937200Y-39012856D02*
X176651485Y-39250951D01*
X176651485Y-39250951D02*
X176651485Y-38631904D01*
X176318152Y-37822380D02*
X176984819Y-37822380D01*
X175937200Y-38060475D02*
X176651485Y-38298570D01*
X176651485Y-38298570D02*
X176651485Y-37679523D01*
X108822261Y-65955057D02*
X108727023Y-65907438D01*
X108727023Y-65907438D02*
X108631785Y-65812200D01*
X108631785Y-65812200D02*
X108488928Y-65669342D01*
X108488928Y-65669342D02*
X108393690Y-65621723D01*
X108393690Y-65621723D02*
X108298452Y-65621723D01*
X108346071Y-65859819D02*
X108250833Y-65812200D01*
X108250833Y-65812200D02*
X108155595Y-65716961D01*
X108155595Y-65716961D02*
X108107976Y-65526485D01*
X108107976Y-65526485D02*
X108107976Y-65193152D01*
X108107976Y-65193152D02*
X108155595Y-65002676D01*
X108155595Y-65002676D02*
X108250833Y-64907438D01*
X108250833Y-64907438D02*
X108346071Y-64859819D01*
X108346071Y-64859819D02*
X108536547Y-64859819D01*
X108536547Y-64859819D02*
X108631785Y-64907438D01*
X108631785Y-64907438D02*
X108727023Y-65002676D01*
X108727023Y-65002676D02*
X108774642Y-65193152D01*
X108774642Y-65193152D02*
X108774642Y-65526485D01*
X108774642Y-65526485D02*
X108727023Y-65716961D01*
X108727023Y-65716961D02*
X108631785Y-65812200D01*
X108631785Y-65812200D02*
X108536547Y-65859819D01*
X108536547Y-65859819D02*
X108346071Y-65859819D01*
X109631785Y-65193152D02*
X109631785Y-65859819D01*
X109393690Y-64812200D02*
X109155595Y-65526485D01*
X109155595Y-65526485D02*
X109774642Y-65526485D01*
X169077819Y-56245357D02*
X168601628Y-56578690D01*
X169077819Y-56816785D02*
X168077819Y-56816785D01*
X168077819Y-56816785D02*
X168077819Y-56435833D01*
X168077819Y-56435833D02*
X168125438Y-56340595D01*
X168125438Y-56340595D02*
X168173057Y-56292976D01*
X168173057Y-56292976D02*
X168268295Y-56245357D01*
X168268295Y-56245357D02*
X168411152Y-56245357D01*
X168411152Y-56245357D02*
X168506390Y-56292976D01*
X168506390Y-56292976D02*
X168554009Y-56340595D01*
X168554009Y-56340595D02*
X168601628Y-56435833D01*
X168601628Y-56435833D02*
X168601628Y-56816785D01*
X169077819Y-55292976D02*
X169077819Y-55864404D01*
X169077819Y-55578690D02*
X168077819Y-55578690D01*
X168077819Y-55578690D02*
X168220676Y-55673928D01*
X168220676Y-55673928D02*
X168315914Y-55769166D01*
X168315914Y-55769166D02*
X168363533Y-55864404D01*
X168077819Y-54673928D02*
X168077819Y-54578690D01*
X168077819Y-54578690D02*
X168125438Y-54483452D01*
X168125438Y-54483452D02*
X168173057Y-54435833D01*
X168173057Y-54435833D02*
X168268295Y-54388214D01*
X168268295Y-54388214D02*
X168458771Y-54340595D01*
X168458771Y-54340595D02*
X168696866Y-54340595D01*
X168696866Y-54340595D02*
X168887342Y-54388214D01*
X168887342Y-54388214D02*
X168982580Y-54435833D01*
X168982580Y-54435833D02*
X169030200Y-54483452D01*
X169030200Y-54483452D02*
X169077819Y-54578690D01*
X169077819Y-54578690D02*
X169077819Y-54673928D01*
X169077819Y-54673928D02*
X169030200Y-54769166D01*
X169030200Y-54769166D02*
X168982580Y-54816785D01*
X168982580Y-54816785D02*
X168887342Y-54864404D01*
X168887342Y-54864404D02*
X168696866Y-54912023D01*
X168696866Y-54912023D02*
X168458771Y-54912023D01*
X168458771Y-54912023D02*
X168268295Y-54864404D01*
X168268295Y-54864404D02*
X168173057Y-54816785D01*
X168173057Y-54816785D02*
X168125438Y-54769166D01*
X168125438Y-54769166D02*
X168077819Y-54673928D01*
X128359819Y-41108094D02*
X128359819Y-40536666D01*
X129359819Y-40822380D02*
X128359819Y-40822380D01*
X129359819Y-40203332D02*
X128359819Y-40203332D01*
X128359819Y-40203332D02*
X128359819Y-39822380D01*
X128359819Y-39822380D02*
X128407438Y-39727142D01*
X128407438Y-39727142D02*
X128455057Y-39679523D01*
X128455057Y-39679523D02*
X128550295Y-39631904D01*
X128550295Y-39631904D02*
X128693152Y-39631904D01*
X128693152Y-39631904D02*
X128788390Y-39679523D01*
X128788390Y-39679523D02*
X128836009Y-39727142D01*
X128836009Y-39727142D02*
X128883628Y-39822380D01*
X128883628Y-39822380D02*
X128883628Y-40203332D01*
X128455057Y-39250951D02*
X128407438Y-39203332D01*
X128407438Y-39203332D02*
X128359819Y-39108094D01*
X128359819Y-39108094D02*
X128359819Y-38869999D01*
X128359819Y-38869999D02*
X128407438Y-38774761D01*
X128407438Y-38774761D02*
X128455057Y-38727142D01*
X128455057Y-38727142D02*
X128550295Y-38679523D01*
X128550295Y-38679523D02*
X128645533Y-38679523D01*
X128645533Y-38679523D02*
X128788390Y-38727142D01*
X128788390Y-38727142D02*
X129359819Y-39298570D01*
X129359819Y-39298570D02*
X129359819Y-38679523D01*
X129359819Y-38203332D02*
X129359819Y-38012856D01*
X129359819Y-38012856D02*
X129312200Y-37917618D01*
X129312200Y-37917618D02*
X129264580Y-37869999D01*
X129264580Y-37869999D02*
X129121723Y-37774761D01*
X129121723Y-37774761D02*
X128931247Y-37727142D01*
X128931247Y-37727142D02*
X128550295Y-37727142D01*
X128550295Y-37727142D02*
X128455057Y-37774761D01*
X128455057Y-37774761D02*
X128407438Y-37822380D01*
X128407438Y-37822380D02*
X128359819Y-37917618D01*
X128359819Y-37917618D02*
X128359819Y-38108094D01*
X128359819Y-38108094D02*
X128407438Y-38203332D01*
X128407438Y-38203332D02*
X128455057Y-38250951D01*
X128455057Y-38250951D02*
X128550295Y-38298570D01*
X128550295Y-38298570D02*
X128788390Y-38298570D01*
X128788390Y-38298570D02*
X128883628Y-38250951D01*
X128883628Y-38250951D02*
X128931247Y-38203332D01*
X128931247Y-38203332D02*
X128978866Y-38108094D01*
X128978866Y-38108094D02*
X128978866Y-37917618D01*
X128978866Y-37917618D02*
X128931247Y-37822380D01*
X128931247Y-37822380D02*
X128883628Y-37774761D01*
X128883628Y-37774761D02*
X128788390Y-37727142D01*
X168762819Y-50054166D02*
X168286628Y-50387499D01*
X168762819Y-50625594D02*
X167762819Y-50625594D01*
X167762819Y-50625594D02*
X167762819Y-50244642D01*
X167762819Y-50244642D02*
X167810438Y-50149404D01*
X167810438Y-50149404D02*
X167858057Y-50101785D01*
X167858057Y-50101785D02*
X167953295Y-50054166D01*
X167953295Y-50054166D02*
X168096152Y-50054166D01*
X168096152Y-50054166D02*
X168191390Y-50101785D01*
X168191390Y-50101785D02*
X168239009Y-50149404D01*
X168239009Y-50149404D02*
X168286628Y-50244642D01*
X168286628Y-50244642D02*
X168286628Y-50625594D01*
X168096152Y-49197023D02*
X168762819Y-49197023D01*
X167715200Y-49435118D02*
X168429485Y-49673213D01*
X168429485Y-49673213D02*
X168429485Y-49054166D01*
X114537261Y-70895057D02*
X114442023Y-70847438D01*
X114442023Y-70847438D02*
X114346785Y-70752200D01*
X114346785Y-70752200D02*
X114203928Y-70609342D01*
X114203928Y-70609342D02*
X114108690Y-70561723D01*
X114108690Y-70561723D02*
X114013452Y-70561723D01*
X114061071Y-70799819D02*
X113965833Y-70752200D01*
X113965833Y-70752200D02*
X113870595Y-70656961D01*
X113870595Y-70656961D02*
X113822976Y-70466485D01*
X113822976Y-70466485D02*
X113822976Y-70133152D01*
X113822976Y-70133152D02*
X113870595Y-69942676D01*
X113870595Y-69942676D02*
X113965833Y-69847438D01*
X113965833Y-69847438D02*
X114061071Y-69799819D01*
X114061071Y-69799819D02*
X114251547Y-69799819D01*
X114251547Y-69799819D02*
X114346785Y-69847438D01*
X114346785Y-69847438D02*
X114442023Y-69942676D01*
X114442023Y-69942676D02*
X114489642Y-70133152D01*
X114489642Y-70133152D02*
X114489642Y-70466485D01*
X114489642Y-70466485D02*
X114442023Y-70656961D01*
X114442023Y-70656961D02*
X114346785Y-70752200D01*
X114346785Y-70752200D02*
X114251547Y-70799819D01*
X114251547Y-70799819D02*
X114061071Y-70799819D01*
X114822976Y-69799819D02*
X115442023Y-69799819D01*
X115442023Y-69799819D02*
X115108690Y-70180771D01*
X115108690Y-70180771D02*
X115251547Y-70180771D01*
X115251547Y-70180771D02*
X115346785Y-70228390D01*
X115346785Y-70228390D02*
X115394404Y-70276009D01*
X115394404Y-70276009D02*
X115442023Y-70371247D01*
X115442023Y-70371247D02*
X115442023Y-70609342D01*
X115442023Y-70609342D02*
X115394404Y-70704580D01*
X115394404Y-70704580D02*
X115346785Y-70752200D01*
X115346785Y-70752200D02*
X115251547Y-70799819D01*
X115251547Y-70799819D02*
X114965833Y-70799819D01*
X114965833Y-70799819D02*
X114870595Y-70752200D01*
X114870595Y-70752200D02*
X114822976Y-70704580D01*
X192452666Y-81701819D02*
X192452666Y-82416104D01*
X192452666Y-82416104D02*
X192405047Y-82558961D01*
X192405047Y-82558961D02*
X192309809Y-82654200D01*
X192309809Y-82654200D02*
X192166952Y-82701819D01*
X192166952Y-82701819D02*
X192071714Y-82701819D01*
X192881238Y-81797057D02*
X192928857Y-81749438D01*
X192928857Y-81749438D02*
X193024095Y-81701819D01*
X193024095Y-81701819D02*
X193262190Y-81701819D01*
X193262190Y-81701819D02*
X193357428Y-81749438D01*
X193357428Y-81749438D02*
X193405047Y-81797057D01*
X193405047Y-81797057D02*
X193452666Y-81892295D01*
X193452666Y-81892295D02*
X193452666Y-81987533D01*
X193452666Y-81987533D02*
X193405047Y-82130390D01*
X193405047Y-82130390D02*
X192833619Y-82701819D01*
X192833619Y-82701819D02*
X193452666Y-82701819D01*
X179159819Y-41108094D02*
X179159819Y-40536666D01*
X180159819Y-40822380D02*
X179159819Y-40822380D01*
X180159819Y-40203332D02*
X179159819Y-40203332D01*
X179159819Y-40203332D02*
X179159819Y-39822380D01*
X179159819Y-39822380D02*
X179207438Y-39727142D01*
X179207438Y-39727142D02*
X179255057Y-39679523D01*
X179255057Y-39679523D02*
X179350295Y-39631904D01*
X179350295Y-39631904D02*
X179493152Y-39631904D01*
X179493152Y-39631904D02*
X179588390Y-39679523D01*
X179588390Y-39679523D02*
X179636009Y-39727142D01*
X179636009Y-39727142D02*
X179683628Y-39822380D01*
X179683628Y-39822380D02*
X179683628Y-40203332D01*
X179493152Y-38774761D02*
X180159819Y-38774761D01*
X179112200Y-39012856D02*
X179826485Y-39250951D01*
X179826485Y-39250951D02*
X179826485Y-38631904D01*
X179159819Y-37774761D02*
X179159819Y-38250951D01*
X179159819Y-38250951D02*
X179636009Y-38298570D01*
X179636009Y-38298570D02*
X179588390Y-38250951D01*
X179588390Y-38250951D02*
X179540771Y-38155713D01*
X179540771Y-38155713D02*
X179540771Y-37917618D01*
X179540771Y-37917618D02*
X179588390Y-37822380D01*
X179588390Y-37822380D02*
X179636009Y-37774761D01*
X179636009Y-37774761D02*
X179731247Y-37727142D01*
X179731247Y-37727142D02*
X179969342Y-37727142D01*
X179969342Y-37727142D02*
X180064580Y-37774761D01*
X180064580Y-37774761D02*
X180112200Y-37822380D01*
X180112200Y-37822380D02*
X180159819Y-37917618D01*
X180159819Y-37917618D02*
X180159819Y-38155713D01*
X180159819Y-38155713D02*
X180112200Y-38250951D01*
X180112200Y-38250951D02*
X180064580Y-38298570D01*
X109309819Y-41108094D02*
X109309819Y-40536666D01*
X110309819Y-40822380D02*
X109309819Y-40822380D01*
X110309819Y-40203332D02*
X109309819Y-40203332D01*
X109309819Y-40203332D02*
X109309819Y-39822380D01*
X109309819Y-39822380D02*
X109357438Y-39727142D01*
X109357438Y-39727142D02*
X109405057Y-39679523D01*
X109405057Y-39679523D02*
X109500295Y-39631904D01*
X109500295Y-39631904D02*
X109643152Y-39631904D01*
X109643152Y-39631904D02*
X109738390Y-39679523D01*
X109738390Y-39679523D02*
X109786009Y-39727142D01*
X109786009Y-39727142D02*
X109833628Y-39822380D01*
X109833628Y-39822380D02*
X109833628Y-40203332D01*
X109405057Y-39250951D02*
X109357438Y-39203332D01*
X109357438Y-39203332D02*
X109309819Y-39108094D01*
X109309819Y-39108094D02*
X109309819Y-38869999D01*
X109309819Y-38869999D02*
X109357438Y-38774761D01*
X109357438Y-38774761D02*
X109405057Y-38727142D01*
X109405057Y-38727142D02*
X109500295Y-38679523D01*
X109500295Y-38679523D02*
X109595533Y-38679523D01*
X109595533Y-38679523D02*
X109738390Y-38727142D01*
X109738390Y-38727142D02*
X110309819Y-39298570D01*
X110309819Y-39298570D02*
X110309819Y-38679523D01*
X109309819Y-38346189D02*
X109309819Y-37727142D01*
X109309819Y-37727142D02*
X109690771Y-38060475D01*
X109690771Y-38060475D02*
X109690771Y-37917618D01*
X109690771Y-37917618D02*
X109738390Y-37822380D01*
X109738390Y-37822380D02*
X109786009Y-37774761D01*
X109786009Y-37774761D02*
X109881247Y-37727142D01*
X109881247Y-37727142D02*
X110119342Y-37727142D01*
X110119342Y-37727142D02*
X110214580Y-37774761D01*
X110214580Y-37774761D02*
X110262200Y-37822380D01*
X110262200Y-37822380D02*
X110309819Y-37917618D01*
X110309819Y-37917618D02*
X110309819Y-38203332D01*
X110309819Y-38203332D02*
X110262200Y-38298570D01*
X110262200Y-38298570D02*
X110214580Y-38346189D01*
X106799142Y-77576819D02*
X106465809Y-77100628D01*
X106227714Y-77576819D02*
X106227714Y-76576819D01*
X106227714Y-76576819D02*
X106608666Y-76576819D01*
X106608666Y-76576819D02*
X106703904Y-76624438D01*
X106703904Y-76624438D02*
X106751523Y-76672057D01*
X106751523Y-76672057D02*
X106799142Y-76767295D01*
X106799142Y-76767295D02*
X106799142Y-76910152D01*
X106799142Y-76910152D02*
X106751523Y-77005390D01*
X106751523Y-77005390D02*
X106703904Y-77053009D01*
X106703904Y-77053009D02*
X106608666Y-77100628D01*
X106608666Y-77100628D02*
X106227714Y-77100628D01*
X107751523Y-77576819D02*
X107180095Y-77576819D01*
X107465809Y-77576819D02*
X107465809Y-76576819D01*
X107465809Y-76576819D02*
X107370571Y-76719676D01*
X107370571Y-76719676D02*
X107275333Y-76814914D01*
X107275333Y-76814914D02*
X107180095Y-76862533D01*
X108084857Y-76576819D02*
X108703904Y-76576819D01*
X108703904Y-76576819D02*
X108370571Y-76957771D01*
X108370571Y-76957771D02*
X108513428Y-76957771D01*
X108513428Y-76957771D02*
X108608666Y-77005390D01*
X108608666Y-77005390D02*
X108656285Y-77053009D01*
X108656285Y-77053009D02*
X108703904Y-77148247D01*
X108703904Y-77148247D02*
X108703904Y-77386342D01*
X108703904Y-77386342D02*
X108656285Y-77481580D01*
X108656285Y-77481580D02*
X108608666Y-77529200D01*
X108608666Y-77529200D02*
X108513428Y-77576819D01*
X108513428Y-77576819D02*
X108227714Y-77576819D01*
X108227714Y-77576819D02*
X108132476Y-77529200D01*
X108132476Y-77529200D02*
X108084857Y-77481580D01*
X189239374Y-51279580D02*
X189191755Y-51327200D01*
X189191755Y-51327200D02*
X189048898Y-51374819D01*
X189048898Y-51374819D02*
X188953660Y-51374819D01*
X188953660Y-51374819D02*
X188810803Y-51327200D01*
X188810803Y-51327200D02*
X188715565Y-51231961D01*
X188715565Y-51231961D02*
X188667946Y-51136723D01*
X188667946Y-51136723D02*
X188620327Y-50946247D01*
X188620327Y-50946247D02*
X188620327Y-50803390D01*
X188620327Y-50803390D02*
X188667946Y-50612914D01*
X188667946Y-50612914D02*
X188715565Y-50517676D01*
X188715565Y-50517676D02*
X188810803Y-50422438D01*
X188810803Y-50422438D02*
X188953660Y-50374819D01*
X188953660Y-50374819D02*
X189048898Y-50374819D01*
X189048898Y-50374819D02*
X189191755Y-50422438D01*
X189191755Y-50422438D02*
X189239374Y-50470057D01*
X190144136Y-50374819D02*
X189667946Y-50374819D01*
X189667946Y-50374819D02*
X189620327Y-50851009D01*
X189620327Y-50851009D02*
X189667946Y-50803390D01*
X189667946Y-50803390D02*
X189763184Y-50755771D01*
X189763184Y-50755771D02*
X190001279Y-50755771D01*
X190001279Y-50755771D02*
X190096517Y-50803390D01*
X190096517Y-50803390D02*
X190144136Y-50851009D01*
X190144136Y-50851009D02*
X190191755Y-50946247D01*
X190191755Y-50946247D02*
X190191755Y-51184342D01*
X190191755Y-51184342D02*
X190144136Y-51279580D01*
X190144136Y-51279580D02*
X190096517Y-51327200D01*
X190096517Y-51327200D02*
X190001279Y-51374819D01*
X190001279Y-51374819D02*
X189763184Y-51374819D01*
X189763184Y-51374819D02*
X189667946Y-51327200D01*
X189667946Y-51327200D02*
X189620327Y-51279580D01*
X163284819Y-41108094D02*
X163284819Y-40536666D01*
X164284819Y-40822380D02*
X163284819Y-40822380D01*
X164284819Y-40203332D02*
X163284819Y-40203332D01*
X163284819Y-40203332D02*
X163284819Y-39822380D01*
X163284819Y-39822380D02*
X163332438Y-39727142D01*
X163332438Y-39727142D02*
X163380057Y-39679523D01*
X163380057Y-39679523D02*
X163475295Y-39631904D01*
X163475295Y-39631904D02*
X163618152Y-39631904D01*
X163618152Y-39631904D02*
X163713390Y-39679523D01*
X163713390Y-39679523D02*
X163761009Y-39727142D01*
X163761009Y-39727142D02*
X163808628Y-39822380D01*
X163808628Y-39822380D02*
X163808628Y-40203332D01*
X163618152Y-38774761D02*
X164284819Y-38774761D01*
X163237200Y-39012856D02*
X163951485Y-39250951D01*
X163951485Y-39250951D02*
X163951485Y-38631904D01*
X163284819Y-38060475D02*
X163284819Y-37965237D01*
X163284819Y-37965237D02*
X163332438Y-37869999D01*
X163332438Y-37869999D02*
X163380057Y-37822380D01*
X163380057Y-37822380D02*
X163475295Y-37774761D01*
X163475295Y-37774761D02*
X163665771Y-37727142D01*
X163665771Y-37727142D02*
X163903866Y-37727142D01*
X163903866Y-37727142D02*
X164094342Y-37774761D01*
X164094342Y-37774761D02*
X164189580Y-37822380D01*
X164189580Y-37822380D02*
X164237200Y-37869999D01*
X164237200Y-37869999D02*
X164284819Y-37965237D01*
X164284819Y-37965237D02*
X164284819Y-38060475D01*
X164284819Y-38060475D02*
X164237200Y-38155713D01*
X164237200Y-38155713D02*
X164189580Y-38203332D01*
X164189580Y-38203332D02*
X164094342Y-38250951D01*
X164094342Y-38250951D02*
X163903866Y-38298570D01*
X163903866Y-38298570D02*
X163665771Y-38298570D01*
X163665771Y-38298570D02*
X163475295Y-38250951D01*
X163475295Y-38250951D02*
X163380057Y-38203332D01*
X163380057Y-38203332D02*
X163332438Y-38155713D01*
X163332438Y-38155713D02*
X163284819Y-38060475D01*
X112484819Y-41108094D02*
X112484819Y-40536666D01*
X113484819Y-40822380D02*
X112484819Y-40822380D01*
X113484819Y-40203332D02*
X112484819Y-40203332D01*
X112484819Y-40203332D02*
X112484819Y-39822380D01*
X112484819Y-39822380D02*
X112532438Y-39727142D01*
X112532438Y-39727142D02*
X112580057Y-39679523D01*
X112580057Y-39679523D02*
X112675295Y-39631904D01*
X112675295Y-39631904D02*
X112818152Y-39631904D01*
X112818152Y-39631904D02*
X112913390Y-39679523D01*
X112913390Y-39679523D02*
X112961009Y-39727142D01*
X112961009Y-39727142D02*
X113008628Y-39822380D01*
X113008628Y-39822380D02*
X113008628Y-40203332D01*
X112580057Y-39250951D02*
X112532438Y-39203332D01*
X112532438Y-39203332D02*
X112484819Y-39108094D01*
X112484819Y-39108094D02*
X112484819Y-38869999D01*
X112484819Y-38869999D02*
X112532438Y-38774761D01*
X112532438Y-38774761D02*
X112580057Y-38727142D01*
X112580057Y-38727142D02*
X112675295Y-38679523D01*
X112675295Y-38679523D02*
X112770533Y-38679523D01*
X112770533Y-38679523D02*
X112913390Y-38727142D01*
X112913390Y-38727142D02*
X113484819Y-39298570D01*
X113484819Y-39298570D02*
X113484819Y-38679523D01*
X112818152Y-37822380D02*
X113484819Y-37822380D01*
X112437200Y-38060475D02*
X113151485Y-38298570D01*
X113151485Y-38298570D02*
X113151485Y-37679523D01*
X106799142Y-87228819D02*
X106465809Y-86752628D01*
X106227714Y-87228819D02*
X106227714Y-86228819D01*
X106227714Y-86228819D02*
X106608666Y-86228819D01*
X106608666Y-86228819D02*
X106703904Y-86276438D01*
X106703904Y-86276438D02*
X106751523Y-86324057D01*
X106751523Y-86324057D02*
X106799142Y-86419295D01*
X106799142Y-86419295D02*
X106799142Y-86562152D01*
X106799142Y-86562152D02*
X106751523Y-86657390D01*
X106751523Y-86657390D02*
X106703904Y-86705009D01*
X106703904Y-86705009D02*
X106608666Y-86752628D01*
X106608666Y-86752628D02*
X106227714Y-86752628D01*
X107751523Y-87228819D02*
X107180095Y-87228819D01*
X107465809Y-87228819D02*
X107465809Y-86228819D01*
X107465809Y-86228819D02*
X107370571Y-86371676D01*
X107370571Y-86371676D02*
X107275333Y-86466914D01*
X107275333Y-86466914D02*
X107180095Y-86514533D01*
X108227714Y-87228819D02*
X108418190Y-87228819D01*
X108418190Y-87228819D02*
X108513428Y-87181200D01*
X108513428Y-87181200D02*
X108561047Y-87133580D01*
X108561047Y-87133580D02*
X108656285Y-86990723D01*
X108656285Y-86990723D02*
X108703904Y-86800247D01*
X108703904Y-86800247D02*
X108703904Y-86419295D01*
X108703904Y-86419295D02*
X108656285Y-86324057D01*
X108656285Y-86324057D02*
X108608666Y-86276438D01*
X108608666Y-86276438D02*
X108513428Y-86228819D01*
X108513428Y-86228819D02*
X108322952Y-86228819D01*
X108322952Y-86228819D02*
X108227714Y-86276438D01*
X108227714Y-86276438D02*
X108180095Y-86324057D01*
X108180095Y-86324057D02*
X108132476Y-86419295D01*
X108132476Y-86419295D02*
X108132476Y-86657390D01*
X108132476Y-86657390D02*
X108180095Y-86752628D01*
X108180095Y-86752628D02*
X108227714Y-86800247D01*
X108227714Y-86800247D02*
X108322952Y-86847866D01*
X108322952Y-86847866D02*
X108513428Y-86847866D01*
X108513428Y-86847866D02*
X108608666Y-86800247D01*
X108608666Y-86800247D02*
X108656285Y-86752628D01*
X108656285Y-86752628D02*
X108703904Y-86657390D01*
X147409819Y-41108094D02*
X147409819Y-40536666D01*
X148409819Y-40822380D02*
X147409819Y-40822380D01*
X148409819Y-40203332D02*
X147409819Y-40203332D01*
X147409819Y-40203332D02*
X147409819Y-39822380D01*
X147409819Y-39822380D02*
X147457438Y-39727142D01*
X147457438Y-39727142D02*
X147505057Y-39679523D01*
X147505057Y-39679523D02*
X147600295Y-39631904D01*
X147600295Y-39631904D02*
X147743152Y-39631904D01*
X147743152Y-39631904D02*
X147838390Y-39679523D01*
X147838390Y-39679523D02*
X147886009Y-39727142D01*
X147886009Y-39727142D02*
X147933628Y-39822380D01*
X147933628Y-39822380D02*
X147933628Y-40203332D01*
X147409819Y-39298570D02*
X147409819Y-38679523D01*
X147409819Y-38679523D02*
X147790771Y-39012856D01*
X147790771Y-39012856D02*
X147790771Y-38869999D01*
X147790771Y-38869999D02*
X147838390Y-38774761D01*
X147838390Y-38774761D02*
X147886009Y-38727142D01*
X147886009Y-38727142D02*
X147981247Y-38679523D01*
X147981247Y-38679523D02*
X148219342Y-38679523D01*
X148219342Y-38679523D02*
X148314580Y-38727142D01*
X148314580Y-38727142D02*
X148362200Y-38774761D01*
X148362200Y-38774761D02*
X148409819Y-38869999D01*
X148409819Y-38869999D02*
X148409819Y-39155713D01*
X148409819Y-39155713D02*
X148362200Y-39250951D01*
X148362200Y-39250951D02*
X148314580Y-39298570D01*
X147409819Y-37774761D02*
X147409819Y-38250951D01*
X147409819Y-38250951D02*
X147886009Y-38298570D01*
X147886009Y-38298570D02*
X147838390Y-38250951D01*
X147838390Y-38250951D02*
X147790771Y-38155713D01*
X147790771Y-38155713D02*
X147790771Y-37917618D01*
X147790771Y-37917618D02*
X147838390Y-37822380D01*
X147838390Y-37822380D02*
X147886009Y-37774761D01*
X147886009Y-37774761D02*
X147981247Y-37727142D01*
X147981247Y-37727142D02*
X148219342Y-37727142D01*
X148219342Y-37727142D02*
X148314580Y-37774761D01*
X148314580Y-37774761D02*
X148362200Y-37822380D01*
X148362200Y-37822380D02*
X148409819Y-37917618D01*
X148409819Y-37917618D02*
X148409819Y-38155713D01*
X148409819Y-38155713D02*
X148362200Y-38250951D01*
X148362200Y-38250951D02*
X148314580Y-38298570D01*
X121612819Y-50054166D02*
X121136628Y-50387499D01*
X121612819Y-50625594D02*
X120612819Y-50625594D01*
X120612819Y-50625594D02*
X120612819Y-50244642D01*
X120612819Y-50244642D02*
X120660438Y-50149404D01*
X120660438Y-50149404D02*
X120708057Y-50101785D01*
X120708057Y-50101785D02*
X120803295Y-50054166D01*
X120803295Y-50054166D02*
X120946152Y-50054166D01*
X120946152Y-50054166D02*
X121041390Y-50101785D01*
X121041390Y-50101785D02*
X121089009Y-50149404D01*
X121089009Y-50149404D02*
X121136628Y-50244642D01*
X121136628Y-50244642D02*
X121136628Y-50625594D01*
X121612819Y-49101785D02*
X121612819Y-49673213D01*
X121612819Y-49387499D02*
X120612819Y-49387499D01*
X120612819Y-49387499D02*
X120755676Y-49482737D01*
X120755676Y-49482737D02*
X120850914Y-49577975D01*
X120850914Y-49577975D02*
X120898533Y-49673213D01*
X172809819Y-41108094D02*
X172809819Y-40536666D01*
X173809819Y-40822380D02*
X172809819Y-40822380D01*
X173809819Y-40203332D02*
X172809819Y-40203332D01*
X172809819Y-40203332D02*
X172809819Y-39822380D01*
X172809819Y-39822380D02*
X172857438Y-39727142D01*
X172857438Y-39727142D02*
X172905057Y-39679523D01*
X172905057Y-39679523D02*
X173000295Y-39631904D01*
X173000295Y-39631904D02*
X173143152Y-39631904D01*
X173143152Y-39631904D02*
X173238390Y-39679523D01*
X173238390Y-39679523D02*
X173286009Y-39727142D01*
X173286009Y-39727142D02*
X173333628Y-39822380D01*
X173333628Y-39822380D02*
X173333628Y-40203332D01*
X173143152Y-38774761D02*
X173809819Y-38774761D01*
X172762200Y-39012856D02*
X173476485Y-39250951D01*
X173476485Y-39250951D02*
X173476485Y-38631904D01*
X172809819Y-38346189D02*
X172809819Y-37727142D01*
X172809819Y-37727142D02*
X173190771Y-38060475D01*
X173190771Y-38060475D02*
X173190771Y-37917618D01*
X173190771Y-37917618D02*
X173238390Y-37822380D01*
X173238390Y-37822380D02*
X173286009Y-37774761D01*
X173286009Y-37774761D02*
X173381247Y-37727142D01*
X173381247Y-37727142D02*
X173619342Y-37727142D01*
X173619342Y-37727142D02*
X173714580Y-37774761D01*
X173714580Y-37774761D02*
X173762200Y-37822380D01*
X173762200Y-37822380D02*
X173809819Y-37917618D01*
X173809819Y-37917618D02*
X173809819Y-38203332D01*
X173809819Y-38203332D02*
X173762200Y-38298570D01*
X173762200Y-38298570D02*
X173714580Y-38346189D01*
X188684819Y-41108094D02*
X188684819Y-40536666D01*
X189684819Y-40822380D02*
X188684819Y-40822380D01*
X189684819Y-40203332D02*
X188684819Y-40203332D01*
X188684819Y-40203332D02*
X188684819Y-39822380D01*
X188684819Y-39822380D02*
X188732438Y-39727142D01*
X188732438Y-39727142D02*
X188780057Y-39679523D01*
X188780057Y-39679523D02*
X188875295Y-39631904D01*
X188875295Y-39631904D02*
X189018152Y-39631904D01*
X189018152Y-39631904D02*
X189113390Y-39679523D01*
X189113390Y-39679523D02*
X189161009Y-39727142D01*
X189161009Y-39727142D02*
X189208628Y-39822380D01*
X189208628Y-39822380D02*
X189208628Y-40203332D01*
X189018152Y-38774761D02*
X189684819Y-38774761D01*
X188637200Y-39012856D02*
X189351485Y-39250951D01*
X189351485Y-39250951D02*
X189351485Y-38631904D01*
X189113390Y-38108094D02*
X189065771Y-38203332D01*
X189065771Y-38203332D02*
X189018152Y-38250951D01*
X189018152Y-38250951D02*
X188922914Y-38298570D01*
X188922914Y-38298570D02*
X188875295Y-38298570D01*
X188875295Y-38298570D02*
X188780057Y-38250951D01*
X188780057Y-38250951D02*
X188732438Y-38203332D01*
X188732438Y-38203332D02*
X188684819Y-38108094D01*
X188684819Y-38108094D02*
X188684819Y-37917618D01*
X188684819Y-37917618D02*
X188732438Y-37822380D01*
X188732438Y-37822380D02*
X188780057Y-37774761D01*
X188780057Y-37774761D02*
X188875295Y-37727142D01*
X188875295Y-37727142D02*
X188922914Y-37727142D01*
X188922914Y-37727142D02*
X189018152Y-37774761D01*
X189018152Y-37774761D02*
X189065771Y-37822380D01*
X189065771Y-37822380D02*
X189113390Y-37917618D01*
X189113390Y-37917618D02*
X189113390Y-38108094D01*
X189113390Y-38108094D02*
X189161009Y-38203332D01*
X189161009Y-38203332D02*
X189208628Y-38250951D01*
X189208628Y-38250951D02*
X189303866Y-38298570D01*
X189303866Y-38298570D02*
X189494342Y-38298570D01*
X189494342Y-38298570D02*
X189589580Y-38250951D01*
X189589580Y-38250951D02*
X189637200Y-38203332D01*
X189637200Y-38203332D02*
X189684819Y-38108094D01*
X189684819Y-38108094D02*
X189684819Y-37917618D01*
X189684819Y-37917618D02*
X189637200Y-37822380D01*
X189637200Y-37822380D02*
X189589580Y-37774761D01*
X189589580Y-37774761D02*
X189494342Y-37727142D01*
X189494342Y-37727142D02*
X189303866Y-37727142D01*
X189303866Y-37727142D02*
X189208628Y-37774761D01*
X189208628Y-37774761D02*
X189161009Y-37822380D01*
X189161009Y-37822380D02*
X189113390Y-37917618D01*
X169634819Y-41108094D02*
X169634819Y-40536666D01*
X170634819Y-40822380D02*
X169634819Y-40822380D01*
X170634819Y-40203332D02*
X169634819Y-40203332D01*
X169634819Y-40203332D02*
X169634819Y-39822380D01*
X169634819Y-39822380D02*
X169682438Y-39727142D01*
X169682438Y-39727142D02*
X169730057Y-39679523D01*
X169730057Y-39679523D02*
X169825295Y-39631904D01*
X169825295Y-39631904D02*
X169968152Y-39631904D01*
X169968152Y-39631904D02*
X170063390Y-39679523D01*
X170063390Y-39679523D02*
X170111009Y-39727142D01*
X170111009Y-39727142D02*
X170158628Y-39822380D01*
X170158628Y-39822380D02*
X170158628Y-40203332D01*
X169968152Y-38774761D02*
X170634819Y-38774761D01*
X169587200Y-39012856D02*
X170301485Y-39250951D01*
X170301485Y-39250951D02*
X170301485Y-38631904D01*
X169730057Y-38298570D02*
X169682438Y-38250951D01*
X169682438Y-38250951D02*
X169634819Y-38155713D01*
X169634819Y-38155713D02*
X169634819Y-37917618D01*
X169634819Y-37917618D02*
X169682438Y-37822380D01*
X169682438Y-37822380D02*
X169730057Y-37774761D01*
X169730057Y-37774761D02*
X169825295Y-37727142D01*
X169825295Y-37727142D02*
X169920533Y-37727142D01*
X169920533Y-37727142D02*
X170063390Y-37774761D01*
X170063390Y-37774761D02*
X170634819Y-38346189D01*
X170634819Y-38346189D02*
X170634819Y-37727142D01*
X137884819Y-41108094D02*
X137884819Y-40536666D01*
X138884819Y-40822380D02*
X137884819Y-40822380D01*
X138884819Y-40203332D02*
X137884819Y-40203332D01*
X137884819Y-40203332D02*
X137884819Y-39822380D01*
X137884819Y-39822380D02*
X137932438Y-39727142D01*
X137932438Y-39727142D02*
X137980057Y-39679523D01*
X137980057Y-39679523D02*
X138075295Y-39631904D01*
X138075295Y-39631904D02*
X138218152Y-39631904D01*
X138218152Y-39631904D02*
X138313390Y-39679523D01*
X138313390Y-39679523D02*
X138361009Y-39727142D01*
X138361009Y-39727142D02*
X138408628Y-39822380D01*
X138408628Y-39822380D02*
X138408628Y-40203332D01*
X137884819Y-39298570D02*
X137884819Y-38679523D01*
X137884819Y-38679523D02*
X138265771Y-39012856D01*
X138265771Y-39012856D02*
X138265771Y-38869999D01*
X138265771Y-38869999D02*
X138313390Y-38774761D01*
X138313390Y-38774761D02*
X138361009Y-38727142D01*
X138361009Y-38727142D02*
X138456247Y-38679523D01*
X138456247Y-38679523D02*
X138694342Y-38679523D01*
X138694342Y-38679523D02*
X138789580Y-38727142D01*
X138789580Y-38727142D02*
X138837200Y-38774761D01*
X138837200Y-38774761D02*
X138884819Y-38869999D01*
X138884819Y-38869999D02*
X138884819Y-39155713D01*
X138884819Y-39155713D02*
X138837200Y-39250951D01*
X138837200Y-39250951D02*
X138789580Y-39298570D01*
X137980057Y-38298570D02*
X137932438Y-38250951D01*
X137932438Y-38250951D02*
X137884819Y-38155713D01*
X137884819Y-38155713D02*
X137884819Y-37917618D01*
X137884819Y-37917618D02*
X137932438Y-37822380D01*
X137932438Y-37822380D02*
X137980057Y-37774761D01*
X137980057Y-37774761D02*
X138075295Y-37727142D01*
X138075295Y-37727142D02*
X138170533Y-37727142D01*
X138170533Y-37727142D02*
X138313390Y-37774761D01*
X138313390Y-37774761D02*
X138884819Y-38346189D01*
X138884819Y-38346189D02*
X138884819Y-37727142D01*
X106672142Y-83164819D02*
X106338809Y-82688628D01*
X106100714Y-83164819D02*
X106100714Y-82164819D01*
X106100714Y-82164819D02*
X106481666Y-82164819D01*
X106481666Y-82164819D02*
X106576904Y-82212438D01*
X106576904Y-82212438D02*
X106624523Y-82260057D01*
X106624523Y-82260057D02*
X106672142Y-82355295D01*
X106672142Y-82355295D02*
X106672142Y-82498152D01*
X106672142Y-82498152D02*
X106624523Y-82593390D01*
X106624523Y-82593390D02*
X106576904Y-82641009D01*
X106576904Y-82641009D02*
X106481666Y-82688628D01*
X106481666Y-82688628D02*
X106100714Y-82688628D01*
X107624523Y-83164819D02*
X107053095Y-83164819D01*
X107338809Y-83164819D02*
X107338809Y-82164819D01*
X107338809Y-82164819D02*
X107243571Y-82307676D01*
X107243571Y-82307676D02*
X107148333Y-82402914D01*
X107148333Y-82402914D02*
X107053095Y-82450533D01*
X108195952Y-82593390D02*
X108100714Y-82545771D01*
X108100714Y-82545771D02*
X108053095Y-82498152D01*
X108053095Y-82498152D02*
X108005476Y-82402914D01*
X108005476Y-82402914D02*
X108005476Y-82355295D01*
X108005476Y-82355295D02*
X108053095Y-82260057D01*
X108053095Y-82260057D02*
X108100714Y-82212438D01*
X108100714Y-82212438D02*
X108195952Y-82164819D01*
X108195952Y-82164819D02*
X108386428Y-82164819D01*
X108386428Y-82164819D02*
X108481666Y-82212438D01*
X108481666Y-82212438D02*
X108529285Y-82260057D01*
X108529285Y-82260057D02*
X108576904Y-82355295D01*
X108576904Y-82355295D02*
X108576904Y-82402914D01*
X108576904Y-82402914D02*
X108529285Y-82498152D01*
X108529285Y-82498152D02*
X108481666Y-82545771D01*
X108481666Y-82545771D02*
X108386428Y-82593390D01*
X108386428Y-82593390D02*
X108195952Y-82593390D01*
X108195952Y-82593390D02*
X108100714Y-82641009D01*
X108100714Y-82641009D02*
X108053095Y-82688628D01*
X108053095Y-82688628D02*
X108005476Y-82783866D01*
X108005476Y-82783866D02*
X108005476Y-82974342D01*
X108005476Y-82974342D02*
X108053095Y-83069580D01*
X108053095Y-83069580D02*
X108100714Y-83117200D01*
X108100714Y-83117200D02*
X108195952Y-83164819D01*
X108195952Y-83164819D02*
X108386428Y-83164819D01*
X108386428Y-83164819D02*
X108481666Y-83117200D01*
X108481666Y-83117200D02*
X108529285Y-83069580D01*
X108529285Y-83069580D02*
X108576904Y-82974342D01*
X108576904Y-82974342D02*
X108576904Y-82783866D01*
X108576904Y-82783866D02*
X108529285Y-82688628D01*
X108529285Y-82688628D02*
X108481666Y-82641009D01*
X108481666Y-82641009D02*
X108386428Y-82593390D01*
X106799142Y-91292819D02*
X106465809Y-90816628D01*
X106227714Y-91292819D02*
X106227714Y-90292819D01*
X106227714Y-90292819D02*
X106608666Y-90292819D01*
X106608666Y-90292819D02*
X106703904Y-90340438D01*
X106703904Y-90340438D02*
X106751523Y-90388057D01*
X106751523Y-90388057D02*
X106799142Y-90483295D01*
X106799142Y-90483295D02*
X106799142Y-90626152D01*
X106799142Y-90626152D02*
X106751523Y-90721390D01*
X106751523Y-90721390D02*
X106703904Y-90769009D01*
X106703904Y-90769009D02*
X106608666Y-90816628D01*
X106608666Y-90816628D02*
X106227714Y-90816628D01*
X107751523Y-91292819D02*
X107180095Y-91292819D01*
X107465809Y-91292819D02*
X107465809Y-90292819D01*
X107465809Y-90292819D02*
X107370571Y-90435676D01*
X107370571Y-90435676D02*
X107275333Y-90530914D01*
X107275333Y-90530914D02*
X107180095Y-90578533D01*
X108084857Y-90292819D02*
X108751523Y-90292819D01*
X108751523Y-90292819D02*
X108322952Y-91292819D01*
X192397142Y-75254819D02*
X192063809Y-74778628D01*
X191825714Y-75254819D02*
X191825714Y-74254819D01*
X191825714Y-74254819D02*
X192206666Y-74254819D01*
X192206666Y-74254819D02*
X192301904Y-74302438D01*
X192301904Y-74302438D02*
X192349523Y-74350057D01*
X192349523Y-74350057D02*
X192397142Y-74445295D01*
X192397142Y-74445295D02*
X192397142Y-74588152D01*
X192397142Y-74588152D02*
X192349523Y-74683390D01*
X192349523Y-74683390D02*
X192301904Y-74731009D01*
X192301904Y-74731009D02*
X192206666Y-74778628D01*
X192206666Y-74778628D02*
X191825714Y-74778628D01*
X192778095Y-74350057D02*
X192825714Y-74302438D01*
X192825714Y-74302438D02*
X192920952Y-74254819D01*
X192920952Y-74254819D02*
X193159047Y-74254819D01*
X193159047Y-74254819D02*
X193254285Y-74302438D01*
X193254285Y-74302438D02*
X193301904Y-74350057D01*
X193301904Y-74350057D02*
X193349523Y-74445295D01*
X193349523Y-74445295D02*
X193349523Y-74540533D01*
X193349523Y-74540533D02*
X193301904Y-74683390D01*
X193301904Y-74683390D02*
X192730476Y-75254819D01*
X192730476Y-75254819D02*
X193349523Y-75254819D01*
X194206666Y-74588152D02*
X194206666Y-75254819D01*
X193968571Y-74207200D02*
X193730476Y-74921485D01*
X193730476Y-74921485D02*
X194349523Y-74921485D01*
X127216819Y-92574904D02*
X127216819Y-92003476D01*
X128216819Y-92289190D02*
X127216819Y-92289190D01*
X128216819Y-91670142D02*
X127216819Y-91670142D01*
X127216819Y-91670142D02*
X127216819Y-91289190D01*
X127216819Y-91289190D02*
X127264438Y-91193952D01*
X127264438Y-91193952D02*
X127312057Y-91146333D01*
X127312057Y-91146333D02*
X127407295Y-91098714D01*
X127407295Y-91098714D02*
X127550152Y-91098714D01*
X127550152Y-91098714D02*
X127645390Y-91146333D01*
X127645390Y-91146333D02*
X127693009Y-91193952D01*
X127693009Y-91193952D02*
X127740628Y-91289190D01*
X127740628Y-91289190D02*
X127740628Y-91670142D01*
X128216819Y-90146333D02*
X128216819Y-90717761D01*
X128216819Y-90432047D02*
X127216819Y-90432047D01*
X127216819Y-90432047D02*
X127359676Y-90527285D01*
X127359676Y-90527285D02*
X127454914Y-90622523D01*
X127454914Y-90622523D02*
X127502533Y-90717761D01*
X192397142Y-79034819D02*
X192063809Y-78558628D01*
X191825714Y-79034819D02*
X191825714Y-78034819D01*
X191825714Y-78034819D02*
X192206666Y-78034819D01*
X192206666Y-78034819D02*
X192301904Y-78082438D01*
X192301904Y-78082438D02*
X192349523Y-78130057D01*
X192349523Y-78130057D02*
X192397142Y-78225295D01*
X192397142Y-78225295D02*
X192397142Y-78368152D01*
X192397142Y-78368152D02*
X192349523Y-78463390D01*
X192349523Y-78463390D02*
X192301904Y-78511009D01*
X192301904Y-78511009D02*
X192206666Y-78558628D01*
X192206666Y-78558628D02*
X191825714Y-78558628D01*
X192778095Y-78130057D02*
X192825714Y-78082438D01*
X192825714Y-78082438D02*
X192920952Y-78034819D01*
X192920952Y-78034819D02*
X193159047Y-78034819D01*
X193159047Y-78034819D02*
X193254285Y-78082438D01*
X193254285Y-78082438D02*
X193301904Y-78130057D01*
X193301904Y-78130057D02*
X193349523Y-78225295D01*
X193349523Y-78225295D02*
X193349523Y-78320533D01*
X193349523Y-78320533D02*
X193301904Y-78463390D01*
X193301904Y-78463390D02*
X192730476Y-79034819D01*
X192730476Y-79034819D02*
X193349523Y-79034819D01*
X194254285Y-78034819D02*
X193778095Y-78034819D01*
X193778095Y-78034819D02*
X193730476Y-78511009D01*
X193730476Y-78511009D02*
X193778095Y-78463390D01*
X193778095Y-78463390D02*
X193873333Y-78415771D01*
X193873333Y-78415771D02*
X194111428Y-78415771D01*
X194111428Y-78415771D02*
X194206666Y-78463390D01*
X194206666Y-78463390D02*
X194254285Y-78511009D01*
X194254285Y-78511009D02*
X194301904Y-78606247D01*
X194301904Y-78606247D02*
X194301904Y-78844342D01*
X194301904Y-78844342D02*
X194254285Y-78939580D01*
X194254285Y-78939580D02*
X194206666Y-78987200D01*
X194206666Y-78987200D02*
X194111428Y-79034819D01*
X194111428Y-79034819D02*
X193873333Y-79034819D01*
X193873333Y-79034819D02*
X193778095Y-78987200D01*
X193778095Y-78987200D02*
X193730476Y-78939580D01*
X162539819Y-50054166D02*
X162063628Y-50387499D01*
X162539819Y-50625594D02*
X161539819Y-50625594D01*
X161539819Y-50625594D02*
X161539819Y-50244642D01*
X161539819Y-50244642D02*
X161587438Y-50149404D01*
X161587438Y-50149404D02*
X161635057Y-50101785D01*
X161635057Y-50101785D02*
X161730295Y-50054166D01*
X161730295Y-50054166D02*
X161873152Y-50054166D01*
X161873152Y-50054166D02*
X161968390Y-50101785D01*
X161968390Y-50101785D02*
X162016009Y-50149404D01*
X162016009Y-50149404D02*
X162063628Y-50244642D01*
X162063628Y-50244642D02*
X162063628Y-50625594D01*
X161635057Y-49673213D02*
X161587438Y-49625594D01*
X161587438Y-49625594D02*
X161539819Y-49530356D01*
X161539819Y-49530356D02*
X161539819Y-49292261D01*
X161539819Y-49292261D02*
X161587438Y-49197023D01*
X161587438Y-49197023D02*
X161635057Y-49149404D01*
X161635057Y-49149404D02*
X161730295Y-49101785D01*
X161730295Y-49101785D02*
X161825533Y-49101785D01*
X161825533Y-49101785D02*
X161968390Y-49149404D01*
X161968390Y-49149404D02*
X162539819Y-49720832D01*
X162539819Y-49720832D02*
X162539819Y-49101785D01*
X115008819Y-50530357D02*
X114532628Y-50863690D01*
X115008819Y-51101785D02*
X114008819Y-51101785D01*
X114008819Y-51101785D02*
X114008819Y-50720833D01*
X114008819Y-50720833D02*
X114056438Y-50625595D01*
X114056438Y-50625595D02*
X114104057Y-50577976D01*
X114104057Y-50577976D02*
X114199295Y-50530357D01*
X114199295Y-50530357D02*
X114342152Y-50530357D01*
X114342152Y-50530357D02*
X114437390Y-50577976D01*
X114437390Y-50577976D02*
X114485009Y-50625595D01*
X114485009Y-50625595D02*
X114532628Y-50720833D01*
X114532628Y-50720833D02*
X114532628Y-51101785D01*
X114104057Y-50149404D02*
X114056438Y-50101785D01*
X114056438Y-50101785D02*
X114008819Y-50006547D01*
X114008819Y-50006547D02*
X114008819Y-49768452D01*
X114008819Y-49768452D02*
X114056438Y-49673214D01*
X114056438Y-49673214D02*
X114104057Y-49625595D01*
X114104057Y-49625595D02*
X114199295Y-49577976D01*
X114199295Y-49577976D02*
X114294533Y-49577976D01*
X114294533Y-49577976D02*
X114437390Y-49625595D01*
X114437390Y-49625595D02*
X115008819Y-50197023D01*
X115008819Y-50197023D02*
X115008819Y-49577976D01*
X115008819Y-48625595D02*
X115008819Y-49197023D01*
X115008819Y-48911309D02*
X114008819Y-48911309D01*
X114008819Y-48911309D02*
X114151676Y-49006547D01*
X114151676Y-49006547D02*
X114246914Y-49101785D01*
X114246914Y-49101785D02*
X114294533Y-49197023D01*
X127842261Y-70768057D02*
X127747023Y-70720438D01*
X127747023Y-70720438D02*
X127651785Y-70625200D01*
X127651785Y-70625200D02*
X127508928Y-70482342D01*
X127508928Y-70482342D02*
X127413690Y-70434723D01*
X127413690Y-70434723D02*
X127318452Y-70434723D01*
X127366071Y-70672819D02*
X127270833Y-70625200D01*
X127270833Y-70625200D02*
X127175595Y-70529961D01*
X127175595Y-70529961D02*
X127127976Y-70339485D01*
X127127976Y-70339485D02*
X127127976Y-70006152D01*
X127127976Y-70006152D02*
X127175595Y-69815676D01*
X127175595Y-69815676D02*
X127270833Y-69720438D01*
X127270833Y-69720438D02*
X127366071Y-69672819D01*
X127366071Y-69672819D02*
X127556547Y-69672819D01*
X127556547Y-69672819D02*
X127651785Y-69720438D01*
X127651785Y-69720438D02*
X127747023Y-69815676D01*
X127747023Y-69815676D02*
X127794642Y-70006152D01*
X127794642Y-70006152D02*
X127794642Y-70339485D01*
X127794642Y-70339485D02*
X127747023Y-70529961D01*
X127747023Y-70529961D02*
X127651785Y-70625200D01*
X127651785Y-70625200D02*
X127556547Y-70672819D01*
X127556547Y-70672819D02*
X127366071Y-70672819D01*
X128175595Y-69768057D02*
X128223214Y-69720438D01*
X128223214Y-69720438D02*
X128318452Y-69672819D01*
X128318452Y-69672819D02*
X128556547Y-69672819D01*
X128556547Y-69672819D02*
X128651785Y-69720438D01*
X128651785Y-69720438D02*
X128699404Y-69768057D01*
X128699404Y-69768057D02*
X128747023Y-69863295D01*
X128747023Y-69863295D02*
X128747023Y-69958533D01*
X128747023Y-69958533D02*
X128699404Y-70101390D01*
X128699404Y-70101390D02*
X128127976Y-70672819D01*
X128127976Y-70672819D02*
X128747023Y-70672819D01*
X165587819Y-50054166D02*
X165111628Y-50387499D01*
X165587819Y-50625594D02*
X164587819Y-50625594D01*
X164587819Y-50625594D02*
X164587819Y-50244642D01*
X164587819Y-50244642D02*
X164635438Y-50149404D01*
X164635438Y-50149404D02*
X164683057Y-50101785D01*
X164683057Y-50101785D02*
X164778295Y-50054166D01*
X164778295Y-50054166D02*
X164921152Y-50054166D01*
X164921152Y-50054166D02*
X165016390Y-50101785D01*
X165016390Y-50101785D02*
X165064009Y-50149404D01*
X165064009Y-50149404D02*
X165111628Y-50244642D01*
X165111628Y-50244642D02*
X165111628Y-50625594D01*
X164587819Y-49720832D02*
X164587819Y-49101785D01*
X164587819Y-49101785D02*
X164968771Y-49435118D01*
X164968771Y-49435118D02*
X164968771Y-49292261D01*
X164968771Y-49292261D02*
X165016390Y-49197023D01*
X165016390Y-49197023D02*
X165064009Y-49149404D01*
X165064009Y-49149404D02*
X165159247Y-49101785D01*
X165159247Y-49101785D02*
X165397342Y-49101785D01*
X165397342Y-49101785D02*
X165492580Y-49149404D01*
X165492580Y-49149404D02*
X165540200Y-49197023D01*
X165540200Y-49197023D02*
X165587819Y-49292261D01*
X165587819Y-49292261D02*
X165587819Y-49577975D01*
X165587819Y-49577975D02*
X165540200Y-49673213D01*
X165540200Y-49673213D02*
X165492580Y-49720832D01*
X185660833Y-46554580D02*
X185613214Y-46602200D01*
X185613214Y-46602200D02*
X185470357Y-46649819D01*
X185470357Y-46649819D02*
X185375119Y-46649819D01*
X185375119Y-46649819D02*
X185232262Y-46602200D01*
X185232262Y-46602200D02*
X185137024Y-46506961D01*
X185137024Y-46506961D02*
X185089405Y-46411723D01*
X185089405Y-46411723D02*
X185041786Y-46221247D01*
X185041786Y-46221247D02*
X185041786Y-46078390D01*
X185041786Y-46078390D02*
X185089405Y-45887914D01*
X185089405Y-45887914D02*
X185137024Y-45792676D01*
X185137024Y-45792676D02*
X185232262Y-45697438D01*
X185232262Y-45697438D02*
X185375119Y-45649819D01*
X185375119Y-45649819D02*
X185470357Y-45649819D01*
X185470357Y-45649819D02*
X185613214Y-45697438D01*
X185613214Y-45697438D02*
X185660833Y-45745057D01*
X186517976Y-45649819D02*
X186327500Y-45649819D01*
X186327500Y-45649819D02*
X186232262Y-45697438D01*
X186232262Y-45697438D02*
X186184643Y-45745057D01*
X186184643Y-45745057D02*
X186089405Y-45887914D01*
X186089405Y-45887914D02*
X186041786Y-46078390D01*
X186041786Y-46078390D02*
X186041786Y-46459342D01*
X186041786Y-46459342D02*
X186089405Y-46554580D01*
X186089405Y-46554580D02*
X186137024Y-46602200D01*
X186137024Y-46602200D02*
X186232262Y-46649819D01*
X186232262Y-46649819D02*
X186422738Y-46649819D01*
X186422738Y-46649819D02*
X186517976Y-46602200D01*
X186517976Y-46602200D02*
X186565595Y-46554580D01*
X186565595Y-46554580D02*
X186613214Y-46459342D01*
X186613214Y-46459342D02*
X186613214Y-46221247D01*
X186613214Y-46221247D02*
X186565595Y-46126009D01*
X186565595Y-46126009D02*
X186517976Y-46078390D01*
X186517976Y-46078390D02*
X186422738Y-46030771D01*
X186422738Y-46030771D02*
X186232262Y-46030771D01*
X186232262Y-46030771D02*
X186137024Y-46078390D01*
X186137024Y-46078390D02*
X186089405Y-46126009D01*
X186089405Y-46126009D02*
X186041786Y-46221247D01*
X131487104Y-106124285D02*
X131487104Y-105648095D01*
X131772819Y-106219523D02*
X130772819Y-105886190D01*
X130772819Y-105886190D02*
X131772819Y-105552857D01*
X131772819Y-104695714D02*
X131772819Y-105267142D01*
X131772819Y-104981428D02*
X130772819Y-104981428D01*
X130772819Y-104981428D02*
X130915676Y-105076666D01*
X130915676Y-105076666D02*
X131010914Y-105171904D01*
X131010914Y-105171904D02*
X131058533Y-105267142D01*
X111644580Y-55411666D02*
X111692200Y-55459285D01*
X111692200Y-55459285D02*
X111739819Y-55602142D01*
X111739819Y-55602142D02*
X111739819Y-55697380D01*
X111739819Y-55697380D02*
X111692200Y-55840237D01*
X111692200Y-55840237D02*
X111596961Y-55935475D01*
X111596961Y-55935475D02*
X111501723Y-55983094D01*
X111501723Y-55983094D02*
X111311247Y-56030713D01*
X111311247Y-56030713D02*
X111168390Y-56030713D01*
X111168390Y-56030713D02*
X110977914Y-55983094D01*
X110977914Y-55983094D02*
X110882676Y-55935475D01*
X110882676Y-55935475D02*
X110787438Y-55840237D01*
X110787438Y-55840237D02*
X110739819Y-55697380D01*
X110739819Y-55697380D02*
X110739819Y-55602142D01*
X110739819Y-55602142D02*
X110787438Y-55459285D01*
X110787438Y-55459285D02*
X110835057Y-55411666D01*
X110739819Y-55078332D02*
X110739819Y-54459285D01*
X110739819Y-54459285D02*
X111120771Y-54792618D01*
X111120771Y-54792618D02*
X111120771Y-54649761D01*
X111120771Y-54649761D02*
X111168390Y-54554523D01*
X111168390Y-54554523D02*
X111216009Y-54506904D01*
X111216009Y-54506904D02*
X111311247Y-54459285D01*
X111311247Y-54459285D02*
X111549342Y-54459285D01*
X111549342Y-54459285D02*
X111644580Y-54506904D01*
X111644580Y-54506904D02*
X111692200Y-54554523D01*
X111692200Y-54554523D02*
X111739819Y-54649761D01*
X111739819Y-54649761D02*
X111739819Y-54935475D01*
X111739819Y-54935475D02*
X111692200Y-55030713D01*
X111692200Y-55030713D02*
X111644580Y-55078332D01*
X122209819Y-100521904D02*
X123019342Y-100521904D01*
X123019342Y-100521904D02*
X123114580Y-100474285D01*
X123114580Y-100474285D02*
X123162200Y-100426666D01*
X123162200Y-100426666D02*
X123209819Y-100331428D01*
X123209819Y-100331428D02*
X123209819Y-100140952D01*
X123209819Y-100140952D02*
X123162200Y-100045714D01*
X123162200Y-100045714D02*
X123114580Y-99998095D01*
X123114580Y-99998095D02*
X123019342Y-99950476D01*
X123019342Y-99950476D02*
X122209819Y-99950476D01*
X123209819Y-98950476D02*
X123209819Y-99521904D01*
X123209819Y-99236190D02*
X122209819Y-99236190D01*
X122209819Y-99236190D02*
X122352676Y-99331428D01*
X122352676Y-99331428D02*
X122447914Y-99426666D01*
X122447914Y-99426666D02*
X122495533Y-99521904D01*
X120890833Y-105863580D02*
X120843214Y-105911200D01*
X120843214Y-105911200D02*
X120700357Y-105958819D01*
X120700357Y-105958819D02*
X120605119Y-105958819D01*
X120605119Y-105958819D02*
X120462262Y-105911200D01*
X120462262Y-105911200D02*
X120367024Y-105815961D01*
X120367024Y-105815961D02*
X120319405Y-105720723D01*
X120319405Y-105720723D02*
X120271786Y-105530247D01*
X120271786Y-105530247D02*
X120271786Y-105387390D01*
X120271786Y-105387390D02*
X120319405Y-105196914D01*
X120319405Y-105196914D02*
X120367024Y-105101676D01*
X120367024Y-105101676D02*
X120462262Y-105006438D01*
X120462262Y-105006438D02*
X120605119Y-104958819D01*
X120605119Y-104958819D02*
X120700357Y-104958819D01*
X120700357Y-104958819D02*
X120843214Y-105006438D01*
X120843214Y-105006438D02*
X120890833Y-105054057D01*
X121462262Y-105387390D02*
X121367024Y-105339771D01*
X121367024Y-105339771D02*
X121319405Y-105292152D01*
X121319405Y-105292152D02*
X121271786Y-105196914D01*
X121271786Y-105196914D02*
X121271786Y-105149295D01*
X121271786Y-105149295D02*
X121319405Y-105054057D01*
X121319405Y-105054057D02*
X121367024Y-105006438D01*
X121367024Y-105006438D02*
X121462262Y-104958819D01*
X121462262Y-104958819D02*
X121652738Y-104958819D01*
X121652738Y-104958819D02*
X121747976Y-105006438D01*
X121747976Y-105006438D02*
X121795595Y-105054057D01*
X121795595Y-105054057D02*
X121843214Y-105149295D01*
X121843214Y-105149295D02*
X121843214Y-105196914D01*
X121843214Y-105196914D02*
X121795595Y-105292152D01*
X121795595Y-105292152D02*
X121747976Y-105339771D01*
X121747976Y-105339771D02*
X121652738Y-105387390D01*
X121652738Y-105387390D02*
X121462262Y-105387390D01*
X121462262Y-105387390D02*
X121367024Y-105435009D01*
X121367024Y-105435009D02*
X121319405Y-105482628D01*
X121319405Y-105482628D02*
X121271786Y-105577866D01*
X121271786Y-105577866D02*
X121271786Y-105768342D01*
X121271786Y-105768342D02*
X121319405Y-105863580D01*
X121319405Y-105863580D02*
X121367024Y-105911200D01*
X121367024Y-105911200D02*
X121462262Y-105958819D01*
X121462262Y-105958819D02*
X121652738Y-105958819D01*
X121652738Y-105958819D02*
X121747976Y-105911200D01*
X121747976Y-105911200D02*
X121795595Y-105863580D01*
X121795595Y-105863580D02*
X121843214Y-105768342D01*
X121843214Y-105768342D02*
X121843214Y-105577866D01*
X121843214Y-105577866D02*
X121795595Y-105482628D01*
X121795595Y-105482628D02*
X121747976Y-105435009D01*
X121747976Y-105435009D02*
X121652738Y-105387390D01*
D12*
%TO.C,TP39*%
X159455000Y-41980000D02*
X161855000Y-41980000D01*
X159455000Y-44380000D02*
X159455000Y-41980000D01*
X161855000Y-41980000D02*
X161855000Y-44380000D01*
X161855000Y-44380000D02*
X159455000Y-44380000D01*
%TO.C,R16*%
X110377500Y-61302776D02*
X110377500Y-61812224D01*
X109332500Y-61302776D02*
X109332500Y-61812224D01*
%TO.C,R9*%
X166355500Y-55857224D02*
X166355500Y-55347776D01*
X167400500Y-55857224D02*
X167400500Y-55347776D01*
%TO.C,TP25*%
X115005000Y-41980000D02*
X117405000Y-41980000D01*
X115005000Y-44380000D02*
X115005000Y-41980000D01*
X117405000Y-41980000D02*
X117405000Y-44380000D01*
X117405000Y-44380000D02*
X115005000Y-44380000D01*
%TO.C,C4*%
X107190000Y-55098733D02*
X107190000Y-55391267D01*
X106170000Y-55098733D02*
X106170000Y-55391267D01*
%TO.C,TP26*%
X118180000Y-41980000D02*
X120580000Y-41980000D01*
X118180000Y-44380000D02*
X118180000Y-41980000D01*
X120580000Y-41980000D02*
X120580000Y-44380000D01*
X120580000Y-44380000D02*
X118180000Y-44380000D01*
%TO.C,R20*%
X115682500Y-50142224D02*
X115682500Y-49632776D01*
X116727500Y-50142224D02*
X116727500Y-49632776D01*
%TO.C,Q1*%
X122506500Y-69378000D02*
X124181500Y-69378000D01*
X122506500Y-69378000D02*
X121856500Y-69378000D01*
X122506500Y-66258000D02*
X123156500Y-66258000D01*
X122506500Y-66258000D02*
X121856500Y-66258000D01*
%TO.C,TP34*%
X143580000Y-41980000D02*
X145980000Y-41980000D01*
X143580000Y-44380000D02*
X143580000Y-41980000D01*
X145980000Y-41980000D02*
X145980000Y-44380000D01*
X145980000Y-44380000D02*
X143580000Y-44380000D01*
%TO.C,R5*%
X170575500Y-49632776D02*
X170575500Y-50142224D01*
X169530500Y-49632776D02*
X169530500Y-50142224D01*
%TO.C,TP27*%
X121355000Y-41980000D02*
X123755000Y-41980000D01*
X121355000Y-44380000D02*
X121355000Y-41980000D01*
X123755000Y-41980000D02*
X123755000Y-44380000D01*
X123755000Y-44380000D02*
X121355000Y-44380000D01*
%TO.C,R11*%
X124317500Y-61810776D02*
X124317500Y-62320224D01*
X123272500Y-61810776D02*
X123272500Y-62320224D01*
%TO.C,TP41*%
X165805000Y-41980000D02*
X168205000Y-41980000D01*
X165805000Y-44380000D02*
X165805000Y-41980000D01*
X168205000Y-41980000D02*
X168205000Y-44380000D01*
X168205000Y-44380000D02*
X165805000Y-44380000D01*
%TO.C,R6*%
X176925500Y-49632776D02*
X176925500Y-50142224D01*
X175880500Y-49632776D02*
X175880500Y-50142224D01*
%TO.C,TP38*%
X156280000Y-41980000D02*
X158680000Y-41980000D01*
X156280000Y-44380000D02*
X156280000Y-41980000D01*
X158680000Y-41980000D02*
X158680000Y-44380000D01*
X158680000Y-44380000D02*
X156280000Y-44380000D01*
%TO.C,U2*%
X122535000Y-81345000D02*
X122535000Y-77895000D01*
X122535000Y-81345000D02*
X122535000Y-83295000D01*
X112415000Y-81345000D02*
X112415000Y-79395000D01*
X112415000Y-81345000D02*
X112415000Y-83295000D01*
%TO.C,TP36*%
X149930000Y-41980000D02*
X152330000Y-41980000D01*
X149930000Y-44380000D02*
X149930000Y-41980000D01*
X152330000Y-41980000D02*
X152330000Y-44380000D01*
X152330000Y-44380000D02*
X149930000Y-44380000D01*
%TO.C,R22*%
X109332500Y-50142224D02*
X109332500Y-49632776D01*
X110377500Y-50142224D02*
X110377500Y-49632776D01*
%TO.C,TP37*%
X153105000Y-41980000D02*
X155505000Y-41980000D01*
X153105000Y-44380000D02*
X153105000Y-41980000D01*
X155505000Y-41980000D02*
X155505000Y-44380000D01*
X155505000Y-44380000D02*
X153105000Y-44380000D01*
%TO.C,R12*%
X127492500Y-61810776D02*
X127492500Y-62320224D01*
X126447500Y-61810776D02*
X126447500Y-62320224D01*
%TO.C,TP50*%
X194380000Y-41980000D02*
X196780000Y-41980000D01*
X194380000Y-44380000D02*
X194380000Y-41980000D01*
X196780000Y-41980000D02*
X196780000Y-44380000D01*
X196780000Y-44380000D02*
X194380000Y-44380000D01*
%TO.C,TP28*%
X124530000Y-41980000D02*
X126930000Y-41980000D01*
X124530000Y-44380000D02*
X124530000Y-41980000D01*
X126930000Y-41980000D02*
X126930000Y-44380000D01*
X126930000Y-44380000D02*
X124530000Y-44380000D01*
%TO.C,C9*%
X126091733Y-80262000D02*
X126384267Y-80262000D01*
X126091733Y-81282000D02*
X126384267Y-81282000D01*
%TO.C,R15*%
X114187500Y-61302776D02*
X114187500Y-61812224D01*
X113142500Y-61302776D02*
X113142500Y-61812224D01*
%TO.C,R14*%
X175880500Y-55857224D02*
X175880500Y-55347776D01*
X176925500Y-55857224D02*
X176925500Y-55347776D01*
%TO.C,TP33*%
X140405000Y-41980000D02*
X142805000Y-41980000D01*
X140405000Y-44380000D02*
X140405000Y-41980000D01*
X142805000Y-41980000D02*
X142805000Y-44380000D01*
X142805000Y-44380000D02*
X140405000Y-44380000D01*
%TO.C,C2*%
X113540000Y-55098733D02*
X113540000Y-55391267D01*
X112520000Y-55098733D02*
X112520000Y-55391267D01*
%TO.C,TP21*%
X102305000Y-41980000D02*
X104705000Y-41980000D01*
X102305000Y-44380000D02*
X102305000Y-41980000D01*
X104705000Y-41980000D02*
X104705000Y-44380000D01*
X104705000Y-44380000D02*
X102305000Y-44380000D01*
%TO.C,R8*%
X163180500Y-55857224D02*
X163180500Y-55347776D01*
X164225500Y-55857224D02*
X164225500Y-55347776D01*
%TO.C,TP30*%
X130880000Y-41980000D02*
X133280000Y-41980000D01*
X130880000Y-44380000D02*
X130880000Y-41980000D01*
X133280000Y-41980000D02*
X133280000Y-44380000D01*
X133280000Y-44380000D02*
X130880000Y-44380000D01*
%TO.C,TP31*%
X134055000Y-41980000D02*
X136455000Y-41980000D01*
X134055000Y-44380000D02*
X134055000Y-41980000D01*
X136455000Y-41980000D02*
X136455000Y-44380000D01*
X136455000Y-44380000D02*
X134055000Y-44380000D01*
%TO.C,TP46*%
X181680000Y-41980000D02*
X184080000Y-41980000D01*
X181680000Y-44380000D02*
X181680000Y-41980000D01*
X184080000Y-41980000D02*
X184080000Y-44380000D01*
X184080000Y-44380000D02*
X181680000Y-44380000D01*
%TO.C,R7*%
X160132500Y-55857224D02*
X160132500Y-55347776D01*
X161177500Y-55857224D02*
X161177500Y-55347776D01*
%TO.C,R23*%
X106157500Y-50142224D02*
X106157500Y-49632776D01*
X107202500Y-50142224D02*
X107202500Y-49632776D01*
%TO.C,C1*%
X116715000Y-55098733D02*
X116715000Y-55391267D01*
X115695000Y-55098733D02*
X115695000Y-55391267D01*
%TO.C,C7*%
X126923748Y-86085000D02*
X128346252Y-86085000D01*
X126923748Y-87905000D02*
X128346252Y-87905000D01*
%TO.C,TP22*%
X105480000Y-41980000D02*
X107880000Y-41980000D01*
X105480000Y-44380000D02*
X105480000Y-41980000D01*
X107880000Y-41980000D02*
X107880000Y-44380000D01*
X107880000Y-44380000D02*
X105480000Y-44380000D01*
%TO.C,TP44*%
X175330000Y-41980000D02*
X177730000Y-41980000D01*
X175330000Y-44380000D02*
X175330000Y-41980000D01*
X177730000Y-41980000D02*
X177730000Y-44380000D01*
X177730000Y-44380000D02*
X175330000Y-44380000D01*
%TO.C,Q4*%
X108917500Y-69505000D02*
X110592500Y-69505000D01*
X108917500Y-69505000D02*
X108267500Y-69505000D01*
X108917500Y-66385000D02*
X109567500Y-66385000D01*
X108917500Y-66385000D02*
X108267500Y-66385000D01*
%TO.C,R10*%
X169530500Y-55857224D02*
X169530500Y-55347776D01*
X170575500Y-55857224D02*
X170575500Y-55347776D01*
%TO.C,TP29*%
X127705000Y-41980000D02*
X130105000Y-41980000D01*
X127705000Y-44380000D02*
X127705000Y-41980000D01*
X130105000Y-41980000D02*
X130105000Y-44380000D01*
X130105000Y-44380000D02*
X127705000Y-44380000D01*
%TO.C,R4*%
X167400500Y-49632776D02*
X167400500Y-50142224D01*
X166355500Y-49632776D02*
X166355500Y-50142224D01*
%TO.C,Q3*%
X114632500Y-69505000D02*
X116307500Y-69505000D01*
X114632500Y-69505000D02*
X113982500Y-69505000D01*
X114632500Y-66385000D02*
X115282500Y-66385000D01*
X114632500Y-66385000D02*
X113982500Y-66385000D01*
%TO.C,J2*%
X191456000Y-83247000D02*
X192786000Y-83247000D01*
X191456000Y-84577000D02*
X191456000Y-83247000D01*
X191456000Y-85847000D02*
X191456000Y-88447000D01*
X191456000Y-85847000D02*
X194116000Y-85847000D01*
X191456000Y-88447000D02*
X194116000Y-88447000D01*
X194116000Y-85847000D02*
X194116000Y-88447000D01*
%TO.C,TP45*%
X178505000Y-41980000D02*
X180905000Y-41980000D01*
X178505000Y-44380000D02*
X178505000Y-41980000D01*
X180905000Y-41980000D02*
X180905000Y-44380000D01*
X180905000Y-44380000D02*
X178505000Y-44380000D01*
%TO.C,TP23*%
X108655000Y-41980000D02*
X111055000Y-41980000D01*
X108655000Y-44380000D02*
X108655000Y-41980000D01*
X111055000Y-41980000D02*
X111055000Y-44380000D01*
X111055000Y-44380000D02*
X108655000Y-44380000D01*
%TO.C,R13*%
X107696724Y-76214500D02*
X107187276Y-76214500D01*
X107696724Y-75169500D02*
X107187276Y-75169500D01*
%TO.C,C5*%
X182588959Y-54845000D02*
X183838959Y-54845000D01*
X183213959Y-54220000D02*
X183213959Y-55470000D01*
X189406041Y-52090000D02*
X189406041Y-64750000D01*
X189446041Y-52090000D02*
X189446041Y-64750000D01*
X189486041Y-52090000D02*
X189486041Y-64750000D01*
X189526041Y-52091000D02*
X189526041Y-64749000D01*
X189566041Y-52092000D02*
X189566041Y-64748000D01*
X189606041Y-52093000D02*
X189606041Y-64747000D01*
X189646041Y-52094000D02*
X189646041Y-64746000D01*
X189686041Y-52096000D02*
X189686041Y-64744000D01*
X189726041Y-52098000D02*
X189726041Y-64742000D01*
X189766041Y-52100000D02*
X189766041Y-64740000D01*
X189806041Y-52102000D02*
X189806041Y-64738000D01*
X189846041Y-52105000D02*
X189846041Y-64735000D01*
X189886041Y-52108000D02*
X189886041Y-64732000D01*
X189926041Y-52111000D02*
X189926041Y-64729000D01*
X189966041Y-52114000D02*
X189966041Y-64726000D01*
X190006041Y-52118000D02*
X190006041Y-64722000D01*
X190046041Y-52122000D02*
X190046041Y-64718000D01*
X190086041Y-52126000D02*
X190086041Y-64714000D01*
X190127041Y-52130000D02*
X190127041Y-64710000D01*
X190167041Y-52135000D02*
X190167041Y-64705000D01*
X190207041Y-52140000D02*
X190207041Y-64700000D01*
X190247041Y-52145000D02*
X190247041Y-64695000D01*
X190287041Y-52151000D02*
X190287041Y-64689000D01*
X190327041Y-52156000D02*
X190327041Y-64684000D01*
X190367041Y-52162000D02*
X190367041Y-64678000D01*
X190407041Y-52168000D02*
X190407041Y-64672000D01*
X190447041Y-52175000D02*
X190447041Y-64665000D01*
X190487041Y-52182000D02*
X190487041Y-64658000D01*
X190527041Y-52189000D02*
X190527041Y-64651000D01*
X190567041Y-52196000D02*
X190567041Y-64644000D01*
X190607041Y-52204000D02*
X190607041Y-64636000D01*
X190647041Y-52211000D02*
X190647041Y-64629000D01*
X190687041Y-52219000D02*
X190687041Y-64621000D01*
X190727041Y-52228000D02*
X190727041Y-64612000D01*
X190767041Y-52236000D02*
X190767041Y-64604000D01*
X190807041Y-52245000D02*
X190807041Y-64595000D01*
X190847041Y-52254000D02*
X190847041Y-64586000D01*
X190887041Y-52264000D02*
X190887041Y-64576000D01*
X190927041Y-52274000D02*
X190927041Y-64566000D01*
X190967041Y-52283000D02*
X190967041Y-64557000D01*
X191007041Y-52294000D02*
X191007041Y-64546000D01*
X191047041Y-52304000D02*
X191047041Y-64536000D01*
X191087041Y-52315000D02*
X191087041Y-64525000D01*
X191127041Y-52326000D02*
X191127041Y-64514000D01*
X191167041Y-52337000D02*
X191167041Y-64503000D01*
X191207041Y-52349000D02*
X191207041Y-64491000D01*
X191247041Y-52361000D02*
X191247041Y-64479000D01*
X191287041Y-52373000D02*
X191287041Y-64467000D01*
X191327041Y-52386000D02*
X191327041Y-64454000D01*
X191367041Y-52399000D02*
X191367041Y-64441000D01*
X191407041Y-52412000D02*
X191407041Y-64428000D01*
X191447041Y-52425000D02*
X191447041Y-64415000D01*
X191487041Y-52439000D02*
X191487041Y-64401000D01*
X191527041Y-52453000D02*
X191527041Y-64387000D01*
X191567041Y-52467000D02*
X191567041Y-64373000D01*
X191607041Y-52481000D02*
X191607041Y-64359000D01*
X191647041Y-52496000D02*
X191647041Y-64344000D01*
X191687041Y-52512000D02*
X191687041Y-64328000D01*
X191727041Y-52527000D02*
X191727041Y-56980000D01*
X191727041Y-59860000D02*
X191727041Y-64313000D01*
X191767041Y-52543000D02*
X191767041Y-56980000D01*
X191767041Y-59860000D02*
X191767041Y-64297000D01*
X191807041Y-52559000D02*
X191807041Y-56980000D01*
X191807041Y-59860000D02*
X191807041Y-64281000D01*
X191847041Y-52575000D02*
X191847041Y-56980000D01*
X191847041Y-59860000D02*
X191847041Y-64265000D01*
X191887041Y-52592000D02*
X191887041Y-56980000D01*
X191887041Y-59860000D02*
X191887041Y-64248000D01*
X191927041Y-52609000D02*
X191927041Y-56980000D01*
X191927041Y-59860000D02*
X191927041Y-64231000D01*
X191967041Y-52627000D02*
X191967041Y-56980000D01*
X191967041Y-59860000D02*
X191967041Y-64213000D01*
X192007041Y-52644000D02*
X192007041Y-56980000D01*
X192007041Y-59860000D02*
X192007041Y-64196000D01*
X192047041Y-52662000D02*
X192047041Y-56980000D01*
X192047041Y-59860000D02*
X192047041Y-64178000D01*
X192087041Y-52681000D02*
X192087041Y-56980000D01*
X192087041Y-59860000D02*
X192087041Y-64159000D01*
X192127041Y-52699000D02*
X192127041Y-56980000D01*
X192127041Y-59860000D02*
X192127041Y-64141000D01*
X192167041Y-52718000D02*
X192167041Y-56980000D01*
X192167041Y-59860000D02*
X192167041Y-64122000D01*
X192207041Y-52738000D02*
X192207041Y-56980000D01*
X192207041Y-59860000D02*
X192207041Y-64102000D01*
X192247041Y-52758000D02*
X192247041Y-56980000D01*
X192247041Y-59860000D02*
X192247041Y-64082000D01*
X192287041Y-52778000D02*
X192287041Y-56980000D01*
X192287041Y-59860000D02*
X192287041Y-64062000D01*
X192327041Y-52798000D02*
X192327041Y-56980000D01*
X192327041Y-59860000D02*
X192327041Y-64042000D01*
X192367041Y-52819000D02*
X192367041Y-56980000D01*
X192367041Y-59860000D02*
X192367041Y-64021000D01*
X192407041Y-52840000D02*
X192407041Y-56980000D01*
X192407041Y-59860000D02*
X192407041Y-64000000D01*
X192447041Y-52862000D02*
X192447041Y-56980000D01*
X192447041Y-59860000D02*
X192447041Y-63978000D01*
X192487041Y-52884000D02*
X192487041Y-56980000D01*
X192487041Y-59860000D02*
X192487041Y-63956000D01*
X192527041Y-52906000D02*
X192527041Y-56980000D01*
X192527041Y-59860000D02*
X192527041Y-63934000D01*
X192567041Y-52929000D02*
X192567041Y-56980000D01*
X192567041Y-59860000D02*
X192567041Y-63911000D01*
X192607041Y-52952000D02*
X192607041Y-56980000D01*
X192607041Y-59860000D02*
X192607041Y-63888000D01*
X192647041Y-52975000D02*
X192647041Y-56980000D01*
X192647041Y-59860000D02*
X192647041Y-63865000D01*
X192687041Y-52999000D02*
X192687041Y-56980000D01*
X192687041Y-59860000D02*
X192687041Y-63841000D01*
X192727041Y-53023000D02*
X192727041Y-56980000D01*
X192727041Y-59860000D02*
X192727041Y-63817000D01*
X192767041Y-53048000D02*
X192767041Y-56980000D01*
X192767041Y-59860000D02*
X192767041Y-63792000D01*
X192807041Y-53073000D02*
X192807041Y-56980000D01*
X192807041Y-59860000D02*
X192807041Y-63767000D01*
X192847041Y-53098000D02*
X192847041Y-56980000D01*
X192847041Y-59860000D02*
X192847041Y-63742000D01*
X192887041Y-53124000D02*
X192887041Y-56980000D01*
X192887041Y-59860000D02*
X192887041Y-63716000D01*
X192927041Y-53150000D02*
X192927041Y-56980000D01*
X192927041Y-59860000D02*
X192927041Y-63690000D01*
X192967041Y-53177000D02*
X192967041Y-56980000D01*
X192967041Y-59860000D02*
X192967041Y-63663000D01*
X193007041Y-53204000D02*
X193007041Y-56980000D01*
X193007041Y-59860000D02*
X193007041Y-63636000D01*
X193047041Y-53232000D02*
X193047041Y-56980000D01*
X193047041Y-59860000D02*
X193047041Y-63608000D01*
X193087041Y-53260000D02*
X193087041Y-56980000D01*
X193087041Y-59860000D02*
X193087041Y-63580000D01*
X193127041Y-53289000D02*
X193127041Y-56980000D01*
X193127041Y-59860000D02*
X193127041Y-63551000D01*
X193167041Y-53318000D02*
X193167041Y-56980000D01*
X193167041Y-59860000D02*
X193167041Y-63522000D01*
X193207041Y-53347000D02*
X193207041Y-56980000D01*
X193207041Y-59860000D02*
X193207041Y-63493000D01*
X193247041Y-53377000D02*
X193247041Y-56980000D01*
X193247041Y-59860000D02*
X193247041Y-63463000D01*
X193287041Y-53408000D02*
X193287041Y-56980000D01*
X193287041Y-59860000D02*
X193287041Y-63432000D01*
X193327041Y-53438000D02*
X193327041Y-56980000D01*
X193327041Y-59860000D02*
X193327041Y-63402000D01*
X193367041Y-53470000D02*
X193367041Y-56980000D01*
X193367041Y-59860000D02*
X193367041Y-63370000D01*
X193407041Y-53502000D02*
X193407041Y-56980000D01*
X193407041Y-59860000D02*
X193407041Y-63338000D01*
X193447041Y-53535000D02*
X193447041Y-56980000D01*
X193447041Y-59860000D02*
X193447041Y-63305000D01*
X193487041Y-53568000D02*
X193487041Y-56980000D01*
X193487041Y-59860000D02*
X193487041Y-63272000D01*
X193527041Y-53601000D02*
X193527041Y-56980000D01*
X193527041Y-59860000D02*
X193527041Y-63239000D01*
X193567041Y-53635000D02*
X193567041Y-56980000D01*
X193567041Y-59860000D02*
X193567041Y-63205000D01*
X193607041Y-53670000D02*
X193607041Y-56980000D01*
X193607041Y-59860000D02*
X193607041Y-63170000D01*
X193647041Y-53706000D02*
X193647041Y-56980000D01*
X193647041Y-59860000D02*
X193647041Y-63134000D01*
X193687041Y-53742000D02*
X193687041Y-56980000D01*
X193687041Y-59860000D02*
X193687041Y-63098000D01*
X193727041Y-53778000D02*
X193727041Y-56980000D01*
X193727041Y-59860000D02*
X193727041Y-63062000D01*
X193767041Y-53815000D02*
X193767041Y-56980000D01*
X193767041Y-59860000D02*
X193767041Y-63025000D01*
X193807041Y-53853000D02*
X193807041Y-56980000D01*
X193807041Y-59860000D02*
X193807041Y-62987000D01*
X193847041Y-53892000D02*
X193847041Y-56980000D01*
X193847041Y-59860000D02*
X193847041Y-62948000D01*
X193887041Y-53931000D02*
X193887041Y-56980000D01*
X193887041Y-59860000D02*
X193887041Y-62909000D01*
X193927041Y-53971000D02*
X193927041Y-56980000D01*
X193927041Y-59860000D02*
X193927041Y-62869000D01*
X193967041Y-54012000D02*
X193967041Y-56980000D01*
X193967041Y-59860000D02*
X193967041Y-62828000D01*
X194007041Y-54053000D02*
X194007041Y-56980000D01*
X194007041Y-59860000D02*
X194007041Y-62787000D01*
X194047041Y-54095000D02*
X194047041Y-56980000D01*
X194047041Y-59860000D02*
X194047041Y-62745000D01*
X194087041Y-54138000D02*
X194087041Y-56980000D01*
X194087041Y-59860000D02*
X194087041Y-62702000D01*
X194127041Y-54182000D02*
X194127041Y-56980000D01*
X194127041Y-59860000D02*
X194127041Y-62658000D01*
X194167041Y-54226000D02*
X194167041Y-56980000D01*
X194167041Y-59860000D02*
X194167041Y-62614000D01*
X194207041Y-54272000D02*
X194207041Y-56980000D01*
X194207041Y-59860000D02*
X194207041Y-62568000D01*
X194247041Y-54318000D02*
X194247041Y-56980000D01*
X194247041Y-59860000D02*
X194247041Y-62522000D01*
X194287041Y-54365000D02*
X194287041Y-56980000D01*
X194287041Y-59860000D02*
X194287041Y-62475000D01*
X194327041Y-54413000D02*
X194327041Y-56980000D01*
X194327041Y-59860000D02*
X194327041Y-62427000D01*
X194367041Y-54463000D02*
X194367041Y-56980000D01*
X194367041Y-59860000D02*
X194367041Y-62377000D01*
X194407041Y-54513000D02*
X194407041Y-56980000D01*
X194407041Y-59860000D02*
X194407041Y-62327000D01*
X194447041Y-54564000D02*
X194447041Y-56980000D01*
X194447041Y-59860000D02*
X194447041Y-62276000D01*
X194487041Y-54616000D02*
X194487041Y-56980000D01*
X194487041Y-59860000D02*
X194487041Y-62224000D01*
X194527041Y-54670000D02*
X194527041Y-56980000D01*
X194527041Y-59860000D02*
X194527041Y-62170000D01*
X194567041Y-54724000D02*
X194567041Y-56980000D01*
X194567041Y-59860000D02*
X194567041Y-62116000D01*
X194607041Y-54780000D02*
X194607041Y-62060000D01*
X194647041Y-54837000D02*
X194647041Y-62003000D01*
X194687041Y-54896000D02*
X194687041Y-61944000D01*
X194727041Y-54956000D02*
X194727041Y-61884000D01*
X194767041Y-55018000D02*
X194767041Y-61822000D01*
X194807041Y-55081000D02*
X194807041Y-61759000D01*
X194847041Y-55145000D02*
X194847041Y-61695000D01*
X194887041Y-55212000D02*
X194887041Y-61628000D01*
X194927041Y-55280000D02*
X194927041Y-61560000D01*
X194967041Y-55351000D02*
X194967041Y-61489000D01*
X195007041Y-55424000D02*
X195007041Y-61416000D01*
X195047041Y-55499000D02*
X195047041Y-61341000D01*
X195087041Y-55576000D02*
X195087041Y-61264000D01*
X195127041Y-55656000D02*
X195127041Y-61184000D01*
X195167041Y-55739000D02*
X195167041Y-61101000D01*
X195207041Y-55826000D02*
X195207041Y-61014000D01*
X195247041Y-55916000D02*
X195247041Y-60924000D01*
X195287041Y-56010000D02*
X195287041Y-60830000D01*
X195327041Y-56108000D02*
X195327041Y-60732000D01*
X195367041Y-56211000D02*
X195367041Y-60629000D01*
X195407041Y-56320000D02*
X195407041Y-60520000D01*
X195447041Y-56436000D02*
X195447041Y-60404000D01*
X195487041Y-56559000D02*
X195487041Y-60281000D01*
X195527041Y-56692000D02*
X195527041Y-60148000D01*
X195567041Y-56837000D02*
X195567041Y-60003000D01*
X195607041Y-56998000D02*
X195607041Y-59842000D01*
X195647041Y-57179000D02*
X195647041Y-59661000D01*
X195687041Y-57392000D02*
X195687041Y-59448000D01*
X195727041Y-57663000D02*
X195727041Y-59177000D01*
X195767041Y-58103000D02*
X195767041Y-58737000D01*
X195776041Y-58420000D02*
G75*
G02*
X183036041Y-58420000I-6370000J0D01*
G01*
X183036041Y-58420000D02*
G75*
G02*
X195776041Y-58420000I6370000J0D01*
G01*
%TO.C,TP40*%
X162630000Y-41980000D02*
X165030000Y-41980000D01*
X162630000Y-44380000D02*
X162630000Y-41980000D01*
X165030000Y-41980000D02*
X165030000Y-44380000D01*
X165030000Y-44380000D02*
X162630000Y-44380000D01*
%TO.C,TP24*%
X111830000Y-41980000D02*
X114230000Y-41980000D01*
X111830000Y-44380000D02*
X111830000Y-41980000D01*
X114230000Y-41980000D02*
X114230000Y-44380000D01*
X114230000Y-44380000D02*
X111830000Y-44380000D01*
%TO.C,R19*%
X107696724Y-85866500D02*
X107187276Y-85866500D01*
X107696724Y-84821500D02*
X107187276Y-84821500D01*
%TO.C,TP35*%
X146755000Y-41980000D02*
X149155000Y-41980000D01*
X146755000Y-44380000D02*
X146755000Y-41980000D01*
X149155000Y-41980000D02*
X149155000Y-44380000D01*
X149155000Y-44380000D02*
X146755000Y-44380000D01*
%TO.C,R1*%
X119902500Y-49632776D02*
X119902500Y-50142224D01*
X118857500Y-49632776D02*
X118857500Y-50142224D01*
%TO.C,TP43*%
X172155000Y-41980000D02*
X174555000Y-41980000D01*
X172155000Y-44380000D02*
X172155000Y-41980000D01*
X174555000Y-41980000D02*
X174555000Y-44380000D01*
X174555000Y-44380000D02*
X172155000Y-44380000D01*
%TO.C,TP48*%
X188030000Y-41980000D02*
X190430000Y-41980000D01*
X188030000Y-44380000D02*
X188030000Y-41980000D01*
X190430000Y-41980000D02*
X190430000Y-44380000D01*
X190430000Y-44380000D02*
X188030000Y-44380000D01*
%TO.C,TP42*%
X168980000Y-41980000D02*
X171380000Y-41980000D01*
X168980000Y-44380000D02*
X168980000Y-41980000D01*
X171380000Y-41980000D02*
X171380000Y-44380000D01*
X171380000Y-44380000D02*
X168980000Y-44380000D01*
%TO.C,TP32*%
X137230000Y-41980000D02*
X139630000Y-41980000D01*
X137230000Y-44380000D02*
X137230000Y-41980000D01*
X139630000Y-41980000D02*
X139630000Y-44380000D01*
X139630000Y-44380000D02*
X137230000Y-44380000D01*
%TO.C,R18*%
X107569724Y-81802500D02*
X107060276Y-81802500D01*
X107569724Y-80757500D02*
X107060276Y-80757500D01*
%TO.C,R17*%
X107696724Y-89930500D02*
X107187276Y-89930500D01*
X107696724Y-88885500D02*
X107187276Y-88885500D01*
%TO.C,R24*%
X192785276Y-75707500D02*
X193294724Y-75707500D01*
X192785276Y-76752500D02*
X193294724Y-76752500D01*
%TO.C,TP1*%
X126562000Y-93288000D02*
X128962000Y-93288000D01*
X126562000Y-95688000D02*
X126562000Y-93288000D01*
X128962000Y-93288000D02*
X128962000Y-95688000D01*
X128962000Y-95688000D02*
X126562000Y-95688000D01*
%TO.C,R25*%
X192785276Y-79487500D02*
X193294724Y-79487500D01*
X192785276Y-80532500D02*
X193294724Y-80532500D01*
%TO.C,R2*%
X161177500Y-49632776D02*
X161177500Y-50142224D01*
X160132500Y-49632776D02*
X160132500Y-50142224D01*
%TO.C,R21*%
X112507500Y-50142224D02*
X112507500Y-49632776D01*
X113552500Y-50142224D02*
X113552500Y-49632776D01*
%TO.C,Q2*%
X127937500Y-69378000D02*
X129612500Y-69378000D01*
X127937500Y-69378000D02*
X127287500Y-69378000D01*
X127937500Y-66258000D02*
X128587500Y-66258000D01*
X127937500Y-66258000D02*
X127287500Y-66258000D01*
%TO.C,R3*%
X164225500Y-49632776D02*
X164225500Y-50142224D01*
X163180500Y-49632776D02*
X163180500Y-50142224D01*
%TO.C,C6*%
X185681233Y-47115000D02*
X185973767Y-47115000D01*
X185681233Y-48135000D02*
X185973767Y-48135000D01*
%TO.C,A1*%
X186058000Y-118745000D02*
X186058000Y-70100000D01*
X186058000Y-70100000D02*
X184408000Y-68450000D01*
X132458000Y-68450000D02*
X132588000Y-116840000D01*
X135128000Y-68450000D02*
X132458000Y-68450000D01*
X172978000Y-68450000D02*
X170438000Y-65910000D01*
X184408000Y-68450000D02*
X172978000Y-68450000D01*
X137668000Y-65910000D02*
X135128000Y-68450000D01*
X170438000Y-65910000D02*
X137668000Y-65910000D01*
%TO.C,C3*%
X110365000Y-55098733D02*
X110365000Y-55391267D01*
X109345000Y-55098733D02*
X109345000Y-55391267D01*
%TO.C,U1*%
X121910000Y-99760000D02*
X121910000Y-96310000D01*
X121910000Y-99760000D02*
X121910000Y-101710000D01*
X113040000Y-99760000D02*
X113040000Y-97810000D01*
X113040000Y-99760000D02*
X113040000Y-101710000D01*
%TO.C,C8*%
X120911233Y-106424000D02*
X121203767Y-106424000D01*
X120911233Y-107444000D02*
X121203767Y-107444000D01*
%TD*%
D13*
X101346000Y-29718000D02*
X197612000Y-29718000D01*
X197612000Y-123190000D01*
X101346000Y-123190000D01*
X101346000Y-29718000D01*
M02*
