M48
; DRILL file {KiCad (7.0.0-0)} date Saturday, July 22, 2023 at 02:07:37 PM
; FORMAT={-:-/ absolute / metric / decimal}
; #@! TF.CreationDate,2023-07-22T14:07:37-04:00
; #@! TF.GenerationSoftware,Kicad,Pcbnew,(7.0.0-0)
; #@! TF.FileFunction,MixedPlating,1,2
FMAT,2
METRIC
; #@! TA.AperFunction,Plated,PTH,ViaDrill
T1C0.400
; #@! TA.AperFunction,Plated,PTH,ComponentDrill
T2C1.000
; #@! TA.AperFunction,Plated,PTH,ComponentDrill
T3C1.200
; #@! TA.AperFunction,NonPlated,NPTH,ComponentDrill
T4C3.200
%
G90
G05
T1
X104.902Y-67.818
X107.95Y-52.832
X109.474Y-70.866
X109.728Y-58.166
X109.982Y-86.614
X110.744Y-76.962
X110.998Y-52.832
X110.998Y-78.994
X111.252Y-97.282
X113.03Y-88.138
X114.046Y-52.832
X115.57Y-71.12
X116.569Y-86.614
X117.348Y-53.086
X118.11Y-74.93
X118.11Y-91.948
X118.364Y-99.568
X118.474Y-93.98
X118.618Y-86.614
X118.872Y-111.252
X120.396Y-75.946
X123.19Y-92.456
X124.206Y-106.934
X126.492Y-72.39
X126.746Y-51.562
X127.0Y-70.358
X128.778Y-80.772
X131.445Y-82.931
X136.906Y-57.912
X138.43Y-56.134
X139.7Y-54.61
X141.224Y-53.086
X154.178Y-51.562
X154.432Y-82.804
X155.448Y-93.98
X156.972Y-69.342
X160.274Y-96.012
X161.036Y-58.928
X164.084Y-58.674
X165.354Y-98.044
X166.116Y-93.726
X167.132Y-58.674
X170.434Y-58.674
X176.53Y-58.42
T2
X103.505Y-43.18
X106.68Y-43.18
X109.855Y-43.18
X113.03Y-43.18
X116.205Y-43.18
X119.38Y-43.18
X122.555Y-43.18
X125.73Y-43.18
X127.762Y-94.488
X128.905Y-43.18
X132.08Y-43.18
X135.128Y-71.12
X135.128Y-73.66
X135.128Y-76.2
X135.128Y-78.74
X135.128Y-81.28
X135.128Y-83.82
X135.128Y-88.9
X135.128Y-91.44
X135.128Y-93.98
X135.128Y-96.52
X135.128Y-99.06
X135.128Y-101.6
X135.128Y-104.14
X135.128Y-106.68
X135.255Y-43.18
X138.43Y-43.18
X141.605Y-43.18
X144.78Y-43.18
X147.955Y-43.18
X151.13Y-43.18
X154.305Y-43.18
X157.48Y-43.18
X160.655Y-43.18
X163.83Y-43.18
X167.005Y-43.18
X170.18Y-43.18
X173.355Y-43.18
X176.53Y-43.18
X179.705Y-43.18
X182.88Y-43.18
X183.388Y-71.12
X183.388Y-73.66
X183.388Y-76.2
X183.388Y-78.74
X183.388Y-81.28
X183.388Y-83.82
X183.388Y-86.36
X183.388Y-88.9
X183.388Y-92.96
X183.388Y-95.5
X183.388Y-98.04
X183.388Y-100.58
X183.388Y-103.12
X183.388Y-105.66
X183.388Y-108.2
X183.388Y-110.74
X183.388Y-113.28
X183.388Y-115.82
X189.23Y-43.18
X192.786Y-84.577
X192.786Y-87.117
X195.58Y-43.18
T3
X185.656Y-58.42
X193.156Y-58.42
T4
X107.442Y-117.094
X191.516Y-117.094
T0
M30
