%TF.GenerationSoftware,KiCad,Pcbnew,(7.0.0-0)*%
%TF.CreationDate,2023-07-22T14:03:52-04:00*%
%TF.ProjectId,Rodgers890,526f6467-6572-4733-9839-302e6b696361,rev?*%
%TF.SameCoordinates,Original*%
%TF.FileFunction,Soldermask,Top*%
%TF.FilePolarity,Negative*%
%FSLAX46Y46*%
G04 Gerber Fmt 4.6, Leading zero omitted, Abs format (unit mm)*
G04 Created by KiCad (PCBNEW (7.0.0-0)) date 2023-07-22 14:03:52*
%MOMM*%
%LPD*%
G01*
G04 APERTURE LIST*
G04 Aperture macros list*
%AMRoundRect*
0 Rectangle with rounded corners*
0 $1 Rounding radius*
0 $2 $3 $4 $5 $6 $7 $8 $9 X,Y pos of 4 corners*
0 Add a 4 corners polygon primitive as box body*
4,1,4,$2,$3,$4,$5,$6,$7,$8,$9,$2,$3,0*
0 Add four circle primitives for the rounded corners*
1,1,$1+$1,$2,$3*
1,1,$1+$1,$4,$5*
1,1,$1+$1,$6,$7*
1,1,$1+$1,$8,$9*
0 Add four rect primitives between the rounded corners*
20,1,$1+$1,$2,$3,$4,$5,0*
20,1,$1+$1,$4,$5,$6,$7,0*
20,1,$1+$1,$6,$7,$8,$9,0*
20,1,$1+$1,$8,$9,$2,$3,0*%
G04 Aperture macros list end*
%ADD10R,2.000000X2.000000*%
%ADD11RoundRect,0.237500X-0.237500X0.250000X-0.237500X-0.250000X0.237500X-0.250000X0.237500X0.250000X0*%
%ADD12RoundRect,0.237500X0.237500X-0.250000X0.237500X0.250000X-0.237500X0.250000X-0.237500X-0.250000X0*%
%ADD13RoundRect,0.237500X-0.237500X0.300000X-0.237500X-0.300000X0.237500X-0.300000X0.237500X0.300000X0*%
%ADD14RoundRect,0.150000X0.587500X0.150000X-0.587500X0.150000X-0.587500X-0.150000X0.587500X-0.150000X0*%
%ADD15RoundRect,0.150000X-0.150000X0.825000X-0.150000X-0.825000X0.150000X-0.825000X0.150000X0.825000X0*%
%ADD16RoundRect,0.237500X-0.300000X-0.237500X0.300000X-0.237500X0.300000X0.237500X-0.300000X0.237500X0*%
%ADD17RoundRect,0.250000X-0.412500X-0.650000X0.412500X-0.650000X0.412500X0.650000X-0.412500X0.650000X0*%
%ADD18R,1.600000X6.350000*%
%ADD19C,3.200000*%
%ADD20R,1.700000X1.700000*%
%ADD21O,1.700000X1.700000*%
%ADD22RoundRect,0.237500X0.250000X0.237500X-0.250000X0.237500X-0.250000X-0.237500X0.250000X-0.237500X0*%
%ADD23R,2.400000X2.400000*%
%ADD24C,2.400000*%
%ADD25RoundRect,0.237500X-0.250000X-0.237500X0.250000X-0.237500X0.250000X0.237500X-0.250000X0.237500X0*%
%ADD26R,1.600000X1.600000*%
%ADD27O,1.600000X1.600000*%
%TA.AperFunction,Profile*%
%ADD28C,0.100000*%
%TD*%
G04 APERTURE END LIST*
D10*
%TO.C,TP39*%
X160654999Y-43179999D03*
%TD*%
D11*
%TO.C,R16*%
X109855000Y-60645000D03*
X109855000Y-62470000D03*
%TD*%
D12*
%TO.C,R9*%
X166878000Y-56515000D03*
X166878000Y-54690000D03*
%TD*%
D10*
%TO.C,TP25*%
X116204999Y-43179999D03*
%TD*%
D13*
%TO.C,C4*%
X106680000Y-54382500D03*
X106680000Y-56107500D03*
%TD*%
D10*
%TO.C,TP26*%
X119379999Y-43179999D03*
%TD*%
D12*
%TO.C,R20*%
X116205000Y-50800000D03*
X116205000Y-48975000D03*
%TD*%
D14*
%TO.C,Q1*%
X123444000Y-68768000D03*
X123444000Y-66868000D03*
X121569000Y-67818000D03*
%TD*%
D10*
%TO.C,TP34*%
X144779999Y-43179999D03*
%TD*%
D11*
%TO.C,R5*%
X170053000Y-48975000D03*
X170053000Y-50800000D03*
%TD*%
D10*
%TO.C,TP27*%
X122554999Y-43179999D03*
%TD*%
D11*
%TO.C,R11*%
X123795000Y-61153000D03*
X123795000Y-62978000D03*
%TD*%
D10*
%TO.C,TP41*%
X167004999Y-43179999D03*
%TD*%
D11*
%TO.C,R6*%
X176403000Y-48975000D03*
X176403000Y-50800000D03*
%TD*%
D10*
%TO.C,TP38*%
X157479999Y-43179999D03*
%TD*%
D15*
%TO.C,U2*%
X121920000Y-78870000D03*
X120650000Y-78870000D03*
X119380000Y-78870000D03*
X118110000Y-78870000D03*
X116840000Y-78870000D03*
X115570000Y-78870000D03*
X114300000Y-78870000D03*
X113030000Y-78870000D03*
X113030000Y-83820000D03*
X114300000Y-83820000D03*
X115570000Y-83820000D03*
X116840000Y-83820000D03*
X118110000Y-83820000D03*
X119380000Y-83820000D03*
X120650000Y-83820000D03*
X121920000Y-83820000D03*
%TD*%
D10*
%TO.C,TP36*%
X151129999Y-43179999D03*
%TD*%
D12*
%TO.C,R22*%
X109855000Y-50800000D03*
X109855000Y-48975000D03*
%TD*%
D10*
%TO.C,TP37*%
X154304999Y-43179999D03*
%TD*%
D11*
%TO.C,R12*%
X126970000Y-61153000D03*
X126970000Y-62978000D03*
%TD*%
D10*
%TO.C,TP50*%
X195579999Y-43179999D03*
%TD*%
%TO.C,TP28*%
X125729999Y-43179999D03*
%TD*%
D16*
%TO.C,C9*%
X125375500Y-80772000D03*
X127100500Y-80772000D03*
%TD*%
D11*
%TO.C,R15*%
X113665000Y-60645000D03*
X113665000Y-62470000D03*
%TD*%
D12*
%TO.C,R14*%
X176403000Y-56515000D03*
X176403000Y-54690000D03*
%TD*%
D10*
%TO.C,TP33*%
X141604999Y-43179999D03*
%TD*%
D13*
%TO.C,C2*%
X113030000Y-54382500D03*
X113030000Y-56107500D03*
%TD*%
D10*
%TO.C,TP21*%
X103504999Y-43179999D03*
%TD*%
D12*
%TO.C,R8*%
X163703000Y-56515000D03*
X163703000Y-54690000D03*
%TD*%
D10*
%TO.C,TP30*%
X132079999Y-43179999D03*
%TD*%
%TO.C,TP31*%
X135254999Y-43179999D03*
%TD*%
%TO.C,TP46*%
X182879999Y-43179999D03*
%TD*%
D12*
%TO.C,R7*%
X160655000Y-56515000D03*
X160655000Y-54690000D03*
%TD*%
%TO.C,R23*%
X106680000Y-50800000D03*
X106680000Y-48975000D03*
%TD*%
D13*
%TO.C,C1*%
X116205000Y-54382500D03*
X116205000Y-56107500D03*
%TD*%
D17*
%TO.C,C7*%
X126072500Y-86995000D03*
X129197500Y-86995000D03*
%TD*%
D10*
%TO.C,TP22*%
X106679999Y-43179999D03*
%TD*%
%TO.C,TP44*%
X176529999Y-43179999D03*
%TD*%
D14*
%TO.C,Q4*%
X109855000Y-68895000D03*
X109855000Y-66995000D03*
X107980000Y-67945000D03*
%TD*%
D12*
%TO.C,R10*%
X170053000Y-56515000D03*
X170053000Y-54690000D03*
%TD*%
D10*
%TO.C,TP29*%
X128904999Y-43179999D03*
%TD*%
D11*
%TO.C,R4*%
X166878000Y-48975000D03*
X166878000Y-50800000D03*
%TD*%
D18*
%TO.C,J1*%
X103504999Y-33019999D03*
X106679999Y-33019999D03*
X109854999Y-33019999D03*
X113029999Y-33019999D03*
X116204999Y-33019999D03*
X119379999Y-33019999D03*
X122554999Y-33019999D03*
X125729999Y-33019999D03*
X128904999Y-33019999D03*
X132079999Y-33019999D03*
X135254999Y-33019999D03*
X138429999Y-33019999D03*
X141604999Y-33019999D03*
X144779999Y-33019999D03*
X147954999Y-33019999D03*
X151129999Y-33019999D03*
X154304999Y-33019999D03*
X157479999Y-33019999D03*
X160654999Y-33019999D03*
X163829999Y-33019999D03*
X167004999Y-33019999D03*
X170179999Y-33019999D03*
X173354999Y-33019999D03*
X176529999Y-33019999D03*
X179704999Y-33019999D03*
X182879999Y-33019999D03*
X186054999Y-33019999D03*
X189229999Y-33019999D03*
X192404999Y-33019999D03*
X195579999Y-33019999D03*
%TD*%
D14*
%TO.C,Q3*%
X115570000Y-68895000D03*
X115570000Y-66995000D03*
X113695000Y-67945000D03*
%TD*%
D19*
%TO.C,REF\u002A\u002A*%
X191516000Y-117094000D03*
%TD*%
D20*
%TO.C,J2*%
X192785999Y-84576999D03*
D21*
X192785999Y-87116999D03*
%TD*%
D10*
%TO.C,TP45*%
X179704999Y-43179999D03*
%TD*%
%TO.C,TP23*%
X109854999Y-43179999D03*
%TD*%
D19*
%TO.C,REF\u002A\u002A*%
X107442000Y-117094000D03*
%TD*%
D22*
%TO.C,R13*%
X108354500Y-75692000D03*
X106529500Y-75692000D03*
%TD*%
D23*
%TO.C,C5*%
X185656040Y-58419999D03*
D24*
X193156041Y-58420000D03*
%TD*%
D10*
%TO.C,TP40*%
X163829999Y-43179999D03*
%TD*%
%TO.C,TP24*%
X113029999Y-43179999D03*
%TD*%
D22*
%TO.C,R19*%
X108354500Y-85344000D03*
X106529500Y-85344000D03*
%TD*%
D10*
%TO.C,TP35*%
X147954999Y-43179999D03*
%TD*%
D11*
%TO.C,R1*%
X119380000Y-48975000D03*
X119380000Y-50800000D03*
%TD*%
D10*
%TO.C,TP43*%
X173354999Y-43179999D03*
%TD*%
%TO.C,TP48*%
X189229999Y-43179999D03*
%TD*%
%TO.C,TP42*%
X170179999Y-43179999D03*
%TD*%
%TO.C,TP32*%
X138429999Y-43179999D03*
%TD*%
D22*
%TO.C,R18*%
X108227500Y-81280000D03*
X106402500Y-81280000D03*
%TD*%
%TO.C,R17*%
X108354500Y-89408000D03*
X106529500Y-89408000D03*
%TD*%
D25*
%TO.C,R24*%
X192127500Y-76230000D03*
X193952500Y-76230000D03*
%TD*%
D10*
%TO.C,TP1*%
X127761999Y-94487999D03*
%TD*%
D25*
%TO.C,R25*%
X192127500Y-80010000D03*
X193952500Y-80010000D03*
%TD*%
D11*
%TO.C,R2*%
X160655000Y-48975000D03*
X160655000Y-50800000D03*
%TD*%
D12*
%TO.C,R21*%
X113030000Y-50800000D03*
X113030000Y-48975000D03*
%TD*%
D14*
%TO.C,Q2*%
X128875000Y-68768000D03*
X128875000Y-66868000D03*
X127000000Y-67818000D03*
%TD*%
D11*
%TO.C,R3*%
X163703000Y-48975000D03*
X163703000Y-50800000D03*
%TD*%
D16*
%TO.C,C6*%
X184965000Y-47625000D03*
X186690000Y-47625000D03*
%TD*%
D26*
%TO.C,A1*%
X135127999Y-106679999D03*
D27*
X135127999Y-104139999D03*
X135127999Y-101599999D03*
X135127999Y-99059999D03*
X135127999Y-96519999D03*
X135127999Y-93979999D03*
X135127999Y-91439999D03*
X135127999Y-88899999D03*
X135127999Y-83819999D03*
X135127999Y-81279999D03*
X135127999Y-78739999D03*
X135127999Y-76199999D03*
X135127999Y-73659999D03*
X135127999Y-71119999D03*
X183387999Y-71119999D03*
X183387999Y-73659999D03*
X183387999Y-76199999D03*
X183387999Y-78739999D03*
X183387999Y-81279999D03*
X183387999Y-83819999D03*
X183387999Y-86359999D03*
X183387999Y-88899999D03*
X183387999Y-92959999D03*
X183387999Y-95499999D03*
X183387999Y-98039999D03*
X183387999Y-100579999D03*
X183387999Y-103119999D03*
X183387999Y-105659999D03*
X183387999Y-108199999D03*
X183387999Y-110739999D03*
X183387999Y-113279999D03*
X183387999Y-115819999D03*
%TD*%
D13*
%TO.C,C3*%
X109855000Y-54382500D03*
X109855000Y-56107500D03*
%TD*%
D15*
%TO.C,U1*%
X121285000Y-97285000D03*
X120015000Y-97285000D03*
X118745000Y-97285000D03*
X117475000Y-97285000D03*
X116205000Y-97285000D03*
X114935000Y-97285000D03*
X113665000Y-97285000D03*
X113665000Y-102235000D03*
X114935000Y-102235000D03*
X116205000Y-102235000D03*
X117475000Y-102235000D03*
X118745000Y-102235000D03*
X120015000Y-102235000D03*
X121285000Y-102235000D03*
%TD*%
D16*
%TO.C,C8*%
X120195000Y-106934000D03*
X121920000Y-106934000D03*
%TD*%
G36*
X197550000Y-29734613D02*
G01*
X197595387Y-29780000D01*
X197612000Y-29842000D01*
X197612000Y-36198000D01*
X197595387Y-36260000D01*
X197550000Y-36305387D01*
X197488000Y-36322000D01*
X101470000Y-36322000D01*
X101408000Y-36305387D01*
X101362613Y-36260000D01*
X101346000Y-36198000D01*
X101346000Y-29842000D01*
X101362613Y-29780000D01*
X101408000Y-29734613D01*
X101470000Y-29718000D01*
X197488000Y-29718000D01*
X197550000Y-29734613D01*
G37*
D28*
X101346000Y-29718000D02*
X197612000Y-29718000D01*
X197612000Y-29718000D02*
X197612000Y-123190000D01*
X197612000Y-123190000D02*
X101346000Y-123190000D01*
X101346000Y-123190000D02*
X101346000Y-29718000D01*
M02*
