%TF.GenerationSoftware,KiCad,Pcbnew,(7.0.0-0)*%
%TF.CreationDate,2023-07-22T14:03:51-04:00*%
%TF.ProjectId,Rodgers890,526f6467-6572-4733-9839-302e6b696361,rev?*%
%TF.SameCoordinates,Original*%
%TF.FileFunction,Copper,L2,Bot*%
%TF.FilePolarity,Positive*%
%FSLAX46Y46*%
G04 Gerber Fmt 4.6, Leading zero omitted, Abs format (unit mm)*
G04 Created by KiCad (PCBNEW (7.0.0-0)) date 2023-07-22 14:03:51*
%MOMM*%
%LPD*%
G01*
G04 APERTURE LIST*
%TA.AperFunction,ComponentPad*%
%ADD10R,2.000000X2.000000*%
%TD*%
%TA.AperFunction,ComponentPad*%
%ADD11R,1.700000X1.700000*%
%TD*%
%TA.AperFunction,ComponentPad*%
%ADD12O,1.700000X1.700000*%
%TD*%
%TA.AperFunction,ComponentPad*%
%ADD13R,2.400000X2.400000*%
%TD*%
%TA.AperFunction,ComponentPad*%
%ADD14C,2.400000*%
%TD*%
%TA.AperFunction,ComponentPad*%
%ADD15R,1.600000X1.600000*%
%TD*%
%TA.AperFunction,ComponentPad*%
%ADD16O,1.600000X1.600000*%
%TD*%
%TA.AperFunction,ViaPad*%
%ADD17C,0.800000*%
%TD*%
%TA.AperFunction,Conductor*%
%ADD18C,0.400000*%
%TD*%
%TA.AperFunction,Conductor*%
%ADD19C,1.000000*%
%TD*%
%TA.AperFunction,Profile*%
%ADD20C,0.100000*%
%TD*%
G04 APERTURE END LIST*
D10*
%TO.P,TP39,1,1*%
%TO.N,/In0*%
X160654999Y-43179999D03*
%TD*%
%TO.P,TP25,1,1*%
%TO.N,/AD0*%
X116204999Y-43179999D03*
%TD*%
%TO.P,TP26,1,1*%
%TO.N,/S0*%
X119379999Y-43179999D03*
%TD*%
%TO.P,TP34,1,1*%
%TO.N,/S3*%
X144779999Y-43179999D03*
%TD*%
%TO.P,TP27,1,1*%
%TO.N,/S6*%
X122554999Y-43179999D03*
%TD*%
%TO.P,TP41,1,1*%
%TO.N,/In1*%
X167004999Y-43179999D03*
%TD*%
%TO.P,TP38,1,1*%
%TO.N,/ISTB*%
X157479999Y-43179999D03*
%TD*%
%TO.P,TP36,1,1*%
%TO.N,/In7*%
X151129999Y-43179999D03*
%TD*%
%TO.P,TP37,1,1*%
%TO.N,/ICLK*%
X154304999Y-43179999D03*
%TD*%
%TO.P,TP50,1,1*%
%TO.N,/Vchg*%
X195579999Y-43179999D03*
%TD*%
%TO.P,TP28,1,1*%
%TO.N,/OSTB*%
X125729999Y-43179999D03*
%TD*%
%TO.P,TP33,1,1*%
%TO.N,/S2*%
X141604999Y-43179999D03*
%TD*%
%TO.P,TP21,1,1*%
%TO.N,/OCLK*%
X103504999Y-43179999D03*
%TD*%
%TO.P,TP30,1,1*%
%TO.N,/S5*%
X132079999Y-43179999D03*
%TD*%
%TO.P,TP31,1,1*%
%TO.N,/S1*%
X135254999Y-43179999D03*
%TD*%
%TO.P,TP46,1,1*%
%TO.N,+12V*%
X182879999Y-43179999D03*
%TD*%
%TO.P,TP22,1,1*%
%TO.N,/AD3*%
X106679999Y-43179999D03*
%TD*%
%TO.P,TP44,1,1*%
%TO.N,/In4*%
X176529999Y-43179999D03*
%TD*%
%TO.P,TP29,1,1*%
%TO.N,/S7*%
X128904999Y-43179999D03*
%TD*%
D11*
%TO.P,J2,1,Pin_1*%
%TO.N,Net-(A1-D3{slash}SCL)*%
X192785999Y-84576999D03*
D12*
%TO.P,J2,2,Pin_2*%
%TO.N,GND*%
X192785999Y-87116999D03*
%TD*%
D10*
%TO.P,TP45,1,1*%
%TO.N,/In5*%
X179704999Y-43179999D03*
%TD*%
%TO.P,TP23,1,1*%
%TO.N,/AD2*%
X109854999Y-43179999D03*
%TD*%
D13*
%TO.P,C5,1*%
%TO.N,+12V*%
X185656040Y-58419999D03*
D14*
%TO.P,C5,2*%
%TO.N,GND*%
X193156041Y-58420000D03*
%TD*%
D10*
%TO.P,TP40,1,1*%
%TO.N,/In2*%
X163829999Y-43179999D03*
%TD*%
%TO.P,TP24,1,1*%
%TO.N,/AD1*%
X113029999Y-43179999D03*
%TD*%
%TO.P,TP35,1,1*%
%TO.N,/PwrUD*%
X147954999Y-43179999D03*
%TD*%
%TO.P,TP43,1,1*%
%TO.N,/In6*%
X173354999Y-43179999D03*
%TD*%
%TO.P,TP48,1,1*%
%TO.N,GND*%
X189229999Y-43179999D03*
%TD*%
%TO.P,TP42,1,1*%
%TO.N,/In3*%
X170179999Y-43179999D03*
%TD*%
%TO.P,TP32,1,1*%
%TO.N,/S4*%
X138429999Y-43179999D03*
%TD*%
%TO.P,TP1,1,1*%
%TO.N,+5V*%
X127761999Y-94487999D03*
%TD*%
D15*
%TO.P,A1,1,NC*%
%TO.N,unconnected-(A1-NC-Pad1)*%
X135127999Y-106679999D03*
D16*
%TO.P,A1,2,IOREF*%
%TO.N,unconnected-(A1-IOREF-Pad2)*%
X135127999Y-104139999D03*
%TO.P,A1,3,~{RESET}*%
%TO.N,unconnected-(A1-~{RESET}-Pad3)*%
X135127999Y-101599999D03*
%TO.P,A1,4,3V3*%
%TO.N,unconnected-(A1-3V3-Pad4)*%
X135127999Y-99059999D03*
%TO.P,A1,5,+5V*%
%TO.N,+5V*%
X135127999Y-96519999D03*
%TO.P,A1,6,GND*%
%TO.N,GND*%
X135127999Y-93979999D03*
%TO.P,A1,7,GND*%
X135127999Y-91439999D03*
%TO.P,A1,8,VIN*%
%TO.N,+12V*%
X135127999Y-88899999D03*
%TO.P,A1,9,A0*%
%TO.N,/AD0_cpu*%
X135127999Y-83819999D03*
%TO.P,A1,10,A1*%
%TO.N,/AD1_cpu*%
X135127999Y-81279999D03*
%TO.P,A1,11,A2*%
%TO.N,/AD2_cpu*%
X135127999Y-78739999D03*
%TO.P,A1,12,A3*%
%TO.N,/AD3_cpu*%
X135127999Y-76199999D03*
%TO.P,A1,13,A4*%
%TO.N,unconnected-(A1-A4-Pad13)*%
X135127999Y-73659999D03*
%TO.P,A1,14,A5*%
%TO.N,unconnected-(A1-A5-Pad14)*%
X135127999Y-71119999D03*
%TO.P,A1,15,D0/RX*%
%TO.N,unconnected-(A1-D0{slash}RX-Pad15)*%
X183387999Y-71119999D03*
%TO.P,A1,16,D1/TX*%
%TO.N,unconnected-(A1-D1{slash}TX-Pad16)*%
X183387999Y-73659999D03*
%TO.P,A1,17,D2/SDA*%
%TO.N,Net-(A1-D2{slash}SDA)*%
X183387999Y-76199999D03*
%TO.P,A1,18,D3/SCL*%
%TO.N,Net-(A1-D3{slash}SCL)*%
X183387999Y-78739999D03*
%TO.P,A1,19,D4*%
%TO.N,/ICLK_cpu*%
X183387999Y-81279999D03*
%TO.P,A1,20,D5*%
%TO.N,/ISTB_cpu*%
X183387999Y-83819999D03*
%TO.P,A1,21,D6*%
%TO.N,/In0_cpu*%
X183387999Y-86359999D03*
%TO.P,A1,22,D7*%
%TO.N,/In1_cpu*%
X183387999Y-88899999D03*
%TO.P,A1,23,D8*%
%TO.N,/In2_cpu*%
X183387999Y-92959999D03*
%TO.P,A1,24,D9*%
%TO.N,/In3_cpu*%
X183387999Y-95499999D03*
%TO.P,A1,25,D10*%
%TO.N,/In4_cpu*%
X183387999Y-98039999D03*
%TO.P,A1,26,D11*%
%TO.N,/OCLK_cpu*%
X183387999Y-100579999D03*
%TO.P,A1,27,D12*%
%TO.N,/OSTB_cpu*%
X183387999Y-103119999D03*
%TO.P,A1,28,D13*%
%TO.N,/S0_cpu*%
X183387999Y-105659999D03*
%TO.P,A1,29,GND*%
%TO.N,GND*%
X183387999Y-108199999D03*
%TO.P,A1,30,AREF*%
%TO.N,unconnected-(A1-AREF-Pad30)*%
X183387999Y-110739999D03*
%TO.P,A1,31,SDA/D2*%
%TO.N,unconnected-(A1-SDA{slash}D2-Pad31)*%
X183387999Y-113279999D03*
%TO.P,A1,32,SCL/D3*%
%TO.N,unconnected-(A1-SCL{slash}D3-Pad32)*%
X183387999Y-115819999D03*
%TD*%
D17*
%TO.N,GND*%
X110998000Y-78994000D03*
X164084000Y-58674000D03*
X104902000Y-67818000D03*
X161036000Y-58928000D03*
X111252000Y-97282000D03*
X176530000Y-58420000D03*
X109728000Y-58166000D03*
X170434000Y-58674000D03*
X127000000Y-70358000D03*
X124206000Y-106934000D03*
X128778000Y-80772000D03*
X167132000Y-58674000D03*
%TO.N,/AD0_cpu*%
X141224000Y-53086000D03*
X117348000Y-53086000D03*
%TO.N,/AD1_cpu*%
X114046000Y-52832000D03*
X139700000Y-54610000D03*
%TO.N,/AD2_cpu*%
X110998000Y-52832000D03*
X138430000Y-56134000D03*
%TO.N,/AD3_cpu*%
X136906000Y-57912000D03*
X107950000Y-52832000D03*
%TO.N,/ICLK_cpu*%
X123190000Y-92456000D03*
%TO.N,/ISTB_cpu*%
X154432000Y-82804000D03*
X155448000Y-93980000D03*
X118474500Y-93980000D03*
%TO.N,/In0_cpu*%
X160274000Y-96012000D03*
%TO.N,/In1_cpu*%
X166116000Y-93726000D03*
%TO.N,/In2_cpu*%
X165354000Y-98044000D03*
%TO.N,/OCLK_cpu*%
X118364000Y-99568000D03*
%TO.N,/S0_cpu*%
X118872000Y-111252000D03*
%TO.N,/OSTB*%
X131445000Y-82931000D03*
X118618000Y-86614000D03*
%TO.N,/ICLK*%
X154178000Y-51562000D03*
X126746000Y-51562000D03*
%TO.N,/ISTB*%
X156972000Y-69342000D03*
X118110000Y-74930000D03*
%TO.N,Net-(Q1-B)*%
X126492000Y-72390000D03*
X120396000Y-75946000D03*
%TO.N,Net-(Q3-B)*%
X113030000Y-88138000D03*
X115570000Y-71120000D03*
X109474000Y-70866000D03*
%TO.N,Net-(R13-Pad1)*%
X110744000Y-76962000D03*
X118110000Y-91948000D03*
%TO.N,Net-(R19-Pad1)*%
X109982000Y-86614000D03*
X116569500Y-86614000D03*
%TD*%
D18*
%TO.N,/AD0_cpu*%
X117348000Y-53086000D02*
X141224000Y-53086000D01*
%TO.N,/AD1_cpu*%
X139700000Y-54610000D02*
X115824000Y-54610000D01*
X115824000Y-54610000D02*
X114046000Y-52832000D01*
%TO.N,/AD2_cpu*%
X110998000Y-52832000D02*
X114300000Y-56134000D01*
X114300000Y-56134000D02*
X138430000Y-56134000D01*
%TO.N,/AD3_cpu*%
X136906000Y-57912000D02*
X113030000Y-57912000D01*
X113030000Y-57912000D02*
X107950000Y-52832000D01*
%TO.N,Net-(A1-D3{slash}SCL)*%
X183388000Y-78740000D02*
X186949000Y-78740000D01*
X186949000Y-78740000D02*
X192786000Y-84577000D01*
%TO.N,/ICLK_cpu*%
X154178000Y-91440000D02*
X161544000Y-91440000D01*
X171704000Y-81280000D02*
X183388000Y-81280000D01*
X150114000Y-95504000D02*
X154178000Y-91440000D01*
X150114000Y-108966000D02*
X150114000Y-95504000D01*
X123190000Y-97542000D02*
X134614000Y-108966000D01*
X123190000Y-92456000D02*
X123190000Y-97542000D01*
X134614000Y-108966000D02*
X150114000Y-108966000D01*
X161544000Y-91440000D02*
X171704000Y-81280000D01*
%TO.N,/ISTB_cpu*%
X118474500Y-93980000D02*
X126602500Y-85852000D01*
X126602500Y-85852000D02*
X151384000Y-85852000D01*
X170688000Y-83820000D02*
X183388000Y-83820000D01*
X151384000Y-85852000D02*
X154432000Y-82804000D01*
X160528000Y-93980000D02*
X170688000Y-83820000D01*
X155448000Y-93980000D02*
X160528000Y-93980000D01*
%TO.N,/In0_cpu*%
X169926000Y-86360000D02*
X183388000Y-86360000D01*
X160274000Y-96012000D02*
X169926000Y-86360000D01*
%TO.N,/In1_cpu*%
X170942000Y-88900000D02*
X183388000Y-88900000D01*
X166116000Y-93726000D02*
X170942000Y-88900000D01*
%TO.N,/In2_cpu*%
X170438000Y-92960000D02*
X183388000Y-92960000D01*
X165354000Y-98044000D02*
X170438000Y-92960000D01*
%TO.N,/OCLK_cpu*%
X118364000Y-99568000D02*
X129540000Y-110744000D01*
X173224000Y-110744000D02*
X183388000Y-100580000D01*
X129540000Y-110744000D02*
X173224000Y-110744000D01*
%TO.N,/S0_cpu*%
X177034000Y-112014000D02*
X183388000Y-105660000D01*
X118872000Y-111252000D02*
X119634000Y-112014000D01*
X119634000Y-112014000D02*
X177034000Y-112014000D01*
%TO.N,/OSTB*%
X121920000Y-83312000D02*
X118618000Y-86614000D01*
X131445000Y-82931000D02*
X131064000Y-83312000D01*
X131064000Y-83312000D02*
X121920000Y-83312000D01*
%TO.N,/ICLK*%
X126746000Y-51562000D02*
X154178000Y-51562000D01*
%TO.N,/ISTB*%
X118110000Y-74930000D02*
X123698000Y-69342000D01*
X123698000Y-69342000D02*
X156972000Y-69342000D01*
%TO.N,Net-(Q1-B)*%
X120396000Y-75946000D02*
X123952000Y-72390000D01*
X123952000Y-72390000D02*
X126492000Y-72390000D01*
%TO.N,Net-(Q3-B)*%
X115570000Y-71120000D02*
X115570000Y-77216000D01*
X108982000Y-83804000D02*
X108982000Y-87028214D01*
X115570000Y-71120000D02*
X109728000Y-71120000D01*
X115570000Y-77216000D02*
X108982000Y-83804000D01*
X109728000Y-71120000D02*
X109474000Y-70866000D01*
X108982000Y-87028214D02*
X110091786Y-88138000D01*
X110091786Y-88138000D02*
X113030000Y-88138000D01*
%TO.N,Net-(R13-Pad1)*%
X104140000Y-80010000D02*
X105156000Y-78994000D01*
X105156000Y-78994000D02*
X108712000Y-78994000D01*
X105156000Y-91948000D02*
X103886000Y-90678000D01*
X104140000Y-83058000D02*
X104140000Y-80010000D01*
X108712000Y-78994000D02*
X110744000Y-76962000D01*
X118110000Y-91948000D02*
X105156000Y-91948000D01*
X103886000Y-83312000D02*
X104140000Y-83058000D01*
X103886000Y-90678000D02*
X103886000Y-83312000D01*
%TO.N,Net-(R19-Pad1)*%
X116569500Y-86614000D02*
X109982000Y-86614000D01*
D19*
%TO.N,+12V*%
X174498000Y-64516000D02*
X180594000Y-58420000D01*
X160528000Y-88900000D02*
X174498000Y-74930000D01*
X174498000Y-74930000D02*
X174498000Y-64516000D01*
X180594000Y-58420000D02*
X185656041Y-58420000D01*
X135128000Y-88900000D02*
X160528000Y-88900000D01*
%TD*%
%TA.AperFunction,Conductor*%
%TO.N,GND*%
G36*
X185765179Y-43122234D02*
G01*
X187673620Y-43132414D01*
X187673623Y-43132413D01*
X189480000Y-43142047D01*
X189480000Y-44663674D01*
X189483450Y-44676549D01*
X189496326Y-44680000D01*
X190274518Y-44680000D01*
X190281114Y-44679646D01*
X190329667Y-44674426D01*
X190344641Y-44670888D01*
X190463777Y-44626452D01*
X190479189Y-44618037D01*
X190580092Y-44542501D01*
X190592501Y-44530092D01*
X190668037Y-44429189D01*
X190676452Y-44413777D01*
X190720888Y-44294641D01*
X190724426Y-44279667D01*
X190729646Y-44231114D01*
X190730000Y-44224518D01*
X190730000Y-43273378D01*
X190746723Y-43211187D01*
X190792382Y-43165771D01*
X190854661Y-43149380D01*
X193956161Y-43165920D01*
X194017881Y-43182752D01*
X194062997Y-43228109D01*
X194079500Y-43289918D01*
X194079500Y-44224560D01*
X194079500Y-44224578D01*
X194079501Y-44227872D01*
X194079853Y-44231150D01*
X194079854Y-44231161D01*
X194085079Y-44279768D01*
X194085080Y-44279773D01*
X194085909Y-44287483D01*
X194088619Y-44294749D01*
X194088620Y-44294753D01*
X194108682Y-44348540D01*
X194136204Y-44422331D01*
X194222454Y-44537546D01*
X194337669Y-44623796D01*
X194472517Y-44674091D01*
X194532127Y-44680500D01*
X196472000Y-44680499D01*
X196534000Y-44697112D01*
X196579387Y-44742499D01*
X196596000Y-44804499D01*
X196596000Y-122050000D01*
X196579387Y-122112000D01*
X196534000Y-122157387D01*
X196472000Y-122174000D01*
X102486396Y-122174000D01*
X102424282Y-122157321D01*
X102378877Y-122111771D01*
X102362397Y-122049604D01*
X102378013Y-117161765D01*
X105587788Y-117161765D01*
X105588282Y-117166262D01*
X105588283Y-117166267D01*
X105616917Y-117426506D01*
X105616918Y-117426513D01*
X105617414Y-117431018D01*
X105618559Y-117435398D01*
X105618561Y-117435408D01*
X105650830Y-117558838D01*
X105685928Y-117693088D01*
X105687693Y-117697242D01*
X105687696Y-117697250D01*
X105790099Y-117938223D01*
X105791870Y-117942390D01*
X105794226Y-117946251D01*
X105794229Y-117946256D01*
X105930618Y-118169737D01*
X105932982Y-118173610D01*
X106106255Y-118381820D01*
X106109630Y-118384844D01*
X106109631Y-118384845D01*
X106214330Y-118478656D01*
X106307998Y-118562582D01*
X106533910Y-118712044D01*
X106779176Y-118827020D01*
X107038569Y-118905060D01*
X107306561Y-118944500D01*
X107507369Y-118944500D01*
X107509631Y-118944500D01*
X107712156Y-118929677D01*
X107976553Y-118870780D01*
X108229558Y-118774014D01*
X108465777Y-118641441D01*
X108680177Y-118475888D01*
X108868186Y-118280881D01*
X109025799Y-118060579D01*
X109149656Y-117819675D01*
X109237118Y-117563305D01*
X109286319Y-117296933D01*
X109291259Y-117161765D01*
X189661788Y-117161765D01*
X189662282Y-117166262D01*
X189662283Y-117166267D01*
X189690917Y-117426506D01*
X189690918Y-117426513D01*
X189691414Y-117431018D01*
X189692559Y-117435398D01*
X189692561Y-117435408D01*
X189724830Y-117558838D01*
X189759928Y-117693088D01*
X189761693Y-117697242D01*
X189761696Y-117697250D01*
X189864099Y-117938223D01*
X189865870Y-117942390D01*
X189868226Y-117946251D01*
X189868229Y-117946256D01*
X190004618Y-118169737D01*
X190006982Y-118173610D01*
X190180255Y-118381820D01*
X190183630Y-118384844D01*
X190183631Y-118384845D01*
X190288330Y-118478656D01*
X190381998Y-118562582D01*
X190607910Y-118712044D01*
X190853176Y-118827020D01*
X191112569Y-118905060D01*
X191380561Y-118944500D01*
X191581369Y-118944500D01*
X191583631Y-118944500D01*
X191786156Y-118929677D01*
X192050553Y-118870780D01*
X192303558Y-118774014D01*
X192539777Y-118641441D01*
X192754177Y-118475888D01*
X192942186Y-118280881D01*
X193099799Y-118060579D01*
X193223656Y-117819675D01*
X193311118Y-117563305D01*
X193360319Y-117296933D01*
X193370212Y-117026235D01*
X193340586Y-116756982D01*
X193272072Y-116494912D01*
X193166130Y-116245610D01*
X193025018Y-116014390D01*
X192851745Y-115806180D01*
X192746759Y-115712112D01*
X192653382Y-115628446D01*
X192653378Y-115628442D01*
X192650002Y-115625418D01*
X192424090Y-115475956D01*
X192419996Y-115474036D01*
X192419991Y-115474034D01*
X192182929Y-115362904D01*
X192182925Y-115362902D01*
X192178824Y-115360980D01*
X192174477Y-115359672D01*
X192174474Y-115359671D01*
X191923772Y-115284246D01*
X191923771Y-115284245D01*
X191919431Y-115282940D01*
X191914957Y-115282281D01*
X191914950Y-115282280D01*
X191655913Y-115244158D01*
X191655907Y-115244157D01*
X191651439Y-115243500D01*
X191448369Y-115243500D01*
X191446120Y-115243664D01*
X191446109Y-115243665D01*
X191250363Y-115257992D01*
X191250359Y-115257992D01*
X191245844Y-115258323D01*
X191241426Y-115259307D01*
X191241420Y-115259308D01*
X190985877Y-115316232D01*
X190985861Y-115316236D01*
X190981447Y-115317220D01*
X190977216Y-115318838D01*
X190977210Y-115318840D01*
X190732673Y-115412367D01*
X190732663Y-115412371D01*
X190728442Y-115413986D01*
X190724494Y-115416201D01*
X190724489Y-115416204D01*
X190496176Y-115544340D01*
X190496171Y-115544343D01*
X190492223Y-115546559D01*
X190488639Y-115549325D01*
X190488635Y-115549329D01*
X190281407Y-115709343D01*
X190281394Y-115709354D01*
X190277823Y-115712112D01*
X190274685Y-115715366D01*
X190274678Y-115715373D01*
X190092958Y-115903857D01*
X190092952Y-115903864D01*
X190089814Y-115907119D01*
X190087189Y-115910787D01*
X190087179Y-115910800D01*
X189934834Y-116123740D01*
X189934830Y-116123745D01*
X189932201Y-116127421D01*
X189930132Y-116131444D01*
X189930129Y-116131450D01*
X189810416Y-116364293D01*
X189810411Y-116364304D01*
X189808344Y-116368325D01*
X189806884Y-116372602D01*
X189806879Y-116372616D01*
X189722348Y-116620395D01*
X189722344Y-116620407D01*
X189720882Y-116624695D01*
X189720057Y-116629159D01*
X189720057Y-116629161D01*
X189672504Y-116886606D01*
X189672502Y-116886619D01*
X189671681Y-116891067D01*
X189671515Y-116895593D01*
X189671515Y-116895599D01*
X189663115Y-117125468D01*
X189661788Y-117161765D01*
X109291259Y-117161765D01*
X109296212Y-117026235D01*
X109266586Y-116756982D01*
X109198072Y-116494912D01*
X109092130Y-116245610D01*
X108951018Y-116014390D01*
X108789246Y-115820000D01*
X182082532Y-115820000D01*
X182083004Y-115825395D01*
X182099877Y-116018262D01*
X182102365Y-116046692D01*
X182103762Y-116051907D01*
X182103764Y-116051916D01*
X182159858Y-116261263D01*
X182159861Y-116261271D01*
X182161261Y-116266496D01*
X182257432Y-116472734D01*
X182387953Y-116659139D01*
X182548861Y-116820047D01*
X182735266Y-116950568D01*
X182941504Y-117046739D01*
X183161308Y-117105635D01*
X183388000Y-117125468D01*
X183614692Y-117105635D01*
X183834496Y-117046739D01*
X184040734Y-116950568D01*
X184227139Y-116820047D01*
X184388047Y-116659139D01*
X184518568Y-116472734D01*
X184614739Y-116266496D01*
X184673635Y-116046692D01*
X184693468Y-115820000D01*
X184673635Y-115593308D01*
X184614739Y-115373504D01*
X184518568Y-115167266D01*
X184388047Y-114980861D01*
X184227139Y-114819953D01*
X184040734Y-114689432D01*
X183982724Y-114662381D01*
X183930549Y-114616625D01*
X183911130Y-114550000D01*
X183930549Y-114483375D01*
X183982725Y-114437618D01*
X184040734Y-114410568D01*
X184227139Y-114280047D01*
X184388047Y-114119139D01*
X184518568Y-113932734D01*
X184614739Y-113726496D01*
X184673635Y-113506692D01*
X184693468Y-113280000D01*
X184673635Y-113053308D01*
X184614739Y-112833504D01*
X184518568Y-112627266D01*
X184388047Y-112440861D01*
X184227139Y-112279953D01*
X184083939Y-112179684D01*
X184045173Y-112152540D01*
X184045171Y-112152539D01*
X184040734Y-112149432D01*
X183982724Y-112122381D01*
X183930549Y-112076625D01*
X183911130Y-112010000D01*
X183930549Y-111943375D01*
X183982725Y-111897618D01*
X184040734Y-111870568D01*
X184227139Y-111740047D01*
X184388047Y-111579139D01*
X184518568Y-111392734D01*
X184614739Y-111186496D01*
X184673635Y-110966692D01*
X184693468Y-110740000D01*
X184673635Y-110513308D01*
X184614739Y-110293504D01*
X184518568Y-110087266D01*
X184388047Y-109900861D01*
X184227139Y-109739953D01*
X184106352Y-109655378D01*
X184045173Y-109612540D01*
X184045171Y-109612539D01*
X184040734Y-109609432D01*
X184035831Y-109607145D01*
X184035823Y-109607141D01*
X183982134Y-109582106D01*
X183929958Y-109536349D01*
X183910539Y-109469723D01*
X183929959Y-109403098D01*
X183982135Y-109357341D01*
X184035585Y-109332417D01*
X184044912Y-109327032D01*
X184222381Y-109202767D01*
X184230647Y-109195830D01*
X184383830Y-109042647D01*
X184390767Y-109034381D01*
X184515032Y-108856912D01*
X184520420Y-108847580D01*
X184611977Y-108651234D01*
X184615669Y-108641092D01*
X184663179Y-108463780D01*
X184663547Y-108452551D01*
X184652605Y-108450000D01*
X182123395Y-108450000D01*
X182112452Y-108452551D01*
X182112820Y-108463780D01*
X182160330Y-108641092D01*
X182164022Y-108651234D01*
X182255579Y-108847580D01*
X182260967Y-108856912D01*
X182385232Y-109034381D01*
X182392169Y-109042647D01*
X182545352Y-109195830D01*
X182553618Y-109202767D01*
X182731087Y-109327032D01*
X182740423Y-109332422D01*
X182793864Y-109357342D01*
X182846040Y-109403098D01*
X182865460Y-109469723D01*
X182846041Y-109536348D01*
X182793866Y-109582106D01*
X182769479Y-109593478D01*
X182735266Y-109609432D01*
X182730833Y-109612535D01*
X182730826Y-109612540D01*
X182553296Y-109736847D01*
X182553291Y-109736850D01*
X182548861Y-109739953D01*
X182545037Y-109743776D01*
X182545031Y-109743782D01*
X182391782Y-109897031D01*
X182391776Y-109897037D01*
X182387953Y-109900861D01*
X182384850Y-109905291D01*
X182384847Y-109905296D01*
X182260540Y-110082826D01*
X182260535Y-110082833D01*
X182257432Y-110087266D01*
X182255144Y-110092172D01*
X182255142Y-110092176D01*
X182163550Y-110288594D01*
X182163547Y-110288599D01*
X182161261Y-110293504D01*
X182159862Y-110298724D01*
X182159858Y-110298736D01*
X182103764Y-110508083D01*
X182103762Y-110508094D01*
X182102365Y-110513308D01*
X182082532Y-110740000D01*
X182083004Y-110745395D01*
X182095105Y-110883716D01*
X182102365Y-110966692D01*
X182103762Y-110971907D01*
X182103764Y-110971916D01*
X182159858Y-111181263D01*
X182159861Y-111181271D01*
X182161261Y-111186496D01*
X182257432Y-111392734D01*
X182260539Y-111397171D01*
X182260540Y-111397173D01*
X182344600Y-111517224D01*
X182387953Y-111579139D01*
X182548861Y-111740047D01*
X182735266Y-111870568D01*
X182740172Y-111872855D01*
X182740176Y-111872858D01*
X182793274Y-111897618D01*
X182845450Y-111943375D01*
X182864869Y-112010000D01*
X182845450Y-112076625D01*
X182793274Y-112122382D01*
X182740176Y-112147141D01*
X182740163Y-112147148D01*
X182735266Y-112149432D01*
X182730833Y-112152535D01*
X182730826Y-112152540D01*
X182553296Y-112276847D01*
X182553291Y-112276850D01*
X182548861Y-112279953D01*
X182545037Y-112283776D01*
X182545031Y-112283782D01*
X182391782Y-112437031D01*
X182391776Y-112437037D01*
X182387953Y-112440861D01*
X182384850Y-112445291D01*
X182384847Y-112445296D01*
X182260540Y-112622826D01*
X182260535Y-112622833D01*
X182257432Y-112627266D01*
X182255144Y-112632172D01*
X182255142Y-112632176D01*
X182163550Y-112828594D01*
X182163547Y-112828599D01*
X182161261Y-112833504D01*
X182159862Y-112838724D01*
X182159858Y-112838736D01*
X182103764Y-113048083D01*
X182103762Y-113048094D01*
X182102365Y-113053308D01*
X182082532Y-113280000D01*
X182102365Y-113506692D01*
X182103762Y-113511907D01*
X182103764Y-113511916D01*
X182159858Y-113721263D01*
X182159861Y-113721271D01*
X182161261Y-113726496D01*
X182257432Y-113932734D01*
X182387953Y-114119139D01*
X182548861Y-114280047D01*
X182735266Y-114410568D01*
X182740172Y-114412855D01*
X182740176Y-114412858D01*
X182793274Y-114437618D01*
X182845450Y-114483375D01*
X182864869Y-114550000D01*
X182845450Y-114616625D01*
X182793274Y-114662382D01*
X182740176Y-114687141D01*
X182740163Y-114687148D01*
X182735266Y-114689432D01*
X182730833Y-114692535D01*
X182730826Y-114692540D01*
X182553296Y-114816847D01*
X182553291Y-114816850D01*
X182548861Y-114819953D01*
X182545037Y-114823776D01*
X182545031Y-114823782D01*
X182391782Y-114977031D01*
X182391776Y-114977037D01*
X182387953Y-114980861D01*
X182384850Y-114985291D01*
X182384847Y-114985296D01*
X182260540Y-115162826D01*
X182260535Y-115162833D01*
X182257432Y-115167266D01*
X182255144Y-115172172D01*
X182255142Y-115172176D01*
X182163550Y-115368594D01*
X182163547Y-115368599D01*
X182161261Y-115373504D01*
X182159862Y-115378724D01*
X182159858Y-115378736D01*
X182103764Y-115588083D01*
X182103762Y-115588094D01*
X182102365Y-115593308D01*
X182101893Y-115598693D01*
X182101893Y-115598698D01*
X182084006Y-115803154D01*
X182082532Y-115820000D01*
X108789246Y-115820000D01*
X108777745Y-115806180D01*
X108672759Y-115712112D01*
X108579382Y-115628446D01*
X108579378Y-115628442D01*
X108576002Y-115625418D01*
X108350090Y-115475956D01*
X108345996Y-115474036D01*
X108345991Y-115474034D01*
X108108929Y-115362904D01*
X108108925Y-115362902D01*
X108104824Y-115360980D01*
X108100477Y-115359672D01*
X108100474Y-115359671D01*
X107849772Y-115284246D01*
X107849771Y-115284245D01*
X107845431Y-115282940D01*
X107840957Y-115282281D01*
X107840950Y-115282280D01*
X107581913Y-115244158D01*
X107581907Y-115244157D01*
X107577439Y-115243500D01*
X107374369Y-115243500D01*
X107372120Y-115243664D01*
X107372109Y-115243665D01*
X107176363Y-115257992D01*
X107176359Y-115257992D01*
X107171844Y-115258323D01*
X107167426Y-115259307D01*
X107167420Y-115259308D01*
X106911877Y-115316232D01*
X106911861Y-115316236D01*
X106907447Y-115317220D01*
X106903216Y-115318838D01*
X106903210Y-115318840D01*
X106658673Y-115412367D01*
X106658663Y-115412371D01*
X106654442Y-115413986D01*
X106650494Y-115416201D01*
X106650489Y-115416204D01*
X106422176Y-115544340D01*
X106422171Y-115544343D01*
X106418223Y-115546559D01*
X106414639Y-115549325D01*
X106414635Y-115549329D01*
X106207407Y-115709343D01*
X106207394Y-115709354D01*
X106203823Y-115712112D01*
X106200685Y-115715366D01*
X106200678Y-115715373D01*
X106018958Y-115903857D01*
X106018952Y-115903864D01*
X106015814Y-115907119D01*
X106013189Y-115910787D01*
X106013179Y-115910800D01*
X105860834Y-116123740D01*
X105860830Y-116123745D01*
X105858201Y-116127421D01*
X105856132Y-116131444D01*
X105856129Y-116131450D01*
X105736416Y-116364293D01*
X105736411Y-116364304D01*
X105734344Y-116368325D01*
X105732884Y-116372602D01*
X105732879Y-116372616D01*
X105648348Y-116620395D01*
X105648344Y-116620407D01*
X105646882Y-116624695D01*
X105646057Y-116629159D01*
X105646057Y-116629161D01*
X105598504Y-116886606D01*
X105598502Y-116886619D01*
X105597681Y-116891067D01*
X105597515Y-116895593D01*
X105597515Y-116895599D01*
X105589115Y-117125468D01*
X105587788Y-117161765D01*
X102378013Y-117161765D01*
X102434223Y-99568000D01*
X117458540Y-99568000D01*
X117459219Y-99574460D01*
X117477646Y-99749795D01*
X117477647Y-99749803D01*
X117478326Y-99756256D01*
X117480331Y-99762428D01*
X117480333Y-99762435D01*
X117525996Y-99902968D01*
X117536821Y-99936284D01*
X117631467Y-100100216D01*
X117635811Y-100105041D01*
X117635813Y-100105043D01*
X117753779Y-100236057D01*
X117758129Y-100240888D01*
X117911270Y-100352151D01*
X118084197Y-100429144D01*
X118239127Y-100462075D01*
X118272514Y-100474392D01*
X118301027Y-100495684D01*
X128907162Y-111101819D01*
X128937412Y-111151182D01*
X128941954Y-111208898D01*
X128919799Y-111262385D01*
X128875776Y-111299985D01*
X128819481Y-111313500D01*
X119975519Y-111313500D01*
X119928066Y-111304061D01*
X119887838Y-111277181D01*
X119798504Y-111187847D01*
X119774264Y-111153549D01*
X119762864Y-111113127D01*
X119757674Y-111063744D01*
X119699179Y-110883716D01*
X119604533Y-110719784D01*
X119477871Y-110579112D01*
X119472613Y-110575292D01*
X119472611Y-110575290D01*
X119329988Y-110471669D01*
X119329987Y-110471668D01*
X119324730Y-110467849D01*
X119318792Y-110465205D01*
X119157745Y-110393501D01*
X119157740Y-110393499D01*
X119151803Y-110390856D01*
X119145444Y-110389504D01*
X119145440Y-110389503D01*
X118973008Y-110352852D01*
X118973005Y-110352851D01*
X118966646Y-110351500D01*
X118777354Y-110351500D01*
X118770995Y-110352851D01*
X118770991Y-110352852D01*
X118598559Y-110389503D01*
X118598552Y-110389505D01*
X118592197Y-110390856D01*
X118586262Y-110393498D01*
X118586254Y-110393501D01*
X118425207Y-110465205D01*
X118425202Y-110465207D01*
X118419270Y-110467849D01*
X118414016Y-110471665D01*
X118414011Y-110471669D01*
X118271388Y-110575290D01*
X118271381Y-110575295D01*
X118266129Y-110579112D01*
X118261784Y-110583937D01*
X118261779Y-110583942D01*
X118143813Y-110714956D01*
X118143808Y-110714962D01*
X118139467Y-110719784D01*
X118136222Y-110725404D01*
X118136218Y-110725410D01*
X118048069Y-110878089D01*
X118048066Y-110878094D01*
X118044821Y-110883716D01*
X118042815Y-110889888D01*
X118042813Y-110889894D01*
X117988333Y-111057564D01*
X117988331Y-111057573D01*
X117986326Y-111063744D01*
X117985648Y-111070194D01*
X117985646Y-111070204D01*
X117971070Y-111208898D01*
X117966540Y-111252000D01*
X117968042Y-111266292D01*
X117985646Y-111433795D01*
X117985647Y-111433803D01*
X117986326Y-111440256D01*
X117988331Y-111446428D01*
X117988333Y-111446435D01*
X118031452Y-111579139D01*
X118044821Y-111620284D01*
X118048068Y-111625908D01*
X118048069Y-111625910D01*
X118115758Y-111743152D01*
X118139467Y-111784216D01*
X118143811Y-111789041D01*
X118143813Y-111789043D01*
X118217219Y-111870568D01*
X118266129Y-111924888D01*
X118419270Y-112036151D01*
X118592197Y-112113144D01*
X118747127Y-112146075D01*
X118780514Y-112158392D01*
X118809027Y-112179684D01*
X119121059Y-112491716D01*
X119126193Y-112497170D01*
X119161093Y-112536565D01*
X119161097Y-112536568D01*
X119166071Y-112542183D01*
X119172247Y-112546446D01*
X119215574Y-112576353D01*
X119221601Y-112580788D01*
X119268944Y-112617878D01*
X119278180Y-112622034D01*
X119297727Y-112633059D01*
X119306070Y-112638818D01*
X119362214Y-112660110D01*
X119362298Y-112660142D01*
X119369220Y-112663009D01*
X119424069Y-112687695D01*
X119434041Y-112689522D01*
X119455656Y-112695547D01*
X119465128Y-112699140D01*
X119522831Y-112706146D01*
X119524815Y-112706387D01*
X119532222Y-112707514D01*
X119591394Y-112718358D01*
X119651433Y-112714725D01*
X119658921Y-112714500D01*
X177009079Y-112714500D01*
X177016566Y-112714725D01*
X177076606Y-112718358D01*
X177135782Y-112707513D01*
X177143181Y-112706387D01*
X177202872Y-112699140D01*
X177212332Y-112695551D01*
X177233959Y-112689522D01*
X177243932Y-112687695D01*
X177298808Y-112662996D01*
X177305673Y-112660152D01*
X177361930Y-112638818D01*
X177370264Y-112633064D01*
X177389821Y-112622034D01*
X177399057Y-112617878D01*
X177446413Y-112580775D01*
X177452420Y-112576355D01*
X177501929Y-112542183D01*
X177541822Y-112497151D01*
X177546924Y-112491731D01*
X182052339Y-107986316D01*
X182092564Y-107959439D01*
X182140017Y-107950000D01*
X184652605Y-107950000D01*
X184663547Y-107947448D01*
X184663179Y-107936219D01*
X184615669Y-107758907D01*
X184611977Y-107748765D01*
X184520420Y-107552419D01*
X184515032Y-107543087D01*
X184390767Y-107365618D01*
X184383830Y-107357352D01*
X184230647Y-107204169D01*
X184222381Y-107197232D01*
X184044912Y-107072967D01*
X184035579Y-107067579D01*
X183982134Y-107042657D01*
X183929958Y-106996899D01*
X183910539Y-106930274D01*
X183929959Y-106863649D01*
X183982131Y-106817894D01*
X184040734Y-106790568D01*
X184227139Y-106660047D01*
X184388047Y-106499139D01*
X184518568Y-106312734D01*
X184614739Y-106106496D01*
X184673635Y-105886692D01*
X184693468Y-105660000D01*
X184673635Y-105433308D01*
X184614739Y-105213504D01*
X184518568Y-105007266D01*
X184388047Y-104820861D01*
X184227139Y-104659953D01*
X184165224Y-104616600D01*
X184045173Y-104532540D01*
X184045171Y-104532539D01*
X184040734Y-104529432D01*
X183982724Y-104502381D01*
X183930549Y-104456625D01*
X183911130Y-104390000D01*
X183930549Y-104323375D01*
X183982725Y-104277618D01*
X184040734Y-104250568D01*
X184227139Y-104120047D01*
X184388047Y-103959139D01*
X184518568Y-103772734D01*
X184614739Y-103566496D01*
X184673635Y-103346692D01*
X184693468Y-103120000D01*
X184673635Y-102893308D01*
X184614739Y-102673504D01*
X184518568Y-102467266D01*
X184388047Y-102280861D01*
X184227139Y-102119953D01*
X184165224Y-102076600D01*
X184045173Y-101992540D01*
X184045171Y-101992539D01*
X184040734Y-101989432D01*
X184035827Y-101987143D01*
X184035817Y-101987138D01*
X183982724Y-101962380D01*
X183930549Y-101916623D01*
X183911130Y-101849997D01*
X183930550Y-101783372D01*
X183982723Y-101737618D01*
X184040734Y-101710568D01*
X184227139Y-101580047D01*
X184388047Y-101419139D01*
X184518568Y-101232734D01*
X184614739Y-101026496D01*
X184673635Y-100806692D01*
X184693468Y-100580000D01*
X184673635Y-100353308D01*
X184614739Y-100133504D01*
X184518568Y-99927266D01*
X184388047Y-99740861D01*
X184227139Y-99579953D01*
X184165224Y-99536600D01*
X184045173Y-99452540D01*
X184045171Y-99452539D01*
X184040734Y-99449432D01*
X183982724Y-99422381D01*
X183930549Y-99376625D01*
X183911130Y-99310000D01*
X183930549Y-99243375D01*
X183982725Y-99197618D01*
X183990293Y-99194089D01*
X184040734Y-99170568D01*
X184227139Y-99040047D01*
X184388047Y-98879139D01*
X184518568Y-98692734D01*
X184614739Y-98486496D01*
X184673635Y-98266692D01*
X184693468Y-98040000D01*
X184673635Y-97813308D01*
X184648068Y-97717891D01*
X184616141Y-97598736D01*
X184616140Y-97598734D01*
X184614739Y-97593504D01*
X184518568Y-97387266D01*
X184388047Y-97200861D01*
X184227139Y-97039953D01*
X184165224Y-96996600D01*
X184045173Y-96912540D01*
X184045171Y-96912539D01*
X184040734Y-96909432D01*
X183982724Y-96882381D01*
X183930549Y-96836625D01*
X183911130Y-96770000D01*
X183930549Y-96703375D01*
X183982725Y-96657618D01*
X184040734Y-96630568D01*
X184227139Y-96500047D01*
X184388047Y-96339139D01*
X184518568Y-96152734D01*
X184614739Y-95946496D01*
X184673635Y-95726692D01*
X184693468Y-95500000D01*
X184673635Y-95273308D01*
X184624156Y-95088650D01*
X184616141Y-95058736D01*
X184616140Y-95058734D01*
X184614739Y-95053504D01*
X184518568Y-94847266D01*
X184388047Y-94660861D01*
X184227139Y-94499953D01*
X184082802Y-94398888D01*
X184045173Y-94372540D01*
X184045171Y-94372539D01*
X184040734Y-94369432D01*
X183982724Y-94342381D01*
X183930549Y-94296625D01*
X183911130Y-94230000D01*
X183930549Y-94163375D01*
X183982725Y-94117618D01*
X184040734Y-94090568D01*
X184227139Y-93960047D01*
X184388047Y-93799139D01*
X184518568Y-93612734D01*
X184614739Y-93406496D01*
X184673635Y-93186692D01*
X184693468Y-92960000D01*
X184673635Y-92733308D01*
X184646795Y-92633140D01*
X184616141Y-92518736D01*
X184616140Y-92518734D01*
X184614739Y-92513504D01*
X184518568Y-92307266D01*
X184388047Y-92120861D01*
X184227139Y-91959953D01*
X184040734Y-91829432D01*
X183834496Y-91733261D01*
X183829271Y-91731861D01*
X183829263Y-91731858D01*
X183619916Y-91675764D01*
X183619907Y-91675762D01*
X183614692Y-91674365D01*
X183609304Y-91673893D01*
X183609301Y-91673893D01*
X183393395Y-91655004D01*
X183388000Y-91654532D01*
X183382605Y-91655004D01*
X183166698Y-91673893D01*
X183166693Y-91673893D01*
X183161308Y-91674365D01*
X183156094Y-91675762D01*
X183156083Y-91675764D01*
X182946736Y-91731858D01*
X182946724Y-91731862D01*
X182941504Y-91733261D01*
X182936599Y-91735547D01*
X182936594Y-91735550D01*
X182740176Y-91827142D01*
X182740172Y-91827144D01*
X182735266Y-91829432D01*
X182730833Y-91832535D01*
X182730826Y-91832540D01*
X182553296Y-91956847D01*
X182553291Y-91956850D01*
X182548861Y-91959953D01*
X182545037Y-91963776D01*
X182545031Y-91963782D01*
X182391782Y-92117031D01*
X182391776Y-92117037D01*
X182387953Y-92120861D01*
X182384850Y-92125291D01*
X182384847Y-92125296D01*
X182327902Y-92206623D01*
X182283584Y-92245489D01*
X182226327Y-92259500D01*
X170462921Y-92259500D01*
X170455433Y-92259274D01*
X170402881Y-92256094D01*
X170402873Y-92256094D01*
X170395394Y-92255642D01*
X170388018Y-92256993D01*
X170388011Y-92256994D01*
X170336228Y-92266483D01*
X170328828Y-92267610D01*
X170276569Y-92273956D01*
X170276565Y-92273956D01*
X170269128Y-92274860D01*
X170262119Y-92277517D01*
X170262114Y-92277519D01*
X170259643Y-92278456D01*
X170238053Y-92284474D01*
X170235452Y-92284950D01*
X170235438Y-92284954D01*
X170228069Y-92286305D01*
X170221232Y-92289381D01*
X170221232Y-92289382D01*
X170173226Y-92310987D01*
X170166310Y-92313851D01*
X170117082Y-92332521D01*
X170117070Y-92332526D01*
X170110070Y-92335182D01*
X170103904Y-92339437D01*
X170103894Y-92339443D01*
X170101717Y-92340946D01*
X170082195Y-92351957D01*
X170079783Y-92353042D01*
X170079771Y-92353048D01*
X170072944Y-92356122D01*
X170067048Y-92360740D01*
X170067043Y-92360744D01*
X170025608Y-92393205D01*
X170019581Y-92397640D01*
X169976245Y-92427554D01*
X169976238Y-92427559D01*
X169970071Y-92431817D01*
X169965102Y-92437425D01*
X169965096Y-92437431D01*
X169930184Y-92476838D01*
X169925051Y-92482290D01*
X165291027Y-97116315D01*
X165262514Y-97137607D01*
X165229128Y-97149924D01*
X165080557Y-97181504D01*
X165080555Y-97181504D01*
X165074197Y-97182856D01*
X165068262Y-97185498D01*
X165068254Y-97185501D01*
X164907207Y-97257205D01*
X164907202Y-97257207D01*
X164901270Y-97259849D01*
X164896016Y-97263665D01*
X164896011Y-97263669D01*
X164753388Y-97367290D01*
X164753381Y-97367295D01*
X164748129Y-97371112D01*
X164743784Y-97375937D01*
X164743779Y-97375942D01*
X164625813Y-97506956D01*
X164625808Y-97506962D01*
X164621467Y-97511784D01*
X164618222Y-97517404D01*
X164618218Y-97517410D01*
X164530069Y-97670089D01*
X164530066Y-97670094D01*
X164526821Y-97675716D01*
X164524815Y-97681888D01*
X164524813Y-97681894D01*
X164470333Y-97849564D01*
X164470331Y-97849573D01*
X164468326Y-97855744D01*
X164467648Y-97862194D01*
X164467646Y-97862204D01*
X164452121Y-98009929D01*
X164448540Y-98044000D01*
X164449219Y-98050460D01*
X164467646Y-98225795D01*
X164467647Y-98225803D01*
X164468326Y-98232256D01*
X164470331Y-98238428D01*
X164470333Y-98238435D01*
X164481212Y-98271916D01*
X164526821Y-98412284D01*
X164621467Y-98576216D01*
X164625811Y-98581041D01*
X164625813Y-98581043D01*
X164730377Y-98697173D01*
X164748129Y-98716888D01*
X164901270Y-98828151D01*
X165074197Y-98905144D01*
X165259354Y-98944500D01*
X165442143Y-98944500D01*
X165448646Y-98944500D01*
X165633803Y-98905144D01*
X165806730Y-98828151D01*
X165959871Y-98716888D01*
X166086533Y-98576216D01*
X166181179Y-98412284D01*
X166239674Y-98232256D01*
X166244864Y-98182870D01*
X166256264Y-98142449D01*
X166280501Y-98108154D01*
X170691837Y-93696819D01*
X170732066Y-93669939D01*
X170779519Y-93660500D01*
X182226327Y-93660500D01*
X182283584Y-93674511D01*
X182327902Y-93713377D01*
X182336741Y-93726000D01*
X182387953Y-93799139D01*
X182548861Y-93960047D01*
X182735266Y-94090568D01*
X182740172Y-94092855D01*
X182740176Y-94092858D01*
X182793274Y-94117618D01*
X182845450Y-94163375D01*
X182864869Y-94230000D01*
X182845450Y-94296625D01*
X182793274Y-94342382D01*
X182740176Y-94367141D01*
X182740163Y-94367148D01*
X182735266Y-94369432D01*
X182730833Y-94372535D01*
X182730826Y-94372540D01*
X182553296Y-94496847D01*
X182553291Y-94496850D01*
X182548861Y-94499953D01*
X182545037Y-94503776D01*
X182545031Y-94503782D01*
X182391782Y-94657031D01*
X182391776Y-94657037D01*
X182387953Y-94660861D01*
X182384850Y-94665291D01*
X182384847Y-94665296D01*
X182260540Y-94842826D01*
X182260535Y-94842833D01*
X182257432Y-94847266D01*
X182255144Y-94852172D01*
X182255142Y-94852176D01*
X182163550Y-95048594D01*
X182163547Y-95048599D01*
X182161261Y-95053504D01*
X182159862Y-95058724D01*
X182159858Y-95058736D01*
X182103764Y-95268083D01*
X182103762Y-95268094D01*
X182102365Y-95273308D01*
X182101893Y-95278693D01*
X182101893Y-95278698D01*
X182091733Y-95394827D01*
X182082532Y-95500000D01*
X182083004Y-95505395D01*
X182095105Y-95643716D01*
X182102365Y-95726692D01*
X182103762Y-95731907D01*
X182103764Y-95731916D01*
X182159858Y-95941263D01*
X182159861Y-95941271D01*
X182161261Y-95946496D01*
X182257432Y-96152734D01*
X182260539Y-96157171D01*
X182260540Y-96157173D01*
X182344600Y-96277224D01*
X182387953Y-96339139D01*
X182548861Y-96500047D01*
X182735266Y-96630568D01*
X182740172Y-96632855D01*
X182740176Y-96632858D01*
X182793274Y-96657618D01*
X182845450Y-96703375D01*
X182864869Y-96770000D01*
X182845450Y-96836625D01*
X182793274Y-96882382D01*
X182740176Y-96907141D01*
X182740163Y-96907148D01*
X182735266Y-96909432D01*
X182730833Y-96912535D01*
X182730826Y-96912540D01*
X182553296Y-97036847D01*
X182553291Y-97036850D01*
X182548861Y-97039953D01*
X182545037Y-97043776D01*
X182545031Y-97043782D01*
X182391782Y-97197031D01*
X182391776Y-97197037D01*
X182387953Y-97200861D01*
X182384850Y-97205291D01*
X182384847Y-97205296D01*
X182260540Y-97382826D01*
X182260535Y-97382833D01*
X182257432Y-97387266D01*
X182255144Y-97392172D01*
X182255142Y-97392176D01*
X182163550Y-97588594D01*
X182163547Y-97588599D01*
X182161261Y-97593504D01*
X182159862Y-97598724D01*
X182159858Y-97598736D01*
X182103764Y-97808083D01*
X182103762Y-97808094D01*
X182102365Y-97813308D01*
X182101893Y-97818693D01*
X182101893Y-97818698D01*
X182090021Y-97954404D01*
X182082532Y-98040000D01*
X182083004Y-98045395D01*
X182095031Y-98182872D01*
X182102365Y-98266692D01*
X182103762Y-98271907D01*
X182103764Y-98271916D01*
X182159858Y-98481263D01*
X182159861Y-98481271D01*
X182161261Y-98486496D01*
X182257432Y-98692734D01*
X182260539Y-98697171D01*
X182260540Y-98697173D01*
X182277020Y-98720709D01*
X182387953Y-98879139D01*
X182548861Y-99040047D01*
X182735266Y-99170568D01*
X182740172Y-99172855D01*
X182740176Y-99172858D01*
X182793274Y-99197618D01*
X182845450Y-99243375D01*
X182864869Y-99310000D01*
X182845450Y-99376625D01*
X182793274Y-99422382D01*
X182740176Y-99447141D01*
X182740163Y-99447148D01*
X182735266Y-99449432D01*
X182730833Y-99452535D01*
X182730826Y-99452540D01*
X182553296Y-99576847D01*
X182553291Y-99576850D01*
X182548861Y-99579953D01*
X182545037Y-99583776D01*
X182545031Y-99583782D01*
X182391782Y-99737031D01*
X182391776Y-99737037D01*
X182387953Y-99740861D01*
X182384850Y-99745291D01*
X182384847Y-99745296D01*
X182260540Y-99922826D01*
X182260535Y-99922833D01*
X182257432Y-99927266D01*
X182255144Y-99932172D01*
X182255142Y-99932176D01*
X182163550Y-100128594D01*
X182163547Y-100128599D01*
X182161261Y-100133504D01*
X182159862Y-100138724D01*
X182159858Y-100138736D01*
X182103764Y-100348083D01*
X182103762Y-100348094D01*
X182102365Y-100353308D01*
X182101893Y-100358693D01*
X182101893Y-100358698D01*
X182089909Y-100495684D01*
X182082532Y-100580000D01*
X182083004Y-100585395D01*
X182102365Y-100806692D01*
X182101409Y-100806775D01*
X182097939Y-100859597D01*
X182067363Y-100909978D01*
X172970162Y-110007181D01*
X172929934Y-110034061D01*
X172882481Y-110043500D01*
X129881519Y-110043500D01*
X129834066Y-110034061D01*
X129793838Y-110007181D01*
X119290504Y-99503847D01*
X119266264Y-99469549D01*
X119254864Y-99429127D01*
X119254155Y-99422382D01*
X119249674Y-99379744D01*
X119191179Y-99199716D01*
X119096533Y-99035784D01*
X118969871Y-98895112D01*
X118964613Y-98891292D01*
X118964611Y-98891290D01*
X118821988Y-98787669D01*
X118821987Y-98787668D01*
X118816730Y-98783849D01*
X118810792Y-98781205D01*
X118649745Y-98709501D01*
X118649740Y-98709499D01*
X118643803Y-98706856D01*
X118637444Y-98705504D01*
X118637440Y-98705503D01*
X118465008Y-98668852D01*
X118465005Y-98668851D01*
X118458646Y-98667500D01*
X118269354Y-98667500D01*
X118262995Y-98668851D01*
X118262991Y-98668852D01*
X118090559Y-98705503D01*
X118090552Y-98705505D01*
X118084197Y-98706856D01*
X118078262Y-98709498D01*
X118078254Y-98709501D01*
X117917207Y-98781205D01*
X117917202Y-98781207D01*
X117911270Y-98783849D01*
X117906016Y-98787665D01*
X117906011Y-98787669D01*
X117763388Y-98891290D01*
X117763381Y-98891295D01*
X117758129Y-98895112D01*
X117753784Y-98899937D01*
X117753779Y-98899942D01*
X117635813Y-99030956D01*
X117635808Y-99030962D01*
X117631467Y-99035784D01*
X117628222Y-99041404D01*
X117628218Y-99041410D01*
X117540069Y-99194089D01*
X117540066Y-99194094D01*
X117536821Y-99199716D01*
X117534815Y-99205888D01*
X117534813Y-99205894D01*
X117480333Y-99373564D01*
X117480331Y-99373573D01*
X117478326Y-99379744D01*
X117477648Y-99386194D01*
X117477646Y-99386204D01*
X117465004Y-99506496D01*
X117458540Y-99568000D01*
X102434223Y-99568000D01*
X102462489Y-90720606D01*
X103181642Y-90720606D01*
X103182993Y-90727982D01*
X103182994Y-90727987D01*
X103192483Y-90779771D01*
X103193610Y-90787171D01*
X103199955Y-90839425D01*
X103199956Y-90839430D01*
X103200860Y-90846872D01*
X103203519Y-90853885D01*
X103203521Y-90853891D01*
X103204450Y-90856340D01*
X103210475Y-90877952D01*
X103210951Y-90880551D01*
X103210954Y-90880560D01*
X103212305Y-90887932D01*
X103215382Y-90894769D01*
X103215383Y-90894772D01*
X103236991Y-90942784D01*
X103239857Y-90949702D01*
X103243624Y-90959634D01*
X103261182Y-91005930D01*
X103265442Y-91012102D01*
X103265445Y-91012107D01*
X103266937Y-91014268D01*
X103277959Y-91033810D01*
X103279039Y-91036210D01*
X103279044Y-91036219D01*
X103282122Y-91043057D01*
X103318508Y-91089501D01*
X103319216Y-91090404D01*
X103323636Y-91096410D01*
X103357817Y-91145929D01*
X103402847Y-91185822D01*
X103408282Y-91190939D01*
X104643059Y-92425716D01*
X104648193Y-92431170D01*
X104688071Y-92476183D01*
X104737577Y-92510355D01*
X104743597Y-92514785D01*
X104790943Y-92551878D01*
X104797783Y-92554956D01*
X104797784Y-92554957D01*
X104800181Y-92556036D01*
X104819730Y-92567061D01*
X104828070Y-92572818D01*
X104884301Y-92594143D01*
X104891223Y-92597010D01*
X104946068Y-92621694D01*
X104956035Y-92623520D01*
X104977653Y-92629547D01*
X104980113Y-92630480D01*
X104980116Y-92630480D01*
X104987128Y-92633140D01*
X105044602Y-92640118D01*
X105046830Y-92640389D01*
X105054235Y-92641516D01*
X105069188Y-92644256D01*
X105113394Y-92652357D01*
X105173422Y-92648726D01*
X105180910Y-92648500D01*
X117501845Y-92648500D01*
X117540163Y-92654569D01*
X117574726Y-92672179D01*
X117657270Y-92732151D01*
X117830197Y-92809144D01*
X118015354Y-92848500D01*
X118198143Y-92848500D01*
X118204646Y-92848500D01*
X118316738Y-92824674D01*
X118379596Y-92827638D01*
X118432908Y-92861080D01*
X118462937Y-92916386D01*
X118461948Y-92979310D01*
X118430197Y-93033645D01*
X118411527Y-93052315D01*
X118383014Y-93073607D01*
X118349628Y-93085924D01*
X118201057Y-93117504D01*
X118201055Y-93117504D01*
X118194697Y-93118856D01*
X118188762Y-93121498D01*
X118188754Y-93121501D01*
X118027707Y-93193205D01*
X118027702Y-93193207D01*
X118021770Y-93195849D01*
X118016516Y-93199665D01*
X118016511Y-93199669D01*
X117873888Y-93303290D01*
X117873881Y-93303295D01*
X117868629Y-93307112D01*
X117864284Y-93311937D01*
X117864279Y-93311942D01*
X117746313Y-93442956D01*
X117746308Y-93442962D01*
X117741967Y-93447784D01*
X117738722Y-93453404D01*
X117738718Y-93453410D01*
X117650569Y-93606089D01*
X117650566Y-93606094D01*
X117647321Y-93611716D01*
X117645315Y-93617888D01*
X117645313Y-93617894D01*
X117590833Y-93785564D01*
X117590831Y-93785573D01*
X117588826Y-93791744D01*
X117588148Y-93798194D01*
X117588146Y-93798204D01*
X117575300Y-93920435D01*
X117569040Y-93980000D01*
X117569719Y-93986460D01*
X117588146Y-94161795D01*
X117588147Y-94161803D01*
X117588826Y-94168256D01*
X117590831Y-94174428D01*
X117590833Y-94174435D01*
X117645313Y-94342105D01*
X117647321Y-94348284D01*
X117650568Y-94353908D01*
X117650569Y-94353910D01*
X117738568Y-94506330D01*
X117741967Y-94512216D01*
X117746311Y-94517041D01*
X117746313Y-94517043D01*
X117854244Y-94636912D01*
X117868629Y-94652888D01*
X118021770Y-94764151D01*
X118194697Y-94841144D01*
X118379854Y-94880500D01*
X118562643Y-94880500D01*
X118569146Y-94880500D01*
X118754303Y-94841144D01*
X118927230Y-94764151D01*
X119080371Y-94652888D01*
X119207033Y-94512216D01*
X119301679Y-94348284D01*
X119360174Y-94168256D01*
X119365364Y-94118870D01*
X119376764Y-94078449D01*
X119401001Y-94044154D01*
X120989155Y-92456000D01*
X122284540Y-92456000D01*
X122285219Y-92462460D01*
X122303646Y-92637795D01*
X122303647Y-92637803D01*
X122304326Y-92644256D01*
X122306331Y-92650428D01*
X122306333Y-92650435D01*
X122358341Y-92810496D01*
X122362821Y-92824284D01*
X122366068Y-92829908D01*
X122366069Y-92829910D01*
X122444291Y-92965395D01*
X122457467Y-92988216D01*
X122461813Y-92993043D01*
X122465637Y-92998306D01*
X122464296Y-92999279D01*
X122481251Y-93026920D01*
X122489500Y-93071392D01*
X122489500Y-97517079D01*
X122489274Y-97524567D01*
X122486094Y-97577118D01*
X122486094Y-97577126D01*
X122485642Y-97584606D01*
X122486993Y-97591982D01*
X122486994Y-97591987D01*
X122496483Y-97643771D01*
X122497610Y-97651171D01*
X122503955Y-97703425D01*
X122503956Y-97703430D01*
X122504860Y-97710872D01*
X122507519Y-97717885D01*
X122507521Y-97717891D01*
X122508450Y-97720340D01*
X122514475Y-97741952D01*
X122514951Y-97744551D01*
X122514954Y-97744560D01*
X122516305Y-97751932D01*
X122519382Y-97758769D01*
X122519383Y-97758772D01*
X122540991Y-97806784D01*
X122543857Y-97813702D01*
X122565182Y-97869930D01*
X122569442Y-97876102D01*
X122569445Y-97876107D01*
X122570937Y-97878268D01*
X122581959Y-97897810D01*
X122583039Y-97900210D01*
X122583044Y-97900219D01*
X122586122Y-97907057D01*
X122590745Y-97912958D01*
X122590747Y-97912961D01*
X122623216Y-97954404D01*
X122627636Y-97960410D01*
X122661817Y-98009929D01*
X122706847Y-98049822D01*
X122712282Y-98054939D01*
X134101059Y-109443716D01*
X134106193Y-109449170D01*
X134141093Y-109488565D01*
X134141097Y-109488568D01*
X134146071Y-109494183D01*
X134152247Y-109498446D01*
X134195574Y-109528353D01*
X134201605Y-109532791D01*
X134206146Y-109536349D01*
X134248944Y-109569878D01*
X134258180Y-109574034D01*
X134277727Y-109585059D01*
X134286070Y-109590818D01*
X134318962Y-109603292D01*
X134342298Y-109612142D01*
X134349220Y-109615009D01*
X134404069Y-109639695D01*
X134414041Y-109641522D01*
X134435656Y-109647547D01*
X134445128Y-109651140D01*
X134502279Y-109658079D01*
X134504815Y-109658387D01*
X134512222Y-109659514D01*
X134571394Y-109670358D01*
X134631433Y-109666725D01*
X134638921Y-109666500D01*
X150191551Y-109666500D01*
X150199056Y-109666500D01*
X150233238Y-109658074D01*
X150247926Y-109655382D01*
X150282872Y-109651140D01*
X150302877Y-109643553D01*
X150315766Y-109638665D01*
X150330066Y-109634209D01*
X150364225Y-109625790D01*
X150395380Y-109609437D01*
X150409022Y-109603297D01*
X150441930Y-109590818D01*
X150470909Y-109570814D01*
X150483687Y-109563089D01*
X150514852Y-109546734D01*
X150541190Y-109523400D01*
X150552971Y-109514170D01*
X150581929Y-109494183D01*
X150605264Y-109467841D01*
X150615841Y-109457264D01*
X150642183Y-109433929D01*
X150662170Y-109404971D01*
X150671400Y-109393190D01*
X150694734Y-109366852D01*
X150711089Y-109335687D01*
X150718814Y-109322909D01*
X150738818Y-109293930D01*
X150751297Y-109261022D01*
X150757437Y-109247380D01*
X150773790Y-109216225D01*
X150782209Y-109182065D01*
X150786665Y-109167766D01*
X150796478Y-109141891D01*
X150796478Y-109141890D01*
X150799140Y-109134872D01*
X150803382Y-109099926D01*
X150806074Y-109085238D01*
X150814500Y-109051056D01*
X150814500Y-108880944D01*
X150814500Y-95845519D01*
X150823939Y-95798066D01*
X150850819Y-95757838D01*
X154431838Y-92176819D01*
X154472066Y-92149939D01*
X154519519Y-92140500D01*
X161077481Y-92140500D01*
X161133776Y-92154015D01*
X161177799Y-92191615D01*
X161199954Y-92245102D01*
X161195412Y-92302818D01*
X161165162Y-92352181D01*
X160274162Y-93243181D01*
X160233934Y-93270061D01*
X160186481Y-93279500D01*
X156056155Y-93279500D01*
X156017837Y-93273431D01*
X155983273Y-93255820D01*
X155900730Y-93195849D01*
X155894792Y-93193205D01*
X155733745Y-93121501D01*
X155733740Y-93121499D01*
X155727803Y-93118856D01*
X155721444Y-93117504D01*
X155721440Y-93117503D01*
X155549008Y-93080852D01*
X155549005Y-93080851D01*
X155542646Y-93079500D01*
X155353354Y-93079500D01*
X155346995Y-93080851D01*
X155346991Y-93080852D01*
X155174559Y-93117503D01*
X155174552Y-93117505D01*
X155168197Y-93118856D01*
X155162262Y-93121498D01*
X155162254Y-93121501D01*
X155001207Y-93193205D01*
X155001202Y-93193207D01*
X154995270Y-93195849D01*
X154990016Y-93199665D01*
X154990011Y-93199669D01*
X154847388Y-93303290D01*
X154847381Y-93303295D01*
X154842129Y-93307112D01*
X154837784Y-93311937D01*
X154837779Y-93311942D01*
X154719813Y-93442956D01*
X154719808Y-93442962D01*
X154715467Y-93447784D01*
X154712222Y-93453404D01*
X154712218Y-93453410D01*
X154624069Y-93606089D01*
X154624066Y-93606094D01*
X154620821Y-93611716D01*
X154618815Y-93617888D01*
X154618813Y-93617894D01*
X154564333Y-93785564D01*
X154564331Y-93785573D01*
X154562326Y-93791744D01*
X154561648Y-93798194D01*
X154561646Y-93798204D01*
X154548800Y-93920435D01*
X154542540Y-93980000D01*
X154543219Y-93986460D01*
X154561646Y-94161795D01*
X154561647Y-94161803D01*
X154562326Y-94168256D01*
X154564331Y-94174428D01*
X154564333Y-94174435D01*
X154618813Y-94342105D01*
X154620821Y-94348284D01*
X154624068Y-94353908D01*
X154624069Y-94353910D01*
X154712068Y-94506330D01*
X154715467Y-94512216D01*
X154719811Y-94517041D01*
X154719813Y-94517043D01*
X154827744Y-94636912D01*
X154842129Y-94652888D01*
X154995270Y-94764151D01*
X155168197Y-94841144D01*
X155353354Y-94880500D01*
X155536143Y-94880500D01*
X155542646Y-94880500D01*
X155727803Y-94841144D01*
X155900730Y-94764151D01*
X155983273Y-94704179D01*
X156017837Y-94686569D01*
X156056155Y-94680500D01*
X160315480Y-94680500D01*
X160371775Y-94694015D01*
X160415798Y-94731615D01*
X160437953Y-94785102D01*
X160433411Y-94842818D01*
X160403161Y-94892181D01*
X160211027Y-95084315D01*
X160182514Y-95105607D01*
X160149128Y-95117924D01*
X160000557Y-95149504D01*
X160000555Y-95149504D01*
X159994197Y-95150856D01*
X159988262Y-95153498D01*
X159988254Y-95153501D01*
X159827207Y-95225205D01*
X159827202Y-95225207D01*
X159821270Y-95227849D01*
X159816016Y-95231665D01*
X159816011Y-95231669D01*
X159673388Y-95335290D01*
X159673381Y-95335295D01*
X159668129Y-95339112D01*
X159663784Y-95343937D01*
X159663779Y-95343942D01*
X159545813Y-95474956D01*
X159545808Y-95474962D01*
X159541467Y-95479784D01*
X159538222Y-95485404D01*
X159538218Y-95485410D01*
X159450069Y-95638089D01*
X159450066Y-95638094D01*
X159446821Y-95643716D01*
X159444815Y-95649888D01*
X159444813Y-95649894D01*
X159390333Y-95817564D01*
X159390331Y-95817573D01*
X159388326Y-95823744D01*
X159387648Y-95830194D01*
X159387646Y-95830204D01*
X159371683Y-95982091D01*
X159368540Y-96012000D01*
X159369219Y-96018460D01*
X159387646Y-96193795D01*
X159387647Y-96193803D01*
X159388326Y-96200256D01*
X159390331Y-96206428D01*
X159390333Y-96206435D01*
X159433452Y-96339139D01*
X159446821Y-96380284D01*
X159450068Y-96385908D01*
X159450069Y-96385910D01*
X159530600Y-96525395D01*
X159541467Y-96544216D01*
X159545811Y-96549041D01*
X159545813Y-96549043D01*
X159619219Y-96630568D01*
X159668129Y-96684888D01*
X159821270Y-96796151D01*
X159994197Y-96873144D01*
X160179354Y-96912500D01*
X160362143Y-96912500D01*
X160368646Y-96912500D01*
X160553803Y-96873144D01*
X160726730Y-96796151D01*
X160879871Y-96684888D01*
X161006533Y-96544216D01*
X161101179Y-96380284D01*
X161159674Y-96200256D01*
X161164864Y-96150870D01*
X161176264Y-96110449D01*
X161200501Y-96076154D01*
X170179837Y-87096819D01*
X170220066Y-87069939D01*
X170267519Y-87060500D01*
X182226327Y-87060500D01*
X182283584Y-87074511D01*
X182327902Y-87113377D01*
X182344713Y-87137385D01*
X182387953Y-87199139D01*
X182548861Y-87360047D01*
X182735266Y-87490568D01*
X182740172Y-87492855D01*
X182740176Y-87492858D01*
X182793274Y-87517618D01*
X182845450Y-87563375D01*
X182864869Y-87630000D01*
X182845450Y-87696625D01*
X182793274Y-87742382D01*
X182740176Y-87767141D01*
X182740163Y-87767148D01*
X182735266Y-87769432D01*
X182730833Y-87772535D01*
X182730826Y-87772540D01*
X182553296Y-87896847D01*
X182553291Y-87896850D01*
X182548861Y-87899953D01*
X182545037Y-87903776D01*
X182545031Y-87903782D01*
X182391782Y-88057031D01*
X182391776Y-88057037D01*
X182387953Y-88060861D01*
X182384850Y-88065291D01*
X182384847Y-88065296D01*
X182327902Y-88146623D01*
X182283584Y-88185489D01*
X182226327Y-88199500D01*
X170966921Y-88199500D01*
X170959433Y-88199274D01*
X170906881Y-88196094D01*
X170906873Y-88196094D01*
X170899394Y-88195642D01*
X170892018Y-88196993D01*
X170892011Y-88196994D01*
X170840228Y-88206483D01*
X170832828Y-88207610D01*
X170780569Y-88213956D01*
X170780565Y-88213956D01*
X170773128Y-88214860D01*
X170766119Y-88217517D01*
X170766114Y-88217519D01*
X170763643Y-88218456D01*
X170742053Y-88224474D01*
X170739452Y-88224950D01*
X170739438Y-88224954D01*
X170732069Y-88226305D01*
X170725232Y-88229381D01*
X170725232Y-88229382D01*
X170677226Y-88250987D01*
X170670310Y-88253851D01*
X170621082Y-88272521D01*
X170621070Y-88272526D01*
X170614070Y-88275182D01*
X170607904Y-88279437D01*
X170607894Y-88279443D01*
X170605717Y-88280946D01*
X170586195Y-88291957D01*
X170583783Y-88293042D01*
X170583771Y-88293048D01*
X170576944Y-88296122D01*
X170571048Y-88300740D01*
X170571043Y-88300744D01*
X170529608Y-88333205D01*
X170523581Y-88337640D01*
X170480245Y-88367554D01*
X170480238Y-88367559D01*
X170474071Y-88371817D01*
X170469102Y-88377425D01*
X170469096Y-88377431D01*
X170434184Y-88416838D01*
X170429051Y-88422290D01*
X166053027Y-92798315D01*
X166024514Y-92819607D01*
X165991128Y-92831924D01*
X165842557Y-92863504D01*
X165842555Y-92863504D01*
X165836197Y-92864856D01*
X165830262Y-92867498D01*
X165830254Y-92867501D01*
X165669207Y-92939205D01*
X165669202Y-92939207D01*
X165663270Y-92941849D01*
X165658016Y-92945665D01*
X165658011Y-92945669D01*
X165515388Y-93049290D01*
X165515381Y-93049295D01*
X165510129Y-93053112D01*
X165505784Y-93057937D01*
X165505779Y-93057942D01*
X165387813Y-93188956D01*
X165387808Y-93188962D01*
X165383467Y-93193784D01*
X165380222Y-93199404D01*
X165380218Y-93199410D01*
X165292069Y-93352089D01*
X165292066Y-93352094D01*
X165288821Y-93357716D01*
X165286815Y-93363888D01*
X165286813Y-93363894D01*
X165232333Y-93531564D01*
X165232331Y-93531573D01*
X165230326Y-93537744D01*
X165229648Y-93544194D01*
X165229646Y-93544204D01*
X165213607Y-93696819D01*
X165210540Y-93726000D01*
X165211219Y-93732460D01*
X165229646Y-93907795D01*
X165229647Y-93907803D01*
X165230326Y-93914256D01*
X165232331Y-93920428D01*
X165232333Y-93920435D01*
X165282621Y-94075202D01*
X165288821Y-94094284D01*
X165292068Y-94099908D01*
X165292069Y-94099910D01*
X165367176Y-94230000D01*
X165383467Y-94258216D01*
X165387811Y-94263041D01*
X165387813Y-94263043D01*
X165486405Y-94372540D01*
X165510129Y-94398888D01*
X165663270Y-94510151D01*
X165836197Y-94587144D01*
X166021354Y-94626500D01*
X166204143Y-94626500D01*
X166210646Y-94626500D01*
X166395803Y-94587144D01*
X166568730Y-94510151D01*
X166721871Y-94398888D01*
X166848533Y-94258216D01*
X166943179Y-94094284D01*
X167001674Y-93914256D01*
X167006864Y-93864870D01*
X167018264Y-93824449D01*
X167042501Y-93790154D01*
X171195837Y-89636819D01*
X171236066Y-89609939D01*
X171283519Y-89600500D01*
X182226327Y-89600500D01*
X182283584Y-89614511D01*
X182327902Y-89653377D01*
X182387953Y-89739139D01*
X182548861Y-89900047D01*
X182735266Y-90030568D01*
X182941504Y-90126739D01*
X183161308Y-90185635D01*
X183388000Y-90205468D01*
X183614692Y-90185635D01*
X183834496Y-90126739D01*
X184040734Y-90030568D01*
X184227139Y-89900047D01*
X184388047Y-89739139D01*
X184518568Y-89552734D01*
X184614739Y-89346496D01*
X184673635Y-89126692D01*
X184693468Y-88900000D01*
X184673635Y-88673308D01*
X184614739Y-88453504D01*
X184518568Y-88247266D01*
X184388047Y-88060861D01*
X184227139Y-87899953D01*
X184040734Y-87769432D01*
X183982724Y-87742381D01*
X183930549Y-87696625D01*
X183911130Y-87630000D01*
X183930549Y-87563375D01*
X183982725Y-87517618D01*
X184040734Y-87490568D01*
X184213566Y-87369551D01*
X191458688Y-87369551D01*
X191459056Y-87380780D01*
X191511168Y-87575263D01*
X191514856Y-87585397D01*
X191610113Y-87789676D01*
X191615501Y-87799008D01*
X191744784Y-87983643D01*
X191751721Y-87991909D01*
X191911090Y-88151278D01*
X191919356Y-88158215D01*
X192103991Y-88287498D01*
X192113323Y-88292886D01*
X192317602Y-88388143D01*
X192327736Y-88391831D01*
X192522219Y-88443943D01*
X192533448Y-88444311D01*
X192536000Y-88433369D01*
X193036000Y-88433369D01*
X193038551Y-88444311D01*
X193049780Y-88443943D01*
X193244263Y-88391831D01*
X193254397Y-88388143D01*
X193458676Y-88292886D01*
X193468008Y-88287498D01*
X193652643Y-88158215D01*
X193660909Y-88151278D01*
X193820278Y-87991909D01*
X193827215Y-87983643D01*
X193956498Y-87799008D01*
X193961886Y-87789676D01*
X194057143Y-87585397D01*
X194060831Y-87575263D01*
X194112943Y-87380780D01*
X194113311Y-87369551D01*
X194102369Y-87367000D01*
X193052326Y-87367000D01*
X193039450Y-87370450D01*
X193036000Y-87383326D01*
X193036000Y-88433369D01*
X192536000Y-88433369D01*
X192536000Y-87383326D01*
X192532549Y-87370450D01*
X192519674Y-87367000D01*
X191469631Y-87367000D01*
X191458688Y-87369551D01*
X184213566Y-87369551D01*
X184227139Y-87360047D01*
X184388047Y-87199139D01*
X184518568Y-87012734D01*
X184614739Y-86806496D01*
X184673635Y-86586692D01*
X184693468Y-86360000D01*
X184673635Y-86133308D01*
X184614739Y-85913504D01*
X184518568Y-85707266D01*
X184388047Y-85520861D01*
X184227139Y-85359953D01*
X184074027Y-85252744D01*
X184045173Y-85232540D01*
X184045171Y-85232539D01*
X184040734Y-85229432D01*
X183982724Y-85202381D01*
X183930549Y-85156625D01*
X183911130Y-85090000D01*
X183930549Y-85023375D01*
X183982725Y-84977618D01*
X184040734Y-84950568D01*
X184227139Y-84820047D01*
X184388047Y-84659139D01*
X184518568Y-84472734D01*
X184614739Y-84266496D01*
X184673635Y-84046692D01*
X184693468Y-83820000D01*
X184673635Y-83593308D01*
X184614739Y-83373504D01*
X184518568Y-83167266D01*
X184388047Y-82980861D01*
X184227139Y-82819953D01*
X184074029Y-82712745D01*
X184045173Y-82692540D01*
X184045171Y-82692539D01*
X184040734Y-82689432D01*
X183982724Y-82662381D01*
X183930549Y-82616625D01*
X183911130Y-82550000D01*
X183930549Y-82483375D01*
X183982725Y-82437618D01*
X183986804Y-82435716D01*
X184040734Y-82410568D01*
X184227139Y-82280047D01*
X184388047Y-82119139D01*
X184518568Y-81932734D01*
X184614739Y-81726496D01*
X184673635Y-81506692D01*
X184693468Y-81280000D01*
X184673635Y-81053308D01*
X184614739Y-80833504D01*
X184518568Y-80627266D01*
X184388047Y-80440861D01*
X184227139Y-80279953D01*
X184040734Y-80149432D01*
X184035827Y-80147143D01*
X184035817Y-80147138D01*
X183982724Y-80122380D01*
X183930549Y-80076623D01*
X183911130Y-80009997D01*
X183930550Y-79943372D01*
X183982723Y-79897618D01*
X184040734Y-79870568D01*
X184227139Y-79740047D01*
X184388047Y-79579139D01*
X184448098Y-79493377D01*
X184492416Y-79454511D01*
X184549673Y-79440500D01*
X186607481Y-79440500D01*
X186654934Y-79449939D01*
X186695162Y-79476819D01*
X191399181Y-84180837D01*
X191426061Y-84221065D01*
X191435500Y-84268518D01*
X191435500Y-85471560D01*
X191435500Y-85471578D01*
X191435501Y-85474872D01*
X191435853Y-85478150D01*
X191435854Y-85478161D01*
X191441079Y-85526768D01*
X191441080Y-85526773D01*
X191441909Y-85534483D01*
X191444619Y-85541749D01*
X191444620Y-85541753D01*
X191478217Y-85631831D01*
X191492204Y-85669331D01*
X191578454Y-85784546D01*
X191693669Y-85870796D01*
X191825598Y-85920002D01*
X191875977Y-85954981D01*
X191903431Y-86009825D01*
X191901242Y-86071118D01*
X191869947Y-86123865D01*
X191751714Y-86242098D01*
X191744784Y-86250357D01*
X191615508Y-86434982D01*
X191610110Y-86444332D01*
X191514856Y-86648602D01*
X191511168Y-86658736D01*
X191459056Y-86853219D01*
X191458688Y-86864448D01*
X191469631Y-86867000D01*
X194102369Y-86867000D01*
X194113311Y-86864448D01*
X194112943Y-86853219D01*
X194060831Y-86658736D01*
X194057143Y-86648602D01*
X193961889Y-86444332D01*
X193956491Y-86434982D01*
X193827215Y-86250357D01*
X193820280Y-86242092D01*
X193702053Y-86123865D01*
X193670757Y-86071119D01*
X193668568Y-86009825D01*
X193696022Y-85954981D01*
X193746398Y-85920003D01*
X193878331Y-85870796D01*
X193993546Y-85784546D01*
X194079796Y-85669331D01*
X194130091Y-85534483D01*
X194136500Y-85474873D01*
X194136499Y-83679128D01*
X194130091Y-83619517D01*
X194079796Y-83484669D01*
X193993546Y-83369454D01*
X193942306Y-83331096D01*
X193885431Y-83288519D01*
X193885430Y-83288518D01*
X193878331Y-83283204D01*
X193743483Y-83232909D01*
X193735770Y-83232079D01*
X193735767Y-83232079D01*
X193687180Y-83226855D01*
X193687169Y-83226854D01*
X193683873Y-83226500D01*
X193680551Y-83226500D01*
X192477518Y-83226500D01*
X192430065Y-83217061D01*
X192389837Y-83190181D01*
X187461939Y-78262282D01*
X187456822Y-78256847D01*
X187416929Y-78211817D01*
X187367410Y-78177636D01*
X187361404Y-78173216D01*
X187319961Y-78140747D01*
X187319958Y-78140745D01*
X187314057Y-78136122D01*
X187307219Y-78133044D01*
X187307210Y-78133039D01*
X187304810Y-78131959D01*
X187285268Y-78120937D01*
X187283107Y-78119445D01*
X187283102Y-78119442D01*
X187276930Y-78115182D01*
X187220702Y-78093857D01*
X187213784Y-78090991D01*
X187165772Y-78069383D01*
X187165769Y-78069382D01*
X187158932Y-78066305D01*
X187151560Y-78064954D01*
X187151551Y-78064951D01*
X187148952Y-78064475D01*
X187127340Y-78058450D01*
X187124891Y-78057521D01*
X187124885Y-78057519D01*
X187117872Y-78054860D01*
X187110430Y-78053956D01*
X187110425Y-78053955D01*
X187058171Y-78047610D01*
X187050771Y-78046483D01*
X186998987Y-78036994D01*
X186998982Y-78036993D01*
X186991606Y-78035642D01*
X186984126Y-78036094D01*
X186984118Y-78036094D01*
X186931567Y-78039274D01*
X186924079Y-78039500D01*
X184549673Y-78039500D01*
X184492416Y-78025489D01*
X184448098Y-77986623D01*
X184391152Y-77905296D01*
X184388047Y-77900861D01*
X184227139Y-77739953D01*
X184040734Y-77609432D01*
X183982724Y-77582381D01*
X183930549Y-77536625D01*
X183911130Y-77470000D01*
X183930549Y-77403375D01*
X183982725Y-77357618D01*
X184040734Y-77330568D01*
X184227139Y-77200047D01*
X184388047Y-77039139D01*
X184518568Y-76852734D01*
X184614739Y-76646496D01*
X184673635Y-76426692D01*
X184693468Y-76200000D01*
X184673635Y-75973308D01*
X184614739Y-75753504D01*
X184518568Y-75547266D01*
X184388047Y-75360861D01*
X184227139Y-75199953D01*
X184086024Y-75101144D01*
X184045173Y-75072540D01*
X184045171Y-75072539D01*
X184040734Y-75069432D01*
X183982724Y-75042381D01*
X183930549Y-74996625D01*
X183911130Y-74930000D01*
X183930549Y-74863375D01*
X183982725Y-74817618D01*
X184040734Y-74790568D01*
X184227139Y-74660047D01*
X184388047Y-74499139D01*
X184518568Y-74312734D01*
X184614739Y-74106496D01*
X184673635Y-73886692D01*
X184693468Y-73660000D01*
X184673635Y-73433308D01*
X184614739Y-73213504D01*
X184518568Y-73007266D01*
X184388047Y-72820861D01*
X184227139Y-72659953D01*
X184040734Y-72529432D01*
X183982724Y-72502381D01*
X183930549Y-72456625D01*
X183911130Y-72390000D01*
X183930549Y-72323375D01*
X183982725Y-72277618D01*
X184040734Y-72250568D01*
X184227139Y-72120047D01*
X184388047Y-71959139D01*
X184518568Y-71772734D01*
X184614739Y-71566496D01*
X184673635Y-71346692D01*
X184693468Y-71120000D01*
X184673635Y-70893308D01*
X184614739Y-70673504D01*
X184518568Y-70467266D01*
X184388047Y-70280861D01*
X184227139Y-70119953D01*
X184070190Y-70010057D01*
X184045173Y-69992540D01*
X184045171Y-69992539D01*
X184040734Y-69989432D01*
X183834496Y-69893261D01*
X183829271Y-69891861D01*
X183829263Y-69891858D01*
X183619916Y-69835764D01*
X183619907Y-69835762D01*
X183614692Y-69834365D01*
X183609304Y-69833893D01*
X183609301Y-69833893D01*
X183393395Y-69815004D01*
X183388000Y-69814532D01*
X183382605Y-69815004D01*
X183166698Y-69833893D01*
X183166693Y-69833893D01*
X183161308Y-69834365D01*
X183156094Y-69835762D01*
X183156083Y-69835764D01*
X182946736Y-69891858D01*
X182946724Y-69891862D01*
X182941504Y-69893261D01*
X182936599Y-69895547D01*
X182936594Y-69895550D01*
X182740176Y-69987142D01*
X182740172Y-69987144D01*
X182735266Y-69989432D01*
X182730833Y-69992535D01*
X182730826Y-69992540D01*
X182553296Y-70116847D01*
X182553291Y-70116850D01*
X182548861Y-70119953D01*
X182545037Y-70123776D01*
X182545031Y-70123782D01*
X182391782Y-70277031D01*
X182391776Y-70277037D01*
X182387953Y-70280861D01*
X182384850Y-70285291D01*
X182384847Y-70285296D01*
X182260540Y-70462826D01*
X182260535Y-70462833D01*
X182257432Y-70467266D01*
X182255144Y-70472172D01*
X182255142Y-70472176D01*
X182163550Y-70668594D01*
X182163547Y-70668599D01*
X182161261Y-70673504D01*
X182159862Y-70678724D01*
X182159858Y-70678736D01*
X182103764Y-70888083D01*
X182103762Y-70888094D01*
X182102365Y-70893308D01*
X182082532Y-71120000D01*
X182083004Y-71125395D01*
X182092530Y-71234284D01*
X182102365Y-71346692D01*
X182103762Y-71351907D01*
X182103764Y-71351916D01*
X182159858Y-71561263D01*
X182159861Y-71561271D01*
X182161261Y-71566496D01*
X182257432Y-71772734D01*
X182260539Y-71777171D01*
X182260540Y-71777173D01*
X182316821Y-71857551D01*
X182387953Y-71959139D01*
X182548861Y-72120047D01*
X182735266Y-72250568D01*
X182740172Y-72252855D01*
X182740176Y-72252858D01*
X182793274Y-72277618D01*
X182845450Y-72323375D01*
X182864869Y-72390000D01*
X182845450Y-72456625D01*
X182793274Y-72502382D01*
X182740176Y-72527141D01*
X182740163Y-72527148D01*
X182735266Y-72529432D01*
X182730833Y-72532535D01*
X182730826Y-72532540D01*
X182553296Y-72656847D01*
X182553291Y-72656850D01*
X182548861Y-72659953D01*
X182545037Y-72663776D01*
X182545031Y-72663782D01*
X182391782Y-72817031D01*
X182391776Y-72817037D01*
X182387953Y-72820861D01*
X182384850Y-72825291D01*
X182384847Y-72825296D01*
X182260540Y-73002826D01*
X182260535Y-73002833D01*
X182257432Y-73007266D01*
X182255144Y-73012172D01*
X182255142Y-73012176D01*
X182163550Y-73208594D01*
X182163547Y-73208599D01*
X182161261Y-73213504D01*
X182159862Y-73218724D01*
X182159858Y-73218736D01*
X182103764Y-73428083D01*
X182103762Y-73428094D01*
X182102365Y-73433308D01*
X182082532Y-73660000D01*
X182102365Y-73886692D01*
X182103762Y-73891907D01*
X182103764Y-73891916D01*
X182159858Y-74101263D01*
X182159861Y-74101271D01*
X182161261Y-74106496D01*
X182257432Y-74312734D01*
X182260539Y-74317171D01*
X182260540Y-74317173D01*
X182316984Y-74397784D01*
X182387953Y-74499139D01*
X182548861Y-74660047D01*
X182735266Y-74790568D01*
X182740172Y-74792855D01*
X182740176Y-74792858D01*
X182793274Y-74817618D01*
X182845450Y-74863375D01*
X182864869Y-74930000D01*
X182845450Y-74996625D01*
X182793274Y-75042382D01*
X182740176Y-75067141D01*
X182740163Y-75067148D01*
X182735266Y-75069432D01*
X182730833Y-75072535D01*
X182730826Y-75072540D01*
X182553296Y-75196847D01*
X182553291Y-75196850D01*
X182548861Y-75199953D01*
X182545037Y-75203776D01*
X182545031Y-75203782D01*
X182391782Y-75357031D01*
X182391776Y-75357037D01*
X182387953Y-75360861D01*
X182384850Y-75365291D01*
X182384847Y-75365296D01*
X182260540Y-75542826D01*
X182260535Y-75542833D01*
X182257432Y-75547266D01*
X182255144Y-75552172D01*
X182255142Y-75552176D01*
X182163550Y-75748594D01*
X182163547Y-75748599D01*
X182161261Y-75753504D01*
X182159862Y-75758724D01*
X182159858Y-75758736D01*
X182103764Y-75968083D01*
X182103762Y-75968094D01*
X182102365Y-75973308D01*
X182101893Y-75978693D01*
X182101893Y-75978698D01*
X182088849Y-76127794D01*
X182082532Y-76200000D01*
X182083004Y-76205395D01*
X182092530Y-76314284D01*
X182102365Y-76426692D01*
X182103762Y-76431907D01*
X182103764Y-76431916D01*
X182159858Y-76641263D01*
X182159861Y-76641271D01*
X182161261Y-76646496D01*
X182257432Y-76852734D01*
X182260539Y-76857171D01*
X182260540Y-76857173D01*
X182267279Y-76866797D01*
X182387953Y-77039139D01*
X182548861Y-77200047D01*
X182735266Y-77330568D01*
X182740172Y-77332855D01*
X182740176Y-77332858D01*
X182793274Y-77357618D01*
X182845450Y-77403375D01*
X182864869Y-77470000D01*
X182845450Y-77536625D01*
X182793274Y-77582382D01*
X182740176Y-77607141D01*
X182740163Y-77607148D01*
X182735266Y-77609432D01*
X182730833Y-77612535D01*
X182730826Y-77612540D01*
X182553296Y-77736847D01*
X182553291Y-77736850D01*
X182548861Y-77739953D01*
X182545037Y-77743776D01*
X182545031Y-77743782D01*
X182391782Y-77897031D01*
X182391776Y-77897037D01*
X182387953Y-77900861D01*
X182384850Y-77905291D01*
X182384847Y-77905296D01*
X182260540Y-78082826D01*
X182260535Y-78082833D01*
X182257432Y-78087266D01*
X182255144Y-78092172D01*
X182255142Y-78092176D01*
X182163550Y-78288594D01*
X182163547Y-78288599D01*
X182161261Y-78293504D01*
X182159862Y-78298724D01*
X182159858Y-78298736D01*
X182103764Y-78508083D01*
X182103762Y-78508094D01*
X182102365Y-78513308D01*
X182082532Y-78740000D01*
X182102365Y-78966692D01*
X182103762Y-78971907D01*
X182103764Y-78971916D01*
X182159858Y-79181263D01*
X182159861Y-79181271D01*
X182161261Y-79186496D01*
X182257432Y-79392734D01*
X182387953Y-79579139D01*
X182548861Y-79740047D01*
X182735266Y-79870568D01*
X182793276Y-79897618D01*
X182845449Y-79943373D01*
X182864869Y-80009997D01*
X182845451Y-80076622D01*
X182793276Y-80122380D01*
X182740178Y-80147141D01*
X182740173Y-80147143D01*
X182735266Y-80149432D01*
X182730833Y-80152535D01*
X182730826Y-80152540D01*
X182553296Y-80276847D01*
X182553291Y-80276850D01*
X182548861Y-80279953D01*
X182545037Y-80283776D01*
X182545031Y-80283782D01*
X182391782Y-80437031D01*
X182391776Y-80437037D01*
X182387953Y-80440861D01*
X182384850Y-80445291D01*
X182384847Y-80445296D01*
X182327902Y-80526623D01*
X182283584Y-80565489D01*
X182226327Y-80579500D01*
X171728921Y-80579500D01*
X171721433Y-80579274D01*
X171668881Y-80576094D01*
X171668873Y-80576094D01*
X171661394Y-80575642D01*
X171654018Y-80576993D01*
X171654011Y-80576994D01*
X171602228Y-80586483D01*
X171594828Y-80587610D01*
X171542569Y-80593956D01*
X171542565Y-80593956D01*
X171535128Y-80594860D01*
X171528119Y-80597517D01*
X171528114Y-80597519D01*
X171525643Y-80598456D01*
X171504053Y-80604474D01*
X171501452Y-80604950D01*
X171501438Y-80604954D01*
X171494069Y-80606305D01*
X171487232Y-80609381D01*
X171487232Y-80609382D01*
X171439226Y-80630987D01*
X171432310Y-80633851D01*
X171383082Y-80652521D01*
X171383070Y-80652526D01*
X171376070Y-80655182D01*
X171369904Y-80659437D01*
X171369894Y-80659443D01*
X171367717Y-80660946D01*
X171348195Y-80671957D01*
X171345783Y-80673042D01*
X171345771Y-80673048D01*
X171338944Y-80676122D01*
X171333048Y-80680740D01*
X171333043Y-80680744D01*
X171291608Y-80713205D01*
X171285581Y-80717640D01*
X171242245Y-80747554D01*
X171242238Y-80747559D01*
X171236071Y-80751817D01*
X171231102Y-80757425D01*
X171231096Y-80757431D01*
X171196184Y-80796838D01*
X171191051Y-80802290D01*
X161290162Y-90703181D01*
X161249934Y-90730061D01*
X161202481Y-90739500D01*
X154202921Y-90739500D01*
X154195433Y-90739274D01*
X154142881Y-90736094D01*
X154142873Y-90736094D01*
X154135394Y-90735642D01*
X154128018Y-90736993D01*
X154128011Y-90736994D01*
X154076228Y-90746483D01*
X154068828Y-90747610D01*
X154016569Y-90753956D01*
X154016565Y-90753956D01*
X154009128Y-90754860D01*
X154002119Y-90757517D01*
X154002114Y-90757519D01*
X153999643Y-90758456D01*
X153978053Y-90764474D01*
X153975449Y-90764951D01*
X153975438Y-90764954D01*
X153968069Y-90766305D01*
X153961237Y-90769379D01*
X153961233Y-90769381D01*
X153913212Y-90790993D01*
X153906296Y-90793857D01*
X153857082Y-90812522D01*
X153857077Y-90812524D01*
X153850070Y-90815182D01*
X153843907Y-90819435D01*
X153843897Y-90819441D01*
X153841727Y-90820940D01*
X153822185Y-90831962D01*
X153819783Y-90833043D01*
X153819780Y-90833044D01*
X153812943Y-90836122D01*
X153807043Y-90840743D01*
X153807035Y-90840749D01*
X153765597Y-90873213D01*
X153759568Y-90877649D01*
X153716248Y-90907551D01*
X153716236Y-90907560D01*
X153710071Y-90911817D01*
X153705102Y-90917425D01*
X153705096Y-90917431D01*
X153670184Y-90956838D01*
X153665051Y-90962290D01*
X149636290Y-94991051D01*
X149630838Y-94996184D01*
X149591431Y-95031096D01*
X149591425Y-95031102D01*
X149585817Y-95036071D01*
X149581560Y-95042236D01*
X149581551Y-95042248D01*
X149551649Y-95085568D01*
X149547213Y-95091597D01*
X149514749Y-95133035D01*
X149514743Y-95133043D01*
X149510122Y-95138943D01*
X149507044Y-95145780D01*
X149507043Y-95145783D01*
X149505962Y-95148185D01*
X149494940Y-95167727D01*
X149493441Y-95169898D01*
X149493437Y-95169904D01*
X149489182Y-95176070D01*
X149486526Y-95183070D01*
X149486522Y-95183080D01*
X149467853Y-95232305D01*
X149464989Y-95239219D01*
X149443382Y-95287229D01*
X149443379Y-95287235D01*
X149440305Y-95294068D01*
X149438953Y-95301439D01*
X149438951Y-95301449D01*
X149438474Y-95304053D01*
X149432456Y-95325643D01*
X149431519Y-95328114D01*
X149431517Y-95328119D01*
X149428860Y-95335128D01*
X149427956Y-95342565D01*
X149427956Y-95342569D01*
X149421610Y-95394827D01*
X149420483Y-95402226D01*
X149410994Y-95454010D01*
X149410993Y-95454018D01*
X149409642Y-95461394D01*
X149410094Y-95468873D01*
X149410094Y-95468881D01*
X149413274Y-95521433D01*
X149413500Y-95528921D01*
X149413500Y-108141500D01*
X149396887Y-108203500D01*
X149351500Y-108248887D01*
X149289500Y-108265500D01*
X134955519Y-108265500D01*
X134908066Y-108256061D01*
X134867838Y-108229181D01*
X134830837Y-108192180D01*
X134800587Y-108142817D01*
X134796045Y-108085101D01*
X134818200Y-108031614D01*
X134862223Y-107994014D01*
X134918518Y-107980499D01*
X135972561Y-107980499D01*
X135975872Y-107980499D01*
X136035483Y-107974091D01*
X136170331Y-107923796D01*
X136285546Y-107837546D01*
X136371796Y-107722331D01*
X136422091Y-107587483D01*
X136428500Y-107527873D01*
X136428499Y-105832128D01*
X136422091Y-105772517D01*
X136371796Y-105637669D01*
X136285546Y-105522454D01*
X136170331Y-105436204D01*
X136035483Y-105385909D01*
X136027770Y-105385079D01*
X136027767Y-105385079D01*
X136000402Y-105382137D01*
X135944480Y-105361757D01*
X135904497Y-105317667D01*
X135889665Y-105260025D01*
X135903400Y-105202112D01*
X135942536Y-105157273D01*
X135967139Y-105140047D01*
X136128047Y-104979139D01*
X136258568Y-104792734D01*
X136354739Y-104586496D01*
X136413635Y-104366692D01*
X136433468Y-104140000D01*
X136413635Y-103913308D01*
X136354739Y-103693504D01*
X136258568Y-103487266D01*
X136128047Y-103300861D01*
X135967139Y-103139953D01*
X135780734Y-103009432D01*
X135722724Y-102982381D01*
X135670549Y-102936625D01*
X135651130Y-102870000D01*
X135670549Y-102803375D01*
X135722725Y-102757618D01*
X135780734Y-102730568D01*
X135967139Y-102600047D01*
X136128047Y-102439139D01*
X136258568Y-102252734D01*
X136354739Y-102046496D01*
X136413635Y-101826692D01*
X136433468Y-101600000D01*
X136413635Y-101373308D01*
X136354739Y-101153504D01*
X136258568Y-100947266D01*
X136128047Y-100760861D01*
X135967139Y-100599953D01*
X135780734Y-100469432D01*
X135722724Y-100442381D01*
X135670549Y-100396625D01*
X135651130Y-100330000D01*
X135670549Y-100263375D01*
X135722725Y-100217618D01*
X135780734Y-100190568D01*
X135967139Y-100060047D01*
X136128047Y-99899139D01*
X136258568Y-99712734D01*
X136354739Y-99506496D01*
X136413635Y-99286692D01*
X136433468Y-99060000D01*
X136413635Y-98833308D01*
X136380461Y-98709501D01*
X136356141Y-98618736D01*
X136356140Y-98618734D01*
X136354739Y-98613504D01*
X136258568Y-98407266D01*
X136128047Y-98220861D01*
X135967139Y-98059953D01*
X135780734Y-97929432D01*
X135722724Y-97902381D01*
X135670549Y-97856625D01*
X135651130Y-97790000D01*
X135670549Y-97723375D01*
X135722725Y-97677618D01*
X135726804Y-97675716D01*
X135780734Y-97650568D01*
X135967139Y-97520047D01*
X136128047Y-97359139D01*
X136258568Y-97172734D01*
X136354739Y-96966496D01*
X136413635Y-96746692D01*
X136433468Y-96520000D01*
X136413635Y-96293308D01*
X136386971Y-96193795D01*
X136356141Y-96078736D01*
X136356140Y-96078734D01*
X136354739Y-96073504D01*
X136258568Y-95867266D01*
X136128047Y-95680861D01*
X135967139Y-95519953D01*
X135799006Y-95402226D01*
X135785173Y-95392540D01*
X135785171Y-95392539D01*
X135780734Y-95389432D01*
X135775831Y-95387145D01*
X135775823Y-95387141D01*
X135722134Y-95362106D01*
X135669958Y-95316349D01*
X135650539Y-95249723D01*
X135669959Y-95183098D01*
X135722135Y-95137341D01*
X135775585Y-95112417D01*
X135784912Y-95107032D01*
X135962381Y-94982767D01*
X135970647Y-94975830D01*
X136123830Y-94822647D01*
X136130767Y-94814381D01*
X136255032Y-94636912D01*
X136260420Y-94627580D01*
X136351977Y-94431234D01*
X136355669Y-94421092D01*
X136403179Y-94243780D01*
X136403547Y-94232551D01*
X136392605Y-94230000D01*
X133863395Y-94230000D01*
X133852452Y-94232551D01*
X133852820Y-94243780D01*
X133900330Y-94421092D01*
X133904022Y-94431234D01*
X133995579Y-94627580D01*
X134000967Y-94636912D01*
X134125232Y-94814381D01*
X134132169Y-94822647D01*
X134285352Y-94975830D01*
X134293618Y-94982767D01*
X134471087Y-95107032D01*
X134480423Y-95112422D01*
X134533864Y-95137342D01*
X134586040Y-95183098D01*
X134605460Y-95249723D01*
X134586041Y-95316348D01*
X134533865Y-95362106D01*
X134475266Y-95389432D01*
X134470833Y-95392535D01*
X134470826Y-95392540D01*
X134293296Y-95516847D01*
X134293291Y-95516850D01*
X134288861Y-95519953D01*
X134285037Y-95523776D01*
X134285031Y-95523782D01*
X134131782Y-95677031D01*
X134131776Y-95677037D01*
X134127953Y-95680861D01*
X134124850Y-95685291D01*
X134124847Y-95685296D01*
X134000540Y-95862826D01*
X134000535Y-95862833D01*
X133997432Y-95867266D01*
X133995144Y-95872172D01*
X133995142Y-95872176D01*
X133903550Y-96068594D01*
X133903547Y-96068599D01*
X133901261Y-96073504D01*
X133899862Y-96078724D01*
X133899858Y-96078736D01*
X133843764Y-96288083D01*
X133843762Y-96288094D01*
X133842365Y-96293308D01*
X133841893Y-96298693D01*
X133841893Y-96298698D01*
X133834263Y-96385910D01*
X133822532Y-96520000D01*
X133842365Y-96746692D01*
X133843762Y-96751907D01*
X133843764Y-96751916D01*
X133899858Y-96961263D01*
X133899861Y-96961271D01*
X133901261Y-96966496D01*
X133997432Y-97172734D01*
X134000539Y-97177171D01*
X134000540Y-97177173D01*
X134020232Y-97205296D01*
X134127953Y-97359139D01*
X134288861Y-97520047D01*
X134475266Y-97650568D01*
X134480172Y-97652855D01*
X134480176Y-97652858D01*
X134533274Y-97677618D01*
X134585450Y-97723375D01*
X134604869Y-97790000D01*
X134585450Y-97856625D01*
X134533274Y-97902382D01*
X134480176Y-97927141D01*
X134480163Y-97927148D01*
X134475266Y-97929432D01*
X134470833Y-97932535D01*
X134470826Y-97932540D01*
X134293296Y-98056847D01*
X134293291Y-98056850D01*
X134288861Y-98059953D01*
X134285037Y-98063776D01*
X134285031Y-98063782D01*
X134131782Y-98217031D01*
X134131776Y-98217037D01*
X134127953Y-98220861D01*
X134124850Y-98225291D01*
X134124847Y-98225296D01*
X134000540Y-98402826D01*
X134000535Y-98402833D01*
X133997432Y-98407266D01*
X133995144Y-98412172D01*
X133995142Y-98412176D01*
X133903550Y-98608594D01*
X133903547Y-98608599D01*
X133901261Y-98613504D01*
X133899862Y-98618724D01*
X133899858Y-98618736D01*
X133843764Y-98828083D01*
X133843762Y-98828094D01*
X133842365Y-98833308D01*
X133841893Y-98838693D01*
X133841893Y-98838698D01*
X133836080Y-98905144D01*
X133822532Y-99060000D01*
X133823004Y-99065395D01*
X133834755Y-99199716D01*
X133842365Y-99286692D01*
X133843762Y-99291907D01*
X133843764Y-99291916D01*
X133899858Y-99501263D01*
X133899861Y-99501271D01*
X133901261Y-99506496D01*
X133997432Y-99712734D01*
X134000539Y-99717171D01*
X134000540Y-99717173D01*
X134020232Y-99745296D01*
X134127953Y-99899139D01*
X134288861Y-100060047D01*
X134475266Y-100190568D01*
X134480172Y-100192855D01*
X134480176Y-100192858D01*
X134533274Y-100217618D01*
X134585450Y-100263375D01*
X134604869Y-100330000D01*
X134585450Y-100396625D01*
X134533274Y-100442382D01*
X134480176Y-100467141D01*
X134480163Y-100467148D01*
X134475266Y-100469432D01*
X134470833Y-100472535D01*
X134470826Y-100472540D01*
X134293296Y-100596847D01*
X134293291Y-100596850D01*
X134288861Y-100599953D01*
X134285037Y-100603776D01*
X134285031Y-100603782D01*
X134131782Y-100757031D01*
X134131776Y-100757037D01*
X134127953Y-100760861D01*
X134124850Y-100765291D01*
X134124847Y-100765296D01*
X134000540Y-100942826D01*
X134000535Y-100942833D01*
X133997432Y-100947266D01*
X133995144Y-100952172D01*
X133995142Y-100952176D01*
X133903550Y-101148594D01*
X133903547Y-101148599D01*
X133901261Y-101153504D01*
X133899862Y-101158724D01*
X133899858Y-101158736D01*
X133843764Y-101368083D01*
X133843762Y-101368094D01*
X133842365Y-101373308D01*
X133822532Y-101600000D01*
X133842365Y-101826692D01*
X133843762Y-101831907D01*
X133843764Y-101831916D01*
X133899858Y-102041263D01*
X133899861Y-102041271D01*
X133901261Y-102046496D01*
X133997432Y-102252734D01*
X134000539Y-102257171D01*
X134000540Y-102257173D01*
X134020232Y-102285296D01*
X134127953Y-102439139D01*
X134288861Y-102600047D01*
X134475266Y-102730568D01*
X134533276Y-102757618D01*
X134585449Y-102803373D01*
X134604869Y-102869997D01*
X134585451Y-102936622D01*
X134533276Y-102982380D01*
X134480178Y-103007141D01*
X134480173Y-103007143D01*
X134475266Y-103009432D01*
X134470833Y-103012535D01*
X134470826Y-103012540D01*
X134293296Y-103136847D01*
X134293291Y-103136850D01*
X134288861Y-103139953D01*
X134285037Y-103143776D01*
X134285031Y-103143782D01*
X134131782Y-103297031D01*
X134131776Y-103297037D01*
X134127953Y-103300861D01*
X134124850Y-103305291D01*
X134124847Y-103305296D01*
X134000540Y-103482826D01*
X134000535Y-103482833D01*
X133997432Y-103487266D01*
X133995144Y-103492172D01*
X133995142Y-103492176D01*
X133903550Y-103688594D01*
X133903547Y-103688599D01*
X133901261Y-103693504D01*
X133899862Y-103698724D01*
X133899858Y-103698736D01*
X133843764Y-103908083D01*
X133843762Y-103908094D01*
X133842365Y-103913308D01*
X133822532Y-104140000D01*
X133842365Y-104366692D01*
X133843762Y-104371907D01*
X133843764Y-104371916D01*
X133899858Y-104581263D01*
X133899861Y-104581271D01*
X133901261Y-104586496D01*
X133997432Y-104792734D01*
X134000539Y-104797171D01*
X134000540Y-104797173D01*
X134020232Y-104825296D01*
X134127953Y-104979139D01*
X134288861Y-105140047D01*
X134313463Y-105157273D01*
X134352600Y-105202114D01*
X134366334Y-105260028D01*
X134351501Y-105317669D01*
X134311517Y-105361758D01*
X134255595Y-105382138D01*
X134228230Y-105385079D01*
X134228223Y-105385080D01*
X134220517Y-105385909D01*
X134213252Y-105388618D01*
X134213246Y-105388620D01*
X134093980Y-105433104D01*
X134093978Y-105433104D01*
X134085669Y-105436204D01*
X134078572Y-105441516D01*
X134078568Y-105441519D01*
X133977550Y-105517141D01*
X133977546Y-105517144D01*
X133970454Y-105522454D01*
X133965144Y-105529546D01*
X133965141Y-105529550D01*
X133889519Y-105630568D01*
X133889516Y-105630572D01*
X133884204Y-105637669D01*
X133881104Y-105645978D01*
X133881104Y-105645980D01*
X133836620Y-105765247D01*
X133836619Y-105765250D01*
X133833909Y-105772517D01*
X133833079Y-105780227D01*
X133833079Y-105780232D01*
X133827855Y-105828819D01*
X133827854Y-105828831D01*
X133827500Y-105832127D01*
X133827500Y-105835449D01*
X133827500Y-106889481D01*
X133813985Y-106945776D01*
X133776385Y-106989799D01*
X133722898Y-107011954D01*
X133665182Y-107007412D01*
X133615819Y-106977162D01*
X123926819Y-97288162D01*
X123899939Y-97247934D01*
X123890500Y-97200481D01*
X123890500Y-95532578D01*
X126261500Y-95532578D01*
X126261501Y-95535872D01*
X126261853Y-95539150D01*
X126261854Y-95539161D01*
X126267079Y-95587768D01*
X126267080Y-95587773D01*
X126267909Y-95595483D01*
X126270619Y-95602749D01*
X126270620Y-95602753D01*
X126288203Y-95649894D01*
X126318204Y-95730331D01*
X126404454Y-95845546D01*
X126519669Y-95931796D01*
X126654517Y-95982091D01*
X126714127Y-95988500D01*
X128809872Y-95988499D01*
X128869483Y-95982091D01*
X129004331Y-95931796D01*
X129119546Y-95845546D01*
X129205796Y-95730331D01*
X129256091Y-95595483D01*
X129262500Y-95535873D01*
X129262499Y-93727448D01*
X133852452Y-93727448D01*
X133863395Y-93730000D01*
X134861674Y-93730000D01*
X134874549Y-93726549D01*
X134878000Y-93713674D01*
X135378000Y-93713674D01*
X135381450Y-93726549D01*
X135394326Y-93730000D01*
X136392605Y-93730000D01*
X136403547Y-93727448D01*
X136403179Y-93716219D01*
X136355669Y-93538907D01*
X136351977Y-93528765D01*
X136260420Y-93332419D01*
X136255032Y-93323087D01*
X136130767Y-93145618D01*
X136123830Y-93137352D01*
X135970647Y-92984169D01*
X135962381Y-92977232D01*
X135784912Y-92852967D01*
X135775583Y-92847581D01*
X135721542Y-92822381D01*
X135669367Y-92776623D01*
X135649948Y-92709997D01*
X135669368Y-92643372D01*
X135721545Y-92597616D01*
X135775581Y-92572419D01*
X135784912Y-92567032D01*
X135962381Y-92442767D01*
X135970647Y-92435830D01*
X136123830Y-92282647D01*
X136130767Y-92274381D01*
X136255032Y-92096912D01*
X136260420Y-92087580D01*
X136351977Y-91891234D01*
X136355669Y-91881092D01*
X136403179Y-91703780D01*
X136403547Y-91692551D01*
X136392605Y-91690000D01*
X135394326Y-91690000D01*
X135381450Y-91693450D01*
X135378000Y-91706326D01*
X135378000Y-93713674D01*
X134878000Y-93713674D01*
X134878000Y-91706326D01*
X134874549Y-91693450D01*
X134861674Y-91690000D01*
X133863395Y-91690000D01*
X133852452Y-91692551D01*
X133852820Y-91703780D01*
X133900330Y-91881092D01*
X133904022Y-91891234D01*
X133995579Y-92087580D01*
X134000967Y-92096912D01*
X134125232Y-92274381D01*
X134132169Y-92282647D01*
X134285352Y-92435830D01*
X134293618Y-92442767D01*
X134471087Y-92567032D01*
X134480419Y-92572420D01*
X134534456Y-92597618D01*
X134586632Y-92643375D01*
X134606051Y-92710000D01*
X134586632Y-92776625D01*
X134534456Y-92822382D01*
X134480419Y-92847579D01*
X134471087Y-92852967D01*
X134293618Y-92977232D01*
X134285352Y-92984169D01*
X134132169Y-93137352D01*
X134125232Y-93145618D01*
X134000967Y-93323087D01*
X133995579Y-93332419D01*
X133904022Y-93528765D01*
X133900330Y-93538907D01*
X133852820Y-93716219D01*
X133852452Y-93727448D01*
X129262499Y-93727448D01*
X129262499Y-93440128D01*
X129256091Y-93380517D01*
X129205796Y-93245669D01*
X129119546Y-93130454D01*
X129107586Y-93121501D01*
X129011431Y-93049519D01*
X129011430Y-93049518D01*
X129004331Y-93044204D01*
X128869483Y-92993909D01*
X128861770Y-92993079D01*
X128861767Y-92993079D01*
X128813180Y-92987855D01*
X128813169Y-92987854D01*
X128809873Y-92987500D01*
X128806550Y-92987500D01*
X126717439Y-92987500D01*
X126717420Y-92987500D01*
X126714128Y-92987501D01*
X126710850Y-92987853D01*
X126710838Y-92987854D01*
X126662231Y-92993079D01*
X126662225Y-92993080D01*
X126654517Y-92993909D01*
X126647252Y-92996618D01*
X126647246Y-92996620D01*
X126527980Y-93041104D01*
X126527978Y-93041104D01*
X126519669Y-93044204D01*
X126512572Y-93049516D01*
X126512568Y-93049519D01*
X126411550Y-93125141D01*
X126411546Y-93125144D01*
X126404454Y-93130454D01*
X126399144Y-93137546D01*
X126399141Y-93137550D01*
X126323519Y-93238568D01*
X126323516Y-93238572D01*
X126318204Y-93245669D01*
X126315104Y-93253978D01*
X126315104Y-93253980D01*
X126270620Y-93373247D01*
X126270619Y-93373250D01*
X126267909Y-93380517D01*
X126267079Y-93388227D01*
X126267079Y-93388232D01*
X126261855Y-93436819D01*
X126261854Y-93436831D01*
X126261500Y-93440127D01*
X126261500Y-93443448D01*
X126261500Y-93443449D01*
X126261500Y-95532560D01*
X126261500Y-95532578D01*
X123890500Y-95532578D01*
X123890500Y-93071392D01*
X123898749Y-93026920D01*
X123915703Y-92999279D01*
X123914363Y-92998306D01*
X123918184Y-92993045D01*
X123922533Y-92988216D01*
X124017179Y-92824284D01*
X124075674Y-92644256D01*
X124095460Y-92456000D01*
X124075674Y-92267744D01*
X124017179Y-92087716D01*
X123922533Y-91923784D01*
X123795871Y-91783112D01*
X123790613Y-91779292D01*
X123790611Y-91779290D01*
X123647988Y-91675669D01*
X123647987Y-91675668D01*
X123642730Y-91671849D01*
X123636792Y-91669205D01*
X123475745Y-91597501D01*
X123475740Y-91597499D01*
X123469803Y-91594856D01*
X123463444Y-91593504D01*
X123463440Y-91593503D01*
X123291008Y-91556852D01*
X123291005Y-91556851D01*
X123284646Y-91555500D01*
X123095354Y-91555500D01*
X123088995Y-91556851D01*
X123088991Y-91556852D01*
X122916559Y-91593503D01*
X122916552Y-91593505D01*
X122910197Y-91594856D01*
X122904262Y-91597498D01*
X122904254Y-91597501D01*
X122743207Y-91669205D01*
X122743202Y-91669207D01*
X122737270Y-91671849D01*
X122732016Y-91675665D01*
X122732011Y-91675669D01*
X122589388Y-91779290D01*
X122589381Y-91779295D01*
X122584129Y-91783112D01*
X122579784Y-91787937D01*
X122579779Y-91787942D01*
X122461813Y-91918956D01*
X122461808Y-91918962D01*
X122457467Y-91923784D01*
X122454222Y-91929404D01*
X122454218Y-91929410D01*
X122366069Y-92082089D01*
X122366066Y-92082094D01*
X122362821Y-92087716D01*
X122360815Y-92093888D01*
X122360813Y-92093894D01*
X122306333Y-92261564D01*
X122306331Y-92261573D01*
X122304326Y-92267744D01*
X122303648Y-92274194D01*
X122303646Y-92274204D01*
X122287723Y-92425716D01*
X122284540Y-92456000D01*
X120989155Y-92456000D01*
X124545156Y-88900000D01*
X133822532Y-88900000D01*
X133842365Y-89126692D01*
X133843762Y-89131907D01*
X133843764Y-89131916D01*
X133899858Y-89341263D01*
X133899861Y-89341271D01*
X133901261Y-89346496D01*
X133997432Y-89552734D01*
X134000539Y-89557171D01*
X134000540Y-89557173D01*
X134056308Y-89636819D01*
X134127953Y-89739139D01*
X134288861Y-89900047D01*
X134475266Y-90030568D01*
X134480175Y-90032857D01*
X134480180Y-90032860D01*
X134533864Y-90057893D01*
X134586040Y-90103649D01*
X134605460Y-90170274D01*
X134586041Y-90236899D01*
X134533866Y-90282657D01*
X134480416Y-90307581D01*
X134471087Y-90312967D01*
X134293618Y-90437232D01*
X134285352Y-90444169D01*
X134132169Y-90597352D01*
X134125232Y-90605618D01*
X134000967Y-90783087D01*
X133995579Y-90792419D01*
X133904022Y-90988765D01*
X133900330Y-90998907D01*
X133852820Y-91176219D01*
X133852452Y-91187448D01*
X133863395Y-91190000D01*
X136392605Y-91190000D01*
X136403547Y-91187448D01*
X136403179Y-91176219D01*
X136355669Y-90998907D01*
X136351977Y-90988765D01*
X136260420Y-90792419D01*
X136255032Y-90783087D01*
X136130767Y-90605618D01*
X136123830Y-90597352D01*
X135970647Y-90444169D01*
X135962381Y-90437232D01*
X135784912Y-90312967D01*
X135775579Y-90307579D01*
X135722134Y-90282657D01*
X135669958Y-90236899D01*
X135650539Y-90170274D01*
X135669959Y-90103649D01*
X135722131Y-90057894D01*
X135780734Y-90030568D01*
X135934466Y-89922924D01*
X135968301Y-89906239D01*
X136005588Y-89900500D01*
X160513722Y-89900500D01*
X160516862Y-89900539D01*
X160604363Y-89902757D01*
X160662458Y-89892344D01*
X160671739Y-89891042D01*
X160730438Y-89885074D01*
X160759464Y-89875966D01*
X160774713Y-89872224D01*
X160804653Y-89866858D01*
X160859423Y-89844980D01*
X160868303Y-89841818D01*
X160924588Y-89824159D01*
X160951194Y-89809390D01*
X160965362Y-89802662D01*
X160993617Y-89791377D01*
X161042891Y-89758902D01*
X161050910Y-89754043D01*
X161102502Y-89725409D01*
X161113961Y-89715570D01*
X161125583Y-89705594D01*
X161138125Y-89696137D01*
X161163519Y-89679402D01*
X161205238Y-89637681D01*
X161212122Y-89631301D01*
X161256895Y-89592866D01*
X161275520Y-89568802D01*
X161285879Y-89557040D01*
X175195409Y-75647510D01*
X175197579Y-75645394D01*
X175261053Y-75585059D01*
X175294763Y-75536624D01*
X175300405Y-75529141D01*
X175337697Y-75483408D01*
X175351781Y-75456443D01*
X175359909Y-75443025D01*
X175377295Y-75418049D01*
X175400568Y-75363815D01*
X175404595Y-75355336D01*
X175431909Y-75303049D01*
X175440275Y-75273808D01*
X175445539Y-75259019D01*
X175457540Y-75231058D01*
X175469421Y-75173238D01*
X175471650Y-75164155D01*
X175487886Y-75107418D01*
X175490195Y-75077082D01*
X175492376Y-75061539D01*
X175497234Y-75037901D01*
X175497233Y-75037901D01*
X175498500Y-75031741D01*
X175498500Y-74972756D01*
X175498858Y-74963340D01*
X175501397Y-74929999D01*
X175503337Y-74904524D01*
X175499493Y-74874348D01*
X175498500Y-74858683D01*
X175498500Y-64981783D01*
X175507939Y-64934330D01*
X175534819Y-64894102D01*
X180972101Y-59456819D01*
X181012329Y-59429939D01*
X181059782Y-59420500D01*
X183831542Y-59420500D01*
X183893542Y-59437113D01*
X183938929Y-59482500D01*
X183955542Y-59544500D01*
X183955542Y-59667872D01*
X183955894Y-59671150D01*
X183955895Y-59671161D01*
X183961120Y-59719768D01*
X183961121Y-59719773D01*
X183961950Y-59727483D01*
X183964660Y-59734749D01*
X183964661Y-59734753D01*
X183980443Y-59777065D01*
X184012245Y-59862331D01*
X184098495Y-59977546D01*
X184213710Y-60063796D01*
X184348558Y-60114091D01*
X184408168Y-60120500D01*
X186903913Y-60120499D01*
X186963524Y-60114091D01*
X187098372Y-60063796D01*
X187213587Y-59977546D01*
X187299837Y-59862331D01*
X187328163Y-59786385D01*
X192146610Y-59786385D01*
X192154157Y-59794444D01*
X192299821Y-59893756D01*
X192307841Y-59898386D01*
X192529040Y-60004910D01*
X192537650Y-60008289D01*
X192772264Y-60080658D01*
X192781280Y-60082716D01*
X193024058Y-60119308D01*
X193033281Y-60120000D01*
X193278801Y-60120000D01*
X193288023Y-60119308D01*
X193530801Y-60082716D01*
X193539817Y-60080658D01*
X193774431Y-60008289D01*
X193783042Y-60004910D01*
X194004241Y-59898386D01*
X194012260Y-59893756D01*
X194157922Y-59794444D01*
X194165470Y-59786385D01*
X194159553Y-59777065D01*
X193167583Y-58785095D01*
X193156041Y-58778431D01*
X193144498Y-58785095D01*
X192152527Y-59777065D01*
X192146610Y-59786385D01*
X187328163Y-59786385D01*
X187350132Y-59727483D01*
X187356541Y-59667873D01*
X187356541Y-58424630D01*
X191451621Y-58424630D01*
X191469968Y-58669453D01*
X191471347Y-58678606D01*
X191525977Y-58917957D01*
X191528710Y-58926817D01*
X191618401Y-59155346D01*
X191622420Y-59163692D01*
X191745176Y-59376310D01*
X191750388Y-59383955D01*
X191778578Y-59419305D01*
X191789814Y-59427278D01*
X191801873Y-59420613D01*
X192790945Y-58431542D01*
X192797609Y-58420000D01*
X193514472Y-58420000D01*
X193521136Y-58431542D01*
X194510208Y-59420614D01*
X194522265Y-59427278D01*
X194533502Y-59419306D01*
X194561694Y-59383954D01*
X194566904Y-59376312D01*
X194689661Y-59163692D01*
X194693680Y-59155346D01*
X194783371Y-58926817D01*
X194786104Y-58917957D01*
X194840734Y-58678606D01*
X194842113Y-58669453D01*
X194860461Y-58424630D01*
X194860461Y-58415370D01*
X194842113Y-58170546D01*
X194840734Y-58161393D01*
X194786104Y-57922042D01*
X194783371Y-57913182D01*
X194693680Y-57684653D01*
X194689661Y-57676307D01*
X194566905Y-57463689D01*
X194561693Y-57456044D01*
X194533501Y-57420691D01*
X194522266Y-57412720D01*
X194510208Y-57419384D01*
X193521136Y-58408457D01*
X193514472Y-58420000D01*
X192797609Y-58420000D01*
X192790945Y-58408457D01*
X191801873Y-57419385D01*
X191789814Y-57412721D01*
X191778579Y-57420693D01*
X191750384Y-57456048D01*
X191745178Y-57463685D01*
X191622420Y-57676307D01*
X191618401Y-57684653D01*
X191528710Y-57913182D01*
X191525977Y-57922042D01*
X191471347Y-58161393D01*
X191469968Y-58170546D01*
X191451621Y-58415370D01*
X191451621Y-58424630D01*
X187356541Y-58424630D01*
X187356540Y-57172128D01*
X187350132Y-57112517D01*
X187328162Y-57053613D01*
X192146609Y-57053613D01*
X192152525Y-57062931D01*
X193144498Y-58054904D01*
X193156041Y-58061568D01*
X193167583Y-58054904D01*
X194159553Y-57062933D01*
X194165470Y-57053613D01*
X194157922Y-57045554D01*
X194012261Y-56946243D01*
X194004241Y-56941613D01*
X193783042Y-56835089D01*
X193774431Y-56831710D01*
X193539817Y-56759341D01*
X193530801Y-56757283D01*
X193288023Y-56720691D01*
X193278801Y-56720000D01*
X193033281Y-56720000D01*
X193024058Y-56720691D01*
X192781280Y-56757283D01*
X192772264Y-56759341D01*
X192537650Y-56831710D01*
X192529040Y-56835089D01*
X192307849Y-56941609D01*
X192299816Y-56946247D01*
X192154157Y-57045555D01*
X192146609Y-57053613D01*
X187328162Y-57053613D01*
X187299837Y-56977669D01*
X187213587Y-56862454D01*
X187200203Y-56852435D01*
X187105472Y-56781519D01*
X187105471Y-56781518D01*
X187098372Y-56776204D01*
X186963524Y-56725909D01*
X186955811Y-56725079D01*
X186955808Y-56725079D01*
X186907221Y-56719855D01*
X186907210Y-56719854D01*
X186903914Y-56719500D01*
X186900591Y-56719500D01*
X184411480Y-56719500D01*
X184411461Y-56719500D01*
X184408169Y-56719501D01*
X184404891Y-56719853D01*
X184404879Y-56719854D01*
X184356272Y-56725079D01*
X184356266Y-56725080D01*
X184348558Y-56725909D01*
X184341293Y-56728618D01*
X184341287Y-56728620D01*
X184222021Y-56773104D01*
X184222019Y-56773104D01*
X184213710Y-56776204D01*
X184206613Y-56781516D01*
X184206609Y-56781519D01*
X184105591Y-56857141D01*
X184105587Y-56857144D01*
X184098495Y-56862454D01*
X184093185Y-56869546D01*
X184093182Y-56869550D01*
X184017560Y-56970568D01*
X184017557Y-56970572D01*
X184012245Y-56977669D01*
X184009145Y-56985978D01*
X184009145Y-56985980D01*
X183964661Y-57105247D01*
X183964660Y-57105250D01*
X183961950Y-57112517D01*
X183961120Y-57120227D01*
X183961120Y-57120232D01*
X183955896Y-57168819D01*
X183955895Y-57168831D01*
X183955541Y-57172127D01*
X183955541Y-57175449D01*
X183955541Y-57295500D01*
X183938928Y-57357500D01*
X183893541Y-57402887D01*
X183831541Y-57419500D01*
X180608278Y-57419500D01*
X180605137Y-57419460D01*
X180523924Y-57417402D01*
X180523921Y-57417402D01*
X180517637Y-57417243D01*
X180505267Y-57419460D01*
X180459578Y-57427648D01*
X180450254Y-57428955D01*
X180397821Y-57434288D01*
X180397807Y-57434290D01*
X180391562Y-57434926D01*
X180385568Y-57436806D01*
X180385565Y-57436807D01*
X180362526Y-57444035D01*
X180347292Y-57447774D01*
X180323539Y-57452032D01*
X180317347Y-57453142D01*
X180311514Y-57455471D01*
X180311496Y-57455477D01*
X180262567Y-57475021D01*
X180253697Y-57478179D01*
X180203411Y-57493957D01*
X180203396Y-57493963D01*
X180197412Y-57495841D01*
X180191922Y-57498887D01*
X180191915Y-57498891D01*
X180170809Y-57510605D01*
X180156640Y-57517334D01*
X180134225Y-57526288D01*
X180134213Y-57526293D01*
X180128383Y-57528623D01*
X180123136Y-57532080D01*
X180123134Y-57532082D01*
X180079133Y-57561080D01*
X180071081Y-57565958D01*
X180024999Y-57591537D01*
X180024994Y-57591539D01*
X180019498Y-57594591D01*
X180014733Y-57598681D01*
X180014725Y-57598687D01*
X179996406Y-57614413D01*
X179983884Y-57623854D01*
X179963739Y-57637132D01*
X179963731Y-57637137D01*
X179958482Y-57640598D01*
X179954034Y-57645045D01*
X179954030Y-57645049D01*
X179916781Y-57682297D01*
X179909875Y-57688698D01*
X179869875Y-57723038D01*
X179869869Y-57723043D01*
X179865105Y-57727134D01*
X179861260Y-57732100D01*
X179861260Y-57732101D01*
X179846480Y-57751195D01*
X179836108Y-57762970D01*
X173800646Y-63798432D01*
X173798398Y-63800624D01*
X173734947Y-63860941D01*
X173731359Y-63866095D01*
X173731352Y-63866104D01*
X173701244Y-63909361D01*
X173695574Y-63916881D01*
X173662274Y-63957721D01*
X173662271Y-63957724D01*
X173658302Y-63962593D01*
X173655396Y-63968155D01*
X173655388Y-63968168D01*
X173644210Y-63989566D01*
X173636082Y-64002982D01*
X173622300Y-64022784D01*
X173622295Y-64022792D01*
X173618705Y-64027951D01*
X173616228Y-64033721D01*
X173616225Y-64033728D01*
X173595439Y-64082165D01*
X173591399Y-64090671D01*
X173564091Y-64142951D01*
X173562363Y-64148989D01*
X173562360Y-64148997D01*
X173555720Y-64172201D01*
X173550459Y-64186978D01*
X173540942Y-64209157D01*
X173538460Y-64214942D01*
X173537194Y-64221097D01*
X173537192Y-64221107D01*
X173526587Y-64272712D01*
X173524342Y-64281859D01*
X173509842Y-64332534D01*
X173509839Y-64332547D01*
X173508113Y-64338582D01*
X173507636Y-64344842D01*
X173507635Y-64344849D01*
X173505801Y-64368929D01*
X173503622Y-64384463D01*
X173498766Y-64408097D01*
X173497500Y-64414259D01*
X173497500Y-64420550D01*
X173497500Y-64473241D01*
X173497142Y-64482656D01*
X173493140Y-64535205D01*
X173493140Y-64535210D01*
X173492663Y-64541476D01*
X173493456Y-64547709D01*
X173493457Y-64547715D01*
X173496506Y-64571651D01*
X173497500Y-64587317D01*
X173497500Y-74464217D01*
X173488061Y-74511670D01*
X173461181Y-74551898D01*
X160149899Y-87863181D01*
X160109671Y-87890061D01*
X160062218Y-87899500D01*
X136005588Y-87899500D01*
X135968301Y-87893761D01*
X135934465Y-87877075D01*
X135914622Y-87863181D01*
X135780734Y-87769432D01*
X135574496Y-87673261D01*
X135569271Y-87671861D01*
X135569263Y-87671858D01*
X135359916Y-87615764D01*
X135359907Y-87615762D01*
X135354692Y-87614365D01*
X135349304Y-87613893D01*
X135349301Y-87613893D01*
X135133395Y-87595004D01*
X135128000Y-87594532D01*
X135122605Y-87595004D01*
X134906698Y-87613893D01*
X134906693Y-87613893D01*
X134901308Y-87614365D01*
X134896094Y-87615762D01*
X134896083Y-87615764D01*
X134686736Y-87671858D01*
X134686724Y-87671862D01*
X134681504Y-87673261D01*
X134676599Y-87675547D01*
X134676594Y-87675550D01*
X134480176Y-87767142D01*
X134480172Y-87767144D01*
X134475266Y-87769432D01*
X134470833Y-87772535D01*
X134470826Y-87772540D01*
X134293296Y-87896847D01*
X134293291Y-87896850D01*
X134288861Y-87899953D01*
X134285037Y-87903776D01*
X134285031Y-87903782D01*
X134131782Y-88057031D01*
X134131776Y-88057037D01*
X134127953Y-88060861D01*
X134124850Y-88065291D01*
X134124847Y-88065296D01*
X134000540Y-88242826D01*
X134000535Y-88242833D01*
X133997432Y-88247266D01*
X133995144Y-88252172D01*
X133995142Y-88252176D01*
X133903550Y-88448594D01*
X133903547Y-88448599D01*
X133901261Y-88453504D01*
X133899862Y-88458724D01*
X133899858Y-88458736D01*
X133843764Y-88668083D01*
X133843762Y-88668094D01*
X133842365Y-88673308D01*
X133841893Y-88678693D01*
X133841893Y-88678698D01*
X133825841Y-88862182D01*
X133822532Y-88900000D01*
X124545156Y-88900000D01*
X126856337Y-86588819D01*
X126896566Y-86561939D01*
X126944019Y-86552500D01*
X151359079Y-86552500D01*
X151366566Y-86552725D01*
X151426606Y-86556358D01*
X151485782Y-86545513D01*
X151493181Y-86544387D01*
X151552872Y-86537140D01*
X151562332Y-86533551D01*
X151583959Y-86527522D01*
X151593932Y-86525695D01*
X151648808Y-86500996D01*
X151655673Y-86498152D01*
X151711930Y-86476818D01*
X151720264Y-86471064D01*
X151739821Y-86460034D01*
X151749057Y-86455878D01*
X151796413Y-86418775D01*
X151802420Y-86414355D01*
X151851929Y-86380183D01*
X151891822Y-86335151D01*
X151896924Y-86329731D01*
X154494975Y-83731681D01*
X154523486Y-83710392D01*
X154556869Y-83698075D01*
X154711803Y-83665144D01*
X154884730Y-83588151D01*
X155037871Y-83476888D01*
X155164533Y-83336216D01*
X155259179Y-83172284D01*
X155317674Y-82992256D01*
X155337460Y-82804000D01*
X155317674Y-82615744D01*
X155259179Y-82435716D01*
X155164533Y-82271784D01*
X155037871Y-82131112D01*
X155032613Y-82127292D01*
X155032611Y-82127290D01*
X154889988Y-82023669D01*
X154889987Y-82023668D01*
X154884730Y-82019849D01*
X154827821Y-81994511D01*
X154717745Y-81945501D01*
X154717740Y-81945499D01*
X154711803Y-81942856D01*
X154705444Y-81941504D01*
X154705440Y-81941503D01*
X154533008Y-81904852D01*
X154533005Y-81904851D01*
X154526646Y-81903500D01*
X154337354Y-81903500D01*
X154330995Y-81904851D01*
X154330991Y-81904852D01*
X154158559Y-81941503D01*
X154158552Y-81941505D01*
X154152197Y-81942856D01*
X154146262Y-81945498D01*
X154146254Y-81945501D01*
X153985207Y-82017205D01*
X153985202Y-82017207D01*
X153979270Y-82019849D01*
X153974016Y-82023665D01*
X153974011Y-82023669D01*
X153831388Y-82127290D01*
X153831381Y-82127295D01*
X153826129Y-82131112D01*
X153821784Y-82135937D01*
X153821779Y-82135942D01*
X153703813Y-82266956D01*
X153703808Y-82266962D01*
X153699467Y-82271784D01*
X153696222Y-82277404D01*
X153696218Y-82277410D01*
X153608069Y-82430089D01*
X153608066Y-82430094D01*
X153604821Y-82435716D01*
X153602815Y-82441888D01*
X153602813Y-82441894D01*
X153553631Y-82593261D01*
X153546326Y-82615744D01*
X153545647Y-82622196D01*
X153545646Y-82622205D01*
X153541135Y-82665128D01*
X153529734Y-82705549D01*
X153505495Y-82739846D01*
X151130162Y-85115181D01*
X151089934Y-85142061D01*
X151042481Y-85151500D01*
X135887051Y-85151500D01*
X135826935Y-85135953D01*
X135781893Y-85093210D01*
X135763221Y-85033989D01*
X135775601Y-84973142D01*
X135815928Y-84925925D01*
X135967139Y-84820047D01*
X136128047Y-84659139D01*
X136258568Y-84472734D01*
X136354739Y-84266496D01*
X136413635Y-84046692D01*
X136433468Y-83820000D01*
X136413635Y-83593308D01*
X136354739Y-83373504D01*
X136258568Y-83167266D01*
X136128047Y-82980861D01*
X135967139Y-82819953D01*
X135814029Y-82712745D01*
X135785173Y-82692540D01*
X135785171Y-82692539D01*
X135780734Y-82689432D01*
X135722724Y-82662381D01*
X135670549Y-82616625D01*
X135651130Y-82550000D01*
X135670549Y-82483375D01*
X135722725Y-82437618D01*
X135726804Y-82435716D01*
X135780734Y-82410568D01*
X135967139Y-82280047D01*
X136128047Y-82119139D01*
X136258568Y-81932734D01*
X136354739Y-81726496D01*
X136413635Y-81506692D01*
X136433468Y-81280000D01*
X136413635Y-81053308D01*
X136354739Y-80833504D01*
X136258568Y-80627266D01*
X136128047Y-80440861D01*
X135967139Y-80279953D01*
X135780734Y-80149432D01*
X135775827Y-80147143D01*
X135775817Y-80147138D01*
X135722724Y-80122380D01*
X135670549Y-80076623D01*
X135651130Y-80009997D01*
X135670550Y-79943372D01*
X135722723Y-79897618D01*
X135780734Y-79870568D01*
X135967139Y-79740047D01*
X136128047Y-79579139D01*
X136258568Y-79392734D01*
X136354739Y-79186496D01*
X136413635Y-78966692D01*
X136433468Y-78740000D01*
X136413635Y-78513308D01*
X136361920Y-78320305D01*
X136356141Y-78298736D01*
X136356140Y-78298734D01*
X136354739Y-78293504D01*
X136258568Y-78087266D01*
X136128047Y-77900861D01*
X135967139Y-77739953D01*
X135780734Y-77609432D01*
X135722724Y-77582381D01*
X135670549Y-77536625D01*
X135651130Y-77470000D01*
X135670549Y-77403375D01*
X135722725Y-77357618D01*
X135780734Y-77330568D01*
X135967139Y-77200047D01*
X136128047Y-77039139D01*
X136258568Y-76852734D01*
X136354739Y-76646496D01*
X136413635Y-76426692D01*
X136433468Y-76200000D01*
X136413635Y-75973308D01*
X136354739Y-75753504D01*
X136258568Y-75547266D01*
X136128047Y-75360861D01*
X135967139Y-75199953D01*
X135826024Y-75101144D01*
X135785173Y-75072540D01*
X135785171Y-75072539D01*
X135780734Y-75069432D01*
X135722724Y-75042381D01*
X135670549Y-74996625D01*
X135651130Y-74930000D01*
X135670549Y-74863375D01*
X135722725Y-74817618D01*
X135780734Y-74790568D01*
X135967139Y-74660047D01*
X136128047Y-74499139D01*
X136258568Y-74312734D01*
X136354739Y-74106496D01*
X136413635Y-73886692D01*
X136433468Y-73660000D01*
X136413635Y-73433308D01*
X136354739Y-73213504D01*
X136258568Y-73007266D01*
X136128047Y-72820861D01*
X135967139Y-72659953D01*
X135780734Y-72529432D01*
X135722724Y-72502381D01*
X135670549Y-72456625D01*
X135651130Y-72390000D01*
X135670549Y-72323375D01*
X135722725Y-72277618D01*
X135780734Y-72250568D01*
X135967139Y-72120047D01*
X136128047Y-71959139D01*
X136258568Y-71772734D01*
X136354739Y-71566496D01*
X136413635Y-71346692D01*
X136433468Y-71120000D01*
X136413635Y-70893308D01*
X136354739Y-70673504D01*
X136258568Y-70467266D01*
X136128047Y-70280861D01*
X136101367Y-70254180D01*
X136071117Y-70204818D01*
X136066575Y-70147102D01*
X136088730Y-70093615D01*
X136132753Y-70056015D01*
X136189048Y-70042500D01*
X156363845Y-70042500D01*
X156402163Y-70048569D01*
X156436726Y-70066179D01*
X156519270Y-70126151D01*
X156692197Y-70203144D01*
X156877354Y-70242500D01*
X157060143Y-70242500D01*
X157066646Y-70242500D01*
X157251803Y-70203144D01*
X157424730Y-70126151D01*
X157577871Y-70014888D01*
X157704533Y-69874216D01*
X157799179Y-69710284D01*
X157857674Y-69530256D01*
X157877460Y-69342000D01*
X157857674Y-69153744D01*
X157799179Y-68973716D01*
X157704533Y-68809784D01*
X157644172Y-68742747D01*
X157582220Y-68673942D01*
X157582219Y-68673941D01*
X157577871Y-68669112D01*
X157572613Y-68665292D01*
X157572611Y-68665290D01*
X157429988Y-68561669D01*
X157429987Y-68561668D01*
X157424730Y-68557849D01*
X157418792Y-68555205D01*
X157257745Y-68483501D01*
X157257740Y-68483499D01*
X157251803Y-68480856D01*
X157245444Y-68479504D01*
X157245440Y-68479503D01*
X157073008Y-68442852D01*
X157073005Y-68442851D01*
X157066646Y-68441500D01*
X156877354Y-68441500D01*
X156870995Y-68442851D01*
X156870991Y-68442852D01*
X156698559Y-68479503D01*
X156698552Y-68479505D01*
X156692197Y-68480856D01*
X156686262Y-68483498D01*
X156686254Y-68483501D01*
X156525207Y-68555205D01*
X156525202Y-68555207D01*
X156519270Y-68557849D01*
X156436726Y-68617820D01*
X156402163Y-68635431D01*
X156363845Y-68641500D01*
X123722910Y-68641500D01*
X123715423Y-68641274D01*
X123662881Y-68638095D01*
X123662873Y-68638095D01*
X123655394Y-68637643D01*
X123648019Y-68638994D01*
X123648009Y-68638995D01*
X123596242Y-68648481D01*
X123588843Y-68649608D01*
X123536567Y-68655956D01*
X123536561Y-68655957D01*
X123529128Y-68656860D01*
X123522123Y-68659516D01*
X123522112Y-68659519D01*
X123519639Y-68660457D01*
X123498041Y-68666478D01*
X123495451Y-68666952D01*
X123495444Y-68666954D01*
X123488068Y-68668306D01*
X123481225Y-68671385D01*
X123481227Y-68671385D01*
X123433234Y-68692984D01*
X123426318Y-68695848D01*
X123377088Y-68714519D01*
X123377078Y-68714523D01*
X123370070Y-68717182D01*
X123363899Y-68721441D01*
X123363894Y-68721444D01*
X123361722Y-68722944D01*
X123342187Y-68733962D01*
X123339784Y-68735043D01*
X123339777Y-68735047D01*
X123332943Y-68738123D01*
X123327043Y-68742745D01*
X123327040Y-68742747D01*
X123285595Y-68775216D01*
X123279566Y-68779651D01*
X123236249Y-68809551D01*
X123236241Y-68809557D01*
X123230071Y-68813817D01*
X123225101Y-68819426D01*
X123225094Y-68819433D01*
X123190184Y-68858838D01*
X123185051Y-68864290D01*
X118047027Y-74002315D01*
X118018514Y-74023607D01*
X117985128Y-74035924D01*
X117836557Y-74067504D01*
X117836555Y-74067504D01*
X117830197Y-74068856D01*
X117824262Y-74071498D01*
X117824254Y-74071501D01*
X117663207Y-74143205D01*
X117663202Y-74143207D01*
X117657270Y-74145849D01*
X117652016Y-74149665D01*
X117652011Y-74149669D01*
X117509388Y-74253290D01*
X117509381Y-74253295D01*
X117504129Y-74257112D01*
X117499784Y-74261937D01*
X117499779Y-74261942D01*
X117381813Y-74392956D01*
X117381808Y-74392962D01*
X117377467Y-74397784D01*
X117374222Y-74403404D01*
X117374218Y-74403410D01*
X117286069Y-74556089D01*
X117286066Y-74556094D01*
X117282821Y-74561716D01*
X117280815Y-74567888D01*
X117280813Y-74567894D01*
X117226333Y-74735564D01*
X117226331Y-74735573D01*
X117224326Y-74741744D01*
X117223648Y-74748194D01*
X117223646Y-74748204D01*
X117206559Y-74910793D01*
X117204540Y-74930000D01*
X117205219Y-74936460D01*
X117223646Y-75111795D01*
X117223647Y-75111803D01*
X117224326Y-75118256D01*
X117226331Y-75124428D01*
X117226333Y-75124435D01*
X117273400Y-75269290D01*
X117282821Y-75298284D01*
X117286068Y-75303908D01*
X117286069Y-75303910D01*
X117366379Y-75443012D01*
X117377467Y-75462216D01*
X117381811Y-75467041D01*
X117381813Y-75467043D01*
X117476397Y-75572089D01*
X117504129Y-75602888D01*
X117657270Y-75714151D01*
X117830197Y-75791144D01*
X118015354Y-75830500D01*
X118198143Y-75830500D01*
X118204646Y-75830500D01*
X118389803Y-75791144D01*
X118562730Y-75714151D01*
X118715871Y-75602888D01*
X118842533Y-75462216D01*
X118937179Y-75298284D01*
X118995674Y-75118256D01*
X119000864Y-75068870D01*
X119012264Y-75028449D01*
X119036501Y-74994154D01*
X123951837Y-70078819D01*
X123992066Y-70051939D01*
X124039519Y-70042500D01*
X134066952Y-70042500D01*
X134123247Y-70056015D01*
X134167270Y-70093615D01*
X134189425Y-70147102D01*
X134184883Y-70204818D01*
X134154633Y-70254181D01*
X134131782Y-70277031D01*
X134131776Y-70277037D01*
X134127953Y-70280861D01*
X134124850Y-70285291D01*
X134124847Y-70285296D01*
X134000540Y-70462826D01*
X134000535Y-70462833D01*
X133997432Y-70467266D01*
X133995144Y-70472172D01*
X133995142Y-70472176D01*
X133903550Y-70668594D01*
X133903547Y-70668599D01*
X133901261Y-70673504D01*
X133899862Y-70678724D01*
X133899858Y-70678736D01*
X133843764Y-70888083D01*
X133843762Y-70888094D01*
X133842365Y-70893308D01*
X133822532Y-71120000D01*
X133823004Y-71125395D01*
X133832530Y-71234284D01*
X133842365Y-71346692D01*
X133843762Y-71351907D01*
X133843764Y-71351916D01*
X133899858Y-71561263D01*
X133899861Y-71561271D01*
X133901261Y-71566496D01*
X133997432Y-71772734D01*
X134000539Y-71777171D01*
X134000540Y-71777173D01*
X134056821Y-71857551D01*
X134127953Y-71959139D01*
X134288861Y-72120047D01*
X134475266Y-72250568D01*
X134480172Y-72252855D01*
X134480176Y-72252858D01*
X134533274Y-72277618D01*
X134585450Y-72323375D01*
X134604869Y-72390000D01*
X134585450Y-72456625D01*
X134533274Y-72502382D01*
X134480176Y-72527141D01*
X134480163Y-72527148D01*
X134475266Y-72529432D01*
X134470833Y-72532535D01*
X134470826Y-72532540D01*
X134293296Y-72656847D01*
X134293291Y-72656850D01*
X134288861Y-72659953D01*
X134285037Y-72663776D01*
X134285031Y-72663782D01*
X134131782Y-72817031D01*
X134131776Y-72817037D01*
X134127953Y-72820861D01*
X134124850Y-72825291D01*
X134124847Y-72825296D01*
X134000540Y-73002826D01*
X134000535Y-73002833D01*
X133997432Y-73007266D01*
X133995144Y-73012172D01*
X133995142Y-73012176D01*
X133903550Y-73208594D01*
X133903547Y-73208599D01*
X133901261Y-73213504D01*
X133899862Y-73218724D01*
X133899858Y-73218736D01*
X133843764Y-73428083D01*
X133843762Y-73428094D01*
X133842365Y-73433308D01*
X133822532Y-73660000D01*
X133842365Y-73886692D01*
X133843762Y-73891907D01*
X133843764Y-73891916D01*
X133899858Y-74101263D01*
X133899861Y-74101271D01*
X133901261Y-74106496D01*
X133997432Y-74312734D01*
X134000539Y-74317171D01*
X134000540Y-74317173D01*
X134056984Y-74397784D01*
X134127953Y-74499139D01*
X134288861Y-74660047D01*
X134475266Y-74790568D01*
X134480172Y-74792855D01*
X134480176Y-74792858D01*
X134533274Y-74817618D01*
X134585450Y-74863375D01*
X134604869Y-74930000D01*
X134585450Y-74996625D01*
X134533274Y-75042382D01*
X134480176Y-75067141D01*
X134480163Y-75067148D01*
X134475266Y-75069432D01*
X134470833Y-75072535D01*
X134470826Y-75072540D01*
X134293296Y-75196847D01*
X134293291Y-75196850D01*
X134288861Y-75199953D01*
X134285037Y-75203776D01*
X134285031Y-75203782D01*
X134131782Y-75357031D01*
X134131776Y-75357037D01*
X134127953Y-75360861D01*
X134124850Y-75365291D01*
X134124847Y-75365296D01*
X134000540Y-75542826D01*
X134000535Y-75542833D01*
X133997432Y-75547266D01*
X133995144Y-75552172D01*
X133995142Y-75552176D01*
X133903550Y-75748594D01*
X133903547Y-75748599D01*
X133901261Y-75753504D01*
X133899862Y-75758724D01*
X133899858Y-75758736D01*
X133843764Y-75968083D01*
X133843762Y-75968094D01*
X133842365Y-75973308D01*
X133841893Y-75978693D01*
X133841893Y-75978698D01*
X133828849Y-76127794D01*
X133822532Y-76200000D01*
X133823004Y-76205395D01*
X133832530Y-76314284D01*
X133842365Y-76426692D01*
X133843762Y-76431907D01*
X133843764Y-76431916D01*
X133899858Y-76641263D01*
X133899861Y-76641271D01*
X133901261Y-76646496D01*
X133997432Y-76852734D01*
X134000539Y-76857171D01*
X134000540Y-76857173D01*
X134007279Y-76866797D01*
X134127953Y-77039139D01*
X134288861Y-77200047D01*
X134475266Y-77330568D01*
X134480172Y-77332855D01*
X134480176Y-77332858D01*
X134533274Y-77357618D01*
X134585450Y-77403375D01*
X134604869Y-77470000D01*
X134585450Y-77536625D01*
X134533274Y-77582382D01*
X134480176Y-77607141D01*
X134480163Y-77607148D01*
X134475266Y-77609432D01*
X134470833Y-77612535D01*
X134470826Y-77612540D01*
X134293296Y-77736847D01*
X134293291Y-77736850D01*
X134288861Y-77739953D01*
X134285037Y-77743776D01*
X134285031Y-77743782D01*
X134131782Y-77897031D01*
X134131776Y-77897037D01*
X134127953Y-77900861D01*
X134124850Y-77905291D01*
X134124847Y-77905296D01*
X134000540Y-78082826D01*
X134000535Y-78082833D01*
X133997432Y-78087266D01*
X133995144Y-78092172D01*
X133995142Y-78092176D01*
X133903550Y-78288594D01*
X133903547Y-78288599D01*
X133901261Y-78293504D01*
X133899862Y-78298724D01*
X133899858Y-78298736D01*
X133843764Y-78508083D01*
X133843762Y-78508094D01*
X133842365Y-78513308D01*
X133822532Y-78740000D01*
X133842365Y-78966692D01*
X133843762Y-78971907D01*
X133843764Y-78971916D01*
X133899858Y-79181263D01*
X133899861Y-79181271D01*
X133901261Y-79186496D01*
X133997432Y-79392734D01*
X134127953Y-79579139D01*
X134288861Y-79740047D01*
X134475266Y-79870568D01*
X134533276Y-79897618D01*
X134585449Y-79943373D01*
X134604869Y-80009997D01*
X134585451Y-80076622D01*
X134533276Y-80122380D01*
X134480178Y-80147141D01*
X134480173Y-80147143D01*
X134475266Y-80149432D01*
X134470833Y-80152535D01*
X134470826Y-80152540D01*
X134293296Y-80276847D01*
X134293291Y-80276850D01*
X134288861Y-80279953D01*
X134285037Y-80283776D01*
X134285031Y-80283782D01*
X134131782Y-80437031D01*
X134131776Y-80437037D01*
X134127953Y-80440861D01*
X134124850Y-80445291D01*
X134124847Y-80445296D01*
X134000540Y-80622826D01*
X134000535Y-80622833D01*
X133997432Y-80627266D01*
X133995144Y-80632172D01*
X133995142Y-80632176D01*
X133903550Y-80828594D01*
X133903547Y-80828599D01*
X133901261Y-80833504D01*
X133899862Y-80838724D01*
X133899858Y-80838736D01*
X133843764Y-81048083D01*
X133843762Y-81048094D01*
X133842365Y-81053308D01*
X133822532Y-81280000D01*
X133842365Y-81506692D01*
X133843762Y-81511907D01*
X133843764Y-81511916D01*
X133899858Y-81721263D01*
X133899861Y-81721271D01*
X133901261Y-81726496D01*
X133997432Y-81932734D01*
X134000539Y-81937171D01*
X134000540Y-81937173D01*
X134067902Y-82033377D01*
X134127953Y-82119139D01*
X134288861Y-82280047D01*
X134475266Y-82410568D01*
X134480172Y-82412855D01*
X134480176Y-82412858D01*
X134533274Y-82437618D01*
X134585450Y-82483375D01*
X134604869Y-82550000D01*
X134585450Y-82616625D01*
X134533274Y-82662382D01*
X134480176Y-82687141D01*
X134480163Y-82687148D01*
X134475266Y-82689432D01*
X134470833Y-82692535D01*
X134470826Y-82692540D01*
X134293296Y-82816847D01*
X134293291Y-82816850D01*
X134288861Y-82819953D01*
X134285037Y-82823776D01*
X134285031Y-82823782D01*
X134131782Y-82977031D01*
X134131776Y-82977037D01*
X134127953Y-82980861D01*
X134124850Y-82985291D01*
X134124847Y-82985296D01*
X134000540Y-83162826D01*
X134000535Y-83162833D01*
X133997432Y-83167266D01*
X133995144Y-83172172D01*
X133995142Y-83172176D01*
X133903550Y-83368594D01*
X133903547Y-83368599D01*
X133901261Y-83373504D01*
X133899862Y-83378724D01*
X133899858Y-83378736D01*
X133843764Y-83588083D01*
X133843762Y-83588094D01*
X133842365Y-83593308D01*
X133841893Y-83598693D01*
X133841893Y-83598698D01*
X133828305Y-83754010D01*
X133822532Y-83820000D01*
X133823004Y-83825395D01*
X133839592Y-84015005D01*
X133842365Y-84046692D01*
X133843762Y-84051907D01*
X133843764Y-84051916D01*
X133899858Y-84261263D01*
X133899861Y-84261271D01*
X133901261Y-84266496D01*
X133997432Y-84472734D01*
X134127953Y-84659139D01*
X134288861Y-84820047D01*
X134440072Y-84925925D01*
X134480399Y-84973142D01*
X134492779Y-85033989D01*
X134474107Y-85093210D01*
X134429065Y-85135953D01*
X134368949Y-85151500D01*
X126627421Y-85151500D01*
X126619933Y-85151274D01*
X126567381Y-85148094D01*
X126567373Y-85148094D01*
X126559894Y-85147642D01*
X126552518Y-85148993D01*
X126552511Y-85148994D01*
X126500728Y-85158483D01*
X126493328Y-85159610D01*
X126441069Y-85165956D01*
X126441065Y-85165956D01*
X126433628Y-85166860D01*
X126426619Y-85169517D01*
X126426614Y-85169519D01*
X126424143Y-85170456D01*
X126402553Y-85176474D01*
X126399952Y-85176950D01*
X126399938Y-85176954D01*
X126392569Y-85178305D01*
X126385732Y-85181381D01*
X126385732Y-85181382D01*
X126337726Y-85202987D01*
X126330810Y-85205851D01*
X126281582Y-85224521D01*
X126281570Y-85224526D01*
X126274570Y-85227182D01*
X126268404Y-85231437D01*
X126268394Y-85231443D01*
X126266217Y-85232946D01*
X126246695Y-85243957D01*
X126244283Y-85245042D01*
X126244271Y-85245048D01*
X126237444Y-85248122D01*
X126231548Y-85252740D01*
X126231543Y-85252744D01*
X126190108Y-85285205D01*
X126184081Y-85289640D01*
X126140745Y-85319554D01*
X126140738Y-85319559D01*
X126134571Y-85323817D01*
X126129602Y-85329425D01*
X126129596Y-85329431D01*
X126094684Y-85368838D01*
X126089551Y-85374290D01*
X119201140Y-92262702D01*
X119144260Y-92295135D01*
X119078791Y-92294076D01*
X119022989Y-92259821D01*
X118992412Y-92201922D01*
X118994963Y-92149355D01*
X118992315Y-92148792D01*
X118993666Y-92142435D01*
X118995674Y-92136256D01*
X119015460Y-91948000D01*
X118995674Y-91759744D01*
X118937179Y-91579716D01*
X118842533Y-91415784D01*
X118715871Y-91275112D01*
X118710613Y-91271292D01*
X118710611Y-91271290D01*
X118567988Y-91167669D01*
X118567987Y-91167668D01*
X118562730Y-91163849D01*
X118522482Y-91145929D01*
X118395745Y-91089501D01*
X118395740Y-91089499D01*
X118389803Y-91086856D01*
X118383444Y-91085504D01*
X118383440Y-91085503D01*
X118211008Y-91048852D01*
X118211005Y-91048851D01*
X118204646Y-91047500D01*
X118015354Y-91047500D01*
X118008995Y-91048851D01*
X118008991Y-91048852D01*
X117836559Y-91085503D01*
X117836552Y-91085505D01*
X117830197Y-91086856D01*
X117824262Y-91089498D01*
X117824254Y-91089501D01*
X117663207Y-91161205D01*
X117663202Y-91161207D01*
X117657270Y-91163849D01*
X117574726Y-91223820D01*
X117540163Y-91241431D01*
X117501845Y-91247500D01*
X105497519Y-91247500D01*
X105450066Y-91238061D01*
X105409838Y-91211181D01*
X104622819Y-90424162D01*
X104595939Y-90383934D01*
X104586500Y-90336481D01*
X104586500Y-87070820D01*
X108277642Y-87070820D01*
X108278993Y-87078196D01*
X108278994Y-87078201D01*
X108288483Y-87129985D01*
X108289610Y-87137385D01*
X108295955Y-87189639D01*
X108295956Y-87189644D01*
X108296860Y-87197086D01*
X108299519Y-87204099D01*
X108299521Y-87204105D01*
X108300450Y-87206554D01*
X108306475Y-87228166D01*
X108306951Y-87230765D01*
X108306954Y-87230774D01*
X108308305Y-87238146D01*
X108311382Y-87244983D01*
X108311383Y-87244986D01*
X108332991Y-87292998D01*
X108335857Y-87299916D01*
X108357182Y-87356144D01*
X108361442Y-87362316D01*
X108361445Y-87362321D01*
X108362937Y-87364482D01*
X108373959Y-87384024D01*
X108375039Y-87386424D01*
X108375044Y-87386433D01*
X108378122Y-87393271D01*
X108382745Y-87399172D01*
X108382747Y-87399175D01*
X108415216Y-87440618D01*
X108419636Y-87446624D01*
X108453817Y-87496143D01*
X108498847Y-87536036D01*
X108504282Y-87541153D01*
X109578845Y-88615716D01*
X109583979Y-88621170D01*
X109623857Y-88666183D01*
X109630026Y-88670441D01*
X109630027Y-88670442D01*
X109673355Y-88700349D01*
X109679388Y-88704788D01*
X109726729Y-88741877D01*
X109733571Y-88744956D01*
X109735961Y-88746032D01*
X109755510Y-88757058D01*
X109757674Y-88758552D01*
X109757682Y-88758556D01*
X109763856Y-88762818D01*
X109770873Y-88765479D01*
X109820092Y-88784145D01*
X109827014Y-88787012D01*
X109881854Y-88811694D01*
X109891821Y-88813520D01*
X109913439Y-88819547D01*
X109915899Y-88820480D01*
X109915902Y-88820480D01*
X109922914Y-88823140D01*
X109980388Y-88830118D01*
X109982616Y-88830389D01*
X109990021Y-88831516D01*
X110005852Y-88834416D01*
X110049180Y-88842357D01*
X110109207Y-88838726D01*
X110116695Y-88838500D01*
X112421845Y-88838500D01*
X112460163Y-88844569D01*
X112494726Y-88862179D01*
X112577270Y-88922151D01*
X112750197Y-88999144D01*
X112935354Y-89038500D01*
X113118143Y-89038500D01*
X113124646Y-89038500D01*
X113309803Y-88999144D01*
X113482730Y-88922151D01*
X113635871Y-88810888D01*
X113762533Y-88670216D01*
X113857179Y-88506284D01*
X113915674Y-88326256D01*
X113935460Y-88138000D01*
X113915674Y-87949744D01*
X113857179Y-87769716D01*
X113762533Y-87605784D01*
X113744176Y-87585397D01*
X113686618Y-87521472D01*
X113659336Y-87471846D01*
X113656964Y-87415265D01*
X113679998Y-87363530D01*
X113723633Y-87327432D01*
X113778768Y-87314500D01*
X115961345Y-87314500D01*
X115999663Y-87320569D01*
X116034226Y-87338179D01*
X116116770Y-87398151D01*
X116289697Y-87475144D01*
X116474854Y-87514500D01*
X116657643Y-87514500D01*
X116664146Y-87514500D01*
X116849303Y-87475144D01*
X117022230Y-87398151D01*
X117175371Y-87286888D01*
X117302033Y-87146216D01*
X117396679Y-86982284D01*
X117455174Y-86802256D01*
X117470429Y-86657109D01*
X117486119Y-86613999D01*
X117701380Y-86613999D01*
X117717071Y-86657110D01*
X117731646Y-86795795D01*
X117731647Y-86795803D01*
X117732326Y-86802256D01*
X117734331Y-86808428D01*
X117734333Y-86808435D01*
X117788813Y-86976105D01*
X117790821Y-86982284D01*
X117794068Y-86987908D01*
X117794069Y-86987910D01*
X117856947Y-87096819D01*
X117885467Y-87146216D01*
X117889811Y-87151041D01*
X117889813Y-87151043D01*
X117939796Y-87206554D01*
X118012129Y-87286888D01*
X118017387Y-87290708D01*
X118017388Y-87290709D01*
X118050134Y-87314500D01*
X118165270Y-87398151D01*
X118338197Y-87475144D01*
X118523354Y-87514500D01*
X118706143Y-87514500D01*
X118712646Y-87514500D01*
X118897803Y-87475144D01*
X119070730Y-87398151D01*
X119223871Y-87286888D01*
X119350533Y-87146216D01*
X119445179Y-86982284D01*
X119503674Y-86802256D01*
X119508864Y-86752870D01*
X119520264Y-86712449D01*
X119544501Y-86678154D01*
X122173837Y-84048819D01*
X122214066Y-84021939D01*
X122261519Y-84012500D01*
X131039079Y-84012500D01*
X131046566Y-84012725D01*
X131106606Y-84016358D01*
X131165782Y-84005513D01*
X131173181Y-84004387D01*
X131232872Y-83997140D01*
X131242332Y-83993551D01*
X131263959Y-83987522D01*
X131273932Y-83985695D01*
X131328808Y-83960996D01*
X131335673Y-83958152D01*
X131391930Y-83936818D01*
X131400264Y-83931064D01*
X131419821Y-83920034D01*
X131429057Y-83915878D01*
X131476413Y-83878775D01*
X131482433Y-83874347D01*
X131526267Y-83844091D01*
X131570924Y-83824851D01*
X131724803Y-83792144D01*
X131897730Y-83715151D01*
X132050871Y-83603888D01*
X132177533Y-83463216D01*
X132272179Y-83299284D01*
X132330674Y-83119256D01*
X132350460Y-82931000D01*
X132334991Y-82783817D01*
X132331353Y-82749204D01*
X132331352Y-82749203D01*
X132330674Y-82742744D01*
X132272179Y-82562716D01*
X132177533Y-82398784D01*
X132050871Y-82258112D01*
X132045613Y-82254292D01*
X132045611Y-82254290D01*
X131902988Y-82150669D01*
X131902987Y-82150668D01*
X131897730Y-82146849D01*
X131862385Y-82131112D01*
X131730745Y-82072501D01*
X131730740Y-82072499D01*
X131724803Y-82069856D01*
X131718444Y-82068504D01*
X131718440Y-82068503D01*
X131546008Y-82031852D01*
X131546005Y-82031851D01*
X131539646Y-82030500D01*
X131350354Y-82030500D01*
X131343995Y-82031851D01*
X131343991Y-82031852D01*
X131171559Y-82068503D01*
X131171552Y-82068505D01*
X131165197Y-82069856D01*
X131159262Y-82072498D01*
X131159254Y-82072501D01*
X130998207Y-82144205D01*
X130998202Y-82144207D01*
X130992270Y-82146849D01*
X130987016Y-82150665D01*
X130987011Y-82150669D01*
X130844388Y-82254290D01*
X130844381Y-82254295D01*
X130839129Y-82258112D01*
X130834784Y-82262937D01*
X130834779Y-82262942D01*
X130716813Y-82393956D01*
X130716808Y-82393962D01*
X130712467Y-82398784D01*
X130709222Y-82404404D01*
X130709218Y-82404410D01*
X130625451Y-82549500D01*
X130580064Y-82594887D01*
X130518064Y-82611500D01*
X121944910Y-82611500D01*
X121937423Y-82611274D01*
X121884881Y-82608095D01*
X121884873Y-82608095D01*
X121877394Y-82607643D01*
X121870019Y-82608994D01*
X121870009Y-82608995D01*
X121818242Y-82618481D01*
X121810843Y-82619608D01*
X121758567Y-82625956D01*
X121758561Y-82625957D01*
X121751128Y-82626860D01*
X121744123Y-82629516D01*
X121744112Y-82629519D01*
X121741639Y-82630457D01*
X121720041Y-82636478D01*
X121717451Y-82636952D01*
X121717444Y-82636954D01*
X121710068Y-82638306D01*
X121703227Y-82641384D01*
X121703223Y-82641386D01*
X121655228Y-82662986D01*
X121648313Y-82665850D01*
X121599081Y-82684522D01*
X121599073Y-82684525D01*
X121592070Y-82687182D01*
X121585909Y-82691434D01*
X121585898Y-82691440D01*
X121583725Y-82692941D01*
X121564188Y-82703960D01*
X121561778Y-82705044D01*
X121561768Y-82705049D01*
X121554943Y-82708122D01*
X121549048Y-82712739D01*
X121549040Y-82712745D01*
X121507597Y-82745213D01*
X121501568Y-82749649D01*
X121458248Y-82779551D01*
X121458236Y-82779560D01*
X121452071Y-82783817D01*
X121447102Y-82789425D01*
X121447096Y-82789431D01*
X121412184Y-82828838D01*
X121407051Y-82834290D01*
X118555027Y-85686315D01*
X118526514Y-85707607D01*
X118493128Y-85719924D01*
X118344557Y-85751504D01*
X118344555Y-85751504D01*
X118338197Y-85752856D01*
X118332262Y-85755498D01*
X118332254Y-85755501D01*
X118171207Y-85827205D01*
X118171202Y-85827207D01*
X118165270Y-85829849D01*
X118160016Y-85833665D01*
X118160011Y-85833669D01*
X118017388Y-85937290D01*
X118017381Y-85937295D01*
X118012129Y-85941112D01*
X118007784Y-85945937D01*
X118007779Y-85945942D01*
X117889813Y-86076956D01*
X117889808Y-86076962D01*
X117885467Y-86081784D01*
X117882222Y-86087404D01*
X117882218Y-86087410D01*
X117794069Y-86240089D01*
X117794066Y-86240094D01*
X117790821Y-86245716D01*
X117788815Y-86251888D01*
X117788813Y-86251894D01*
X117734333Y-86419564D01*
X117734331Y-86419573D01*
X117732326Y-86425744D01*
X117731648Y-86432194D01*
X117731646Y-86432204D01*
X117717071Y-86570889D01*
X117701380Y-86613999D01*
X117486119Y-86613999D01*
X117470429Y-86570889D01*
X117455853Y-86432204D01*
X117455852Y-86432203D01*
X117455174Y-86425744D01*
X117396679Y-86245716D01*
X117302033Y-86081784D01*
X117175371Y-85941112D01*
X117170113Y-85937292D01*
X117170111Y-85937290D01*
X117027488Y-85833669D01*
X117027487Y-85833668D01*
X117022230Y-85829849D01*
X117016292Y-85827205D01*
X116855245Y-85755501D01*
X116855240Y-85755499D01*
X116849303Y-85752856D01*
X116842944Y-85751504D01*
X116842940Y-85751503D01*
X116670508Y-85714852D01*
X116670505Y-85714851D01*
X116664146Y-85713500D01*
X116474854Y-85713500D01*
X116468495Y-85714851D01*
X116468491Y-85714852D01*
X116296059Y-85751503D01*
X116296052Y-85751505D01*
X116289697Y-85752856D01*
X116283762Y-85755498D01*
X116283754Y-85755501D01*
X116122707Y-85827205D01*
X116122702Y-85827207D01*
X116116770Y-85829849D01*
X116034226Y-85889820D01*
X115999663Y-85907431D01*
X115961345Y-85913500D01*
X110590155Y-85913500D01*
X110551837Y-85907431D01*
X110517273Y-85889820D01*
X110434730Y-85829849D01*
X110428792Y-85827205D01*
X110267745Y-85755501D01*
X110267740Y-85755499D01*
X110261803Y-85752856D01*
X110255444Y-85751504D01*
X110255440Y-85751503D01*
X110083008Y-85714852D01*
X110083005Y-85714851D01*
X110076646Y-85713500D01*
X109887354Y-85713500D01*
X109880995Y-85714851D01*
X109880991Y-85714852D01*
X109832281Y-85725206D01*
X109777553Y-85724490D01*
X109728464Y-85700282D01*
X109694579Y-85657299D01*
X109682500Y-85603916D01*
X109682500Y-84145519D01*
X109691939Y-84098066D01*
X109718819Y-84057838D01*
X111293282Y-82483375D01*
X116047731Y-77728924D01*
X116053151Y-77723822D01*
X116098183Y-77683929D01*
X116132355Y-77634420D01*
X116136775Y-77628413D01*
X116173878Y-77581057D01*
X116178034Y-77571821D01*
X116189064Y-77552264D01*
X116194818Y-77543930D01*
X116216145Y-77487690D01*
X116219010Y-77480776D01*
X116223860Y-77470000D01*
X116243695Y-77425931D01*
X116245522Y-77415957D01*
X116251548Y-77394340D01*
X116255140Y-77384872D01*
X116262386Y-77325184D01*
X116263514Y-77317776D01*
X116274358Y-77258606D01*
X116270725Y-77198566D01*
X116270500Y-77191079D01*
X116270500Y-75946000D01*
X119490540Y-75946000D01*
X119491219Y-75952460D01*
X119509646Y-76127795D01*
X119509647Y-76127803D01*
X119510326Y-76134256D01*
X119512331Y-76140428D01*
X119512333Y-76140435D01*
X119559400Y-76285290D01*
X119568821Y-76314284D01*
X119572068Y-76319908D01*
X119572069Y-76319910D01*
X119633719Y-76426692D01*
X119663467Y-76478216D01*
X119790129Y-76618888D01*
X119943270Y-76730151D01*
X120116197Y-76807144D01*
X120301354Y-76846500D01*
X120484143Y-76846500D01*
X120490646Y-76846500D01*
X120675803Y-76807144D01*
X120848730Y-76730151D01*
X121001871Y-76618888D01*
X121128533Y-76478216D01*
X121223179Y-76314284D01*
X121281674Y-76134256D01*
X121286864Y-76084870D01*
X121298264Y-76044449D01*
X121322501Y-76010154D01*
X124205837Y-73126819D01*
X124246066Y-73099939D01*
X124293519Y-73090500D01*
X125883845Y-73090500D01*
X125922163Y-73096569D01*
X125956726Y-73114179D01*
X126039270Y-73174151D01*
X126212197Y-73251144D01*
X126397354Y-73290500D01*
X126580143Y-73290500D01*
X126586646Y-73290500D01*
X126771803Y-73251144D01*
X126944730Y-73174151D01*
X127097871Y-73062888D01*
X127224533Y-72922216D01*
X127319179Y-72758284D01*
X127377674Y-72578256D01*
X127397460Y-72390000D01*
X127383046Y-72252857D01*
X127378353Y-72208204D01*
X127378352Y-72208203D01*
X127377674Y-72201744D01*
X127319179Y-72021716D01*
X127224533Y-71857784D01*
X127168041Y-71795044D01*
X127102220Y-71721942D01*
X127102219Y-71721941D01*
X127097871Y-71717112D01*
X127092613Y-71713292D01*
X127092611Y-71713290D01*
X126949988Y-71609669D01*
X126949987Y-71609668D01*
X126944730Y-71605849D01*
X126938792Y-71603205D01*
X126777745Y-71531501D01*
X126777740Y-71531499D01*
X126771803Y-71528856D01*
X126765444Y-71527504D01*
X126765440Y-71527503D01*
X126593008Y-71490852D01*
X126593005Y-71490851D01*
X126586646Y-71489500D01*
X126397354Y-71489500D01*
X126390995Y-71490851D01*
X126390991Y-71490852D01*
X126218559Y-71527503D01*
X126218552Y-71527505D01*
X126212197Y-71528856D01*
X126206262Y-71531498D01*
X126206254Y-71531501D01*
X126045207Y-71603205D01*
X126045202Y-71603207D01*
X126039270Y-71605849D01*
X125956726Y-71665820D01*
X125922163Y-71683431D01*
X125883845Y-71689500D01*
X123976909Y-71689500D01*
X123969422Y-71689274D01*
X123916881Y-71686095D01*
X123916873Y-71686095D01*
X123909394Y-71685643D01*
X123902019Y-71686994D01*
X123902009Y-71686995D01*
X123850242Y-71696481D01*
X123842843Y-71697608D01*
X123790567Y-71703956D01*
X123790561Y-71703957D01*
X123783128Y-71704860D01*
X123776123Y-71707516D01*
X123776112Y-71707519D01*
X123773639Y-71708457D01*
X123752041Y-71714478D01*
X123749451Y-71714952D01*
X123749444Y-71714954D01*
X123742068Y-71716306D01*
X123735225Y-71719385D01*
X123735227Y-71719385D01*
X123687234Y-71740984D01*
X123680318Y-71743848D01*
X123631088Y-71762519D01*
X123631078Y-71762523D01*
X123624070Y-71765182D01*
X123617899Y-71769441D01*
X123617894Y-71769444D01*
X123615722Y-71770944D01*
X123596187Y-71781962D01*
X123593784Y-71783043D01*
X123593777Y-71783047D01*
X123586943Y-71786123D01*
X123581043Y-71790745D01*
X123581040Y-71790747D01*
X123539595Y-71823216D01*
X123533566Y-71827651D01*
X123490249Y-71857551D01*
X123490241Y-71857557D01*
X123484071Y-71861817D01*
X123479101Y-71867426D01*
X123479094Y-71867433D01*
X123444184Y-71906838D01*
X123439051Y-71912290D01*
X120333027Y-75018315D01*
X120304514Y-75039607D01*
X120271128Y-75051924D01*
X120122557Y-75083504D01*
X120122555Y-75083504D01*
X120116197Y-75084856D01*
X120110262Y-75087498D01*
X120110254Y-75087501D01*
X119949207Y-75159205D01*
X119949202Y-75159207D01*
X119943270Y-75161849D01*
X119938016Y-75165665D01*
X119938011Y-75165669D01*
X119795388Y-75269290D01*
X119795381Y-75269295D01*
X119790129Y-75273112D01*
X119785784Y-75277937D01*
X119785779Y-75277942D01*
X119667813Y-75408956D01*
X119667808Y-75408962D01*
X119663467Y-75413784D01*
X119660222Y-75419404D01*
X119660218Y-75419410D01*
X119572069Y-75572089D01*
X119572066Y-75572094D01*
X119568821Y-75577716D01*
X119566815Y-75583888D01*
X119566813Y-75583894D01*
X119512333Y-75751564D01*
X119512331Y-75751573D01*
X119510326Y-75757744D01*
X119509648Y-75764194D01*
X119509646Y-75764204D01*
X119502821Y-75829147D01*
X119490540Y-75946000D01*
X116270500Y-75946000D01*
X116270500Y-71735392D01*
X116278749Y-71690920D01*
X116295703Y-71663279D01*
X116294363Y-71662306D01*
X116298184Y-71657045D01*
X116302533Y-71652216D01*
X116397179Y-71488284D01*
X116455674Y-71308256D01*
X116475460Y-71120000D01*
X116455674Y-70931744D01*
X116397179Y-70751716D01*
X116302533Y-70587784D01*
X116175871Y-70447112D01*
X116170613Y-70443292D01*
X116170611Y-70443290D01*
X116027988Y-70339669D01*
X116027987Y-70339668D01*
X116022730Y-70335849D01*
X116016792Y-70333205D01*
X115855745Y-70261501D01*
X115855740Y-70261499D01*
X115849803Y-70258856D01*
X115843444Y-70257504D01*
X115843440Y-70257503D01*
X115671008Y-70220852D01*
X115671005Y-70220851D01*
X115664646Y-70219500D01*
X115475354Y-70219500D01*
X115468995Y-70220851D01*
X115468991Y-70220852D01*
X115296559Y-70257503D01*
X115296552Y-70257505D01*
X115290197Y-70258856D01*
X115284262Y-70261498D01*
X115284254Y-70261501D01*
X115123207Y-70333205D01*
X115123202Y-70333207D01*
X115117270Y-70335849D01*
X115034726Y-70395820D01*
X115000163Y-70413431D01*
X114961845Y-70419500D01*
X110327612Y-70419500D01*
X110265611Y-70402887D01*
X110220225Y-70357500D01*
X110206533Y-70333784D01*
X110079871Y-70193112D01*
X110074613Y-70189292D01*
X110074611Y-70189290D01*
X109931988Y-70085669D01*
X109931987Y-70085668D01*
X109926730Y-70081849D01*
X109868707Y-70056015D01*
X109759745Y-70007501D01*
X109759740Y-70007499D01*
X109753803Y-70004856D01*
X109747444Y-70003504D01*
X109747440Y-70003503D01*
X109575008Y-69966852D01*
X109575005Y-69966851D01*
X109568646Y-69965500D01*
X109379354Y-69965500D01*
X109372995Y-69966851D01*
X109372991Y-69966852D01*
X109200559Y-70003503D01*
X109200552Y-70003505D01*
X109194197Y-70004856D01*
X109188262Y-70007498D01*
X109188254Y-70007501D01*
X109027207Y-70079205D01*
X109027202Y-70079207D01*
X109021270Y-70081849D01*
X109016016Y-70085665D01*
X109016011Y-70085669D01*
X108873388Y-70189290D01*
X108873381Y-70189295D01*
X108868129Y-70193112D01*
X108863784Y-70197937D01*
X108863779Y-70197942D01*
X108745813Y-70328956D01*
X108745808Y-70328962D01*
X108741467Y-70333784D01*
X108738222Y-70339404D01*
X108738218Y-70339410D01*
X108650069Y-70492089D01*
X108650066Y-70492094D01*
X108646821Y-70497716D01*
X108644815Y-70503888D01*
X108644813Y-70503894D01*
X108590333Y-70671564D01*
X108590331Y-70671573D01*
X108588326Y-70677744D01*
X108587648Y-70684194D01*
X108587646Y-70684204D01*
X108580551Y-70751716D01*
X108568540Y-70866000D01*
X108569219Y-70872460D01*
X108587646Y-71047795D01*
X108587647Y-71047803D01*
X108588326Y-71054256D01*
X108590331Y-71060428D01*
X108590333Y-71060435D01*
X108644813Y-71228105D01*
X108646821Y-71234284D01*
X108650068Y-71239908D01*
X108650069Y-71239910D01*
X108711719Y-71346692D01*
X108741467Y-71398216D01*
X108745811Y-71403041D01*
X108745813Y-71403043D01*
X108857878Y-71527503D01*
X108868129Y-71538888D01*
X109021270Y-71650151D01*
X109194197Y-71727144D01*
X109379354Y-71766500D01*
X109431028Y-71766500D01*
X109481919Y-71777425D01*
X109501246Y-71786123D01*
X109518068Y-71793694D01*
X109528035Y-71795520D01*
X109549653Y-71801547D01*
X109552113Y-71802480D01*
X109552116Y-71802480D01*
X109559128Y-71805140D01*
X109616602Y-71812118D01*
X109618830Y-71812389D01*
X109626235Y-71813516D01*
X109642066Y-71816416D01*
X109685394Y-71824357D01*
X109745422Y-71820726D01*
X109752910Y-71820500D01*
X114745500Y-71820500D01*
X114807500Y-71837113D01*
X114852887Y-71882500D01*
X114869500Y-71944500D01*
X114869500Y-76874481D01*
X114860061Y-76921934D01*
X114833181Y-76962162D01*
X108504290Y-83291051D01*
X108498838Y-83296184D01*
X108459431Y-83331096D01*
X108459425Y-83331102D01*
X108453817Y-83336071D01*
X108449560Y-83342236D01*
X108449551Y-83342248D01*
X108419649Y-83385568D01*
X108415213Y-83391597D01*
X108382749Y-83433035D01*
X108382743Y-83433043D01*
X108378122Y-83438943D01*
X108375044Y-83445780D01*
X108375043Y-83445783D01*
X108373962Y-83448185D01*
X108362940Y-83467727D01*
X108361441Y-83469898D01*
X108361437Y-83469904D01*
X108357182Y-83476070D01*
X108354526Y-83483070D01*
X108354522Y-83483080D01*
X108335853Y-83532305D01*
X108332989Y-83539219D01*
X108311382Y-83587229D01*
X108311379Y-83587235D01*
X108308305Y-83594068D01*
X108306953Y-83601439D01*
X108306951Y-83601449D01*
X108306474Y-83604053D01*
X108300456Y-83625643D01*
X108299519Y-83628114D01*
X108299517Y-83628119D01*
X108296860Y-83635128D01*
X108295956Y-83642565D01*
X108295956Y-83642569D01*
X108289610Y-83694827D01*
X108288483Y-83702226D01*
X108278994Y-83754010D01*
X108278993Y-83754018D01*
X108277642Y-83761394D01*
X108278094Y-83768873D01*
X108278094Y-83768881D01*
X108281274Y-83821433D01*
X108281500Y-83828921D01*
X108281500Y-87003293D01*
X108281274Y-87010781D01*
X108278094Y-87063332D01*
X108278094Y-87063340D01*
X108277642Y-87070820D01*
X104586500Y-87070820D01*
X104586500Y-83654100D01*
X104597425Y-83603208D01*
X104628271Y-83561287D01*
X104668183Y-83525929D01*
X104702355Y-83476420D01*
X104706775Y-83470413D01*
X104743878Y-83423057D01*
X104748033Y-83413822D01*
X104759063Y-83394265D01*
X104764818Y-83385930D01*
X104786146Y-83329688D01*
X104789002Y-83322791D01*
X104813694Y-83267932D01*
X104815518Y-83257974D01*
X104821548Y-83236340D01*
X104825140Y-83226872D01*
X104832389Y-83167165D01*
X104833516Y-83159762D01*
X104836564Y-83143128D01*
X104844357Y-83100606D01*
X104840726Y-83040577D01*
X104840500Y-83033090D01*
X104840500Y-80351519D01*
X104849939Y-80304066D01*
X104876819Y-80263838D01*
X105409838Y-79730819D01*
X105450066Y-79703939D01*
X105497519Y-79694500D01*
X108687079Y-79694500D01*
X108694566Y-79694725D01*
X108754606Y-79698358D01*
X108813782Y-79687513D01*
X108821181Y-79686387D01*
X108880872Y-79679140D01*
X108890332Y-79675551D01*
X108911959Y-79669522D01*
X108921932Y-79667695D01*
X108976808Y-79642996D01*
X108983673Y-79640152D01*
X109039930Y-79618818D01*
X109048264Y-79613064D01*
X109067821Y-79602034D01*
X109077057Y-79597878D01*
X109124413Y-79560775D01*
X109130420Y-79556355D01*
X109179929Y-79522183D01*
X109219822Y-79477151D01*
X109224924Y-79471731D01*
X110806975Y-77889681D01*
X110835486Y-77868392D01*
X110868869Y-77856075D01*
X111023803Y-77823144D01*
X111196730Y-77746151D01*
X111349871Y-77634888D01*
X111476533Y-77494216D01*
X111571179Y-77330284D01*
X111629674Y-77150256D01*
X111649460Y-76962000D01*
X111634864Y-76823128D01*
X111630353Y-76780204D01*
X111630352Y-76780203D01*
X111629674Y-76773744D01*
X111571179Y-76593716D01*
X111476533Y-76429784D01*
X111349871Y-76289112D01*
X111344613Y-76285292D01*
X111344611Y-76285290D01*
X111201988Y-76181669D01*
X111201987Y-76181668D01*
X111196730Y-76177849D01*
X111190792Y-76175205D01*
X111029745Y-76103501D01*
X111029740Y-76103499D01*
X111023803Y-76100856D01*
X111017444Y-76099504D01*
X111017440Y-76099503D01*
X110845008Y-76062852D01*
X110845005Y-76062851D01*
X110838646Y-76061500D01*
X110649354Y-76061500D01*
X110642995Y-76062851D01*
X110642991Y-76062852D01*
X110470559Y-76099503D01*
X110470552Y-76099505D01*
X110464197Y-76100856D01*
X110458262Y-76103498D01*
X110458254Y-76103501D01*
X110297207Y-76175205D01*
X110297202Y-76175207D01*
X110291270Y-76177849D01*
X110286016Y-76181665D01*
X110286011Y-76181669D01*
X110143388Y-76285290D01*
X110143381Y-76285295D01*
X110138129Y-76289112D01*
X110133784Y-76293937D01*
X110133779Y-76293942D01*
X110015813Y-76424956D01*
X110015808Y-76424962D01*
X110011467Y-76429784D01*
X110008222Y-76435404D01*
X110008218Y-76435410D01*
X109920069Y-76588089D01*
X109920066Y-76588094D01*
X109916821Y-76593716D01*
X109914815Y-76599888D01*
X109914813Y-76599894D01*
X109860334Y-76767563D01*
X109858326Y-76773744D01*
X109857647Y-76780196D01*
X109857646Y-76780205D01*
X109853135Y-76823128D01*
X109841734Y-76863549D01*
X109817495Y-76897846D01*
X108458162Y-78257181D01*
X108417934Y-78284061D01*
X108370481Y-78293500D01*
X105180921Y-78293500D01*
X105173433Y-78293274D01*
X105120881Y-78290094D01*
X105120873Y-78290094D01*
X105113394Y-78289642D01*
X105106018Y-78290993D01*
X105106010Y-78290994D01*
X105054226Y-78300483D01*
X105046827Y-78301610D01*
X104994569Y-78307956D01*
X104994565Y-78307956D01*
X104987128Y-78308860D01*
X104980119Y-78311517D01*
X104980114Y-78311519D01*
X104977643Y-78312456D01*
X104956053Y-78318474D01*
X104953449Y-78318951D01*
X104953439Y-78318953D01*
X104946068Y-78320305D01*
X104939235Y-78323379D01*
X104939229Y-78323382D01*
X104891219Y-78344989D01*
X104884305Y-78347853D01*
X104835080Y-78366522D01*
X104835070Y-78366526D01*
X104828070Y-78369182D01*
X104821904Y-78373437D01*
X104821898Y-78373441D01*
X104819727Y-78374940D01*
X104800185Y-78385962D01*
X104797783Y-78387043D01*
X104797780Y-78387044D01*
X104790943Y-78390122D01*
X104785043Y-78394743D01*
X104785035Y-78394749D01*
X104743597Y-78427213D01*
X104737568Y-78431649D01*
X104694248Y-78461551D01*
X104694236Y-78461560D01*
X104688071Y-78465817D01*
X104683102Y-78471425D01*
X104683096Y-78471431D01*
X104648184Y-78510838D01*
X104643051Y-78516290D01*
X103662290Y-79497051D01*
X103656838Y-79502184D01*
X103617431Y-79537096D01*
X103617425Y-79537102D01*
X103611817Y-79542071D01*
X103607560Y-79548236D01*
X103607551Y-79548248D01*
X103577649Y-79591568D01*
X103573213Y-79597597D01*
X103540749Y-79639035D01*
X103540743Y-79639043D01*
X103536122Y-79644943D01*
X103533044Y-79651780D01*
X103533043Y-79651783D01*
X103531962Y-79654185D01*
X103520940Y-79673727D01*
X103519441Y-79675898D01*
X103519437Y-79675904D01*
X103515182Y-79682070D01*
X103512526Y-79689070D01*
X103512522Y-79689080D01*
X103493853Y-79738305D01*
X103490989Y-79745219D01*
X103469382Y-79793229D01*
X103469379Y-79793235D01*
X103466305Y-79800068D01*
X103464953Y-79807439D01*
X103464951Y-79807449D01*
X103464474Y-79810053D01*
X103458456Y-79831643D01*
X103457519Y-79834114D01*
X103457517Y-79834119D01*
X103454860Y-79841128D01*
X103453956Y-79848565D01*
X103453956Y-79848569D01*
X103447610Y-79900827D01*
X103446483Y-79908226D01*
X103436994Y-79960010D01*
X103436993Y-79960018D01*
X103435642Y-79967394D01*
X103436094Y-79974873D01*
X103436094Y-79974881D01*
X103439274Y-80027433D01*
X103439500Y-80034921D01*
X103439500Y-82715897D01*
X103428576Y-82766787D01*
X103397728Y-82808711D01*
X103363435Y-82839092D01*
X103363427Y-82839100D01*
X103357817Y-82844071D01*
X103353560Y-82850236D01*
X103353551Y-82850248D01*
X103323649Y-82893568D01*
X103319213Y-82899597D01*
X103286749Y-82941035D01*
X103286743Y-82941043D01*
X103282122Y-82946943D01*
X103279044Y-82953780D01*
X103279043Y-82953783D01*
X103277962Y-82956185D01*
X103266940Y-82975727D01*
X103265441Y-82977898D01*
X103265437Y-82977904D01*
X103261182Y-82984070D01*
X103258526Y-82991070D01*
X103258522Y-82991080D01*
X103239853Y-83040305D01*
X103236989Y-83047219D01*
X103215382Y-83095229D01*
X103215379Y-83095235D01*
X103212305Y-83102068D01*
X103210953Y-83109439D01*
X103210951Y-83109449D01*
X103210474Y-83112053D01*
X103204456Y-83133643D01*
X103203519Y-83136114D01*
X103203517Y-83136119D01*
X103200860Y-83143128D01*
X103199956Y-83150565D01*
X103199956Y-83150569D01*
X103193610Y-83202827D01*
X103192483Y-83210226D01*
X103182994Y-83262010D01*
X103182993Y-83262018D01*
X103181642Y-83269394D01*
X103182094Y-83276873D01*
X103182094Y-83276881D01*
X103185274Y-83329433D01*
X103185500Y-83336921D01*
X103185500Y-90653079D01*
X103185274Y-90660567D01*
X103182094Y-90713118D01*
X103182094Y-90713126D01*
X103181642Y-90720606D01*
X102462489Y-90720606D01*
X102583539Y-52832000D01*
X107044540Y-52832000D01*
X107045219Y-52838460D01*
X107063646Y-53013795D01*
X107063647Y-53013803D01*
X107064326Y-53020256D01*
X107066331Y-53026428D01*
X107066333Y-53026435D01*
X107120813Y-53194105D01*
X107122821Y-53200284D01*
X107126068Y-53205908D01*
X107126069Y-53205910D01*
X107165528Y-53274256D01*
X107217467Y-53364216D01*
X107221811Y-53369041D01*
X107221813Y-53369043D01*
X107339779Y-53500057D01*
X107344129Y-53504888D01*
X107497270Y-53616151D01*
X107670197Y-53693144D01*
X107825127Y-53726075D01*
X107858514Y-53738392D01*
X107887027Y-53759684D01*
X112517059Y-58389716D01*
X112522193Y-58395170D01*
X112562071Y-58440183D01*
X112611577Y-58474355D01*
X112617597Y-58478785D01*
X112664943Y-58515878D01*
X112671779Y-58518954D01*
X112671785Y-58518958D01*
X112674179Y-58520035D01*
X112693733Y-58531063D01*
X112702070Y-58536818D01*
X112758296Y-58558141D01*
X112765217Y-58561007D01*
X112820069Y-58585695D01*
X112830041Y-58587522D01*
X112851656Y-58593547D01*
X112861128Y-58597140D01*
X112918831Y-58604146D01*
X112920815Y-58604387D01*
X112928222Y-58605514D01*
X112987394Y-58616358D01*
X113047433Y-58612725D01*
X113054921Y-58612500D01*
X136297845Y-58612500D01*
X136336163Y-58618569D01*
X136370726Y-58636179D01*
X136453270Y-58696151D01*
X136626197Y-58773144D01*
X136811354Y-58812500D01*
X136994143Y-58812500D01*
X137000646Y-58812500D01*
X137185803Y-58773144D01*
X137358730Y-58696151D01*
X137511871Y-58584888D01*
X137638533Y-58444216D01*
X137733179Y-58280284D01*
X137791674Y-58100256D01*
X137811460Y-57912000D01*
X137791674Y-57723744D01*
X137733179Y-57543716D01*
X137638533Y-57379784D01*
X137511871Y-57239112D01*
X137506613Y-57235292D01*
X137506611Y-57235290D01*
X137363988Y-57131669D01*
X137363987Y-57131668D01*
X137358730Y-57127849D01*
X137341622Y-57120232D01*
X137232796Y-57071779D01*
X137181409Y-57029268D01*
X137159477Y-56966286D01*
X137173343Y-56901051D01*
X137218997Y-56852435D01*
X137283232Y-56834500D01*
X137821845Y-56834500D01*
X137860163Y-56840569D01*
X137894726Y-56858179D01*
X137977270Y-56918151D01*
X138150197Y-56995144D01*
X138335354Y-57034500D01*
X138518143Y-57034500D01*
X138524646Y-57034500D01*
X138709803Y-56995144D01*
X138882730Y-56918151D01*
X139035871Y-56806888D01*
X139162533Y-56666216D01*
X139257179Y-56502284D01*
X139315674Y-56322256D01*
X139335460Y-56134000D01*
X139315674Y-55945744D01*
X139257179Y-55765716D01*
X139162676Y-55602032D01*
X139146091Y-55542631D01*
X139160175Y-55482585D01*
X139201444Y-55436751D01*
X139259689Y-55416469D01*
X139320498Y-55426754D01*
X139420197Y-55471144D01*
X139605354Y-55510500D01*
X139788143Y-55510500D01*
X139794646Y-55510500D01*
X139979803Y-55471144D01*
X140152730Y-55394151D01*
X140305871Y-55282888D01*
X140432533Y-55142216D01*
X140527179Y-54978284D01*
X140585674Y-54798256D01*
X140605460Y-54610000D01*
X140585674Y-54421744D01*
X140527179Y-54241716D01*
X140432533Y-54077784D01*
X140356618Y-53993472D01*
X140329336Y-53943846D01*
X140326964Y-53887265D01*
X140349998Y-53835530D01*
X140393633Y-53799432D01*
X140448768Y-53786500D01*
X140615845Y-53786500D01*
X140654163Y-53792569D01*
X140688726Y-53810179D01*
X140771270Y-53870151D01*
X140944197Y-53947144D01*
X141129354Y-53986500D01*
X141312143Y-53986500D01*
X141318646Y-53986500D01*
X141503803Y-53947144D01*
X141676730Y-53870151D01*
X141829871Y-53758888D01*
X141956533Y-53618216D01*
X142051179Y-53454284D01*
X142109674Y-53274256D01*
X142129460Y-53086000D01*
X142109674Y-52897744D01*
X142051179Y-52717716D01*
X141956533Y-52553784D01*
X141880618Y-52469472D01*
X141853336Y-52419846D01*
X141850964Y-52363265D01*
X141873998Y-52311530D01*
X141917633Y-52275432D01*
X141972768Y-52262500D01*
X153569845Y-52262500D01*
X153608163Y-52268569D01*
X153642726Y-52286179D01*
X153725270Y-52346151D01*
X153898197Y-52423144D01*
X154083354Y-52462500D01*
X154266143Y-52462500D01*
X154272646Y-52462500D01*
X154457803Y-52423144D01*
X154630730Y-52346151D01*
X154783871Y-52234888D01*
X154910533Y-52094216D01*
X155005179Y-51930284D01*
X155063674Y-51750256D01*
X155083460Y-51562000D01*
X155063674Y-51373744D01*
X155005179Y-51193716D01*
X154910533Y-51029784D01*
X154783871Y-50889112D01*
X154778613Y-50885292D01*
X154778611Y-50885290D01*
X154635988Y-50781669D01*
X154635987Y-50781668D01*
X154630730Y-50777849D01*
X154624792Y-50775205D01*
X154463745Y-50703501D01*
X154463740Y-50703499D01*
X154457803Y-50700856D01*
X154451444Y-50699504D01*
X154451440Y-50699503D01*
X154279008Y-50662852D01*
X154279005Y-50662851D01*
X154272646Y-50661500D01*
X154083354Y-50661500D01*
X154076995Y-50662851D01*
X154076991Y-50662852D01*
X153904559Y-50699503D01*
X153904552Y-50699505D01*
X153898197Y-50700856D01*
X153892262Y-50703498D01*
X153892254Y-50703501D01*
X153731207Y-50775205D01*
X153731202Y-50775207D01*
X153725270Y-50777849D01*
X153642726Y-50837820D01*
X153608163Y-50855431D01*
X153569845Y-50861500D01*
X127354155Y-50861500D01*
X127315837Y-50855431D01*
X127281273Y-50837820D01*
X127198730Y-50777849D01*
X127192792Y-50775205D01*
X127031745Y-50703501D01*
X127031740Y-50703499D01*
X127025803Y-50700856D01*
X127019444Y-50699504D01*
X127019440Y-50699503D01*
X126847008Y-50662852D01*
X126847005Y-50662851D01*
X126840646Y-50661500D01*
X126651354Y-50661500D01*
X126644995Y-50662851D01*
X126644991Y-50662852D01*
X126472559Y-50699503D01*
X126472552Y-50699505D01*
X126466197Y-50700856D01*
X126460262Y-50703498D01*
X126460254Y-50703501D01*
X126299207Y-50775205D01*
X126299202Y-50775207D01*
X126293270Y-50777849D01*
X126288016Y-50781665D01*
X126288011Y-50781669D01*
X126145388Y-50885290D01*
X126145381Y-50885295D01*
X126140129Y-50889112D01*
X126135784Y-50893937D01*
X126135779Y-50893942D01*
X126017813Y-51024956D01*
X126017808Y-51024962D01*
X126013467Y-51029784D01*
X126010222Y-51035404D01*
X126010218Y-51035410D01*
X125922069Y-51188089D01*
X125922066Y-51188094D01*
X125918821Y-51193716D01*
X125916815Y-51199888D01*
X125916813Y-51199894D01*
X125862333Y-51367564D01*
X125862331Y-51367573D01*
X125860326Y-51373744D01*
X125859648Y-51380194D01*
X125859646Y-51380204D01*
X125841962Y-51548464D01*
X125840540Y-51562000D01*
X125841219Y-51568460D01*
X125859646Y-51743795D01*
X125859647Y-51743803D01*
X125860326Y-51750256D01*
X125862331Y-51756428D01*
X125862333Y-51756435D01*
X125916813Y-51924105D01*
X125918821Y-51930284D01*
X125922068Y-51935908D01*
X125922069Y-51935910D01*
X125988902Y-52051669D01*
X126013467Y-52094216D01*
X126017811Y-52099041D01*
X126017813Y-52099043D01*
X126089382Y-52178528D01*
X126116664Y-52228154D01*
X126119036Y-52284735D01*
X126096002Y-52336470D01*
X126052367Y-52372568D01*
X125997232Y-52385500D01*
X117956155Y-52385500D01*
X117917837Y-52379431D01*
X117883273Y-52361820D01*
X117800730Y-52301849D01*
X117794792Y-52299205D01*
X117633745Y-52227501D01*
X117633740Y-52227499D01*
X117627803Y-52224856D01*
X117621444Y-52223504D01*
X117621440Y-52223503D01*
X117449008Y-52186852D01*
X117449005Y-52186851D01*
X117442646Y-52185500D01*
X117253354Y-52185500D01*
X117246995Y-52186851D01*
X117246991Y-52186852D01*
X117074559Y-52223503D01*
X117074552Y-52223505D01*
X117068197Y-52224856D01*
X117062262Y-52227498D01*
X117062254Y-52227501D01*
X116901207Y-52299205D01*
X116901202Y-52299207D01*
X116895270Y-52301849D01*
X116890016Y-52305665D01*
X116890011Y-52305669D01*
X116747388Y-52409290D01*
X116747381Y-52409295D01*
X116742129Y-52413112D01*
X116737784Y-52417937D01*
X116737779Y-52417942D01*
X116619813Y-52548956D01*
X116619808Y-52548962D01*
X116615467Y-52553784D01*
X116612222Y-52559404D01*
X116612218Y-52559410D01*
X116524069Y-52712089D01*
X116524066Y-52712094D01*
X116520821Y-52717716D01*
X116518815Y-52723888D01*
X116518813Y-52723894D01*
X116464333Y-52891564D01*
X116464331Y-52891573D01*
X116462326Y-52897744D01*
X116461648Y-52904194D01*
X116461646Y-52904204D01*
X116448800Y-53026435D01*
X116442540Y-53086000D01*
X116443219Y-53092460D01*
X116461646Y-53267795D01*
X116461647Y-53267803D01*
X116462326Y-53274256D01*
X116464331Y-53280428D01*
X116464333Y-53280435D01*
X116493124Y-53369043D01*
X116520821Y-53454284D01*
X116524068Y-53459908D01*
X116524069Y-53459910D01*
X116612068Y-53612330D01*
X116615467Y-53618216D01*
X116619811Y-53623041D01*
X116619813Y-53623043D01*
X116691382Y-53702528D01*
X116718664Y-53752154D01*
X116721036Y-53808735D01*
X116698002Y-53860470D01*
X116654367Y-53896568D01*
X116599232Y-53909500D01*
X116165519Y-53909500D01*
X116118066Y-53900061D01*
X116077838Y-53873181D01*
X114972504Y-52767847D01*
X114948264Y-52733549D01*
X114936864Y-52693127D01*
X114931674Y-52643744D01*
X114873179Y-52463716D01*
X114778533Y-52299784D01*
X114651871Y-52159112D01*
X114646613Y-52155292D01*
X114646611Y-52155290D01*
X114503988Y-52051669D01*
X114503987Y-52051668D01*
X114498730Y-52047849D01*
X114492792Y-52045205D01*
X114331745Y-51973501D01*
X114331740Y-51973499D01*
X114325803Y-51970856D01*
X114319444Y-51969504D01*
X114319440Y-51969503D01*
X114147008Y-51932852D01*
X114147005Y-51932851D01*
X114140646Y-51931500D01*
X113951354Y-51931500D01*
X113944995Y-51932851D01*
X113944991Y-51932852D01*
X113772559Y-51969503D01*
X113772552Y-51969505D01*
X113766197Y-51970856D01*
X113760262Y-51973498D01*
X113760254Y-51973501D01*
X113599207Y-52045205D01*
X113599202Y-52045207D01*
X113593270Y-52047849D01*
X113588016Y-52051665D01*
X113588011Y-52051669D01*
X113445388Y-52155290D01*
X113445381Y-52155295D01*
X113440129Y-52159112D01*
X113435784Y-52163937D01*
X113435779Y-52163942D01*
X113317813Y-52294956D01*
X113317808Y-52294962D01*
X113313467Y-52299784D01*
X113310222Y-52305404D01*
X113310218Y-52305410D01*
X113222069Y-52458089D01*
X113222066Y-52458094D01*
X113218821Y-52463716D01*
X113216815Y-52469888D01*
X113216813Y-52469894D01*
X113162333Y-52637564D01*
X113162331Y-52637573D01*
X113160326Y-52643744D01*
X113159648Y-52650194D01*
X113159646Y-52650204D01*
X113141962Y-52818464D01*
X113140540Y-52832000D01*
X113141219Y-52838460D01*
X113159646Y-53013795D01*
X113159647Y-53013803D01*
X113160326Y-53020256D01*
X113162331Y-53026428D01*
X113162333Y-53026435D01*
X113216813Y-53194105D01*
X113218821Y-53200284D01*
X113222068Y-53205908D01*
X113222069Y-53205910D01*
X113261528Y-53274256D01*
X113313467Y-53364216D01*
X113317811Y-53369041D01*
X113317813Y-53369043D01*
X113435779Y-53500057D01*
X113440129Y-53504888D01*
X113593270Y-53616151D01*
X113766197Y-53693144D01*
X113921127Y-53726075D01*
X113954514Y-53738392D01*
X113983027Y-53759684D01*
X115311059Y-55087716D01*
X115316193Y-55093170D01*
X115351093Y-55132565D01*
X115351097Y-55132568D01*
X115356071Y-55138183D01*
X115362247Y-55142446D01*
X115405574Y-55172353D01*
X115411605Y-55176791D01*
X115456405Y-55211889D01*
X115493615Y-55259978D01*
X115503490Y-55319975D01*
X115483656Y-55377453D01*
X115438881Y-55418592D01*
X115379933Y-55433500D01*
X114641519Y-55433500D01*
X114594066Y-55424061D01*
X114553838Y-55397181D01*
X111924504Y-52767847D01*
X111900264Y-52733549D01*
X111888864Y-52693127D01*
X111883674Y-52643744D01*
X111825179Y-52463716D01*
X111730533Y-52299784D01*
X111603871Y-52159112D01*
X111598613Y-52155292D01*
X111598611Y-52155290D01*
X111455988Y-52051669D01*
X111455987Y-52051668D01*
X111450730Y-52047849D01*
X111444792Y-52045205D01*
X111283745Y-51973501D01*
X111283740Y-51973499D01*
X111277803Y-51970856D01*
X111271444Y-51969504D01*
X111271440Y-51969503D01*
X111099008Y-51932852D01*
X111099005Y-51932851D01*
X111092646Y-51931500D01*
X110903354Y-51931500D01*
X110896995Y-51932851D01*
X110896991Y-51932852D01*
X110724559Y-51969503D01*
X110724552Y-51969505D01*
X110718197Y-51970856D01*
X110712262Y-51973498D01*
X110712254Y-51973501D01*
X110551207Y-52045205D01*
X110551202Y-52045207D01*
X110545270Y-52047849D01*
X110540016Y-52051665D01*
X110540011Y-52051669D01*
X110397388Y-52155290D01*
X110397381Y-52155295D01*
X110392129Y-52159112D01*
X110387784Y-52163937D01*
X110387779Y-52163942D01*
X110269813Y-52294956D01*
X110269808Y-52294962D01*
X110265467Y-52299784D01*
X110262222Y-52305404D01*
X110262218Y-52305410D01*
X110174069Y-52458089D01*
X110174066Y-52458094D01*
X110170821Y-52463716D01*
X110168815Y-52469888D01*
X110168813Y-52469894D01*
X110114333Y-52637564D01*
X110114331Y-52637573D01*
X110112326Y-52643744D01*
X110111648Y-52650194D01*
X110111646Y-52650204D01*
X110093962Y-52818464D01*
X110092540Y-52832000D01*
X110093219Y-52838460D01*
X110111646Y-53013795D01*
X110111647Y-53013803D01*
X110112326Y-53020256D01*
X110114331Y-53026428D01*
X110114333Y-53026435D01*
X110168813Y-53194105D01*
X110170821Y-53200284D01*
X110174068Y-53205908D01*
X110174069Y-53205910D01*
X110213528Y-53274256D01*
X110265467Y-53364216D01*
X110269811Y-53369041D01*
X110269813Y-53369043D01*
X110387779Y-53500057D01*
X110392129Y-53504888D01*
X110545270Y-53616151D01*
X110718197Y-53693144D01*
X110873127Y-53726075D01*
X110906514Y-53738392D01*
X110935027Y-53759684D01*
X113787059Y-56611716D01*
X113792193Y-56617170D01*
X113832071Y-56662183D01*
X113881577Y-56696355D01*
X113887597Y-56700785D01*
X113919665Y-56725909D01*
X113934943Y-56737878D01*
X113941783Y-56740956D01*
X113941784Y-56740957D01*
X113944181Y-56742036D01*
X113963730Y-56753061D01*
X113972070Y-56758818D01*
X114028301Y-56780143D01*
X114035223Y-56783010D01*
X114090068Y-56807694D01*
X114100035Y-56809520D01*
X114121653Y-56815547D01*
X114124113Y-56816480D01*
X114124116Y-56816480D01*
X114131128Y-56819140D01*
X114188602Y-56826118D01*
X114190830Y-56826389D01*
X114198235Y-56827516D01*
X114214066Y-56830416D01*
X114257394Y-56838357D01*
X114311010Y-56835113D01*
X114317423Y-56834726D01*
X114324910Y-56834500D01*
X136528768Y-56834500D01*
X136593003Y-56852435D01*
X136638657Y-56901051D01*
X136652523Y-56966286D01*
X136630591Y-57029268D01*
X136579204Y-57071779D01*
X136459207Y-57125205D01*
X136459202Y-57125207D01*
X136453270Y-57127849D01*
X136370726Y-57187820D01*
X136336163Y-57205431D01*
X136297845Y-57211500D01*
X113371519Y-57211500D01*
X113324066Y-57202061D01*
X113283838Y-57175181D01*
X108876504Y-52767847D01*
X108852264Y-52733549D01*
X108840864Y-52693127D01*
X108835674Y-52643744D01*
X108777179Y-52463716D01*
X108682533Y-52299784D01*
X108555871Y-52159112D01*
X108550613Y-52155292D01*
X108550611Y-52155290D01*
X108407988Y-52051669D01*
X108407987Y-52051668D01*
X108402730Y-52047849D01*
X108396792Y-52045205D01*
X108235745Y-51973501D01*
X108235740Y-51973499D01*
X108229803Y-51970856D01*
X108223444Y-51969504D01*
X108223440Y-51969503D01*
X108051008Y-51932852D01*
X108051005Y-51932851D01*
X108044646Y-51931500D01*
X107855354Y-51931500D01*
X107848995Y-51932851D01*
X107848991Y-51932852D01*
X107676559Y-51969503D01*
X107676552Y-51969505D01*
X107670197Y-51970856D01*
X107664262Y-51973498D01*
X107664254Y-51973501D01*
X107503207Y-52045205D01*
X107503202Y-52045207D01*
X107497270Y-52047849D01*
X107492016Y-52051665D01*
X107492011Y-52051669D01*
X107349388Y-52155290D01*
X107349381Y-52155295D01*
X107344129Y-52159112D01*
X107339784Y-52163937D01*
X107339779Y-52163942D01*
X107221813Y-52294956D01*
X107221808Y-52294962D01*
X107217467Y-52299784D01*
X107214222Y-52305404D01*
X107214218Y-52305410D01*
X107126069Y-52458089D01*
X107126066Y-52458094D01*
X107122821Y-52463716D01*
X107120815Y-52469888D01*
X107120813Y-52469894D01*
X107066333Y-52637564D01*
X107066331Y-52637573D01*
X107064326Y-52643744D01*
X107063648Y-52650194D01*
X107063646Y-52650204D01*
X107045962Y-52818464D01*
X107044540Y-52832000D01*
X102583539Y-52832000D01*
X102609187Y-44804099D01*
X102625931Y-44742270D01*
X102671300Y-44697046D01*
X102733182Y-44680499D01*
X104552872Y-44680499D01*
X104612483Y-44674091D01*
X104747331Y-44623796D01*
X104862546Y-44537546D01*
X104948796Y-44422331D01*
X104976318Y-44348539D01*
X105009967Y-44299330D01*
X105062692Y-44271509D01*
X105122308Y-44271509D01*
X105175033Y-44299330D01*
X105208682Y-44348540D01*
X105233013Y-44413777D01*
X105236204Y-44422331D01*
X105322454Y-44537546D01*
X105437669Y-44623796D01*
X105572517Y-44674091D01*
X105632127Y-44680500D01*
X107727872Y-44680499D01*
X107787483Y-44674091D01*
X107922331Y-44623796D01*
X108037546Y-44537546D01*
X108123796Y-44422331D01*
X108151318Y-44348539D01*
X108184967Y-44299330D01*
X108237692Y-44271509D01*
X108297308Y-44271509D01*
X108350033Y-44299330D01*
X108383682Y-44348540D01*
X108408013Y-44413777D01*
X108411204Y-44422331D01*
X108497454Y-44537546D01*
X108612669Y-44623796D01*
X108747517Y-44674091D01*
X108807127Y-44680500D01*
X110902872Y-44680499D01*
X110962483Y-44674091D01*
X111097331Y-44623796D01*
X111212546Y-44537546D01*
X111298796Y-44422331D01*
X111326318Y-44348539D01*
X111359967Y-44299330D01*
X111412692Y-44271509D01*
X111472308Y-44271509D01*
X111525033Y-44299330D01*
X111558682Y-44348540D01*
X111583013Y-44413777D01*
X111586204Y-44422331D01*
X111672454Y-44537546D01*
X111787669Y-44623796D01*
X111922517Y-44674091D01*
X111982127Y-44680500D01*
X114077872Y-44680499D01*
X114137483Y-44674091D01*
X114272331Y-44623796D01*
X114387546Y-44537546D01*
X114473796Y-44422331D01*
X114501318Y-44348539D01*
X114534967Y-44299330D01*
X114587692Y-44271509D01*
X114647308Y-44271509D01*
X114700033Y-44299330D01*
X114733682Y-44348540D01*
X114758013Y-44413777D01*
X114761204Y-44422331D01*
X114847454Y-44537546D01*
X114962669Y-44623796D01*
X115097517Y-44674091D01*
X115157127Y-44680500D01*
X117252872Y-44680499D01*
X117312483Y-44674091D01*
X117447331Y-44623796D01*
X117562546Y-44537546D01*
X117648796Y-44422331D01*
X117676318Y-44348539D01*
X117709967Y-44299330D01*
X117762692Y-44271509D01*
X117822308Y-44271509D01*
X117875033Y-44299330D01*
X117908682Y-44348540D01*
X117933013Y-44413777D01*
X117936204Y-44422331D01*
X118022454Y-44537546D01*
X118137669Y-44623796D01*
X118272517Y-44674091D01*
X118332127Y-44680500D01*
X120427872Y-44680499D01*
X120487483Y-44674091D01*
X120622331Y-44623796D01*
X120737546Y-44537546D01*
X120823796Y-44422331D01*
X120851318Y-44348539D01*
X120884967Y-44299330D01*
X120937692Y-44271509D01*
X120997308Y-44271509D01*
X121050033Y-44299330D01*
X121083682Y-44348540D01*
X121108013Y-44413777D01*
X121111204Y-44422331D01*
X121197454Y-44537546D01*
X121312669Y-44623796D01*
X121447517Y-44674091D01*
X121507127Y-44680500D01*
X123602872Y-44680499D01*
X123662483Y-44674091D01*
X123797331Y-44623796D01*
X123912546Y-44537546D01*
X123998796Y-44422331D01*
X124026318Y-44348539D01*
X124059967Y-44299330D01*
X124112692Y-44271509D01*
X124172308Y-44271509D01*
X124225033Y-44299330D01*
X124258682Y-44348540D01*
X124283013Y-44413777D01*
X124286204Y-44422331D01*
X124372454Y-44537546D01*
X124487669Y-44623796D01*
X124622517Y-44674091D01*
X124682127Y-44680500D01*
X126777872Y-44680499D01*
X126837483Y-44674091D01*
X126972331Y-44623796D01*
X127087546Y-44537546D01*
X127173796Y-44422331D01*
X127201318Y-44348539D01*
X127234967Y-44299330D01*
X127287692Y-44271509D01*
X127347308Y-44271509D01*
X127400033Y-44299330D01*
X127433682Y-44348540D01*
X127458013Y-44413777D01*
X127461204Y-44422331D01*
X127547454Y-44537546D01*
X127662669Y-44623796D01*
X127797517Y-44674091D01*
X127857127Y-44680500D01*
X129952872Y-44680499D01*
X130012483Y-44674091D01*
X130147331Y-44623796D01*
X130262546Y-44537546D01*
X130348796Y-44422331D01*
X130376318Y-44348539D01*
X130409967Y-44299330D01*
X130462692Y-44271509D01*
X130522308Y-44271509D01*
X130575033Y-44299330D01*
X130608682Y-44348540D01*
X130633013Y-44413777D01*
X130636204Y-44422331D01*
X130722454Y-44537546D01*
X130837669Y-44623796D01*
X130972517Y-44674091D01*
X131032127Y-44680500D01*
X133127872Y-44680499D01*
X133187483Y-44674091D01*
X133322331Y-44623796D01*
X133437546Y-44537546D01*
X133523796Y-44422331D01*
X133551318Y-44348539D01*
X133584967Y-44299330D01*
X133637692Y-44271509D01*
X133697308Y-44271509D01*
X133750033Y-44299330D01*
X133783682Y-44348540D01*
X133808013Y-44413777D01*
X133811204Y-44422331D01*
X133897454Y-44537546D01*
X134012669Y-44623796D01*
X134147517Y-44674091D01*
X134207127Y-44680500D01*
X136302872Y-44680499D01*
X136362483Y-44674091D01*
X136497331Y-44623796D01*
X136612546Y-44537546D01*
X136698796Y-44422331D01*
X136726318Y-44348539D01*
X136759967Y-44299330D01*
X136812692Y-44271509D01*
X136872308Y-44271509D01*
X136925033Y-44299330D01*
X136958682Y-44348540D01*
X136983013Y-44413777D01*
X136986204Y-44422331D01*
X137072454Y-44537546D01*
X137187669Y-44623796D01*
X137322517Y-44674091D01*
X137382127Y-44680500D01*
X139477872Y-44680499D01*
X139537483Y-44674091D01*
X139672331Y-44623796D01*
X139787546Y-44537546D01*
X139873796Y-44422331D01*
X139901318Y-44348539D01*
X139934967Y-44299330D01*
X139987692Y-44271509D01*
X140047308Y-44271509D01*
X140100033Y-44299330D01*
X140133682Y-44348540D01*
X140158013Y-44413777D01*
X140161204Y-44422331D01*
X140247454Y-44537546D01*
X140362669Y-44623796D01*
X140497517Y-44674091D01*
X140557127Y-44680500D01*
X142652872Y-44680499D01*
X142712483Y-44674091D01*
X142847331Y-44623796D01*
X142962546Y-44537546D01*
X143048796Y-44422331D01*
X143076318Y-44348539D01*
X143109967Y-44299330D01*
X143162692Y-44271509D01*
X143222308Y-44271509D01*
X143275033Y-44299330D01*
X143308682Y-44348540D01*
X143333013Y-44413777D01*
X143336204Y-44422331D01*
X143422454Y-44537546D01*
X143537669Y-44623796D01*
X143672517Y-44674091D01*
X143732127Y-44680500D01*
X145827872Y-44680499D01*
X145887483Y-44674091D01*
X146022331Y-44623796D01*
X146137546Y-44537546D01*
X146223796Y-44422331D01*
X146251318Y-44348539D01*
X146284967Y-44299330D01*
X146337692Y-44271509D01*
X146397308Y-44271509D01*
X146450033Y-44299330D01*
X146483682Y-44348540D01*
X146508013Y-44413777D01*
X146511204Y-44422331D01*
X146597454Y-44537546D01*
X146712669Y-44623796D01*
X146847517Y-44674091D01*
X146907127Y-44680500D01*
X149002872Y-44680499D01*
X149062483Y-44674091D01*
X149197331Y-44623796D01*
X149312546Y-44537546D01*
X149398796Y-44422331D01*
X149426318Y-44348539D01*
X149459967Y-44299330D01*
X149512692Y-44271509D01*
X149572308Y-44271509D01*
X149625033Y-44299330D01*
X149658682Y-44348540D01*
X149683013Y-44413777D01*
X149686204Y-44422331D01*
X149772454Y-44537546D01*
X149887669Y-44623796D01*
X150022517Y-44674091D01*
X150082127Y-44680500D01*
X152177872Y-44680499D01*
X152237483Y-44674091D01*
X152372331Y-44623796D01*
X152487546Y-44537546D01*
X152573796Y-44422331D01*
X152601318Y-44348539D01*
X152634967Y-44299330D01*
X152687692Y-44271509D01*
X152747308Y-44271509D01*
X152800033Y-44299330D01*
X152833682Y-44348540D01*
X152858013Y-44413777D01*
X152861204Y-44422331D01*
X152947454Y-44537546D01*
X153062669Y-44623796D01*
X153197517Y-44674091D01*
X153257127Y-44680500D01*
X155352872Y-44680499D01*
X155412483Y-44674091D01*
X155547331Y-44623796D01*
X155662546Y-44537546D01*
X155748796Y-44422331D01*
X155776318Y-44348539D01*
X155809967Y-44299330D01*
X155862692Y-44271509D01*
X155922308Y-44271509D01*
X155975033Y-44299330D01*
X156008682Y-44348540D01*
X156033013Y-44413777D01*
X156036204Y-44422331D01*
X156122454Y-44537546D01*
X156237669Y-44623796D01*
X156372517Y-44674091D01*
X156432127Y-44680500D01*
X158527872Y-44680499D01*
X158587483Y-44674091D01*
X158722331Y-44623796D01*
X158837546Y-44537546D01*
X158923796Y-44422331D01*
X158951318Y-44348539D01*
X158984967Y-44299330D01*
X159037692Y-44271509D01*
X159097308Y-44271509D01*
X159150033Y-44299330D01*
X159183682Y-44348540D01*
X159208013Y-44413777D01*
X159211204Y-44422331D01*
X159297454Y-44537546D01*
X159412669Y-44623796D01*
X159547517Y-44674091D01*
X159607127Y-44680500D01*
X161702872Y-44680499D01*
X161762483Y-44674091D01*
X161897331Y-44623796D01*
X162012546Y-44537546D01*
X162098796Y-44422331D01*
X162126318Y-44348539D01*
X162159967Y-44299330D01*
X162212692Y-44271509D01*
X162272308Y-44271509D01*
X162325033Y-44299330D01*
X162358682Y-44348540D01*
X162383013Y-44413777D01*
X162386204Y-44422331D01*
X162472454Y-44537546D01*
X162587669Y-44623796D01*
X162722517Y-44674091D01*
X162782127Y-44680500D01*
X164877872Y-44680499D01*
X164937483Y-44674091D01*
X165072331Y-44623796D01*
X165187546Y-44537546D01*
X165273796Y-44422331D01*
X165301318Y-44348539D01*
X165334967Y-44299330D01*
X165387692Y-44271509D01*
X165447308Y-44271509D01*
X165500033Y-44299330D01*
X165533682Y-44348540D01*
X165558013Y-44413777D01*
X165561204Y-44422331D01*
X165647454Y-44537546D01*
X165762669Y-44623796D01*
X165897517Y-44674091D01*
X165957127Y-44680500D01*
X168052872Y-44680499D01*
X168112483Y-44674091D01*
X168247331Y-44623796D01*
X168362546Y-44537546D01*
X168448796Y-44422331D01*
X168476318Y-44348539D01*
X168509967Y-44299330D01*
X168562692Y-44271509D01*
X168622308Y-44271509D01*
X168675033Y-44299330D01*
X168708682Y-44348540D01*
X168733013Y-44413777D01*
X168736204Y-44422331D01*
X168822454Y-44537546D01*
X168937669Y-44623796D01*
X169072517Y-44674091D01*
X169132127Y-44680500D01*
X171227872Y-44680499D01*
X171287483Y-44674091D01*
X171422331Y-44623796D01*
X171537546Y-44537546D01*
X171623796Y-44422331D01*
X171651318Y-44348539D01*
X171684967Y-44299330D01*
X171737692Y-44271509D01*
X171797308Y-44271509D01*
X171850033Y-44299330D01*
X171883682Y-44348540D01*
X171908013Y-44413777D01*
X171911204Y-44422331D01*
X171997454Y-44537546D01*
X172112669Y-44623796D01*
X172247517Y-44674091D01*
X172307127Y-44680500D01*
X174402872Y-44680499D01*
X174462483Y-44674091D01*
X174597331Y-44623796D01*
X174712546Y-44537546D01*
X174798796Y-44422331D01*
X174826318Y-44348539D01*
X174859967Y-44299330D01*
X174912692Y-44271509D01*
X174972308Y-44271509D01*
X175025033Y-44299330D01*
X175058682Y-44348540D01*
X175083013Y-44413777D01*
X175086204Y-44422331D01*
X175172454Y-44537546D01*
X175287669Y-44623796D01*
X175422517Y-44674091D01*
X175482127Y-44680500D01*
X177577872Y-44680499D01*
X177637483Y-44674091D01*
X177772331Y-44623796D01*
X177887546Y-44537546D01*
X177973796Y-44422331D01*
X178001318Y-44348539D01*
X178034967Y-44299330D01*
X178087692Y-44271509D01*
X178147308Y-44271509D01*
X178200033Y-44299330D01*
X178233682Y-44348540D01*
X178258013Y-44413777D01*
X178261204Y-44422331D01*
X178347454Y-44537546D01*
X178462669Y-44623796D01*
X178597517Y-44674091D01*
X178657127Y-44680500D01*
X180752872Y-44680499D01*
X180812483Y-44674091D01*
X180947331Y-44623796D01*
X181062546Y-44537546D01*
X181148796Y-44422331D01*
X181176318Y-44348539D01*
X181209967Y-44299330D01*
X181262692Y-44271509D01*
X181322308Y-44271509D01*
X181375033Y-44299330D01*
X181408682Y-44348540D01*
X181433013Y-44413777D01*
X181436204Y-44422331D01*
X181522454Y-44537546D01*
X181637669Y-44623796D01*
X181772517Y-44674091D01*
X181832127Y-44680500D01*
X183927872Y-44680499D01*
X183987483Y-44674091D01*
X184122331Y-44623796D01*
X184237546Y-44537546D01*
X184323796Y-44422331D01*
X184374091Y-44287483D01*
X184380500Y-44227873D01*
X184380500Y-44224518D01*
X187730000Y-44224518D01*
X187730353Y-44231114D01*
X187735573Y-44279667D01*
X187739111Y-44294641D01*
X187783547Y-44413777D01*
X187791962Y-44429189D01*
X187867498Y-44530092D01*
X187879907Y-44542501D01*
X187980810Y-44618037D01*
X187996222Y-44626452D01*
X188115358Y-44670888D01*
X188130332Y-44674426D01*
X188178885Y-44679646D01*
X188185482Y-44680000D01*
X188963674Y-44680000D01*
X188976549Y-44676549D01*
X188980000Y-44663674D01*
X188980000Y-43446326D01*
X188976549Y-43433450D01*
X188963674Y-43430000D01*
X187746326Y-43430000D01*
X187733450Y-43433450D01*
X187730000Y-43446326D01*
X187730000Y-44224518D01*
X184380500Y-44224518D01*
X184380499Y-43239510D01*
X184397222Y-43177321D01*
X184442881Y-43131905D01*
X184505157Y-43115514D01*
X185765179Y-43122234D01*
G37*
%TD.AperFunction*%
%TD*%
D20*
X101346000Y-29718000D02*
X197612000Y-29718000D01*
X197612000Y-29718000D02*
X197612000Y-123190000D01*
X197612000Y-123190000D02*
X101346000Y-123190000D01*
X101346000Y-123190000D02*
X101346000Y-29718000D01*
M02*
